<svg width="23" height="23" viewBox="0 0 23 23" fill="none" xmlns="http://www.w3.org/2000/svg">
<path fill-rule="evenodd" clip-rule="evenodd" d="M6.96037 3.124C7.01712 2.59502 7.26744 2.10568 7.66318 1.7501C8.05892 1.39452 8.57214 1.19779 9.10417 1.19775H13.8958C14.4279 1.19779 14.9411 1.39452 15.3368 1.7501C15.7326 2.10568 15.9829 2.59502 16.0396 3.124C16.7718 3.13934 17.4033 3.17671 17.9438 3.27638C18.6702 3.41055 19.2884 3.66355 19.7915 4.16763C20.3684 4.74359 20.6157 5.47096 20.7326 6.33346C20.8438 7.16338 20.8438 8.22042 20.8438 9.53046V15.3859C20.8438 16.6959 20.8438 17.753 20.7326 18.5838C20.6157 19.4463 20.3684 20.1728 19.7915 20.7497C19.2146 21.3266 18.4882 21.5738 17.6257 21.6908C16.7948 21.8019 15.7378 21.8019 14.4277 21.8019H8.57229C7.26225 21.8019 6.20521 21.8019 5.37433 21.6908C4.51183 21.5738 3.78542 21.3266 3.2085 20.7497C2.63158 20.1728 2.38433 19.4463 2.26838 18.5838C2.15625 17.753 2.15625 16.6959 2.15625 15.3859V9.53046C2.15625 8.22042 2.15625 7.16338 2.26838 6.3325C2.38338 5.47 2.63254 4.74359 3.2085 4.16667C3.71162 3.66355 4.32975 3.40959 5.05617 3.27638C5.59667 3.17671 6.22917 3.13934 6.96037 3.124ZM6.96229 4.5615C6.27421 4.57684 5.74329 4.61134 5.31587 4.68992C4.77346 4.78959 4.45817 4.95059 4.22529 5.18346C3.95983 5.44892 3.78733 5.82075 3.69246 6.52513C3.59567 7.24771 3.59375 8.20796 3.59375 9.58317V15.3332C3.59375 16.7084 3.59567 17.6677 3.69246 18.3922C3.78733 19.0956 3.96079 19.4674 4.22529 19.7329C4.49075 19.9983 4.86258 20.1708 5.56696 20.2657C6.28954 20.3625 7.24979 20.3644 8.625 20.3644H14.375C15.7502 20.3644 16.7095 20.3625 17.434 20.2657C18.1374 20.1708 18.5092 19.9974 18.7747 19.7329C19.0402 19.4674 19.2127 19.0956 19.3075 18.3912C19.4043 17.6677 19.4062 16.7084 19.4062 15.3332V9.58317C19.4062 8.20796 19.4043 7.24771 19.3075 6.52417C19.2127 5.82075 19.0392 5.44892 18.7747 5.18346C18.5409 4.95059 18.2265 4.79055 17.6841 4.68992C17.2567 4.61134 16.7258 4.57684 16.0377 4.56246C15.9764 5.08749 15.7244 5.5717 15.3295 5.9231C14.9346 6.27451 14.4244 6.46863 13.8958 6.46859H9.10417C8.57543 6.4686 8.06511 6.27435 7.67022 5.92275C7.27533 5.57114 7.02339 5.0867 6.96229 4.5615ZM9.10417 2.63525C8.91354 2.63525 8.73073 2.71098 8.59593 2.84577C8.46114 2.98056 8.38542 3.16338 8.38542 3.354V4.31234C8.38542 4.70909 8.70742 5.03109 9.10417 5.03109H13.8958C14.0865 5.03109 14.2693 4.95536 14.4041 4.82057C14.5389 4.68578 14.6146 4.50296 14.6146 4.31234V3.354C14.6146 3.16338 14.5389 2.98056 14.4041 2.84577C14.2693 2.71098 14.0865 2.63525 13.8958 2.63525H9.10417ZM5.98958 10.0623C5.98958 9.87171 6.06531 9.6889 6.2001 9.5541C6.33489 9.41931 6.51771 9.34359 6.70833 9.34359H7.1875C7.37812 9.34359 7.56094 9.41931 7.69573 9.5541C7.83052 9.6889 7.90625 9.87171 7.90625 10.0623C7.90625 10.253 7.83052 10.4358 7.69573 10.5706C7.56094 10.7054 7.37812 10.7811 7.1875 10.7811H6.70833C6.51771 10.7811 6.33489 10.7054 6.2001 10.5706C6.06531 10.4358 5.98958 10.253 5.98958 10.0623ZM9.34375 10.0623C9.34375 9.87171 9.41948 9.6889 9.55427 9.5541C9.68906 9.41931 9.87188 9.34359 10.0625 9.34359H16.2917C16.4823 9.34359 16.6651 9.41931 16.7999 9.5541C16.9347 9.6889 17.0104 9.87171 17.0104 10.0623C17.0104 10.253 16.9347 10.4358 16.7999 10.5706C16.6651 10.7054 16.4823 10.7811 16.2917 10.7811H10.0625C9.87188 10.7811 9.68906 10.7054 9.55427 10.5706C9.41948 10.4358 9.34375 10.253 9.34375 10.0623ZM5.98958 13.4165C5.98958 13.2259 6.06531 13.0431 6.2001 12.9083C6.33489 12.7735 6.51771 12.6978 6.70833 12.6978H7.1875C7.37812 12.6978 7.56094 12.7735 7.69573 12.9083C7.83052 13.0431 7.90625 13.2259 7.90625 13.4165C7.90625 13.6071 7.83052 13.7899 7.69573 13.9247C7.56094 14.0595 7.37812 14.1353 7.1875 14.1353H6.70833C6.51771 14.1353 6.33489 14.0595 6.2001 13.9247C6.06531 13.7899 5.98958 13.6071 5.98958 13.4165ZM9.34375 13.4165C9.34375 13.2259 9.41948 13.0431 9.55427 12.9083C9.68906 12.7735 9.87188 12.6978 10.0625 12.6978H16.2917C16.4823 12.6978 16.6651 12.7735 16.7999 12.9083C16.9347 13.0431 17.0104 13.2259 17.0104 13.4165C17.0104 13.6071 16.9347 13.7899 16.7999 13.9247C16.6651 14.0595 16.4823 14.1353 16.2917 14.1353H10.0625C9.87188 14.1353 9.68906 14.0595 9.55427 13.9247C9.41948 13.7899 9.34375 13.6071 9.34375 13.4165ZM5.98958 16.7707C5.98958 16.58 6.06531 16.3972 6.2001 16.2624C6.33489 16.1276 6.51771 16.0519 6.70833 16.0519H7.1875C7.37812 16.0519 7.56094 16.1276 7.69573 16.2624C7.83052 16.3972 7.90625 16.58 7.90625 16.7707C7.90625 16.9613 7.83052 17.1441 7.69573 17.2789C7.56094 17.4137 7.37812 17.4894 7.1875 17.4894H6.70833C6.51771 17.4894 6.33489 17.4137 6.2001 17.2789C6.06531 17.1441 5.98958 16.9613 5.98958 16.7707ZM9.34375 16.7707C9.34375 16.58 9.41948 16.3972 9.55427 16.2624C9.68906 16.1276 9.87188 16.0519 10.0625 16.0519H16.2917C16.4823 16.0519 16.6651 16.1276 16.7999 16.2624C16.9347 16.3972 17.0104 16.58 17.0104 16.7707C17.0104 16.9613 16.9347 17.1441 16.7999 17.2789C16.6651 17.4137 16.4823 17.4894 16.2917 17.4894H10.0625C9.87188 17.4894 9.68906 17.4137 9.55427 17.2789C9.41948 17.1441 9.34375 16.9613 9.34375 16.7707Z" fill="black"/>
</svg>
