<svg width="23" height="23" viewBox="0 0 23 23" fill="none" xmlns="http://www.w3.org/2000/svg">
<path d="M1.91602 11.6958C1.91602 9.5022 1.91602 8.40587 2.41435 7.49737C2.91077 6.58791 3.82022 6.02441 5.63818 4.89549L7.55485 3.7062C9.47631 2.51308 10.4375 1.91699 11.4993 1.91699C12.5612 1.91699 13.5214 2.51308 15.4438 3.7062L17.3605 4.89549C19.1785 6.02441 20.0879 6.58791 20.5853 7.49737C21.0827 8.40683 21.0827 9.5022 21.0827 11.6949V13.1535C21.0827 16.891 21.0827 18.7607 19.9595 19.9222C18.8363 21.0837 17.0299 21.0837 13.416 21.0837H9.58268C5.96881 21.0837 4.16139 21.0837 3.03918 19.9222C1.91697 18.7607 1.91602 16.8919 1.91602 13.1535V11.6958Z" stroke="#022F2F" stroke-width="1.4375"/>
<path d="M1.91602 11.6958C1.91602 9.5022 1.91602 8.40587 2.41435 7.49737C2.91077 6.58791 3.82022 6.02441 5.63818 4.89549L7.55485 3.7062C9.47631 2.51308 10.4375 1.91699 11.4993 1.91699C12.5612 1.91699 13.5214 2.51308 15.4438 3.7062L17.3605 4.89549C19.1785 6.02441 20.0879 6.58791 20.5853 7.49737C21.0827 8.40683 21.0827 9.5022 21.0827 11.6949V13.1535C21.0827 16.891 21.0827 18.7607 19.9595 19.9222C18.8363 21.0837 17.0299 21.0837 13.416 21.0837H9.58268C5.96881 21.0837 4.16139 21.0837 3.03918 19.9222C1.91697 18.7607 1.91602 16.8919 1.91602 13.1535V11.6958Z" stroke="black" stroke-opacity="0.2" stroke-width="1.4375"/>
<path d="M8.625 15.334C9.43958 15.9377 10.4315 16.2923 11.5 16.2923C12.5685 16.2923 13.5604 15.9377 14.375 15.334" stroke="#022F2F" stroke-width="1.4375" stroke-linecap="round"/>
<path d="M8.625 15.334C9.43958 15.9377 10.4315 16.2923 11.5 16.2923C12.5685 16.2923 13.5604 15.9377 14.375 15.334" stroke="black" stroke-opacity="0.2" stroke-width="1.4375" stroke-linecap="round"/>
</svg>
