<svg width="23" height="23" viewBox="0 0 23 23" fill="none" xmlns="http://www.w3.org/2000/svg">
<path d="M3.35352 10.5419C2.97227 10.5419 2.60663 10.3904 2.33705 10.1209C2.06747 9.85128 1.91602 9.48564 1.91602 9.10439C1.91602 8.72314 2.06747 8.35751 2.33705 8.08793C2.60663 7.81834 2.97227 7.66689 3.35352 7.66689H4.07418C4.49983 6.02132 5.46007 4.56376 6.80405 3.52318C8.14804 2.48261 9.79962 1.91797 11.4993 1.91797C13.1991 1.91797 14.8507 2.48261 16.1946 3.52318C17.5386 4.56376 18.4989 6.02132 18.9245 7.66689H19.166C19.5473 7.66689 19.9129 7.81834 20.1825 8.08793C20.4521 8.35751 20.6035 8.72314 20.6035 9.10439C20.6035 9.48564 20.4521 9.85128 20.1825 10.1209C19.9129 10.3904 19.5473 10.5419 19.166 10.5419H19.1066C18.8727 12.3945 17.9709 14.098 16.5703 15.3329C15.1697 16.5678 13.3666 17.2492 11.4993 17.2492C9.63209 17.2492 7.829 16.5678 6.4284 15.3329C5.0278 14.098 4.12596 12.3945 3.8921 10.5419H3.35352Z" stroke="black" stroke-width="1.4375" stroke-linejoin="round"/>
<path d="M4.3125 7.66602H5.75C7.27499 7.66602 8.73753 7.06021 9.81586 5.98188C10.8942 4.90355 11.5 3.44101 11.5 1.91602C11.5 3.44101 12.1058 4.90355 13.1841 5.98188C14.2625 7.06021 15.725 7.66602 17.25 7.66602H18.6875" stroke="black" stroke-width="1.4375" stroke-linecap="round" stroke-linejoin="round"/>
<path d="M11.4993 14.3743C11.7535 14.3743 11.9973 14.2734 12.177 14.0937C12.3567 13.9139 12.4577 13.6702 12.4577 13.416H10.541C10.541 13.6702 10.642 13.9139 10.8217 14.0937C11.0014 14.2734 11.2452 14.3743 11.4993 14.3743Z" stroke="black" stroke-width="1.4375" stroke-linejoin="round"/>
<path d="M17.25 21.082C17.25 19.3647 16.4967 17.8237 15.3036 16.7695M5.75 21.082C5.75 19.3647 6.50325 17.8237 7.69638 16.7695" stroke="black" stroke-width="1.4375" stroke-linecap="round"/>
<path d="M8.625 9.58203V9.59161M14.375 9.58203V9.59161" stroke="black" stroke-width="1.91667" stroke-linecap="round"/>
</svg>
