<svg width="19" height="19" viewBox="0 0 19 19" fill="none" xmlns="http://www.w3.org/2000/svg">
<path d="M11.3188 9.05477H1.50917M1.50917 9.05477L4.15021 6.79102M1.50917 9.05477L4.15021 11.3185" stroke="#CF000B" stroke-width="1.13188" stroke-linecap="round" stroke-linejoin="round"/>
<path d="M6.79277 5.28268C6.80183 3.64146 6.87502 2.75256 7.45454 2.17304C8.11782 1.50977 9.1848 1.50977 11.3188 1.50977H12.0733C14.2081 1.50977 15.275 1.50977 15.9383 2.17304C16.6008 2.83557 16.6008 3.9033 16.6008 6.03727V12.0739C16.6008 14.2079 16.6008 15.2756 15.9383 15.9382C15.358 16.5184 14.4691 16.5909 12.8279 16.5999M6.79277 12.8285C6.80183 14.4697 6.87502 15.3586 7.45454 15.9382C7.93823 16.4226 8.63773 16.5531 9.80959 16.5886" stroke="#CF000B" stroke-width="1.13188" stroke-linecap="round"/>
</svg>
