<svg width="20" height="21" viewBox="0 0 20 21" fill="none" xmlns="http://www.w3.org/2000/svg">
<path d="M1.66669 8.83334V12.1667C1.66669 13.8333 2.50002 14.6667 4.16669 14.6667H5.35835C5.66669 14.6667 5.97502 14.7583 6.24169 14.9167L8.67502 16.4417C10.775 17.7583 12.5 16.8 12.5 14.325V6.675C12.5 4.19167 10.775 3.24167 8.67502 4.55834L6.24169 6.08334C5.97502 6.24167 5.66669 6.33334 5.35835 6.33334H4.16669C2.50002 6.33334 1.66669 7.16667 1.66669 8.83334Z" stroke="#638888" stroke-width="1.5"/>
<path d="M15 7.16667C16.4833 9.14167 16.4833 11.8583 15 13.8333" stroke="#638888" stroke-width="1.5" stroke-linecap="round" stroke-linejoin="round"/>
<path d="M16.525 5.08333C18.9334 8.29166 18.9334 12.7083 16.525 15.9167" stroke="#638888" stroke-width="1.5" stroke-linecap="round" stroke-linejoin="round"/>
</svg>
