<svg width="71" height="32" viewBox="0 0 71 37" fill="none" xmlns="http://www.w3.org/2000/svg">
<path d="M1.44 20.24C1.184 20.24 0.936 20.144 0.696 19.952C0.472 19.76 0.36 19.512 0.36 19.208C0.36 19.08 0.384 18.944 0.432 18.8L3.456 10.904C3.568 10.616 3.752 10.4 4.008 10.256C4.264 10.112 4.528 10.04 4.8 10.04C5.088 10.04 5.36 10.112 5.616 10.256C5.888 10.4 6.08 10.616 6.192 10.904L9.432 18.752C9.464 18.816 9.48 18.88 9.48 18.944C9.48 19.008 9.48 19.072 9.48 19.136C9.48 19.472 9.368 19.736 9.144 19.928C8.92 20.12 8.672 20.216 8.4 20.216C8.208 20.216 8.016 20.16 7.824 20.048C7.648 19.952 7.52 19.792 7.44 19.568L6.744 17.696C6.728 17.6 6.664 17.552 6.552 17.552H3.312C3.2 17.552 3.128 17.6 3.096 17.696L2.424 19.592C2.312 19.8 2.168 19.96 1.992 20.072C1.816 20.184 1.632 20.24 1.44 20.24ZM4.176 15.68H5.592C5.688 15.68 5.76 15.648 5.808 15.584C5.872 15.504 5.888 15.408 5.856 15.296L5.232 13.592C5.136 13.336 5.016 13.208 4.872 13.208C4.728 13.208 4.608 13.344 4.512 13.616L3.912 15.32C3.88 15.416 3.888 15.504 3.936 15.584C3.984 15.648 4.064 15.68 4.176 15.68ZM12.0758 20C11.5798 20 11.1798 19.864 10.8758 19.592C10.5878 19.304 10.4438 18.928 10.4438 18.464V11.768C10.4438 11.304 10.5798 10.944 10.8518 10.688C11.1238 10.416 11.4838 10.28 11.9318 10.28H14.1158C15.1718 10.28 16.0678 10.496 16.8038 10.928C17.5398 11.344 18.0998 11.92 18.4838 12.656C18.8838 13.376 19.0838 14.2 19.0838 15.128C19.0838 16.088 18.8838 16.936 18.4838 17.672C18.0838 18.408 17.5398 18.984 16.8518 19.4C16.1638 19.8 15.3958 20 14.5478 20H12.0758ZM13.2038 18.08H14.1398C15.0518 18.08 15.7478 17.824 16.2278 17.312C16.7078 16.784 16.9398 16.056 16.9238 15.128C16.9078 14.168 16.6598 13.44 16.1798 12.944C15.6998 12.448 15.0118 12.2 14.1158 12.2H13.2038C12.8038 12.2 12.6038 12.4 12.6038 12.8V17.48C12.6038 17.88 12.8038 18.08 13.2038 18.08ZM20.9723 20.24C20.6523 20.24 20.3803 20.12 20.1563 19.88C19.9483 19.64 19.8683 19.36 19.9163 19.04L20.9243 11.336C20.9723 10.984 21.1163 10.704 21.3563 10.496C21.5963 10.272 21.8843 10.16 22.2203 10.16C22.9083 10.16 23.3563 10.456 23.5643 11.048L25.1963 15.752C25.2763 15.912 25.3563 15.992 25.4363 15.992C25.5483 15.992 25.6283 15.912 25.6763 15.752L27.3083 11.048C27.5163 10.456 27.9563 10.16 28.6283 10.16C28.9963 10.16 29.2923 10.272 29.5163 10.496C29.7563 10.704 29.9003 10.984 29.9483 11.336L30.9563 19.04C31.0043 19.36 30.9163 19.64 30.6923 19.88C30.4843 20.12 30.2203 20.24 29.9003 20.24C29.6123 20.24 29.3643 20.152 29.1563 19.976C28.9643 19.784 28.8523 19.544 28.8203 19.256L28.4603 14.24C28.4443 14.048 28.3803 13.952 28.2683 13.952C28.1563 13.952 28.0763 14.032 28.0283 14.192L26.6363 18.104C26.4123 18.696 26.0123 18.992 25.4363 18.992C25.2123 18.992 24.9883 18.912 24.7643 18.752C24.5563 18.592 24.3883 18.384 24.2603 18.128L22.8683 14.24C22.8203 14.096 22.7403 14.024 22.6283 14.024C22.5323 14.024 22.4683 14.12 22.4363 14.312L22.0523 19.256C22.0363 19.544 21.9243 19.784 21.7163 19.976C21.5083 20.152 21.2603 20.24 20.9723 20.24ZM33.465 20.24C33.161 20.24 32.905 20.144 32.697 19.952C32.489 19.76 32.385 19.52 32.385 19.232V11.192C32.385 10.888 32.489 10.64 32.697 10.448C32.905 10.256 33.161 10.16 33.465 10.16C33.785 10.16 34.041 10.256 34.233 10.448C34.441 10.64 34.545 10.888 34.545 11.192V19.232C34.545 19.536 34.441 19.784 34.233 19.976C34.041 20.152 33.785 20.24 33.465 20.24ZM37.4353 20.24C37.1153 20.24 36.8513 20.152 36.6433 19.976C36.4513 19.784 36.3553 19.536 36.3553 19.232V11.432C36.3553 11.016 36.4833 10.704 36.7393 10.496C36.9953 10.272 37.2833 10.16 37.6033 10.16C37.8273 10.16 38.0433 10.216 38.2513 10.328C38.4593 10.424 38.6353 10.584 38.7793 10.808L42.2353 16.016C42.2993 16.128 42.3953 16.184 42.5233 16.184C42.6833 16.184 42.7633 16.088 42.7633 15.896L42.5953 11.168C42.5793 10.848 42.6753 10.6 42.8833 10.424C43.0913 10.248 43.3553 10.16 43.6753 10.16C43.9953 10.16 44.2513 10.248 44.4433 10.424C44.6513 10.6 44.7553 10.848 44.7553 11.168V18.944C44.7553 19.344 44.6273 19.656 44.3713 19.88C44.1153 20.104 43.8273 20.216 43.5073 20.216C43.2993 20.216 43.0913 20.16 42.8833 20.048C42.6753 19.952 42.4993 19.792 42.3553 19.568L38.9233 14.192C38.8593 14.08 38.7633 14.024 38.6353 14.024C38.4593 14.024 38.3713 14.128 38.3713 14.336L38.5153 19.232C38.5313 19.536 38.4353 19.784 38.2273 19.976C38.0193 20.152 37.7553 20.24 37.4353 20.24Z" fill="#008080"/>
<path d="M69.1668 20.3132L68.0668 20.5732C67.8202 20.6332 67.6268 20.8199 67.5735 21.0666L67.3402 22.0466C67.2135 22.5799 66.5335 22.7466 66.1802 22.3266L64.1868 20.0332C64.0268 19.8466 64.1135 19.5532 64.3535 19.4932C65.5335 19.2066 66.5935 18.5466 67.3735 17.6066C67.5002 17.4532 67.7268 17.4332 67.8668 17.5732L69.3468 19.0532C69.8535 19.5599 69.6735 20.1932 69.1668 20.3132Z" fill="#FEB92B"/>
<path d="M56.8001 20.3132L57.9001 20.5732C58.1468 20.6332 58.3401 20.8199 58.3934 21.0666L58.6268 22.0466C58.7534 22.5799 59.4334 22.7466 59.7868 22.3266L61.7801 20.0332C61.9401 19.8466 61.8534 19.5532 61.6134 19.4932C60.4334 19.2066 59.3734 18.5466 58.5934 17.6066C58.4668 17.4532 58.2401 17.4332 58.1001 17.5732L56.6201 19.0532C56.1134 19.5599 56.2934 20.1932 56.8001 20.3132Z" fill="#FEB92B"/>
<path d="M63.0002 9.3335C60.4202 9.3335 58.3335 11.4202 58.3335 14.0002C58.3335 14.9668 58.6202 15.8535 59.1135 16.5935C59.8335 17.6602 60.9735 18.4135 62.3002 18.6068C62.5268 18.6468 62.7602 18.6668 63.0002 18.6668C63.2402 18.6668 63.4735 18.6468 63.7002 18.6068C65.0268 18.4135 66.1668 17.6602 66.8868 16.5935C67.3802 15.8535 67.6668 14.9668 67.6668 14.0002C67.6668 11.4202 65.5802 9.3335 63.0002 9.3335ZM65.0402 13.8535L64.4868 14.4068C64.3935 14.5002 64.3402 14.6802 64.3735 14.8135L64.5335 15.5002C64.6602 16.0402 64.3735 16.2535 63.8935 15.9668L63.2268 15.5735C63.1068 15.5002 62.9068 15.5002 62.7868 15.5735L62.1202 15.9668C61.6402 16.2468 61.3535 16.0402 61.4802 15.5002L61.6402 14.8135C61.6668 14.6868 61.6202 14.5002 61.5268 14.4068L60.9602 13.8535C60.6335 13.5268 60.7402 13.2002 61.1935 13.1268L61.9068 13.0068C62.0268 12.9868 62.1668 12.8802 62.2202 12.7735L62.6135 11.9868C62.8268 11.5602 63.1735 11.5602 63.3868 11.9868L63.7802 12.7735C63.8335 12.8802 63.9735 12.9868 64.1002 13.0068L64.8135 13.1268C65.2602 13.2002 65.3668 13.5268 65.0402 13.8535Z" fill="#FEB92B"/>
</svg>
