<svg width="82" height="82" viewBox="0 0 82 82" fill="none" xmlns="http://www.w3.org/2000/svg">
<rect x="10" y="10" width="62" height="62" rx="31" fill="#008080" fill-opacity="0.2"/>
<rect x="5" y="5" width="72" height="72" rx="36" stroke="#008080" stroke-opacity="0.1" stroke-width="10"/>
<path d="M41.0005 34.7686V42.14M41.0005 45.9029V47.2314M29.2726 37.8971C31.796 34.7618 34.6456 31.9036 37.7733 29.3707C39.6976 27.8086 42.0055 27.8193 43.9319 29.3707C47.0708 31.8933 49.9236 34.7525 52.4391 37.8971C53.9133 39.7336 53.9241 42.0329 52.4391 43.8671C49.8879 47.0325 47.0042 49.9147 43.8376 52.4643C42.0333 53.9214 39.7341 53.9107 37.9276 52.4643C34.7291 49.9093 31.8255 47.0057 29.2705 43.8071C27.8241 42.0007 27.8155 39.7014 29.2726 37.8971Z" stroke="#008080" stroke-width="2.14286" stroke-linecap="round" stroke-linejoin="round"/>
</svg>
