<svg width="17" height="23" viewBox="0 0 23 23" fill="none" xmlns="http://www.w3.org/2000/svg">
<path d="M8.625 8.43908L12.0386 12.2149C12.1132 12.2961 12.2048 12.3599 12.3067 12.4019C12.4087 12.4439 12.5186 12.463 12.6287 12.458C12.7389 12.453 12.8466 12.4239 12.9443 12.3728C13.042 12.3217 13.1274 12.2498 13.1943 12.1622L20.125 2.875" stroke="#022F2F" stroke-width="1.4375" stroke-linecap="round" stroke-linejoin="round"/>
<path d="M8.625 8.43908L12.0386 12.2149C12.1132 12.2961 12.2048 12.3599 12.3067 12.4019C12.4087 12.4439 12.5186 12.463 12.6287 12.458C12.7389 12.453 12.8466 12.4239 12.9443 12.3728C13.042 12.3217 13.1274 12.2498 13.1943 12.1622L20.125 2.875" stroke="black" stroke-opacity="0.2" stroke-width="1.4375" stroke-linecap="round" stroke-linejoin="round"/>
<path d="M9.00833 2.875C6.86167 2.875 5.78833 2.875 4.968 3.29283C4.24674 3.66034 3.66034 4.24674 3.29283 4.968C2.875 5.78833 2.875 6.86167 2.875 9.00833V13.9917C2.875 16.1383 2.875 17.2117 3.29283 18.032C3.66034 18.7533 4.24674 19.3397 4.968 19.7072C5.78833 20.125 6.86167 20.125 9.00833 20.125H13.9917C16.1383 20.125 17.2117 20.125 18.032 19.7072C18.7533 19.3397 19.3397 18.7533 19.7072 18.032C20.125 17.2117 20.125 16.1383 20.125 13.9917V12.9375" stroke="#022F2F" stroke-width="1.4375" stroke-linecap="round" stroke-linejoin="round"/>
<path d="M9.00833 2.875C6.86167 2.875 5.78833 2.875 4.968 3.29283C4.24674 3.66034 3.66034 4.24674 3.29283 4.968C2.875 5.78833 2.875 6.86167 2.875 9.00833V13.9917C2.875 16.1383 2.875 17.2117 3.29283 18.032C3.66034 18.7533 4.24674 19.3397 4.968 19.7072C5.78833 20.125 6.86167 20.125 9.00833 20.125H13.9917C16.1383 20.125 17.2117 20.125 18.032 19.7072C18.7533 19.3397 19.3397 18.7533 19.7072 18.032C20.125 17.2117 20.125 16.1383 20.125 13.9917V12.9375" stroke="black" stroke-opacity="0.2" stroke-width="1.4375" stroke-linecap="round" stroke-linejoin="round"/>
</svg>
