<svg width="24" height="24" viewBox="0 0 24 24" fill="none" xmlns="http://www.w3.org/2000/svg">
<path fill-rule="evenodd" clip-rule="evenodd" d="M5.385 2.75026C4.482 2.75026 3.75 3.48226 3.75 4.38526V11.2503H22C22.1989 11.2503 22.3897 11.3293 22.5303 11.4699C22.671 11.6106 22.75 11.8013 22.75 12.0003C22.75 12.1992 22.671 12.3899 22.5303 12.5306C22.3897 12.6712 22.1989 12.7503 22 12.7503H21.732C21.7387 12.7949 21.7433 12.8403 21.746 12.8863C21.7493 12.9449 21.7507 13.0049 21.75 13.0663V13.1053C21.75 13.4803 21.75 13.7003 21.734 13.9453C21.592 16.1813 20.384 18.2473 18.633 19.5973L18.671 19.6653L19.671 21.6653C19.7159 21.7535 19.7429 21.8497 19.7504 21.9484C19.758 22.0471 19.7459 22.1463 19.7149 22.2403C19.6839 22.3343 19.6346 22.4212 19.5699 22.4961C19.5051 22.571 19.4262 22.6323 19.3376 22.6765C19.2491 22.7207 19.1526 22.747 19.0539 22.7537C18.9551 22.7605 18.856 22.7476 18.7622 22.7159C18.6685 22.6842 18.5819 22.6342 18.5076 22.5689C18.4332 22.5036 18.3725 22.4242 18.329 22.3353L17.361 20.4003C16.3605 20.9114 15.2563 21.1868 14.133 21.2053H14.126C13.386 21.2333 12.662 21.2503 12 21.2503C11.338 21.2503 10.614 21.2333 9.874 21.2053H9.867C8.74366 21.1868 7.63946 20.9114 6.639 20.4003L5.671 22.3353C5.62748 22.4242 5.56679 22.5036 5.49243 22.5689C5.41807 22.6342 5.33152 22.6842 5.23775 22.7159C5.14399 22.7476 5.04488 22.7605 4.94613 22.7537C4.84738 22.747 4.75094 22.7207 4.66239 22.6765C4.57383 22.6323 4.4949 22.571 4.43014 22.4961C4.36539 22.4212 4.3161 22.3343 4.28511 22.2403C4.25411 22.1463 4.24204 22.0471 4.24957 21.9484C4.2571 21.8497 4.2841 21.7535 4.329 21.6653L5.329 19.6653L5.367 19.5973C3.616 18.2473 2.407 16.1813 2.266 13.9453C2.25162 13.6655 2.24628 13.3854 2.25 13.1053V12.7503H2C1.80109 12.7503 1.61032 12.6712 1.46967 12.5306C1.32902 12.3899 1.25 12.1992 1.25 12.0003C1.25 11.8013 1.32902 11.6106 1.46967 11.4699C1.61032 11.3293 1.80109 11.2503 2 11.2503H2.25V4.38526C2.24994 3.65661 2.5037 2.95069 2.96766 2.38883C3.43162 1.82698 4.07681 1.44429 4.79232 1.30654C5.50784 1.16878 6.24899 1.28457 6.88839 1.634C7.5278 1.98343 8.02552 2.54467 8.296 3.22126L8.406 3.49626C9.22668 3.28652 10.0937 3.35403 10.872 3.68826C11.3566 3.89695 11.7947 4.20014 12.1608 4.58012C12.5269 4.96009 12.8135 5.40922 13.004 5.90126C13.0752 6.08243 13.0732 6.28419 12.9983 6.46389C12.9235 6.6436 12.7817 6.78717 12.603 6.86426L6.643 9.43026C6.55075 9.47011 6.45143 9.49102 6.35095 9.49174C6.25046 9.49246 6.15086 9.47298 6.05804 9.43446C5.96523 9.39593 5.88111 9.33915 5.81067 9.26748C5.74023 9.19582 5.68491 9.11072 5.648 9.01726C5.25521 8.01749 5.26237 6.90489 5.668 5.91026C5.9535 5.20205 6.43111 4.58764 7.047 4.13626L6.903 3.77826C6.78168 3.47483 6.57222 3.21472 6.30164 3.03148C6.03106 2.84824 5.71178 2.75029 5.385 2.75026ZM4.083 12.7503H3.983C3.91969 12.7546 3.86038 12.7828 3.81711 12.8292C3.77385 12.8757 3.74985 12.9368 3.75 13.0003V13.0833C3.75 13.4853 3.75 13.6573 3.763 13.8503C3.948 16.7723 6.458 19.3783 9.37 19.6733C9.565 19.6933 9.673 19.6963 9.93 19.7063C10.658 19.7333 11.363 19.7503 12 19.7503C12.637 19.7503 13.342 19.7333 14.07 19.7063C14.327 19.6963 14.435 19.6923 14.63 19.6723C17.542 19.3783 20.052 16.7723 20.238 13.8503C20.25 13.6573 20.25 13.4853 20.25 13.0833V12.9843C20.25 12.9823 20.25 12.9823 20.25 12.9843C20.246 12.9236 20.22 12.8665 20.1769 12.8236C20.1339 12.7807 20.0767 12.755 20.016 12.7513C20.0173 12.7513 20.0173 12.7513 20.016 12.7513H20L19.918 12.7503H4.083ZM10.283 5.06826C9.96939 4.9337 9.63032 4.86876 9.28918 4.87791C8.94805 4.88706 8.61295 4.97008 8.307 5.12126C7.73729 5.40256 7.29197 5.88493 7.057 6.47526C6.89936 6.86364 6.83431 7.28339 6.867 7.70126L11.247 5.81526C10.9951 5.48727 10.6627 5.22995 10.282 5.06826" fill="currentColor"/>
</svg>
