<svg width="23" height="23" viewBox="0 0 23 23" fill="none" xmlns="http://www.w3.org/2000/svg">
<path d="M3.03906 12.2581H5.4349C5.50032 12.2559 5.56548 12.2675 5.6261 12.2922C5.68672 12.3169 5.74145 12.3541 5.78668 12.4014C5.83192 12.4487 5.86665 12.5051 5.8886 12.5667C5.91055 12.6284 5.91923 12.694 5.91406 12.7593V21.7772C5.9194 21.8425 5.91083 21.9081 5.88893 21.9698C5.86702 22.0315 5.83228 22.0878 5.787 22.1351C5.74171 22.1824 5.68691 22.2195 5.62622 22.2441C5.56552 22.2686 5.50031 22.28 5.4349 22.2775H3.03906" stroke="#022F2F" stroke-width="1.4375" stroke-linecap="round" stroke-linejoin="round"/>
<path d="M3.03906 12.2581H5.4349C5.50032 12.2559 5.56548 12.2675 5.6261 12.2922C5.68672 12.3169 5.74145 12.3541 5.78668 12.4014C5.83192 12.4487 5.86665 12.5051 5.8886 12.5667C5.91055 12.6284 5.91923 12.694 5.91406 12.7593V21.7772C5.9194 21.8425 5.91083 21.9081 5.88893 21.9698C5.86702 22.0315 5.83228 22.0878 5.787 22.1351C5.74171 22.1824 5.68691 22.2195 5.62622 22.2441C5.56552 22.2686 5.50031 22.28 5.4349 22.2775H3.03906" stroke="black" stroke-opacity="0.2" stroke-width="1.4375" stroke-linecap="round" stroke-linejoin="round"/>
<path d="M9.8921 10.143L8.05019 12.4363C7.92922 12.587 7.7771 12.7099 7.60425 12.7964C7.43141 12.8829 7.24191 12.931 7.04873 12.9375H5.91406M5.91406 19.6746C7.96873 21.2319 9.84323 22.2774 11.0536 22.2774H17.0652C17.7936 22.2774 18.2516 22.2257 18.5679 21.276C19.0509 18.8514 19.3854 16.4 19.5703 13.9351C19.5703 13.4349 19.0691 12.9337 18.0676 12.9337H12.3828M10.1144 11.6965L8.63094 1.31579C8.62037 1.24163 8.62585 1.16607 8.64701 1.09422C8.66817 1.02236 8.7045 0.955886 8.75356 0.899283C8.80263 0.842681 8.86327 0.797272 8.93139 0.766126C8.99952 0.734981 9.07353 0.718825 9.14844 0.71875H16.3877" stroke="#022F2F" stroke-width="1.4375" stroke-linecap="round" stroke-linejoin="round"/>
<path d="M9.8921 10.143L8.05019 12.4363C7.92922 12.587 7.7771 12.7099 7.60425 12.7964C7.43141 12.8829 7.24191 12.931 7.04873 12.9375H5.91406M5.91406 19.6746C7.96873 21.2319 9.84323 22.2774 11.0536 22.2774H17.0652C17.7936 22.2774 18.2516 22.2257 18.5679 21.276C19.0509 18.8514 19.3854 16.4 19.5703 13.9351C19.5703 13.4349 19.0691 12.9337 18.0676 12.9337H12.3828M10.1144 11.6965L8.63094 1.31579C8.62037 1.24163 8.62585 1.16607 8.64701 1.09422C8.66817 1.02236 8.7045 0.955886 8.75356 0.899283C8.80263 0.842681 8.86327 0.797272 8.93139 0.766126C8.99952 0.734981 9.07353 0.718825 9.14844 0.71875H16.3877" stroke="black" stroke-opacity="0.2" stroke-width="1.4375" stroke-linecap="round" stroke-linejoin="round"/>
<path d="M13.2633 12.9402L12.3855 4.1628C12.3784 4.09575 12.3854 4.02794 12.4063 3.9638C12.4272 3.89967 12.4613 3.84067 12.5066 3.79064C12.5518 3.74062 12.6071 3.70071 12.6688 3.67352C12.7305 3.64633 12.7972 3.63247 12.8647 3.63285H19.4772C19.5468 3.63202 19.6158 3.64638 19.6793 3.67493C19.7429 3.70348 19.7994 3.74555 19.845 3.79818C19.8906 3.85082 19.9242 3.91277 19.9435 3.97971C19.9627 4.04666 19.9671 4.11699 19.9563 4.1858L18.6338 13.0025" stroke="#022F2F" stroke-width="1.4375" stroke-linecap="round" stroke-linejoin="round"/>
<path d="M13.2633 12.9402L12.3855 4.1628C12.3784 4.09575 12.3854 4.02794 12.4063 3.9638C12.4272 3.89967 12.4613 3.84067 12.5066 3.79064C12.5518 3.74062 12.6071 3.70071 12.6688 3.67352C12.7305 3.64633 12.7972 3.63247 12.8647 3.63285H19.4772C19.5468 3.63202 19.6158 3.64638 19.6793 3.67493C19.7429 3.70348 19.7994 3.74555 19.845 3.79818C19.8906 3.85082 19.9242 3.91277 19.9435 3.97971C19.9627 4.04666 19.9671 4.11699 19.9563 4.1858L18.6338 13.0025" stroke="black" stroke-opacity="0.2" stroke-width="1.4375" stroke-linecap="round" stroke-linejoin="round"/>
<path d="M16 8.97656C15.9047 8.97656 15.8133 8.9387 15.7459 8.8713C15.6785 8.80391 15.6406 8.7125 15.6406 8.61719C15.6406 8.52188 15.6785 8.43047 15.7459 8.36307C15.8133 8.29567 15.9047 8.25781 16 8.25781M16 8.97656C16.0953 8.97656 16.1867 8.9387 16.2541 8.8713C16.3215 8.80391 16.3594 8.7125 16.3594 8.61719C16.3594 8.52188 16.3215 8.43047 16.2541 8.36307C16.1867 8.29567 16.0953 8.25781 16 8.25781" stroke="#022F2F" stroke-width="1.4375"/>
<path d="M16 8.97656C15.9047 8.97656 15.8133 8.9387 15.7459 8.8713C15.6785 8.80391 15.6406 8.7125 15.6406 8.61719C15.6406 8.52188 15.6785 8.43047 15.7459 8.36307C15.8133 8.29567 15.9047 8.25781 16 8.25781M16 8.97656C16.0953 8.97656 16.1867 8.9387 16.2541 8.8713C16.3215 8.80391 16.3594 8.7125 16.3594 8.61719C16.3594 8.52188 16.3215 8.43047 16.2541 8.36307C16.1867 8.29567 16.0953 8.25781 16 8.25781" stroke="black" stroke-opacity="0.2" stroke-width="1.4375"/>
</svg>
