<svg width="23" height="23" viewBox="0 0 23 23" fill="none" xmlns="http://www.w3.org/2000/svg">
<path d="M5.75 14.375H2.875M2.875 20.125H14.375C15.2682 20.125 15.7147 20.125 16.0665 19.9793C16.2992 19.883 16.5106 19.7418 16.6887 19.5637C16.8668 19.3856 17.008 19.1742 17.1043 18.9415C17.25 18.5897 17.25 18.1432 17.25 17.25C17.25 16.3568 17.25 15.9103 17.1043 15.5585C17.008 15.3258 16.8668 15.1144 16.6887 14.9363C16.5106 14.7582 16.2992 14.617 16.0665 14.5207C15.7147 14.375 15.2682 14.375 14.375 14.375H12.4583H17.25C18.1432 14.375 18.5897 14.375 18.9415 14.2293C19.1742 14.133 19.3856 13.9918 19.5637 13.8137C19.7418 13.6356 19.883 13.4242 19.9793 13.1915C20.125 12.8398 20.125 12.3932 20.125 11.5C20.125 10.6068 20.125 10.1602 19.9793 9.80854C19.883 9.57584 19.7418 9.3644 19.5637 9.18632C19.3856 9.00823 19.1742 8.86699 18.9415 8.77067C18.5897 8.625 18.1432 8.625 17.25 8.625H2.875H13.4167C14.3098 8.625 14.7564 8.625 15.1081 8.47933C15.3408 8.38301 15.5523 8.24177 15.7303 8.06368C15.9084 7.8856 16.0497 7.67416 16.146 7.44146C16.2917 7.08975 16.2917 6.64317 16.2917 5.75C16.2917 4.85683 16.2917 4.41025 16.146 4.05854C16.0497 3.82584 15.9084 3.6144 15.7303 3.43632C15.5523 3.25823 15.3408 3.11699 15.1081 3.02067C14.7564 2.875 14.3098 2.875 13.4167 2.875H2.875" stroke="#022F2F" stroke-width="1.4375" stroke-linecap="round" stroke-linejoin="round"/>
<path d="M5.75 14.375H2.875M2.875 20.125H14.375C15.2682 20.125 15.7147 20.125 16.0665 19.9793C16.2992 19.883 16.5106 19.7418 16.6887 19.5637C16.8668 19.3856 17.008 19.1742 17.1043 18.9415C17.25 18.5897 17.25 18.1432 17.25 17.25C17.25 16.3568 17.25 15.9103 17.1043 15.5585C17.008 15.3258 16.8668 15.1144 16.6887 14.9363C16.5106 14.7582 16.2992 14.617 16.0665 14.5207C15.7147 14.375 15.2682 14.375 14.375 14.375H12.4583H17.25C18.1432 14.375 18.5897 14.375 18.9415 14.2293C19.1742 14.133 19.3856 13.9918 19.5637 13.8137C19.7418 13.6356 19.883 13.4242 19.9793 13.1915C20.125 12.8398 20.125 12.3932 20.125 11.5C20.125 10.6068 20.125 10.1602 19.9793 9.80854C19.883 9.57584 19.7418 9.3644 19.5637 9.18632C19.3856 9.00823 19.1742 8.86699 18.9415 8.77067C18.5897 8.625 18.1432 8.625 17.25 8.625H2.875H13.4167C14.3098 8.625 14.7564 8.625 15.1081 8.47933C15.3408 8.38301 15.5523 8.24177 15.7303 8.06368C15.9084 7.8856 16.0497 7.67416 16.146 7.44146C16.2917 7.08975 16.2917 6.64317 16.2917 5.75C16.2917 4.85683 16.2917 4.41025 16.146 4.05854C16.0497 3.82584 15.9084 3.6144 15.7303 3.43632C15.5523 3.25823 15.3408 3.11699 15.1081 3.02067C14.7564 2.875 14.3098 2.875 13.4167 2.875H2.875" stroke="black" stroke-opacity="0.2" stroke-width="1.4375" stroke-linecap="round" stroke-linejoin="round"/>
<path d="M12.459 8.625V14.5571C12.459 15.6256 12.459 16.1594 12.1466 16.2725C11.8332 16.3875 11.4796 15.9812 10.7733 15.1704L10.3114 14.6414C9.97307 14.2533 9.8044 14.0597 9.58398 14.0597C9.36357 14.0597 9.1949 14.2533 8.85565 14.6414L8.39565 15.1704C7.6884 15.9812 7.33478 16.3875 7.02236 16.2725C6.70898 16.1594 6.70898 15.6256 6.70898 14.5571V8.625" stroke="#022F2F" stroke-width="1.4375" stroke-linecap="round" stroke-linejoin="round"/>
<path d="M12.459 8.625V14.5571C12.459 15.6256 12.459 16.1594 12.1466 16.2725C11.8332 16.3875 11.4796 15.9812 10.7733 15.1704L10.3114 14.6414C9.97307 14.2533 9.8044 14.0597 9.58398 14.0597C9.36357 14.0597 9.1949 14.2533 8.85565 14.6414L8.39565 15.1704C7.6884 15.9812 7.33478 16.3875 7.02236 16.2725C6.70898 16.1594 6.70898 15.6256 6.70898 14.5571V8.625" stroke="black" stroke-opacity="0.2" stroke-width="1.4375" stroke-linecap="round" stroke-linejoin="round"/>
</svg>
