<svg width="25" height="24" viewBox="0 0 25 24" fill="none" xmlns="http://www.w3.org/2000/svg">
<path d="M16.09 12.26C18.9232 12.26 21.22 9.96323 21.22 7.13C21.22 4.29678 18.9232 2 16.09 2C13.2567 2 10.96 4.29678 10.96 7.13C10.96 9.96323 13.2567 12.26 16.09 12.26Z" stroke="#025050" stroke-width="1.5" stroke-miterlimit="10"/>
<path d="M6.85977 19.4403C8.56081 19.4403 9.93979 18.0613 9.93979 16.3603C9.93979 14.6592 8.56081 13.2803 6.85977 13.2803C5.15873 13.2803 3.77979 14.6592 3.77979 16.3603C3.77979 18.0613 5.15873 19.4403 6.85977 19.4403Z" stroke="#025050" stroke-width="1.5" stroke-miterlimit="10"/>
<path d="M17.1201 21.9999C18.5339 21.9999 19.6801 20.8537 19.6801 19.4399C19.6801 18.026 18.5339 16.8799 17.1201 16.8799C15.7062 16.8799 14.5601 18.026 14.5601 19.4399C14.5601 20.8537 15.7062 21.9999 17.1201 21.9999Z" stroke="#025050" stroke-width="1.5" stroke-miterlimit="10"/>
</svg>
