<svg width="20" height="20" viewBox="0 0 20 20" fill="none" xmlns="http://www.w3.org/2000/svg">
<path d="M10.0048 8.75H10.0115M13.334 8.75H13.3415M6.6748 8.75H6.6823" stroke="#008080" stroke-width="1.66667" stroke-linecap="round" stroke-linejoin="round"/>
<path d="M1.66699 8.75066C1.66699 8.10899 1.67783 7.48149 1.70033 6.87566C1.76949 4.89816 1.80449 3.90899 2.60866 3.09816C3.41283 2.28816 4.43033 2.24483 6.46366 2.15733C7.6419 2.10786 8.82105 2.08341 10.0003 2.08399C11.2337 2.08399 12.4212 2.10899 13.537 2.15733C15.5703 2.24483 16.587 2.28816 17.392 3.09899C18.1962 3.90899 18.2312 4.89816 18.3003 6.87566C18.3443 8.12527 18.3443 9.37605 18.3003 10.6257C18.2312 12.6032 18.1962 13.5923 17.392 14.4032C16.5878 15.2132 15.5703 15.2565 13.537 15.344C12.9248 15.3701 12.2928 15.3896 11.6412 15.4023C11.0245 15.414 10.7153 15.419 10.4437 15.5232C10.172 15.6273 9.94366 15.8215 9.48699 16.2132L7.67116 17.7715C7.58278 17.8472 7.47454 17.896 7.35927 17.9121C7.244 17.9281 7.12654 17.9108 7.02083 17.8621C6.91512 17.8134 6.8256 17.7354 6.76288 17.6374C6.70016 17.5393 6.66688 17.4254 6.66699 17.309V15.3523L6.46366 15.344C4.43033 15.2565 3.41366 15.2132 2.60866 14.4023C1.80449 13.5923 1.76949 12.6032 1.70033 10.6257C1.67823 10.0009 1.66711 9.37581 1.66699 8.75066Z" stroke="#008080" stroke-width="1.25" stroke-linecap="round" stroke-linejoin="round"/>
</svg>
