<svg width="24" height="24" viewBox="0 0 24 24" fill="none" xmlns="http://www.w3.org/2000/svg">
<path d="M12.0004 21.6004C6.69789 21.6004 2.40039 17.3029 2.40039 12.0004C2.40039 6.69789 6.69789 2.40039 12.0004 2.40039C17.3029 2.40039 21.6004 6.69789 21.6004 12.0004C21.6004 17.3029 17.3029 21.6004 12.0004 21.6004ZM12.0004 4.20039C7.69164 4.20039 4.20039 7.69164 4.20039 12.0004C4.20039 16.3091 7.69164 19.8004 12.0004 19.8004C16.3091 19.8004 19.8004 16.3091 19.8004 12.0004C19.8004 7.69164 16.3091 4.20039 12.0004 4.20039ZM12.0004 15.6004C10.0129 15.6004 8.40039 13.9879 8.40039 12.0004C8.40039 10.0129 10.0129 8.40039 12.0004 8.40039C13.9879 8.40039 15.6004 10.0129 15.6004 12.0004C15.6004 13.9879 13.9879 15.6004 12.0004 15.6004Z" fill="#022F2F"/>
<path d="M12.0004 21.6004C6.69789 21.6004 2.40039 17.3029 2.40039 12.0004C2.40039 6.69789 6.69789 2.40039 12.0004 2.40039C17.3029 2.40039 21.6004 6.69789 21.6004 12.0004C21.6004 17.3029 17.3029 21.6004 12.0004 21.6004ZM12.0004 4.20039C7.69164 4.20039 4.20039 7.69164 4.20039 12.0004C4.20039 16.3091 7.69164 19.8004 12.0004 19.8004C16.3091 19.8004 19.8004 16.3091 19.8004 12.0004C19.8004 7.69164 16.3091 4.20039 12.0004 4.20039ZM12.0004 15.6004C10.0129 15.6004 8.40039 13.9879 8.40039 12.0004C8.40039 10.0129 10.0129 8.40039 12.0004 8.40039C13.9879 8.40039 15.6004 10.0129 15.6004 12.0004C15.6004 13.9879 13.9879 15.6004 12.0004 15.6004Z" fill="black" fill-opacity="0.2"/>
</svg>
