<svg width="20" height="20" viewBox="0 0 20 20" fill="none" xmlns="http://www.w3.org/2000/svg">
<path d="M2.91406 9.16703C2.58254 9.16703 2.2646 9.03534 2.03018 8.80092C1.79576 8.5665 1.66406 8.24855 1.66406 7.91703C1.66406 7.58551 1.79576 7.26757 2.03018 7.03315C2.2646 6.79873 2.58254 6.66703 2.91406 6.66703H3.54073C3.91086 5.2361 4.74585 3.96866 5.91453 3.06381C7.08321 2.15896 8.51937 1.66797 9.9974 1.66797C11.4754 1.66797 12.9116 2.15896 14.0803 3.06381C15.2489 3.96866 16.0839 5.2361 16.4541 6.66703H16.6641C16.9956 6.66703 17.3135 6.79873 17.5479 7.03315C17.7824 7.26757 17.9141 7.58551 17.9141 7.91703C17.9141 8.24855 17.7824 8.5665 17.5479 8.80092C17.3135 9.03534 16.9956 9.16703 16.6641 9.16703H16.6124C16.409 10.778 15.6248 12.2593 14.4069 13.3331C13.189 14.407 11.6211 14.9995 9.9974 14.9995C8.37369 14.9995 6.80578 14.407 5.58787 13.3331C4.36996 12.2593 3.58575 10.778 3.3824 9.16703H2.91406Z" stroke="#001F1F" stroke-opacity="0.7" stroke-width="1.25" stroke-linejoin="round"/>
<path d="M3.74805 6.66797H4.99805C6.32413 6.66797 7.5959 6.14118 8.53358 5.2035C9.47126 4.26582 9.99805 2.99405 9.99805 1.66797C9.99805 2.99405 10.5248 4.26582 11.4625 5.2035C12.4002 6.14118 13.672 6.66797 14.998 6.66797H16.248" stroke="#001F1F" stroke-opacity="0.7" stroke-width="1.25" stroke-linecap="round" stroke-linejoin="round"/>
<path d="M9.9974 12.5013C10.2184 12.5013 10.4304 12.4135 10.5867 12.2572C10.7429 12.1009 10.8307 11.889 10.8307 11.668H9.16406C9.16406 11.889 9.25186 12.1009 9.40814 12.2572C9.56442 12.4135 9.77638 12.5013 9.9974 12.5013Z" stroke="#001F1F" stroke-opacity="0.7" stroke-width="1.25" stroke-linejoin="round"/>
<path d="M14.998 18.332C14.998 16.8387 14.343 15.4987 13.3055 14.582M4.99805 18.332C4.99805 16.8387 5.65305 15.4987 6.69055 14.582" stroke="#001F1F" stroke-opacity="0.7" stroke-width="1.25" stroke-linecap="round"/>
<path d="M7.49805 8.33203V8.34036M12.498 8.33203V8.34036" stroke="#001F1F" stroke-opacity="0.7" stroke-width="1.66667" stroke-linecap="round"/>
</svg>
