<svg width="17" height="23" viewBox="0 0 23 23" fill="none" xmlns="http://www.w3.org/2000/svg">
<path d="M8.19981 12.9376H4.48627C3.99425 12.9404 3.52334 13.1378 3.17641 13.4867C2.82949 13.8356 2.63476 14.3076 2.63477 14.7996V18.5132C2.63451 18.7564 2.68223 18.9973 2.77519 19.222C2.86815 19.4468 3.00452 19.651 3.1765 19.8229C3.34847 19.9949 3.55268 20.1313 3.77743 20.2242C4.00218 20.3172 4.24305 20.3649 4.48627 20.3647H8.19981C8.6919 20.3652 9.16412 20.1706 9.51297 19.8235C9.86183 19.4765 10.0589 19.0053 10.0609 18.5132V14.7996C10.0611 14.5552 10.0132 14.313 9.91974 14.0871C9.8263 13.8612 9.68922 13.6559 9.51635 13.4831C9.34349 13.3102 9.13822 13.1731 8.91231 13.0797C8.6864 12.9863 8.44428 12.9383 8.19981 12.9385M8.19981 2.6355H4.48627C4.24305 2.63525 4.00218 2.68297 3.77743 2.77592C3.55268 2.86888 3.34847 3.00525 3.1765 3.17723C3.00452 3.34921 2.86815 3.55341 2.77519 3.77816C2.68223 4.00291 2.63451 4.24379 2.63477 4.487V8.20054C2.63426 8.69263 2.82885 9.16485 3.17591 9.5137C3.52297 9.86256 3.99418 10.0596 4.48627 10.0616H8.19981C8.44428 10.0619 8.6864 10.0139 8.91231 9.92047C9.13822 9.82703 9.34349 9.68996 9.51635 9.51709C9.68922 9.34422 9.8263 9.13896 9.91974 8.91304C10.0132 8.68713 10.0611 8.44501 10.0609 8.20054V4.487C10.0589 3.99491 9.86183 3.52371 9.51297 3.17665C9.16412 2.82959 8.6919 2.63499 8.19981 2.6355ZM18.5124 2.6355H14.7989C14.3068 2.63499 13.8346 2.82959 13.4857 3.17665C13.1369 3.52371 12.9398 3.99491 12.9378 4.487V8.20054C12.9381 8.69405 13.1342 9.16728 13.4832 9.51624C13.8322 9.86521 14.3054 10.0614 14.7989 10.0616H18.5124C19.0045 10.0596 19.4757 9.86256 19.8228 9.5137C20.1698 9.16485 20.3644 8.69263 20.3639 8.20054V4.487C20.3642 4.24379 20.3165 4.00291 20.2235 3.77816C20.1306 3.55341 19.9942 3.34921 19.8222 3.17723C19.6502 3.00525 19.446 2.86888 19.2213 2.77592C18.9965 2.68297 18.7556 2.63525 18.5124 2.6355ZM16.6504 12.9376C15.6655 12.9376 14.7209 13.3288 14.0245 14.0253C13.3281 14.7217 12.9368 15.6662 12.9368 16.6511C12.9368 17.636 13.3281 18.5806 14.0245 19.277C14.7209 19.9734 15.6655 20.3647 16.6504 20.3647C17.6353 20.3647 18.5798 19.9734 19.2763 19.277C19.9727 18.5806 20.3639 17.636 20.3639 16.6511C20.3639 15.6662 19.9727 14.7217 19.2763 14.0253C18.5798 13.3288 17.6353 12.9376 16.6504 12.9376Z" stroke="#022F2F" stroke-width="1.4375" stroke-linecap="round" stroke-linejoin="round"/>
<path d="M8.19981 12.9376H4.48627C3.99425 12.9404 3.52334 13.1378 3.17641 13.4867C2.82949 13.8356 2.63476 14.3076 2.63477 14.7996V18.5132C2.63451 18.7564 2.68223 18.9973 2.77519 19.222C2.86815 19.4468 3.00452 19.651 3.1765 19.8229C3.34847 19.9949 3.55268 20.1313 3.77743 20.2242C4.00218 20.3172 4.24305 20.3649 4.48627 20.3647H8.19981C8.6919 20.3652 9.16412 20.1706 9.51297 19.8235C9.86183 19.4765 10.0589 19.0053 10.0609 18.5132V14.7996C10.0611 14.5552 10.0132 14.313 9.91974 14.0871C9.8263 13.8612 9.68922 13.6559 9.51635 13.4831C9.34349 13.3102 9.13822 13.1731 8.91231 13.0797C8.6864 12.9863 8.44428 12.9383 8.19981 12.9385M8.19981 2.6355H4.48627C4.24305 2.63525 4.00218 2.68297 3.77743 2.77592C3.55268 2.86888 3.34847 3.00525 3.1765 3.17723C3.00452 3.34921 2.86815 3.55341 2.77519 3.77816C2.68223 4.00291 2.63451 4.24379 2.63477 4.487V8.20054C2.63426 8.69263 2.82885 9.16485 3.17591 9.5137C3.52297 9.86256 3.99418 10.0596 4.48627 10.0616H8.19981C8.44428 10.0619 8.6864 10.0139 8.91231 9.92047C9.13822 9.82703 9.34349 9.68996 9.51635 9.51709C9.68922 9.34422 9.8263 9.13896 9.91974 8.91304C10.0132 8.68713 10.0611 8.44501 10.0609 8.20054V4.487C10.0589 3.99491 9.86183 3.52371 9.51297 3.17665C9.16412 2.82959 8.6919 2.63499 8.19981 2.6355ZM18.5124 2.6355H14.7989C14.3068 2.63499 13.8346 2.82959 13.4857 3.17665C13.1369 3.52371 12.9398 3.99491 12.9378 4.487V8.20054C12.9381 8.69405 13.1342 9.16728 13.4832 9.51624C13.8322 9.86521 14.3054 10.0614 14.7989 10.0616H18.5124C19.0045 10.0596 19.4757 9.86256 19.8228 9.5137C20.1698 9.16485 20.3644 8.69263 20.3639 8.20054V4.487C20.3642 4.24379 20.3165 4.00291 20.2235 3.77816C20.1306 3.55341 19.9942 3.34921 19.8222 3.17723C19.6502 3.00525 19.446 2.86888 19.2213 2.77592C18.9965 2.68297 18.7556 2.63525 18.5124 2.6355ZM16.6504 12.9376C15.6655 12.9376 14.7209 13.3288 14.0245 14.0253C13.3281 14.7217 12.9368 15.6662 12.9368 16.6511C12.9368 17.636 13.3281 18.5806 14.0245 19.277C14.7209 19.9734 15.6655 20.3647 16.6504 20.3647C17.6353 20.3647 18.5798 19.9734 19.2763 19.277C19.9727 18.5806 20.3639 17.636 20.3639 16.6511C20.3639 15.6662 19.9727 14.7217 19.2763 14.0253C18.5798 13.3288 17.6353 12.9376 16.6504 12.9376Z" stroke="black" stroke-opacity="0.2" stroke-width="1.4375" stroke-linecap="round" stroke-linejoin="round"/>
</svg>
