<svg width="24" height="24" viewBox="0 0 24 24" fill="none" xmlns="http://www.w3.org/2000/svg">
<path d="M13.416 21.25H14.666C16.2573 21.25 17.7834 20.6179 18.9087 19.4926C20.0339 18.3674 20.666 16.8413 20.666 15.25V8.75C20.666 7.1587 20.0339 5.63258 18.9087 4.50736C17.7834 3.38214 16.2573 2.75 14.666 2.75H8.16602C6.57472 2.75 5.04859 3.38214 3.92337 4.50736C2.79816 5.63258 2.16602 7.1587 2.16602 8.75V10" stroke="#022F2F" stroke-width="1.5" stroke-linecap="round"/>
<path d="M13.416 21.25H14.666C16.2573 21.25 17.7834 20.6179 18.9087 19.4926C20.0339 18.3674 20.666 16.8413 20.666 15.25V8.75C20.666 7.1587 20.0339 5.63258 18.9087 4.50736C17.7834 3.38214 16.2573 2.75 14.666 2.75H8.16602C6.57472 2.75 5.04859 3.38214 3.92337 4.50736C2.79816 5.63258 2.16602 7.1587 2.16602 8.75V10" stroke="black" stroke-opacity="0.2" stroke-width="1.5" stroke-linecap="round"/>
<path d="M7.44943 16.8645L7.95943 19.8235C8.02553 20.0603 8.16487 20.27 8.35748 20.4227C8.55009 20.5753 8.78608 20.6631 9.03165 20.6735C9.27722 20.6838 9.51975 20.6161 9.72449 20.4801C9.92924 20.3442 10.0857 20.1469 10.1714 19.9165L12.9604 12.0345C13.0366 11.8261 13.0517 11.6003 13.0039 11.3837C12.956 11.167 12.8472 10.9685 12.6903 10.8116C12.5334 10.6547 12.335 10.546 12.1183 10.4981C11.9016 10.4502 11.6758 10.4653 11.4674 10.5415L3.43143 13.3295C3.19272 13.4118 2.98726 13.5695 2.84601 13.7788C2.70476 13.9881 2.6354 14.2376 2.64838 14.4898C2.66136 14.742 2.75598 14.9831 2.91797 15.1767C3.07996 15.3704 3.30054 15.5062 3.54643 15.5635L6.65943 16.0735C6.84666 16.129 7.01703 16.2304 7.15501 16.3686C7.293 16.5067 7.39421 16.6772 7.44943 16.8645Z" stroke="#022F2F" stroke-width="1.5" stroke-linecap="round" stroke-linejoin="round"/>
<path d="M7.44943 16.8645L7.95943 19.8235C8.02553 20.0603 8.16487 20.27 8.35748 20.4227C8.55009 20.5753 8.78608 20.6631 9.03165 20.6735C9.27722 20.6838 9.51975 20.6161 9.72449 20.4801C9.92924 20.3442 10.0857 20.1469 10.1714 19.9165L12.9604 12.0345C13.0366 11.8261 13.0517 11.6003 13.0039 11.3837C12.956 11.167 12.8472 10.9685 12.6903 10.8116C12.5334 10.6547 12.335 10.546 12.1183 10.4981C11.9016 10.4502 11.6758 10.4653 11.4674 10.5415L3.43143 13.3295C3.19272 13.4118 2.98726 13.5695 2.84601 13.7788C2.70476 13.9881 2.6354 14.2376 2.64838 14.4898C2.66136 14.742 2.75598 14.9831 2.91797 15.1767C3.07996 15.3704 3.30054 15.5062 3.54643 15.5635L6.65943 16.0735C6.84666 16.129 7.01703 16.2304 7.15501 16.3686C7.293 16.5067 7.39421 16.6772 7.44943 16.8645Z" stroke="black" stroke-opacity="0.2" stroke-width="1.5" stroke-linecap="round" stroke-linejoin="round"/>
</svg>
