<svg width="15" height="15" viewBox="0 0 15 15" fill="none" xmlns="http://www.w3.org/2000/svg">
<path d="M7.5 0C11.6421 0 15 3.35786 15 7.5C15 11.6421 11.6421 15 7.5 15C3.35786 15 0 11.6421 0 7.5C0 3.35786 3.35786 0 7.5 0ZM7.5 1.125C3.97918 1.125 1.125 3.97918 1.125 7.5C1.125 11.0208 3.97918 13.875 7.5 13.875C11.0208 13.875 13.875 11.0208 13.875 7.5C13.875 3.97918 11.0208 1.125 7.5 1.125ZM10.0847 4.79779L10.1477 4.85225C10.3474 5.05195 10.3656 5.36445 10.2022 5.58466L10.1477 5.64775L8.29575 7.5L10.1477 9.35225C10.3474 9.55195 10.3656 9.86445 10.2022 10.0847L10.1477 10.1477C9.94805 10.3474 9.63555 10.3656 9.41534 10.2022L9.35225 10.1477L7.5 8.29575L5.64775 10.1477C5.44805 10.3474 5.13555 10.3656 4.91534 10.2022L4.85225 10.1477C4.65255 9.94805 4.6344 9.63555 4.79779 9.41534L4.85225 9.35225L6.70425 7.5L4.85225 5.64775C4.65255 5.44805 4.6344 5.13555 4.79779 4.91534L4.85225 4.85225C5.05195 4.65255 5.36445 4.6344 5.58466 4.79779L5.64775 4.85225L7.5 6.70425L9.35225 4.85225C9.55195 4.65255 9.86445 4.6344 10.0847 4.79779Z" fill="#001F1F" fill-opacity="0.7"/>
</svg>
