<svg width="30" height="30" viewBox="0 0 30 30" fill="none" xmlns="http://www.w3.org/2000/svg">
<path d="M12.8037 5.17619C13.5386 3.10948 16.4614 3.10948 17.1963 5.17619C17.6592 6.47769 19.1459 7.0935 20.3934 6.50047C22.3745 5.55877 24.4412 7.62549 23.4995 9.60656C22.9065 10.8541 23.5223 12.3408 24.8238 12.8037C26.8905 13.5386 26.8905 16.4614 24.8238 17.1963C23.5223 17.6592 22.9065 19.1459 23.4995 20.3934C24.4412 22.3745 22.3745 24.4412 20.3934 23.4995C19.1459 22.9065 17.6592 23.5223 17.1963 24.8238C16.4614 26.8905 13.5386 26.8905 12.8037 24.8238C12.3408 23.5223 10.8541 22.9065 9.60656 23.4995C7.62549 24.4412 5.55877 22.3745 6.50047 20.3934C7.0935 19.1459 6.47769 17.6592 5.17619 17.1963C3.10948 16.4614 3.10948 13.5386 5.17619 12.8037C6.47769 12.3408 7.0935 10.8541 6.50047 9.60656C5.55877 7.62549 7.62549 5.55877 9.60656 6.50047C10.8541 7.0935 12.3408 6.47769 12.8037 5.17619Z" fill="#008080"/>
<path d="M15.2457 19.0994C14.7438 19.0994 14.2964 19.0071 13.9034 18.8224C13.5128 18.6378 13.2027 18.3833 12.973 18.0589C12.7434 17.7346 12.6238 17.3629 12.6143 16.9439H14.1058C14.1224 17.2256 14.2408 17.4541 14.4609 17.6293C14.6811 17.8045 14.9427 17.892 15.2457 17.892C15.4872 17.892 15.7003 17.8388 15.8849 17.7322C16.072 17.6233 16.2176 17.473 16.3217 17.2812C16.4283 17.0871 16.4815 16.8646 16.4815 16.6136C16.4815 16.358 16.4271 16.133 16.3182 15.9389C16.2116 15.7448 16.0637 15.5933 15.8743 15.4844C15.6849 15.3755 15.4683 15.3198 15.2244 15.3175C15.0114 15.3175 14.8042 15.3613 14.603 15.4489C14.4041 15.5365 14.2491 15.656 14.1378 15.8075L12.7706 15.5625L13.1151 11.7273H17.5611V12.9844H14.3828L14.1946 14.8061H14.2372C14.3651 14.6262 14.558 14.477 14.8161 14.3587C15.0741 14.2403 15.3629 14.1811 15.6825 14.1811C16.1205 14.1811 16.5111 14.2841 16.8544 14.4901C17.1977 14.696 17.4688 14.9789 17.6676 15.3388C17.8665 15.6963 17.9647 16.1082 17.9624 16.5746C17.9647 17.0646 17.8511 17.5002 17.6214 17.8814C17.3942 18.2602 17.0758 18.5585 16.6662 18.7763C16.259 18.9917 15.7855 19.0994 15.2457 19.0994Z" fill="white"/>
</svg>
