<svg width="30" height="30" viewBox="0 0 30 30" fill="none" xmlns="http://www.w3.org/2000/svg">
<path d="M12.8037 5.17619C13.5386 3.10948 16.4614 3.10948 17.1963 5.17619C17.6592 6.47769 19.1459 7.0935 20.3934 6.50047C22.3745 5.55877 24.4412 7.62549 23.4995 9.60656C22.9065 10.8541 23.5223 12.3408 24.8238 12.8037C26.8905 13.5386 26.8905 16.4614 24.8238 17.1963C23.5223 17.6592 22.9065 19.1459 23.4995 20.3934C24.4412 22.3745 22.3745 24.4412 20.3934 23.4995C19.1459 22.9065 17.6592 23.5223 17.1963 24.8238C16.4614 26.8905 13.5386 26.8905 12.8037 24.8238C12.3408 23.5223 10.8541 22.9065 9.60656 23.4995C7.62549 24.4412 5.55877 22.3745 6.50047 20.3934C7.0935 19.1459 6.47769 17.6592 5.17619 17.1963C3.10948 16.4614 3.10948 13.5386 5.17619 12.8037C6.47769 12.3408 7.0935 10.8541 6.50047 9.60656C5.55877 7.62549 7.62549 5.55877 9.60656 6.50047C10.8541 7.0935 12.3408 6.47769 12.8037 5.17619Z" fill="#008080"/>
<path d="M15.2777 19.0994C14.7474 19.0994 14.2751 19.0083 13.8608 18.826C13.4489 18.6413 13.1233 18.388 12.8842 18.0661C12.6475 17.7417 12.5256 17.3677 12.5185 16.9439H14.0668C14.0762 17.1214 14.1342 17.2777 14.2408 17.4126C14.3497 17.5452 14.4941 17.6482 14.674 17.7216C14.8539 17.795 15.0563 17.8317 15.2812 17.8317C15.5156 17.8317 15.7228 17.7902 15.9027 17.7074C16.0826 17.6245 16.2235 17.5097 16.3253 17.3629C16.4271 17.2161 16.478 17.0469 16.478 16.8551C16.478 16.661 16.4235 16.4893 16.3146 16.3402C16.2081 16.1887 16.0542 16.0703 15.853 15.9851C15.6541 15.8999 15.4174 15.8572 15.1428 15.8572H14.4645V14.728H15.1428C15.3748 14.728 15.5795 14.6877 15.7571 14.6072C15.937 14.5268 16.0767 14.4155 16.1761 14.2734C16.2756 14.129 16.3253 13.9609 16.3253 13.7692C16.3253 13.5869 16.2815 13.4271 16.1939 13.2898C16.1087 13.1501 15.9879 13.0412 15.8317 12.9631C15.6778 12.8849 15.4979 12.8459 15.2919 12.8459C15.0836 12.8459 14.893 12.8838 14.7202 12.9595C14.5473 13.0329 14.4089 13.1383 14.3047 13.2756C14.2005 13.4129 14.1449 13.5739 14.1378 13.7585H12.6641C12.6712 13.3395 12.7907 12.9702 13.0227 12.6506C13.2547 12.331 13.5672 12.0812 13.9602 11.9013C14.3556 11.719 14.8018 11.6278 15.299 11.6278C15.8009 11.6278 16.2401 11.719 16.6165 11.9013C16.9929 12.0836 17.2853 12.3298 17.4936 12.6399C17.7043 12.9477 17.8085 13.2933 17.8061 13.6768C17.8085 14.084 17.6818 14.4238 17.4261 14.696C17.1728 14.9683 16.8426 15.1411 16.4354 15.2145V15.2713C16.9704 15.34 17.3776 15.5258 17.657 15.8288C17.9387 16.1295 18.0784 16.5059 18.076 16.9581C18.0784 17.3724 17.9588 17.7405 17.7173 18.0625C17.4782 18.3845 17.148 18.6378 16.7266 18.8224C16.3052 19.0071 15.8222 19.0994 15.2777 19.0994Z" fill="white"/>
</svg>
