<svg width="30" height="30" viewBox="0 0 30 30" fill="none" xmlns="http://www.w3.org/2000/svg">
<path d="M12.8037 5.17619C13.5386 3.10948 16.4614 3.10948 17.1963 5.17619C17.6592 6.47769 19.1459 7.0935 20.3934 6.50047C22.3745 5.55877 24.4412 7.62549 23.4995 9.60656C22.9065 10.8541 23.5223 12.3408 24.8238 12.8037C26.8905 13.5386 26.8905 16.4614 24.8238 17.1963C23.5223 17.6592 22.9065 19.1459 23.4995 20.3934C24.4412 22.3745 22.3745 24.4412 20.3934 23.4995C19.1459 22.9065 17.6592 23.5223 17.1963 24.8238C16.4614 26.8905 13.5386 26.8905 12.8037 24.8238C12.3408 23.5223 10.8541 22.9065 9.60656 23.4995C7.62549 24.4412 5.55877 22.3745 6.50047 20.3934C7.0935 19.1459 6.47769 17.6592 5.17619 17.1963C3.10948 16.4614 3.10948 13.5386 5.17619 12.8037C6.47769 12.3408 7.0935 10.8541 6.50047 9.60656C5.55877 7.62549 7.62549 5.55877 9.60656 6.50047C10.8541 7.0935 12.3408 6.47769 12.8037 5.17619Z" fill="#008080"/>
<path d="M12.5895 19V17.892L15.1783 15.495C15.3984 15.282 15.5831 15.0902 15.7322 14.9197C15.8838 14.7493 15.9986 14.5824 16.0767 14.419C16.1548 14.2533 16.1939 14.0746 16.1939 13.8828C16.1939 13.6697 16.1454 13.4863 16.0483 13.3324C15.9512 13.1761 15.8187 13.0566 15.6506 12.9737C15.4825 12.8885 15.2919 12.8459 15.0788 12.8459C14.8563 12.8459 14.6622 12.8909 14.4964 12.9808C14.3307 13.0708 14.2029 13.1998 14.1129 13.3679C14.023 13.536 13.978 13.736 13.978 13.968H12.5185C12.5185 13.4922 12.6262 13.0791 12.8416 12.7287C13.0571 12.3783 13.3589 12.1072 13.7472 11.9155C14.1354 11.7237 14.5829 11.6278 15.0895 11.6278C15.6103 11.6278 16.0637 11.7202 16.4496 11.9048C16.8378 12.0871 17.1397 12.3404 17.3551 12.6648C17.5705 12.9891 17.6783 13.3608 17.6783 13.7798C17.6783 14.0545 17.6238 14.3255 17.5149 14.593C17.4084 14.8606 17.2178 15.1577 16.9432 15.4844C16.6686 15.8087 16.2815 16.1982 15.782 16.6527L14.7202 17.6932V17.7429H17.7741V19H12.5895Z" fill="white"/>
</svg>
