<svg width="17" height="23" viewBox="0 0 23 23" fill="none" xmlns="http://www.w3.org/2000/svg">
<path d="M8.14453 13.8959H14.8529M8.14453 9.10425H11.4987" stroke="#022F2F" stroke-width="1.4375" stroke-linecap="round" stroke-linejoin="round"/>
<path d="M8.14453 13.8959H14.8529M8.14453 9.10425H11.4987" stroke="black" stroke-opacity="0.2" stroke-width="1.4375" stroke-linecap="round" stroke-linejoin="round"/>
<path d="M13.5787 20.0197C17.5883 19.7542 20.7815 16.515 21.0441 12.4488C21.0949 11.6534 21.0949 10.8292 21.0441 10.0338C20.7815 5.96858 17.5883 2.73133 13.5787 2.46396C12.1938 2.37269 10.8044 2.37269 9.41951 2.46396C5.40984 2.73037 2.21667 5.96858 1.95409 10.0348C1.90332 10.839 1.90332 11.6456 1.95409 12.4498C2.04992 13.9304 2.70446 15.3018 3.47592 16.4595C3.92346 17.2692 3.6283 18.2803 3.16159 19.1648C2.82617 19.8021 2.65751 20.1203 2.79263 20.3503C2.9268 20.5803 3.22867 20.588 3.83146 20.6023C5.02459 20.6311 5.82863 20.2937 6.46688 19.8232C6.82817 19.5558 7.0093 19.4226 7.13388 19.4073C7.25847 19.392 7.50476 19.4935 7.99542 19.6948C8.43626 19.8769 8.94897 19.989 9.41855 20.0206C10.7842 20.1107 12.2111 20.1107 13.5796 20.0206L13.5787 20.0197Z" stroke="#022F2F" stroke-width="1.4375" stroke-linejoin="round"/>
<path d="M13.5787 20.0197C17.5883 19.7542 20.7815 16.515 21.0441 12.4488C21.0949 11.6534 21.0949 10.8292 21.0441 10.0338C20.7815 5.96858 17.5883 2.73133 13.5787 2.46396C12.1938 2.37269 10.8044 2.37269 9.41951 2.46396C5.40984 2.73037 2.21667 5.96858 1.95409 10.0348C1.90332 10.839 1.90332 11.6456 1.95409 12.4498C2.04992 13.9304 2.70446 15.3018 3.47592 16.4595C3.92346 17.2692 3.6283 18.2803 3.16159 19.1648C2.82617 19.8021 2.65751 20.1203 2.79263 20.3503C2.9268 20.5803 3.22867 20.588 3.83146 20.6023C5.02459 20.6311 5.82863 20.2937 6.46688 19.8232C6.82817 19.5558 7.0093 19.4226 7.13388 19.4073C7.25847 19.392 7.50476 19.4935 7.99542 19.6948C8.43626 19.8769 8.94897 19.989 9.41855 20.0206C10.7842 20.1107 12.2111 20.1107 13.5796 20.0206L13.5787 20.0197Z" stroke="black" stroke-opacity="0.2" stroke-width="1.4375" stroke-linejoin="round"/>
</svg>
