<svg width="27" height="27" viewBox="0 0 27 27" fill="none" xmlns="http://www.w3.org/2000/svg">
<path d="M10.9294 5.7395V6.01273H15.301V5.7395C15.301 5.15978 15.0708 4.6038 14.6608 4.19387C14.2509 3.78395 13.6949 3.55365 13.1152 3.55365C12.5355 3.55365 11.9795 3.78395 11.5696 4.19387C11.1596 4.6038 10.9294 5.15978 10.9294 5.7395ZM9.5632 6.01273V5.7395C9.5632 4.79745 9.93742 3.89399 10.6036 3.22786C11.2697 2.56173 12.1731 2.1875 13.1152 2.1875C14.0572 2.1875 14.9607 2.56173 15.6268 3.22786C16.293 3.89399 16.6672 4.79745 16.6672 5.7395V6.01273H22.8149C22.9961 6.01273 23.1698 6.0847 23.2979 6.2128C23.426 6.3409 23.498 6.51465 23.498 6.69581C23.498 6.87697 23.426 7.05072 23.2979 7.17882C23.1698 7.30692 22.9961 7.37889 22.8149 7.37889H21.2209L20.1279 20.4153C20.0449 21.4053 19.593 22.3279 18.8617 23.0004C18.1304 23.6728 17.1732 24.046 16.1798 24.046H10.0506C9.05728 24.0459 8.10019 23.6726 7.36904 23.0002C6.63789 22.3277 6.18603 21.4052 6.103 20.4153L5.01008 7.37889H3.4155C3.23434 7.37889 3.06059 7.30692 2.93249 7.17882C2.80439 7.05072 2.73242 6.87697 2.73242 6.69581C2.73242 6.51465 2.80439 6.3409 2.93249 6.2128C3.06059 6.0847 3.23434 6.01273 3.4155 6.01273H9.5632ZM7.46424 20.3011C7.51863 20.9496 7.81468 21.5541 8.29371 21.9947C8.77275 22.4352 9.39981 22.6798 10.0506 22.6798H16.1798C16.8307 22.6799 17.4579 22.4354 17.937 21.9948C18.4162 21.5543 18.7123 20.9497 18.7667 20.3011L19.8498 7.37889H6.3806L7.46424 20.3011ZM11.749 11.0675C11.749 10.9778 11.7314 10.889 11.697 10.8061C11.6627 10.7232 11.6124 10.6479 11.549 10.5845C11.4855 10.5211 11.4102 10.4708 11.3274 10.4364C11.2445 10.4021 11.1557 10.3844 11.066 10.3844C10.9763 10.3844 10.8874 10.4021 10.8046 10.4364C10.7217 10.4708 10.6464 10.5211 10.583 10.5845C10.5195 10.6479 10.4692 10.7232 10.4349 10.8061C10.4006 10.889 10.3829 10.9778 10.3829 11.0675V18.9912C10.3829 19.0809 10.4006 19.1697 10.4349 19.2526C10.4692 19.3355 10.5195 19.4108 10.583 19.4742C10.6464 19.5376 10.7217 19.588 10.8046 19.6223C10.8874 19.6566 10.9763 19.6743 11.066 19.6743C11.1557 19.6743 11.2445 19.6566 11.3274 19.6223C11.4102 19.588 11.4855 19.5376 11.549 19.4742C11.6124 19.4108 11.6627 19.3355 11.697 19.2526C11.7314 19.1697 11.749 19.0809 11.749 18.9912V11.0675ZM15.1644 10.3844C15.5415 10.3844 15.8475 10.6904 15.8475 11.0675V18.9912C15.8475 19.1724 15.7755 19.3461 15.6474 19.4742C15.5193 19.6023 15.3456 19.6743 15.1644 19.6743C14.9833 19.6743 14.8095 19.6023 14.6814 19.4742C14.5533 19.3461 14.4814 19.1724 14.4814 18.9912V11.0675C14.4814 10.6904 14.7874 10.3844 15.1644 10.3844Z" fill="#CF000B"/>
</svg>
