<svg width="20" height="20" viewBox="0 0 20 20" fill="none" xmlns="http://www.w3.org/2000/svg">
<g clip-path="url(#clip0_7411_17794)">
<path d="M18.1241 13.75C18.2899 13.75 18.4489 13.8158 18.5661 13.9331C18.6833 14.0503 18.7491 14.2092 18.7491 14.375V16.875C18.7491 17.7038 18.4204 18.5 17.8341 19.0875C17.2479 19.6737 16.4591 20.0025 15.6216 20.0025H3.12164C2.29289 20.0025 1.49664 19.6737 0.909142 19.0875C0.618679 18.797 0.388355 18.452 0.23135 18.0724C0.0743436 17.6927 -0.00626292 17.2858 -0.00585786 16.875V14.375C-0.00585786 14.2092 0.0599902 14.0503 0.1772 13.9331C0.294411 13.8158 0.453382 13.75 0.619142 13.75C0.784902 13.75 0.943874 13.8158 1.06108 13.9331C1.17829 14.0503 1.24414 14.2092 1.24414 14.375V16.875C1.24447 17.3718 1.44199 17.8483 1.79332 18.1996C2.14464 18.5509 2.62104 18.7484 3.11789 18.7487H15.6179C16.1147 18.7484 16.5911 18.5509 16.9425 18.1996C17.2938 17.8483 17.4913 17.3718 17.4916 16.875V14.375C17.4916 14.2092 17.5575 14.0503 17.6747 13.9331C17.7919 13.8158 17.9509 13.75 18.1166 13.75H18.1241ZM9.37414 0C9.5399 0 9.69887 0.065848 9.81608 0.183058C9.93329 0.300269 9.99914 0.45924 9.99914 0.625V11.6125L12.6866 8.925C12.7448 8.86689 12.8137 8.82079 12.8897 8.78935C12.9656 8.7579 13.047 8.74171 13.1291 8.74171C13.2113 8.74171 13.2927 8.7579 13.3686 8.78935C13.4445 8.82079 13.5135 8.86689 13.5716 8.925C13.6298 8.98311 13.6758 9.0521 13.7073 9.12802C13.7387 9.20395 13.7549 9.28532 13.7549 9.3675C13.7549 9.44968 13.7387 9.53106 13.7073 9.60698C13.6758 9.6829 13.6298 9.75189 13.5716 9.81L9.82164 13.56C9.76359 13.6182 9.69463 13.6644 9.6187 13.696C9.54277 13.7275 9.46136 13.7437 9.37914 13.7437C9.29692 13.7437 9.21552 13.7275 9.13958 13.696C9.06365 13.6644 8.99469 13.6182 8.93664 13.56L5.18664 9.81C5.12831 9.75083 5.08289 9.68333 5.05039 9.6075C5.00164 9.49375 5.00289 9.45 5.00289 9.3675C5.00266 9.24361 5.03926 9.12245 5.10803 9.01941C5.1768 8.91636 5.27465 8.83607 5.38914 8.78875C5.4652 8.75712 5.54677 8.74083 5.62914 8.74083C5.71152 8.74083 5.79308 8.75712 5.86914 8.78875C5.94494 8.82042 6.01375 8.86672 6.07164 8.925L8.75914 11.6125V0.625C8.75914 0.45924 8.82499 0.300269 8.9422 0.183058C9.05941 0.065848 9.21838 0 9.38414 0L9.37414 0Z" fill="white"/>
</g>
<defs>
<clipPath id="clip0_7411_17794">
<rect width="20" height="20" fill="white"/>
</clipPath>
</defs>
</svg>
