<svg width="28" height="28" viewBox="0 0 28 28" fill="none" xmlns="http://www.w3.org/2000/svg">
<path d="M22.2732 16.8492V22.0292C22.2728 22.7622 21.9816 23.465 21.4633 23.9832C20.9451 24.5015 20.2422 24.7928 19.5093 24.7931H5.97482C5.61053 24.7929 5.24987 24.7208 4.91354 24.5808C4.57722 24.4408 4.27187 24.2358 4.01504 23.9774C3.75821 23.7191 3.55497 23.4125 3.41698 23.0754C3.27899 22.7383 3.20899 22.3772 3.21099 22.0129V8.49356C3.20882 8.12985 3.27886 7.76933 3.41704 7.43289C3.55523 7.09644 3.75882 6.79077 4.016 6.53358C4.27319 6.27639 4.57886 6.07281 4.91531 5.93462C5.25175 5.79644 5.61228 5.7264 5.97599 5.72856H11.1548" stroke="#022F2F" stroke-width="1.75" stroke-linecap="round" stroke-linejoin="round"/>
<path d="M22.2732 16.8492V22.0292C22.2728 22.7622 21.9816 23.465 21.4633 23.9832C20.9451 24.5015 20.2422 24.7928 19.5093 24.7931H5.97482C5.61053 24.7929 5.24987 24.7208 4.91354 24.5808C4.57722 24.4408 4.27187 24.2358 4.01504 23.9774C3.75821 23.7191 3.55497 23.4125 3.41698 23.0754C3.27899 22.7383 3.20899 22.3772 3.21099 22.0129V8.49356C3.20882 8.12985 3.27886 7.76933 3.41704 7.43289C3.55523 7.09644 3.75882 6.79077 4.016 6.53358C4.27319 6.27639 4.57886 6.07281 4.91531 5.93462C5.25175 5.79644 5.61228 5.7264 5.97599 5.72856H11.1548" stroke="black" stroke-opacity="0.2" stroke-width="1.75" stroke-linecap="round" stroke-linejoin="round"/>
<path d="M22.2721 10.4956L17.5063 5.72863M7.97461 18.4383V15.9125C7.97694 15.496 8.14261 15.0958 8.43544 14.8006L19.5561 3.67997C19.7037 3.53076 19.8794 3.4123 20.073 3.33146C20.2667 3.25061 20.4744 3.20898 20.6843 3.20898C20.8941 3.20898 21.1019 3.25061 21.2955 3.33146C21.4892 3.4123 21.6649 3.53076 21.8124 3.67997L24.3219 6.18947C24.4712 6.33702 24.5896 6.51272 24.6705 6.70637C24.7513 6.90002 24.7929 7.10778 24.7929 7.31763C24.7929 7.52748 24.7513 7.73525 24.6705 7.9289C24.5896 8.12255 24.4712 8.29824 24.3219 8.4458L13.2013 19.5665C12.9056 19.8601 12.5062 20.0257 12.0894 20.0273H9.56361C9.35485 20.0276 9.14809 19.9867 8.95516 19.907C8.76224 19.8272 8.58695 19.7102 8.43933 19.5626C8.29172 19.415 8.17469 19.2397 8.09494 19.0467C8.0152 18.8538 7.9743 18.6471 7.97461 18.4383Z" stroke="#022F2F" stroke-width="1.75" stroke-linecap="round" stroke-linejoin="round"/>
<path d="M22.2721 10.4956L17.5063 5.72863M7.97461 18.4383V15.9125C7.97694 15.496 8.14261 15.0958 8.43544 14.8006L19.5561 3.67997C19.7037 3.53076 19.8794 3.4123 20.073 3.33146C20.2667 3.25061 20.4744 3.20898 20.6843 3.20898C20.8941 3.20898 21.1019 3.25061 21.2955 3.33146C21.4892 3.4123 21.6649 3.53076 21.8124 3.67997L24.3219 6.18947C24.4712 6.33702 24.5896 6.51272 24.6705 6.70637C24.7513 6.90002 24.7929 7.10778 24.7929 7.31763C24.7929 7.52748 24.7513 7.73525 24.6705 7.9289C24.5896 8.12255 24.4712 8.29824 24.3219 8.4458L13.2013 19.5665C12.9056 19.8601 12.5062 20.0257 12.0894 20.0273H9.56361C9.35485 20.0276 9.14809 19.9867 8.95516 19.907C8.76224 19.8272 8.58695 19.7102 8.43933 19.5626C8.29172 19.415 8.17469 19.2397 8.09494 19.0467C8.0152 18.8538 7.9743 18.6471 7.97461 18.4383Z" stroke="black" stroke-opacity="0.2" stroke-width="1.75" stroke-linecap="round" stroke-linejoin="round"/>
</svg>
