<svg width="20" height="20" viewBox="0 0 20 20" fill="none" xmlns="http://www.w3.org/2000/svg">
<path d="M15.9088 12.0342V15.7342C15.9086 16.2577 15.7006 16.7597 15.3304 17.1299C14.9602 17.5001 14.4582 17.7081 13.9347 17.7084H4.26717C4.00697 17.7082 3.74935 17.6567 3.50912 17.5567C3.26889 17.4568 3.05078 17.3103 2.86733 17.1258C2.68388 16.9412 2.5387 16.7223 2.44014 16.4815C2.34158 16.2406 2.29158 15.9827 2.293 15.7225V6.06586C2.29146 5.80606 2.34148 5.54854 2.44019 5.30823C2.53889 5.06791 2.68431 4.84957 2.86802 4.66587C3.05172 4.48216 3.27006 4.33674 3.51038 4.23804C3.75069 4.13933 4.00821 4.08931 4.268 4.09086H7.96717" stroke="white" stroke-width="1.25" stroke-linecap="round" stroke-linejoin="round"/>
<path d="M15.9098 7.49583L12.5056 4.09083M5.69727 13.1692V11.365C5.69893 11.0675 5.81727 10.7817 6.02643 10.5708L13.9698 2.62749C14.0752 2.52091 14.2007 2.4363 14.339 2.37856C14.4773 2.32081 14.6257 2.29108 14.7756 2.29108C14.9255 2.29108 15.0739 2.32081 15.2122 2.37856C15.3505 2.4363 15.476 2.52091 15.5814 2.62749L17.3739 4.41999C17.4805 4.52539 17.5651 4.65089 17.6229 4.78921C17.6806 4.92753 17.7104 5.07593 17.7104 5.22583C17.7104 5.37572 17.6806 5.52412 17.6229 5.66244C17.5651 5.80077 17.4805 5.92626 17.3739 6.03166L9.4306 13.975C9.21938 14.1848 8.93411 14.303 8.63643 14.3042H6.83227C6.68315 14.3044 6.53547 14.2752 6.39766 14.2182C6.25986 14.1612 6.13465 14.0777 6.02921 13.9722C5.92377 13.8668 5.84018 13.7416 5.78322 13.6038C5.72626 13.466 5.69705 13.3183 5.69727 13.1692Z" stroke="white" stroke-width="1.25" stroke-linecap="round" stroke-linejoin="round"/>
</svg>
