<svg width="16" height="25" viewBox="0 0 24 25" fill="none" xmlns="http://www.w3.org/2000/svg">
<path d="M12 13.6191C12.5523 13.6191 13 13.1714 13 12.6191C13 12.0669 12.5523 11.6191 12 11.6191C11.4477 11.6191 11 12.0669 11 12.6191C11 13.1714 11.4477 13.6191 12 13.6191Z" stroke="currentColor" stroke-width="2" stroke-linecap="round" stroke-linejoin="round"/>
<path d="M19 13.6191C19.5523 13.6191 20 13.1714 20 12.6191C20 12.0669 19.5523 11.6191 19 11.6191C18.4477 11.6191 18 12.0669 18 12.6191C18 13.1714 18.4477 13.6191 19 13.6191Z" stroke="currentColor" stroke-width="2" stroke-linecap="round" stroke-linejoin="round"/>
<path d="M5 13.6191C5.55228 13.6191 6 13.1714 6 12.6191C6 12.0669 5.55228 11.6191 5 11.6191C4.44772 11.6191 4 12.0669 4 12.6191C4 13.1714 4.44772 13.6191 5 13.6191Z" stroke="currentColor" stroke-width="2" stroke-linecap="round" stroke-linejoin="round"/>
</svg>
