<svg width="16" height="16" viewBox="0 0 16 16" fill="none" xmlns="http://www.w3.org/2000/svg">
<g clip-path="url(#clip0_1042_24)">
<path d="M6.59996 2.82669C7.05885 2.71927 7.52867 2.66558 7.99996 2.66669C12.6666 2.66669 15.3333 8.00002 15.3333 8.00002C14.9286 8.75709 14.446 9.46984 13.8933 10.1267M9.41329 9.41335C9.23019 9.60985 9.00939 9.76746 8.76406 9.87677C8.51873 9.98608 8.25389 10.0449 7.98535 10.0496C7.71681 10.0543 7.45007 10.0049 7.20103 9.90435C6.952 9.80376 6.72577 9.65404 6.53586 9.46412C6.34594 9.27421 6.19622 9.04798 6.09563 8.79895C5.99504 8.54991 5.94564 8.28317 5.95038 8.01463C5.95512 7.74609 6.0139 7.48125 6.12321 7.23592C6.23252 6.99059 6.39013 6.76979 6.58663 6.58669M0.666626 0.666687L15.3333 15.3334M11.96 11.96C10.8204 12.8287 9.4327 13.3099 7.99996 13.3334C3.33329 13.3334 0.666626 8.00002 0.666626 8.00002C1.49589 6.45462 2.64605 5.10443 4.03996 4.04002L11.96 11.96Z" stroke="#98A2B3" stroke-width="2" stroke-linecap="round" stroke-linejoin="round"/>
</g>
<defs>
<clipPath id="clip0_1042_24">
<rect width="16" height="16" fill="white"/>
</clipPath>
</defs>
</svg>
