<svg width="34" height="34" viewBox="0 0 34 34" fill="none" xmlns="http://www.w3.org/2000/svg">
<path d="M4.60369 21.501C3.40891 19.9492 2.81152 19.1718 2.81152 16.868C2.81152 14.5628 3.40891 13.7883 4.60369 12.2351C6.98903 9.1371 10.9894 5.62305 16.8677 5.62305C22.7461 5.62305 26.7465 9.1371 29.1318 12.2351C30.3266 13.7897 30.924 14.5642 30.924 16.868C30.924 19.1732 30.3266 19.9477 29.1318 21.501C26.7465 24.5989 22.7461 28.113 16.8677 28.113C10.9894 28.113 6.98903 24.5989 4.60369 21.501Z" stroke="#008080" stroke-width="2.10843"/>
<path d="M21.0851 16.8677C21.0851 17.9861 20.6408 19.0587 19.85 19.8495C19.0592 20.6403 17.9866 21.0846 16.8682 21.0846C15.7499 21.0846 14.6773 20.6403 13.8865 19.8495C13.0956 19.0587 12.6514 17.9861 12.6514 16.8677C12.6514 15.7494 13.0956 14.6768 13.8865 13.886C14.6773 13.0952 15.7499 12.6509 16.8682 12.6509C17.9866 12.6509 19.0592 13.0952 19.85 13.886C20.6408 14.6768 21.0851 15.7494 21.0851 16.8677Z" stroke="#008080" stroke-width="2.10843"/>
</svg>
