<svg width="16" height="16" viewBox="0 0 16 16" fill="none" xmlns="http://www.w3.org/2000/svg">
<path d="M5.16671 1.33301V5.19967H1.33337C1.33337 2.79301 2.76671 1.34634 5.16671 1.33301Z" fill="#025050"/>
<path d="M14.6667 5.19967H10.8334V1.33301C13.2334 1.34634 14.6667 2.79301 14.6667 5.19967Z" fill="#025050"/>
<path d="M14.6667 10.8662C14.64 13.2329 13.2134 14.6529 10.8334 14.6662V10.8662H14.6667Z" fill="#025050"/>
<path d="M5.16671 10.8662V14.6662C2.78671 14.6529 1.36004 13.2329 1.33337 10.8662H5.16671Z" fill="#025050"/>
<path d="M5.16671 6.2002H1.33337V9.86686H5.16671V6.2002Z" fill="#025050"/>
<path d="M14.6667 6.2002H10.8334V9.86686H14.6667V6.2002Z" fill="#025050"/>
<path d="M9.83329 6.2002H6.16663V9.86686H9.83329V6.2002Z" fill="#025050"/>
<path d="M9.83329 1.33301H6.16663V5.19967H9.83329V1.33301Z" fill="#025050"/>
<path d="M9.83329 10.8662H6.16663V14.6662H9.83329V10.8662Z" fill="#025050"/>
</svg>
