<svg width="17" height="23" viewBox="0 0 23 23" fill="none" xmlns="http://www.w3.org/2000/svg">
<path d="M7.1875 15.0938V2.15625L8.625 2.875L10.0625 2.15625L11.4973 2.875L12.9514 2.15625L14.375 2.875L15.8031 2.15625L17.2374 2.875L18.6875 2.15625L20.1254 2.875L21.5625 2.15625V12.2188" stroke="#022F2F" stroke-width="1.4375" stroke-linejoin="round"/>
<path d="M7.1875 15.0938V2.15625L8.625 2.875L10.0625 2.15625L11.4973 2.875L12.9514 2.15625L14.375 2.875L15.8031 2.15625L17.2374 2.875L18.6875 2.15625L20.1254 2.875L21.5625 2.15625V12.2188" stroke="black" stroke-opacity="0.2" stroke-width="1.4375" stroke-linejoin="round"/>
<path d="M21.5625 12.2188V17.25C21.5625 18.2031 21.1839 19.1172 20.5099 19.7912C19.836 20.4651 18.9219 20.8438 17.9688 20.8438M17.9688 20.8438C17.0157 20.8438 16.1016 20.4651 15.4276 19.7912C14.7537 19.1172 14.375 18.2031 14.375 17.25V15.0938H2.15628C2.06166 15.0929 1.96782 15.1109 1.88023 15.1468C1.79265 15.1826 1.71308 15.2355 1.64618 15.3024C1.57927 15.3693 1.52635 15.4489 1.49053 15.5365C1.45471 15.624 1.43669 15.7179 1.43753 15.8125C1.43753 18.6875 1.7403 20.8438 5.03128 20.8438H17.9688Z" stroke="#022F2F" stroke-width="1.4375" stroke-linejoin="round"/>
<path d="M21.5625 12.2188V17.25C21.5625 18.2031 21.1839 19.1172 20.5099 19.7912C19.836 20.4651 18.9219 20.8438 17.9688 20.8438M17.9688 20.8438C17.0157 20.8438 16.1016 20.4651 15.4276 19.7912C14.7537 19.1172 14.375 18.2031 14.375 17.25V15.0938H2.15628C2.06166 15.0929 1.96782 15.1109 1.88023 15.1468C1.79265 15.1826 1.71308 15.2355 1.64618 15.3024C1.57927 15.3693 1.52635 15.4489 1.49053 15.5365C1.45471 15.624 1.43669 15.7179 1.43753 15.8125C1.43753 18.6875 1.7403 20.8438 5.03128 20.8438H17.9688Z" stroke="black" stroke-opacity="0.2" stroke-width="1.4375" stroke-linejoin="round"/>
<path d="M10.0625 6.46875H18.6875M12.9375 10.0625H18.6875" stroke="#022F2F" stroke-width="1.4375" stroke-linecap="round" stroke-linejoin="round"/>
<path d="M10.0625 6.46875H18.6875M12.9375 10.0625H18.6875" stroke="black" stroke-opacity="0.2" stroke-width="1.4375" stroke-linecap="round" stroke-linejoin="round"/>
</svg>
