<svg width="32" height="32" viewBox="0 0 32 32" fill="none" xmlns="http://www.w3.org/2000/svg">
<path d="M20.9072 19.4492C25.5606 19.4492 29.3339 15.6918 29.3339 11.0572C29.3339 6.4225 25.5606 2.6665 20.9072 2.6665C16.2539 2.6665 12.4846 6.42384 12.4846 11.0572C12.4846 13.2038 13.4632 14.7652 13.4632 14.7652L3.2739 24.9118C2.81656 25.3678 2.17656 26.5518 3.2739 27.6452L4.4499 28.8158C4.90723 29.2065 6.05656 29.7532 6.99656 28.8158L8.3699 27.4505C9.74056 28.8158 11.3086 28.0358 11.8966 27.2545C12.8752 25.8892 11.7006 24.5225 11.7006 24.5225L12.0926 24.1318C13.9726 26.0065 15.6192 24.9132 16.2072 24.1318C17.1872 22.7665 16.2072 21.3998 16.2072 21.3998C15.8152 20.6198 15.0312 20.6198 16.0112 19.6438L17.1872 18.4732C18.1272 19.2532 20.0606 19.4492 20.9099 19.4492H20.9072Z" stroke="#008080" stroke-width="2" stroke-linejoin="round"/>
<path d="M23.8471 11.0589C23.8453 11.8366 23.5347 12.5818 22.9837 13.1306C22.4326 13.6794 21.6861 13.9869 20.9084 13.9855C20.1307 13.9869 19.3842 13.6794 18.8331 13.1306C18.2821 12.5818 17.9715 11.8366 17.9697 11.0589C17.9704 10.6737 18.047 10.2924 18.1951 9.93673C18.3431 9.58111 18.5598 9.25814 18.8326 8.98625C19.1055 8.71436 19.4293 8.49887 19.7854 8.35211C20.1416 8.20534 20.5232 8.13016 20.9084 8.13086C21.2936 8.13016 21.6752 8.20534 22.0313 8.35211C22.3875 8.49887 22.7113 8.71436 22.9841 8.98625C23.257 9.25814 23.4737 9.58111 23.6217 9.93673C23.7698 10.2924 23.8464 10.6737 23.8471 11.0589Z" stroke="#008080" stroke-width="2"/>
</svg>
