<svg width="16" height="16" viewBox="0 0 16 16" fill="none" xmlns="http://www.w3.org/2000/svg">
<path d="M13.3333 12.8404H7.28666C6.98666 12.8404 6.73999 12.5937 6.73999 12.2937C6.73999 11.9937 6.98666 11.7471 7.28666 11.7471H13.3333C13.6333 11.7471 13.88 11.9937 13.88 12.2937C13.88 12.6004 13.6333 12.8404 13.3333 12.8404Z" fill="#025050"/>
<path d="M13.3333 8.64704H7.28666C6.98666 8.64704 6.73999 8.40038 6.73999 8.10038C6.73999 7.80038 6.98666 7.55371 7.28666 7.55371H13.3333C13.6333 7.55371 13.88 7.80038 13.88 8.10038C13.88 8.40038 13.6333 8.64704 13.3333 8.64704Z" fill="#025050"/>
<path d="M13.3333 4.44685H7.28666C6.98666 4.44685 6.73999 4.20018 6.73999 3.90018C6.73999 3.60018 6.98666 3.35352 7.28666 3.35352H13.3333C13.6333 3.35352 13.88 3.60018 13.88 3.90018C13.88 4.20018 13.6333 4.44685 13.3333 4.44685Z" fill="#025050"/>
<path d="M3.27345 5.35296C3.12678 5.35296 2.98678 5.29296 2.88678 5.19296L2.28012 4.58629C2.06678 4.37296 2.06678 4.02629 2.28012 3.81296C2.49345 3.59962 2.84012 3.59962 3.05345 3.81296L3.27345 4.03296L4.70012 2.60629C4.91345 2.39296 5.26012 2.39296 5.47345 2.60629C5.68678 2.81962 5.68678 3.16629 5.47345 3.37962L3.66012 5.19296C3.55345 5.29296 3.42012 5.35296 3.27345 5.35296Z" fill="#025050"/>
<path d="M3.27345 9.55315C3.13345 9.55315 2.99345 9.49982 2.88678 9.39315L2.28012 8.78648C2.06678 8.57315 2.06678 8.22648 2.28012 8.01315C2.49345 7.79982 2.84012 7.79982 3.05345 8.01315L3.27345 8.23315L4.70012 6.80648C4.91345 6.59315 5.26012 6.59315 5.47345 6.80648C5.68678 7.01982 5.68678 7.36648 5.47345 7.57982L3.66012 9.39315C3.55345 9.49982 3.41345 9.55315 3.27345 9.55315Z" fill="#025050"/>
<path d="M3.27345 13.5532C3.13345 13.5532 2.99345 13.4998 2.88678 13.3932L2.28012 12.7865C2.06678 12.5732 2.06678 12.2265 2.28012 12.0132C2.49345 11.7998 2.84012 11.7998 3.05345 12.0132L3.27345 12.2332L4.70012 10.8065C4.91345 10.5932 5.26012 10.5932 5.47345 10.8065C5.68678 11.0198 5.68678 11.3665 5.47345 11.5798L3.66012 13.3932C3.55345 13.4998 3.41345 13.5532 3.27345 13.5532Z" fill="#025050"/>
</svg>
