<svg width="23" height="23" viewBox="0 0 23 23" fill="none" xmlns="http://www.w3.org/2000/svg">
<path d="M11.4299 1.42969C13.7035 1.42969 15.8839 2.33286 17.4916 3.94051C19.0993 5.54817 20.0024 7.72862 20.0024 10.0022C20.0024 14.1084 15.5776 18.5975 13.0873 20.8007C12.13 21.6436 10.7298 21.6436 9.77257 20.8007C7.28369 18.5975 2.85742 14.1084 2.85742 10.0022C2.85742 7.72862 3.76059 5.54817 5.36825 3.94051C6.9759 2.33286 9.15635 1.42969 11.4299 1.42969ZM11.4299 2.85844C9.53528 2.85844 7.71824 3.61108 6.37853 4.95079C5.03881 6.29051 4.28617 8.10755 4.28617 10.0022C4.28617 11.5852 5.16342 13.424 6.52931 15.2643C7.86233 17.0616 9.51111 18.6604 10.7213 19.7305C11.1356 20.0963 11.7242 20.0963 12.1386 19.7305C13.3487 18.6604 14.9961 17.0631 16.332 15.2643C17.6964 13.424 18.5737 11.5852 18.5737 10.0022C18.5737 8.10755 17.821 6.29051 16.4813 4.95079C15.1416 3.61108 13.3246 2.85844 11.4299 2.85844ZM11.4299 6.7875C11.8521 6.7875 12.2701 6.87065 12.6601 7.0322C13.0502 7.19376 13.4045 7.43055 13.703 7.72906C14.0016 8.02757 14.2384 8.38196 14.3999 8.77198C14.5615 9.162 14.6446 9.58003 14.6446 10.0022C14.6446 10.4243 14.5615 10.8424 14.3999 11.2324C14.2384 11.6224 14.0016 11.9768 13.703 12.2753C13.4045 12.5738 13.0502 12.8106 12.6601 12.9722C12.2701 13.1337 11.8521 13.2169 11.4299 13.2169C10.5773 13.2169 9.75967 12.8782 9.1568 12.2753C8.55392 11.6724 8.21523 10.8548 8.21523 10.0022C8.21523 9.1496 8.55392 8.33193 9.1568 7.72906C9.75967 7.12619 10.5773 6.7875 11.4299 6.7875ZM11.4299 8.21625C10.9563 8.21625 10.502 8.40441 10.1671 8.73934C9.83215 9.07427 9.64398 9.52853 9.64398 10.0022C9.64398 10.4758 9.83215 10.9301 10.1671 11.265C10.502 11.6 10.9563 11.7881 11.4299 11.7881C11.9036 11.7881 12.3578 11.6 12.6928 11.265C13.0277 10.9301 13.2159 10.4758 13.2159 10.0022C13.2159 9.52853 13.0277 9.07427 12.6928 8.73934C12.3578 8.40441 11.9036 8.21625 11.4299 8.21625Z" fill="#008080"/>
</svg>
