<svg width="24" height="24" viewBox="0 0 24 24" fill="none" xmlns="http://www.w3.org/2000/svg">
<rect width="24" height="24" fill="white"/>
<path d="M18 18C19.245 18.424 20 18.982 20 19.593C20 20.923 16.418 22 12 22C7.582 22 4 20.922 4 19.593C4 18.982 4.755 18.424 6 18" stroke="#008080" stroke-width="1.5" stroke-linecap="round"/>
<path d="M15 9.5C15 10.2956 14.6839 11.0587 14.1213 11.6213C13.5587 12.1839 12.7956 12.5 12 12.5C11.2044 12.5 10.4413 12.1839 9.87868 11.6213C9.31607 11.0587 9 10.2956 9 9.5C9 8.70435 9.31607 7.94129 9.87868 7.37868C10.4413 6.81607 11.2044 6.5 12 6.5C12.7956 6.5 13.5587 6.81607 14.1213 7.37868C14.6839 7.94129 15 8.70435 15 9.5Z" stroke="#008080" stroke-width="1.5"/>
<path d="M12 2C16.059 2 19.5 5.428 19.5 9.587C19.5 13.812 16.003 16.777 12.773 18.793C12.5378 18.9283 12.2713 18.9995 12 18.9995C11.7287 18.9995 11.4622 18.9283 11.227 18.793C8.003 16.757 4.5 13.827 4.5 9.587C4.5 5.428 7.941 2 12 2Z" stroke="#008080" stroke-width="1.5"/>
</svg>
