<svg width="20" height="20" viewBox="0 0 20 20" fill="none" xmlns="http://www.w3.org/2000/svg">
<path d="M7.49967 13.3333C7.49967 13.5543 7.41188 13.7663 7.2556 13.9226C7.09932 14.0789 6.88735 14.1667 6.66634 14.1667C6.44533 14.1667 6.23337 14.0789 6.07709 13.9226C5.92081 13.7663 5.83301 13.5543 5.83301 13.3333C5.83301 13.1123 5.92081 12.9004 6.07709 12.7441C6.23337 12.5878 6.44533 12.5 6.66634 12.5C6.88735 12.5 7.09932 12.5878 7.2556 12.7441C7.41188 12.9004 7.49967 13.1123 7.49967 13.3333ZM10.833 13.3333C10.833 13.5543 10.7452 13.7663 10.5889 13.9226C10.4326 14.0789 10.2207 14.1667 9.99967 14.1667C9.77866 14.1667 9.5667 14.0789 9.41042 13.9226C9.25414 13.7663 9.16634 13.5543 9.16634 13.3333C9.16634 13.1123 9.25414 12.9004 9.41042 12.7441C9.5667 12.5878 9.77866 12.5 9.99967 12.5C10.2207 12.5 10.4326 12.5878 10.5889 12.7441C10.7452 12.9004 10.833 13.1123 10.833 13.3333ZM13.333 14.1667C13.554 14.1667 13.766 14.0789 13.9223 13.9226C14.0785 13.7663 14.1663 13.5543 14.1663 13.3333C14.1663 13.1123 14.0785 12.9004 13.9223 12.7441C13.766 12.5878 13.554 12.5 13.333 12.5C13.112 12.5 12.9 12.5878 12.7438 12.7441C12.5875 12.9004 12.4997 13.1123 12.4997 13.3333C12.4997 13.5543 12.5875 13.7663 12.7438 13.9226C12.9 14.0789 13.112 14.1667 13.333 14.1667Z" fill="#022F2F"/>
<path d="M7.49967 13.3333C7.49967 13.5543 7.41188 13.7663 7.2556 13.9226C7.09932 14.0789 6.88735 14.1667 6.66634 14.1667C6.44533 14.1667 6.23337 14.0789 6.07709 13.9226C5.92081 13.7663 5.83301 13.5543 5.83301 13.3333C5.83301 13.1123 5.92081 12.9004 6.07709 12.7441C6.23337 12.5878 6.44533 12.5 6.66634 12.5C6.88735 12.5 7.09932 12.5878 7.2556 12.7441C7.41188 12.9004 7.49967 13.1123 7.49967 13.3333ZM10.833 13.3333C10.833 13.5543 10.7452 13.7663 10.5889 13.9226C10.4326 14.0789 10.2207 14.1667 9.99967 14.1667C9.77866 14.1667 9.5667 14.0789 9.41042 13.9226C9.25414 13.7663 9.16634 13.5543 9.16634 13.3333C9.16634 13.1123 9.25414 12.9004 9.41042 12.7441C9.5667 12.5878 9.77866 12.5 9.99967 12.5C10.2207 12.5 10.4326 12.5878 10.5889 12.7441C10.7452 12.9004 10.833 13.1123 10.833 13.3333ZM13.333 14.1667C13.554 14.1667 13.766 14.0789 13.9223 13.9226C14.0785 13.7663 14.1663 13.5543 14.1663 13.3333C14.1663 13.1123 14.0785 12.9004 13.9223 12.7441C13.766 12.5878 13.554 12.5 13.333 12.5C13.112 12.5 12.9 12.5878 12.7438 12.7441C12.5875 12.9004 12.4997 13.1123 12.4997 13.3333C12.4997 13.5543 12.5875 13.7663 12.7438 13.9226C12.9 14.0789 13.112 14.1667 13.333 14.1667Z" fill="black" fill-opacity="0.2"/>
<path fill-rule="evenodd" clip-rule="evenodd" d="M4.37533 6.6665V7.75234C4.18644 7.76512 4.0081 7.78289 3.84033 7.80567C3.09033 7.90567 2.45866 8.12234 1.95699 8.62317C1.45533 9.12484 1.24033 9.7565 1.13949 10.5065C1.04199 11.229 1.04199 12.1482 1.04199 13.2873V13.379C1.04199 14.5182 1.04199 15.4373 1.13949 16.1598C1.23949 16.9098 1.45616 17.5415 1.95699 18.0432C2.45866 18.5448 3.09033 18.7598 3.84033 18.8615C4.56283 18.9582 5.48199 18.9582 6.62116 18.9582H13.3795C14.5187 18.9582 15.4378 18.9582 16.1603 18.8615C16.9103 18.7598 17.542 18.5448 18.0437 18.0432C18.5453 17.5415 18.7603 16.9098 18.862 16.1598C18.9587 15.4373 18.9587 14.5182 18.9587 13.379V13.2873C18.9587 12.1482 18.9587 11.229 18.862 10.5065C18.7603 9.7565 18.5453 9.12484 18.0437 8.62317C17.542 8.1215 16.9103 7.9065 16.1603 7.80567C15.9826 7.78214 15.8042 7.76436 15.6253 7.75234V6.6665C15.6253 5.17466 15.0327 3.74392 13.9778 2.68903C12.9229 1.63414 11.4922 1.0415 10.0003 1.0415C8.50848 1.0415 7.07774 1.63414 6.02285 2.68903C4.96796 3.74392 4.37533 5.17466 4.37533 6.6665ZM10.0003 2.2915C8.84 2.2915 7.7272 2.75244 6.90673 3.57291C6.08626 4.39338 5.62533 5.50618 5.62533 6.6665V7.71067C5.93644 7.70845 6.26838 7.70761 6.62116 7.70817H13.3795C13.7323 7.70817 14.0642 7.709 14.3753 7.71067V6.6665C14.3753 4.24984 12.417 2.2915 10.0003 2.2915ZM4.00699 9.044C3.39533 9.1265 3.07199 9.27734 2.84116 9.50734C2.61033 9.73817 2.46033 10.0615 2.37783 10.674C2.29366 11.3032 2.29199 12.1373 2.29199 13.3332C2.29199 14.529 2.29366 15.3632 2.37783 15.9932C2.46033 16.6048 2.61116 16.9282 2.84116 17.159C3.07199 17.3898 3.39533 17.5398 4.00783 17.6223C4.63616 17.7065 5.47116 17.7082 6.66699 17.7082H13.3337C14.5295 17.7082 15.3637 17.7065 15.9937 17.6223C16.6053 17.5398 16.9287 17.389 17.1595 17.159C17.3903 16.9282 17.5403 16.6048 17.6228 15.9923C17.707 15.3632 17.7087 14.529 17.7087 13.3332C17.7087 12.1373 17.707 11.3023 17.6228 10.6732C17.5403 10.0615 17.3895 9.73817 17.1595 9.50734C16.9287 9.2765 16.6053 9.1265 15.9928 9.044C15.3637 8.95984 14.5295 8.95817 13.3337 8.95817H6.66699C5.47116 8.95817 4.63616 8.95984 4.00699 9.044Z" fill="#022F2F"/>
<path fill-rule="evenodd" clip-rule="evenodd" d="M4.37533 6.6665V7.75234C4.18644 7.76512 4.0081 7.78289 3.84033 7.80567C3.09033 7.90567 2.45866 8.12234 1.95699 8.62317C1.45533 9.12484 1.24033 9.7565 1.13949 10.5065C1.04199 11.229 1.04199 12.1482 1.04199 13.2873V13.379C1.04199 14.5182 1.04199 15.4373 1.13949 16.1598C1.23949 16.9098 1.45616 17.5415 1.95699 18.0432C2.45866 18.5448 3.09033 18.7598 3.84033 18.8615C4.56283 18.9582 5.48199 18.9582 6.62116 18.9582H13.3795C14.5187 18.9582 15.4378 18.9582 16.1603 18.8615C16.9103 18.7598 17.542 18.5448 18.0437 18.0432C18.5453 17.5415 18.7603 16.9098 18.862 16.1598C18.9587 15.4373 18.9587 14.5182 18.9587 13.379V13.2873C18.9587 12.1482 18.9587 11.229 18.862 10.5065C18.7603 9.7565 18.5453 9.12484 18.0437 8.62317C17.542 8.1215 16.9103 7.9065 16.1603 7.80567C15.9826 7.78214 15.8042 7.76436 15.6253 7.75234V6.6665C15.6253 5.17466 15.0327 3.74392 13.9778 2.68903C12.9229 1.63414 11.4922 1.0415 10.0003 1.0415C8.50848 1.0415 7.07774 1.63414 6.02285 2.68903C4.96796 3.74392 4.37533 5.17466 4.37533 6.6665ZM10.0003 2.2915C8.84 2.2915 7.7272 2.75244 6.90673 3.57291C6.08626 4.39338 5.62533 5.50618 5.62533 6.6665V7.71067C5.93644 7.70845 6.26838 7.70761 6.62116 7.70817H13.3795C13.7323 7.70817 14.0642 7.709 14.3753 7.71067V6.6665C14.3753 4.24984 12.417 2.2915 10.0003 2.2915ZM4.00699 9.044C3.39533 9.1265 3.07199 9.27734 2.84116 9.50734C2.61033 9.73817 2.46033 10.0615 2.37783 10.674C2.29366 11.3032 2.29199 12.1373 2.29199 13.3332C2.29199 14.529 2.29366 15.3632 2.37783 15.9932C2.46033 16.6048 2.61116 16.9282 2.84116 17.159C3.07199 17.3898 3.39533 17.5398 4.00783 17.6223C4.63616 17.7065 5.47116 17.7082 6.66699 17.7082H13.3337C14.5295 17.7082 15.3637 17.7065 15.9937 17.6223C16.6053 17.5398 16.9287 17.389 17.1595 17.159C17.3903 16.9282 17.5403 16.6048 17.6228 15.9923C17.707 15.3632 17.7087 14.529 17.7087 13.3332C17.7087 12.1373 17.707 11.3023 17.6228 10.6732C17.5403 10.0615 17.3895 9.73817 17.1595 9.50734C16.9287 9.2765 16.6053 9.1265 15.9928 9.044C15.3637 8.95984 14.5295 8.95817 13.3337 8.95817H6.66699C5.47116 8.95817 4.63616 8.95984 4.00699 9.044Z" fill="black" fill-opacity="0.2"/>
</svg>
