<svg width="23" height="23" viewBox="0 0 23 23" fill="none" xmlns="http://www.w3.org/2000/svg">
<path d="M17.1811 18.8161H19.23C19.4102 18.819 19.5884 18.7781 19.7494 18.6971C19.9105 18.616 20.0494 18.4972 20.1545 18.3508C20.2596 18.2043 20.3277 18.0346 20.353 17.8562C20.3782 17.6777 20.3599 17.4958 20.2995 17.3259C19.7771 16.2077 18.9499 15.2594 17.9131 14.5898C16.8762 13.9202 15.6715 13.5566 14.4374 13.5405M14.4374 10.8965C14.8986 10.8966 15.3553 10.8059 15.7814 10.6295C16.2075 10.4531 16.5947 10.1944 16.9209 9.86837C17.247 9.5423 17.5058 9.15517 17.6823 8.72909C17.8588 8.30301 17.9497 7.84634 17.9497 7.38514C17.9509 6.92314 17.861 6.46543 17.685 6.03825C17.5091 5.61106 17.2506 5.2228 16.9243 4.89572C16.598 4.56863 16.2104 4.30915 15.7836 4.13215C15.3569 3.95514 14.8994 3.8641 14.4374 3.86422M8.95091 11.0067C10.0067 11.0041 11.0185 10.5829 11.7641 9.83529C12.5097 9.08771 12.9282 8.07489 12.928 7.01906C12.928 5.96401 12.5089 4.95218 11.7628 4.20616C11.0168 3.46013 10.005 3.04102 8.94995 3.04102C7.89491 3.04102 6.88308 3.46013 6.13705 4.20616C5.39102 4.95218 4.97191 5.96401 4.97191 7.01906C4.97191 8.07489 5.39074 9.08761 6.13652 9.83501C6.88231 10.5824 7.89411 11.0034 8.94995 11.0057M13.4407 19.9594C13.7783 19.959 14.1091 19.8651 14.3966 19.6882C14.6841 19.5112 14.917 19.2582 15.0695 18.957C15.222 18.6559 15.2881 18.3184 15.2606 17.982C15.2331 17.6455 15.113 17.3233 14.9137 17.0509C14.2152 16.1237 13.3159 15.3665 12.2833 14.8361C11.2507 14.3057 10.1115 14.0158 8.95091 13.9881C7.79028 14.0159 6.651 14.3059 5.61838 14.8365C4.58576 15.3671 3.68657 16.1245 2.98816 17.0518C2.78945 17.3243 2.6699 17.6463 2.64269 17.9823C2.61548 18.3184 2.68167 18.6555 2.83397 18.9563C2.98626 19.2571 3.21873 19.51 3.5057 19.687C3.79267 19.8641 4.12298 19.9583 4.46016 19.9594H13.4407Z" stroke="#022F2F" stroke-width="1.4375" stroke-linecap="round" stroke-linejoin="round"/>
<path d="M17.1811 18.8161H19.23C19.4102 18.819 19.5884 18.7781 19.7494 18.6971C19.9105 18.616 20.0494 18.4972 20.1545 18.3508C20.2596 18.2043 20.3277 18.0346 20.353 17.8562C20.3782 17.6777 20.3599 17.4958 20.2995 17.3259C19.7771 16.2077 18.9499 15.2594 17.9131 14.5898C16.8762 13.9202 15.6715 13.5566 14.4374 13.5405M14.4374 10.8965C14.8986 10.8966 15.3553 10.8059 15.7814 10.6295C16.2075 10.4531 16.5947 10.1944 16.9209 9.86837C17.247 9.5423 17.5058 9.15517 17.6823 8.72909C17.8588 8.30301 17.9497 7.84634 17.9497 7.38514C17.9509 6.92314 17.861 6.46543 17.685 6.03825C17.5091 5.61106 17.2506 5.2228 16.9243 4.89572C16.598 4.56863 16.2104 4.30915 15.7836 4.13215C15.3569 3.95514 14.8994 3.8641 14.4374 3.86422M8.95091 11.0067C10.0067 11.0041 11.0185 10.5829 11.7641 9.83529C12.5097 9.08771 12.9282 8.07489 12.928 7.01906C12.928 5.96401 12.5089 4.95218 11.7628 4.20616C11.0168 3.46013 10.005 3.04102 8.94995 3.04102C7.89491 3.04102 6.88308 3.46013 6.13705 4.20616C5.39102 4.95218 4.97191 5.96401 4.97191 7.01906C4.97191 8.07489 5.39074 9.08761 6.13652 9.83501C6.88231 10.5824 7.89411 11.0034 8.94995 11.0057M13.4407 19.9594C13.7783 19.959 14.1091 19.8651 14.3966 19.6882C14.6841 19.5112 14.917 19.2582 15.0695 18.957C15.222 18.6559 15.2881 18.3184 15.2606 17.982C15.2331 17.6455 15.113 17.3233 14.9137 17.0509C14.2152 16.1237 13.3159 15.3665 12.2833 14.8361C11.2507 14.3057 10.1115 14.0158 8.95091 13.9881C7.79028 14.0159 6.651 14.3059 5.61838 14.8365C4.58576 15.3671 3.68657 16.1245 2.98816 17.0518C2.78945 17.3243 2.6699 17.6463 2.64269 17.9823C2.61548 18.3184 2.68167 18.6555 2.83397 18.9563C2.98626 19.2571 3.21873 19.51 3.5057 19.687C3.79267 19.8641 4.12298 19.9583 4.46016 19.9594H13.4407Z" stroke="black" stroke-opacity="0.2" stroke-width="1.4375" stroke-linecap="round" stroke-linejoin="round"/>
</svg>
