<svg width="24" height="24" viewBox="0 0 24 24" fill="none" xmlns="http://www.w3.org/2000/svg">
<path d="M2.99926 8.2636V8.2501C2.99924 6.91669 3.39415 5.61314 4.13416 4.50392C4.87417 3.3947 5.92613 2.5295 7.15732 2.01748C8.3885 1.50546 9.74376 1.36956 11.0521 1.62693C12.3604 1.8843 13.5632 2.5234 14.5088 3.4636C15.2527 3.09642 16.0837 2.94203 16.9098 3.01751C17.736 3.09299 18.5252 3.39538 19.1903 3.89129C19.8554 4.38719 20.3705 5.0573 20.6786 5.82758C20.9867 6.59785 21.0759 7.43831 20.9363 8.2561C21.1415 8.27515 21.3406 8.3363 21.5212 8.43573C21.7018 8.53517 21.8599 8.67075 21.9857 8.83402C22.1116 8.9973 22.2024 9.18475 22.2526 9.38469C22.3027 9.58463 22.3111 9.79276 22.2773 9.9961C21.5993 14.0746 19.9223 16.6561 17.2493 17.7421V18.7501C17.2493 19.3468 17.0122 19.9191 16.5902 20.3411C16.1683 20.763 15.596 21.0001 14.9993 21.0001H8.99926C8.40252 21.0001 7.83022 20.763 7.40827 20.3411C6.98631 19.9191 6.74926 19.3468 6.74926 18.7501V17.7421C4.07626 16.6561 2.39926 14.0746 1.72126 9.9961C1.68854 9.79817 1.69585 9.59568 1.74277 9.40062C1.7897 9.20557 1.87527 9.02191 1.99443 8.86051C2.11359 8.69911 2.26392 8.56325 2.43651 8.46098C2.60911 8.35871 2.80046 8.2921 2.99926 8.2651V8.2636ZM4.49926 8.2501H5.99926C5.99926 7.25554 6.39435 6.30171 7.09761 5.59845C7.80087 4.89519 8.7547 4.5001 9.74926 4.5001C10.7438 4.5001 11.6976 4.89519 12.4009 5.59845C13.1042 6.30171 13.4993 7.25554 13.4993 8.2501H14.9993C14.9993 6.85771 14.4461 5.52235 13.4616 4.53779C12.477 3.55322 11.1416 3.0001 9.74926 3.0001C8.35687 3.0001 7.02151 3.55322 6.03695 4.53779C5.05238 5.52235 4.49926 6.85771 4.49926 8.2501ZM7.49926 8.2501H11.9993C11.9993 7.65336 11.7622 7.08107 11.3402 6.65911C10.9183 6.23715 10.346 6.0001 9.74926 6.0001C9.15252 6.0001 8.58022 6.23715 8.15827 6.65911C7.73631 7.08107 7.49926 7.65336 7.49926 8.2501ZM17.7983 8.2501H19.4048C19.518 7.80681 19.5286 7.34351 19.4356 6.89552C19.3427 6.44753 19.1487 6.02667 18.8685 5.665C18.5883 5.30333 18.2292 5.01039 17.8186 4.80852C17.408 4.60665 16.9568 4.50116 16.4993 4.5001C16.1393 4.5001 15.7973 4.5631 15.4793 4.6786C15.7448 5.1046 15.9638 5.5636 16.1318 6.0451C16.4175 5.97424 16.7177 5.98883 16.9952 6.08706C17.2726 6.18529 17.5152 6.36284 17.6926 6.59767C17.8701 6.8325 17.9747 7.11427 17.9935 7.40803C18.0123 7.70178 17.9444 7.99458 17.7983 8.2501ZM15.7493 18.0001H8.24926V18.7501C8.24926 18.949 8.32828 19.1398 8.46893 19.2804C8.60958 19.4211 8.80035 19.5001 8.99926 19.5001H14.9993C15.1982 19.5001 15.3889 19.4211 15.5296 19.2804C15.6702 19.1398 15.7493 18.949 15.7493 18.7501V18.0001ZM7.72126 16.5001H16.2773C18.6563 15.7351 20.1623 13.5721 20.7983 9.7501H3.20026C3.83626 13.5721 5.34226 15.7351 7.72126 16.5001Z" fill="currentColor"/>
</svg>
