<svg width="20" height="20" viewBox="0 0 20 20" fill="none" xmlns="http://www.w3.org/2000/svg">
<path d="M12.9162 15.0002C12.9162 15.3832 12.8407 15.7625 12.6942 16.1163C12.5476 16.4702 12.3328 16.7917 12.0619 17.0626C11.7911 17.3334 11.4695 17.5482 11.1157 17.6948C10.7618 17.8414 10.3825 17.9168 9.99952 17.9168C9.6165 17.9168 9.23723 17.8414 8.88336 17.6948C8.5295 17.5482 8.20797 17.3334 7.93713 17.0626C7.66629 16.7917 7.45145 16.4702 7.30488 16.1163C7.1583 15.7625 7.08286 15.3832 7.08286 15.0002M16.0254 15.0002H3.97452C3.683 15 3.39806 14.9135 3.15572 14.7514C2.91339 14.5894 2.72453 14.3591 2.61304 14.0898C2.50155 13.8204 2.47243 13.524 2.52936 13.2381C2.58628 12.9522 2.7267 12.6896 2.93286 12.4835L3.43452 11.981C3.90309 11.5121 4.16627 10.8764 4.16619 10.2135V7.91683C4.16619 6.36973 4.78077 4.886 5.87473 3.79204C6.9687 2.69808 8.45243 2.0835 9.99952 2.0835C11.5466 2.0835 13.0304 2.69808 14.1243 3.79204C15.2183 4.886 15.8329 6.36973 15.8329 7.91683V10.2135C15.833 10.8765 16.0965 11.5123 16.5654 11.981L17.0679 12.4835C17.2736 12.6898 17.4137 12.9524 17.4704 13.2381C17.5271 13.5239 17.4979 13.8201 17.3864 14.0893C17.275 14.3585 17.0864 14.5886 16.8443 14.7507C16.6022 14.9129 16.3167 14.9996 16.0254 15.0002Z" stroke="#022F2F" stroke-width="1.25" stroke-linecap="round" stroke-linejoin="round"/>
<path d="M12.9162 15.0002C12.9162 15.3832 12.8407 15.7625 12.6942 16.1163C12.5476 16.4702 12.3328 16.7917 12.0619 17.0626C11.7911 17.3334 11.4695 17.5482 11.1157 17.6948C10.7618 17.8414 10.3825 17.9168 9.99952 17.9168C9.6165 17.9168 9.23723 17.8414 8.88336 17.6948C8.5295 17.5482 8.20797 17.3334 7.93713 17.0626C7.66629 16.7917 7.45145 16.4702 7.30488 16.1163C7.1583 15.7625 7.08286 15.3832 7.08286 15.0002M16.0254 15.0002H3.97452C3.683 15 3.39806 14.9135 3.15572 14.7514C2.91339 14.5894 2.72453 14.3591 2.61304 14.0898C2.50155 13.8204 2.47243 13.524 2.52936 13.2381C2.58628 12.9522 2.7267 12.6896 2.93286 12.4835L3.43452 11.981C3.90309 11.5121 4.16627 10.8764 4.16619 10.2135V7.91683C4.16619 6.36973 4.78077 4.886 5.87473 3.79204C6.9687 2.69808 8.45243 2.0835 9.99952 2.0835C11.5466 2.0835 13.0304 2.69808 14.1243 3.79204C15.2183 4.886 15.8329 6.36973 15.8329 7.91683V10.2135C15.833 10.8765 16.0965 11.5123 16.5654 11.981L17.0679 12.4835C17.2736 12.6898 17.4137 12.9524 17.4704 13.2381C17.5271 13.5239 17.4979 13.8201 17.3864 14.0893C17.275 14.3585 17.0864 14.5886 16.8443 14.7507C16.6022 14.9129 16.3167 14.9996 16.0254 15.0002Z" stroke="black" stroke-opacity="0.2" stroke-width="1.25" stroke-linecap="round" stroke-linejoin="round"/>
</svg>
