<svg width="86" height="17" viewBox="0 0 86 17" fill="none" xmlns="http://www.w3.org/2000/svg">
<path d="M2.16 12.74C1.872 12.74 1.616 12.644 1.392 12.452C1.184 12.244 1.08 12.004 1.08 11.732V4.34C1.08 3.876 1.224 3.5 1.512 3.212C1.8 2.924 2.176 2.78 2.64 2.78H5.064C6.024 2.78 6.816 3.052 7.44 3.596C8.08 4.14 8.4 4.86 8.4 5.756C8.4 6.732 8.088 7.524 7.464 8.132C6.84 8.74 6.048 9.044 5.088 9.044H3.672C3.352 9.044 3.192 9.204 3.192 9.524L3.24 11.732C3.24 12.004 3.128 12.244 2.904 12.452C2.696 12.644 2.448 12.74 2.16 12.74ZM3.552 7.124H4.824C5.816 7.124 6.312 6.716 6.312 5.9C6.312 5.1 5.848 4.7 4.92 4.7H3.552C3.312 4.7 3.192 4.82 3.192 5.06V6.764C3.192 7.004 3.312 7.124 3.552 7.124ZM9.35063 12.74C9.09463 12.74 8.84663 12.644 8.60663 12.452C8.38262 12.26 8.27062 12.012 8.27062 11.708C8.27062 11.58 8.29462 11.444 8.34263 11.3L11.3666 3.404C11.4786 3.116 11.6626 2.9 11.9186 2.756C12.1746 2.612 12.4386 2.54 12.7106 2.54C12.9986 2.54 13.2706 2.612 13.5266 2.756C13.7986 2.9 13.9906 3.116 14.1026 3.404L17.3426 11.252C17.3746 11.316 17.3906 11.38 17.3906 11.444C17.3906 11.508 17.3906 11.572 17.3906 11.636C17.3906 11.972 17.2786 12.236 17.0546 12.428C16.8306 12.62 16.5826 12.716 16.3106 12.716C16.1186 12.716 15.9266 12.66 15.7346 12.548C15.5586 12.452 15.4306 12.292 15.3506 12.068L14.6546 10.196C14.6386 10.1 14.5746 10.052 14.4626 10.052H11.2226C11.1106 10.052 11.0386 10.1 11.0066 10.196L10.3346 12.092C10.2226 12.3 10.0786 12.46 9.90263 12.572C9.72663 12.684 9.54263 12.74 9.35063 12.74ZM12.0866 8.18H13.5026C13.5986 8.18 13.6706 8.148 13.7186 8.084C13.7826 8.004 13.7986 7.908 13.7666 7.796L13.1426 6.092C13.0466 5.836 12.9266 5.708 12.7826 5.708C12.6386 5.708 12.5186 5.844 12.4226 6.116L11.8226 7.82C11.7906 7.916 11.7986 8.004 11.8466 8.084C11.8946 8.148 11.9746 8.18 12.0866 8.18ZM19.4104 12.74C19.1224 12.74 18.8744 12.644 18.6664 12.452C18.4584 12.244 18.3544 12.004 18.3544 11.732V4.34C18.3544 3.876 18.4984 3.5 18.7864 3.212C19.0904 2.924 19.4904 2.78 19.9864 2.78H22.3864C23.3624 2.78 24.1464 3.068 24.7384 3.644C25.3464 4.22 25.6504 4.94 25.6504 5.804C25.6504 6.316 25.5144 6.796 25.2424 7.244C24.9704 7.692 24.5784 8.052 24.0664 8.324C24.2904 8.436 24.4904 8.588 24.6664 8.78C24.8584 8.972 25.0104 9.204 25.1224 9.476L25.9144 11.3C25.9944 11.492 26.0344 11.652 26.0344 11.78C26.0344 12.068 25.9224 12.308 25.6984 12.5C25.4744 12.676 25.2264 12.764 24.9544 12.764C24.7784 12.764 24.6024 12.716 24.4264 12.62C24.2664 12.524 24.1384 12.372 24.0424 12.164L23.1304 9.98C22.9704 9.596 22.7544 9.324 22.4824 9.164C22.2264 8.988 21.9224 8.9 21.5704 8.9H20.9464C20.6264 8.9 20.4664 9.06 20.4664 9.38V11.732C20.4664 12.004 20.3624 12.244 20.1544 12.452C19.9464 12.644 19.6984 12.74 19.4104 12.74ZM20.8264 7.1H22.2904C22.6904 7.1 23.0024 6.988 23.2264 6.764C23.4664 6.54 23.5864 6.252 23.5864 5.9C23.5864 5.532 23.4664 5.244 23.2264 5.036C23.0024 4.812 22.6904 4.7 22.2904 4.7H20.8264C20.5864 4.7 20.4664 4.82 20.4664 5.06V6.74C20.4664 6.98 20.5864 7.1 20.8264 7.1ZM28.5516 12.5C28.0876 12.5 27.7116 12.356 27.4236 12.068C27.1356 11.78 26.9916 11.404 26.9916 10.94V4.268C26.9916 3.804 27.1276 3.444 27.3996 3.188C27.6716 2.916 28.0316 2.78 28.4796 2.78H32.1036C32.7756 2.78 33.1116 3.1 33.1116 3.74C33.1116 4.012 33.0156 4.244 32.8236 4.436C32.6316 4.612 32.3916 4.7 32.1036 4.7H29.6316C29.3116 4.7 29.1516 4.86 29.1516 5.18V6.14C29.1516 6.46 29.3116 6.62 29.6316 6.62H31.7436C32.0636 6.62 32.3116 6.708 32.4876 6.884C32.6636 7.06 32.7516 7.292 32.7516 7.58C32.7516 7.836 32.6476 8.06 32.4396 8.252C32.2476 8.444 32.0156 8.54 31.7436 8.54H29.6316C29.3116 8.54 29.1516 8.7 29.1516 9.02V10.076C29.1516 10.396 29.3116 10.556 29.6316 10.556H32.3436C32.6476 10.556 32.8876 10.644 33.0636 10.82C33.2556 10.996 33.3516 11.236 33.3516 11.54C33.3516 11.812 33.2556 12.044 33.0636 12.236C32.8716 12.412 32.6316 12.5 32.3436 12.5H28.5516ZM35.6306 12.74C35.3106 12.74 35.0466 12.652 34.8386 12.476C34.6466 12.284 34.5506 12.036 34.5506 11.732V3.932C34.5506 3.516 34.6786 3.204 34.9346 2.996C35.1906 2.772 35.4786 2.66 35.7986 2.66C36.0226 2.66 36.2386 2.716 36.4466 2.828C36.6546 2.924 36.8306 3.084 36.9746 3.308L40.4306 8.516C40.4946 8.628 40.5906 8.684 40.7186 8.684C40.8786 8.684 40.9586 8.588 40.9586 8.396L40.7906 3.668C40.7746 3.348 40.8706 3.1 41.0786 2.924C41.2866 2.748 41.5506 2.66 41.8706 2.66C42.1906 2.66 42.4466 2.748 42.6386 2.924C42.8466 3.1 42.9506 3.348 42.9506 3.668V11.444C42.9506 11.844 42.8226 12.156 42.5666 12.38C42.3106 12.604 42.0226 12.716 41.7026 12.716C41.4946 12.716 41.2866 12.66 41.0786 12.548C40.8706 12.452 40.6946 12.292 40.5506 12.068L37.1186 6.692C37.0546 6.58 36.9586 6.524 36.8306 6.524C36.6546 6.524 36.5666 6.628 36.5666 6.836L36.7106 11.732C36.7266 12.036 36.6306 12.284 36.4226 12.476C36.2146 12.652 35.9506 12.74 35.6306 12.74ZM47.7609 12.74C47.4569 12.74 47.2009 12.652 46.9929 12.476C46.7849 12.284 46.6809 12.036 46.6809 11.732V5.468C46.6809 4.988 46.4409 4.748 45.9609 4.748H44.7849C44.4969 4.748 44.2569 4.66 44.0649 4.484C43.8889 4.292 43.8009 4.052 43.8009 3.764C43.8009 3.476 43.8889 3.244 44.0649 3.068C44.2569 2.876 44.4969 2.78 44.7849 2.78H50.7129C51.0169 2.78 51.2569 2.876 51.4329 3.068C51.6249 3.244 51.7209 3.476 51.7209 3.764C51.7209 4.052 51.6249 4.292 51.4329 4.484C51.2569 4.66 51.0169 4.748 50.7129 4.748H49.5609C49.0809 4.748 48.8409 4.988 48.8409 5.468V11.732C48.8409 12.036 48.7369 12.284 48.5289 12.476C48.3369 12.652 48.0809 12.74 47.7609 12.74ZM55.7916 12.74C55.0556 12.74 54.3676 12.62 53.7276 12.38C53.0876 12.124 52.5836 11.788 52.2156 11.372C52.0396 11.18 51.9516 10.956 51.9516 10.7C51.9516 10.428 52.0556 10.188 52.2636 9.98C52.4716 9.772 52.7196 9.668 53.0076 9.668C53.2796 9.668 53.5116 9.764 53.7036 9.956C53.9756 10.212 54.3196 10.412 54.7356 10.556C55.1516 10.7 55.5596 10.772 55.9596 10.772C56.3756 10.772 56.7356 10.684 57.0396 10.508C57.3436 10.316 57.4956 10.02 57.4956 9.62C57.4956 9.284 57.3516 9.028 57.0636 8.852C56.7916 8.66 56.3276 8.508 55.6716 8.396C54.5036 8.204 53.6236 7.884 53.0316 7.436C52.4396 6.972 52.1436 6.324 52.1436 5.492C52.1436 4.596 52.4876 3.884 53.1756 3.356C53.8636 2.812 54.7676 2.54 55.8876 2.54C57.0396 2.54 57.9596 2.836 58.6476 3.428C58.9196 3.652 59.0556 3.916 59.0556 4.22C59.0556 4.476 58.9516 4.7 58.7436 4.892C58.5516 5.068 58.3196 5.156 58.0476 5.156C57.8396 5.156 57.6476 5.1 57.4716 4.988C56.8636 4.604 56.2236 4.412 55.5516 4.412C55.1516 4.412 54.8156 4.492 54.5436 4.652C54.2716 4.812 54.1356 5.052 54.1356 5.372C54.1356 5.708 54.3436 5.972 54.7596 6.164C55.1916 6.356 55.8156 6.532 56.6316 6.692C57.0796 6.772 57.5196 6.916 57.9516 7.124C58.3996 7.316 58.7676 7.612 59.0556 8.012C59.3596 8.412 59.5116 8.956 59.5116 9.644C59.5116 10.556 59.1596 11.3 58.4556 11.876C57.7676 12.452 56.8796 12.74 55.7916 12.74Z" fill="#008080"/>
<path d="M84.1668 12.8132L83.0668 13.0732C82.8202 13.1332 82.6268 13.3199 82.5735 13.5666L82.3402 14.5466C82.2135 15.0799 81.5335 15.2466 81.1802 14.8266L79.1868 12.5332C79.0268 12.3466 79.1135 12.0532 79.3535 11.9932C80.5335 11.7066 81.5935 11.0466 82.3735 10.1066C82.5002 9.95324 82.7268 9.93324 82.8668 10.0732L84.3468 11.5532C84.8535 12.0599 84.6735 12.6932 84.1668 12.8132Z" fill="#FEB92B"/>
<path d="M71.8001 12.8132L72.9001 13.0732C73.1468 13.1332 73.3401 13.3199 73.3934 13.5666L73.6268 14.5466C73.7534 15.0799 74.4334 15.2466 74.7868 14.8266L76.7801 12.5332C76.9401 12.3466 76.8534 12.0532 76.6134 11.9932C75.4334 11.7066 74.3734 11.0466 73.5934 10.1066C73.4668 9.95324 73.2401 9.93324 73.1001 10.0732L71.6201 11.5532C71.1134 12.0599 71.2934 12.6932 71.8001 12.8132Z" fill="#FEB92B"/>
<path d="M77.9997 1.8335C75.4197 1.8335 73.333 3.92016 73.333 6.50016C73.333 7.46683 73.6197 8.3535 74.113 9.0935C74.833 10.1602 75.973 10.9135 77.2997 11.1068C77.5263 11.1468 77.7597 11.1668 77.9997 11.1668C78.2397 11.1668 78.473 11.1468 78.6997 11.1068C80.0263 10.9135 81.1663 10.1602 81.8863 9.0935C82.3797 8.3535 82.6663 7.46683 82.6663 6.50016C82.6663 3.92016 80.5797 1.8335 77.9997 1.8335ZM80.0397 6.3535L79.4863 6.90683C79.393 7.00016 79.3397 7.18016 79.373 7.3135L79.533 8.00016C79.6597 8.54016 79.373 8.7535 78.893 8.46683L78.2263 8.0735C78.1063 8.00016 77.9063 8.00016 77.7863 8.0735L77.1197 8.46683C76.6397 8.74683 76.353 8.54016 76.4797 8.00016L76.6397 7.3135C76.6663 7.18683 76.6197 7.00016 76.5263 6.90683L75.9597 6.3535C75.633 6.02683 75.7397 5.70016 76.193 5.62683L76.9063 5.50683C77.0263 5.48683 77.1663 5.38016 77.2197 5.2735L77.613 4.48683C77.8263 4.06016 78.173 4.06016 78.3863 4.48683L78.7797 5.2735C78.833 5.38016 78.973 5.48683 79.0997 5.50683L79.813 5.62683C80.2597 5.70016 80.3663 6.02683 80.0397 6.3535Z" fill="#FEB92B"/>
</svg>
