<svg width="20" height="20" viewBox="0 0 20 20" fill="none" xmlns="http://www.w3.org/2000/svg">
<path d="M1.66992 9.99967C1.66992 6.85717 1.66992 5.28551 2.64659 4.30967C3.62326 3.33384 5.19409 3.33301 8.33659 3.33301H11.6699C14.8124 3.33301 16.3841 3.33301 17.3599 4.30967C18.3358 5.28634 18.3366 6.85717 18.3366 9.99967C18.3366 13.1422 18.3366 14.7138 17.3599 15.6897C16.3833 16.6655 14.8124 16.6663 11.6699 16.6663H8.33659C5.19409 16.6663 3.62242 16.6663 2.64659 15.6897C1.67076 14.713 1.66992 13.1422 1.66992 9.99967Z" stroke="#022F2F" stroke-width="1.25"/>
<path d="M1.66992 9.99967C1.66992 6.85717 1.66992 5.28551 2.64659 4.30967C3.62326 3.33384 5.19409 3.33301 8.33659 3.33301H11.6699C14.8124 3.33301 16.3841 3.33301 17.3599 4.30967C18.3358 5.28634 18.3366 6.85717 18.3366 9.99967C18.3366 13.1422 18.3366 14.7138 17.3599 15.6897C16.3833 16.6655 14.8124 16.6663 11.6699 16.6663H8.33659C5.19409 16.6663 3.62242 16.6663 2.64659 15.6897C1.67076 14.713 1.66992 13.1422 1.66992 9.99967Z" stroke="black" stroke-opacity="0.2" stroke-width="1.25"/>
<path d="M10.0033 8.33301V11.6663M8.55992 9.16634L11.4466 10.833M11.4466 9.16634L8.55992 10.833M5.61409 8.33301V11.6663M4.16992 9.16634L7.05659 10.833M7.05659 9.16634L4.16992 10.833M14.3933 8.33301V11.6663M12.9499 9.16634L15.8366 10.833M15.8366 9.16634L12.9491 10.833" stroke="#022F2F" stroke-width="1.25" stroke-linecap="round"/>
<path d="M10.0033 8.33301V11.6663M8.55992 9.16634L11.4466 10.833M11.4466 9.16634L8.55992 10.833M5.61409 8.33301V11.6663M4.16992 9.16634L7.05659 10.833M7.05659 9.16634L4.16992 10.833M14.3933 8.33301V11.6663M12.9499 9.16634L15.8366 10.833M15.8366 9.16634L12.9491 10.833" stroke="black" stroke-opacity="0.2" stroke-width="1.25" stroke-linecap="round"/>
</svg>
