<svg width="18" height="19" viewBox="0 0 18 19" fill="none" xmlns="http://www.w3.org/2000/svg">
<path d="M15.1145 4.993L14.4075 4.286C13.0685 2.94669 11.2977 2.12585 9.41032 1.96953C7.52292 1.81321 5.64126 2.33155 4.10015 3.43233C2.55904 4.53311 1.45842 6.14493 0.994136 7.981C0.529846 9.81707 0.731994 11.7583 1.56461 13.4593C2.39723 15.1604 3.80632 16.5108 5.54116 17.2705C7.276 18.0301 9.22408 18.1497 11.0388 17.6078C12.8535 17.066 14.4171 15.898 15.4515 14.3115C16.4858 12.725 16.9238 10.8231 16.6875 8.944M15.1145 4.993L10.8715 4.994M15.1145 4.993V0.75" stroke="white" stroke-width="1.5" stroke-linecap="round" stroke-linejoin="round"/>
</svg>
