<svg width="124" height="28" viewBox="0 0 174 28" fill="none" xmlns="http://www.w3.org/2000/svg">
<path d="M21.8193 8.88968C21.8193 9.00219 21.8122 9.1147 21.7907 9.22721C21.7693 9.33269 21.7478 9.45224 21.7121 9.58584L18.8615 19.3954C18.6542 20.1472 18.2616 20.7309 17.704 21.124C17.1542 21.5037 16.5393 21.7 15.8608 21.7C15.2538 21.7 14.6747 21.5101 14.1391 21.1451C13.6108 20.7795 13.1961 20.2105 12.9173 19.4658L11.0169 13.9495C10.9669 13.7667 10.924 13.6963 10.9025 13.6752C10.9025 13.6963 10.8525 13.7526 10.8024 13.9284L8.89489 19.4587C8.65182 20.2035 8.25211 20.7801 7.69448 21.1521C6.56555 21.8969 5.12987 21.8688 4.05814 21.124C3.50115 20.7302 3.12225 20.1402 2.94352 19.3743L0.107238 9.59224C0.0643427 9.4516 0.0428951 9.33205 0.0214476 9.22657C0.00714919 9.12173 0 9.00219 0 8.88968C0 8.23635 0.243072 7.67379 0.721418 7.21735C1.19976 6.76027 1.79315 6.53589 2.48597 6.53589C3.70068 6.53589 4.47214 7.11187 4.73666 8.20822L6.20809 15.074C6.25814 15.2709 6.32248 15.3201 6.32248 15.3201C6.32963 15.306 6.38682 15.1865 6.41542 15.088L8.45879 9.14986C8.67326 8.54575 9.03007 8.08867 9.50907 7.80036C10.4378 7.23845 11.5024 7.23141 12.4669 7.79333C12.9738 8.09571 13.3098 8.55918 13.46 9.18502L15.4461 15.081C15.4819 15.1935 15.5105 15.2568 15.5319 15.2849C15.5391 15.2498 15.5748 15.1795 15.6177 15.0529L17.082 8.21525C17.3394 7.11187 18.118 6.53589 19.3256 6.53589C20.0184 6.53589 20.6118 6.76091 21.0901 7.21735C21.5762 7.67379 21.8193 8.23571 21.8193 8.88968Z" fill="#008080"/>
<path d="M36.9943 13.3237V19.6198C36.9943 20.2239 36.7512 20.7302 36.28 21.1304C35.816 21.5101 35.2369 21.6994 34.5512 21.6994C33.8656 21.6994 33.2865 21.4954 32.8224 21.0953C32.3506 20.6874 32.1082 20.1606 32.1082 19.5284V13.8363C32.1082 12.7892 31.8794 12.0445 31.4368 11.6155C30.9792 11.1795 30.4294 10.9692 29.7652 10.9692C29.0652 10.9692 28.5147 11.1872 28.0721 11.6296C27.6289 12.086 27.3292 12.5923 27.1791 13.1332V19.4785C27.1791 20.1108 26.9432 20.6452 26.472 21.0665C26.0073 21.4884 25.4432 21.6987 24.7861 21.6987C24.1004 21.6987 23.507 21.4948 23.0358 21.1016C22.5432 20.6938 22.293 20.16 22.293 19.5278V2.1716C22.293 1.57452 22.5289 1.05416 23.0001 0.632877C23.4628 0.217991 24.0627 0 24.7848 0C25.4776 0 26.0495 0.217991 26.4993 0.639269C26.9497 1.06119 27.1778 1.59498 27.1778 2.22018V7.62393C27.5138 7.37078 27.9064 7.15279 28.3496 6.97763C29.0782 6.68228 29.8783 6.53525 30.7076 6.53525C32.5722 6.53525 34.0943 7.08311 35.2512 8.17242C36.4087 9.26173 36.9943 10.998 36.9943 13.3237Z" fill="#008080"/>
<path d="M43.5893 8.98825V19.4799C43.5893 20.1122 43.3533 20.6466 42.8822 21.0679C42.4175 21.4898 41.8533 21.7001 41.1962 21.7001C40.5106 21.7001 39.9243 21.4962 39.446 21.103C38.9533 20.6952 38.7031 20.1614 38.7031 19.5292V8.93903C38.7031 8.34195 38.939 7.82158 39.4102 7.4003C39.8749 6.97839 40.4748 6.76807 41.1962 6.76807C41.9177 6.76807 42.511 6.98606 42.9393 7.40734C43.3754 7.83565 43.5893 8.3624 43.5893 8.98825Z" fill="#008080"/>
<path d="M55.9688 19.1075C55.9688 19.585 55.8258 20.028 55.547 20.4288C55.2682 20.8367 54.8328 21.1314 54.2465 21.3142C53.8176 21.4408 53.4036 21.5392 53.0104 21.6025C52.61 21.6658 52.2103 21.701 51.8171 21.701C50.3743 21.701 49.1595 21.279 48.2094 20.4429C47.252 19.5997 46.7665 18.3064 46.7665 16.5919V11.5532C46.7665 11.4829 46.7522 11.4548 46.7451 11.4477C46.7451 11.4477 46.7165 11.4337 46.645 11.4337H45.9379C45.2522 11.4337 44.7303 11.2227 44.3806 10.7944C44.0446 10.3865 43.873 9.87384 43.873 9.2627C43.873 8.63046 44.0375 8.09603 44.3735 7.67476C44.731 7.22471 45.2522 7.00033 45.9379 7.00033H46.645C46.7165 7.00033 46.7451 6.98626 46.7522 6.98626C46.7522 6.98626 46.7665 6.95813 46.7665 6.88781V3.4364C46.7665 2.81119 46.9881 2.26973 47.4379 1.83439C47.8811 1.39138 48.4667 1.16699 49.1595 1.16699C49.8452 1.16699 50.4315 1.37795 50.8955 1.79923C51.3673 2.22818 51.6033 2.77603 51.6033 3.4364V6.88654C51.6033 6.95686 51.6176 6.98498 51.6176 6.99202C51.6247 6.99202 51.6533 6.99905 51.7248 6.99905H53.4751C54.1107 6.99905 54.654 7.22407 55.0895 7.66644C55.5113 8.10946 55.7323 8.64325 55.7323 9.26142C55.7323 9.89366 55.5106 10.414 55.0752 10.8212C54.6462 11.2291 54.0892 11.4324 53.4322 11.4324H51.7248C51.6462 11.4324 51.6176 11.4464 51.6176 11.4535C51.6176 11.4535 51.6033 11.4816 51.6033 11.5519V15.9367C51.6033 16.5478 51.7391 16.7799 51.8177 16.8643C51.9536 17.0119 52.118 17.0752 52.3396 17.0752C52.3825 17.0752 52.547 17.0682 53.0253 16.9697C53.5608 16.8572 53.7253 16.8432 53.8111 16.8432C54.4181 16.8432 54.9328 17.0682 55.354 17.5176C55.7615 17.9548 55.9688 18.4963 55.9688 19.1075Z" fill="#008080"/>
<path d="M85.266 8.58042C83.9512 7.22389 82.1795 6.5354 80.0074 6.5354C78.6497 6.5354 77.4285 6.97777 76.3711 7.84974C76.221 7.60362 76.0136 7.39266 75.7569 7.21047C75.3423 6.91513 74.8639 6.76746 74.3134 6.76746C73.592 6.76746 72.9915 6.97841 72.5274 7.39969C72.0562 7.82161 71.8203 8.34134 71.8203 8.93841V25.8247C71.8203 26.464 72.0705 26.9914 72.5632 27.3986C73.0422 27.7994 73.6278 27.9957 74.3134 27.9957C74.9705 27.9957 75.5424 27.7847 75.9993 27.3705C76.4705 26.9415 76.7065 26.4077 76.7065 25.7825V20.8071C77.6066 21.3971 78.664 21.6995 79.8644 21.6995C82.108 21.6995 83.9154 20.997 85.2439 19.6053C86.5658 18.2206 87.2372 16.3584 87.2372 14.0679C87.2372 11.7774 86.5736 9.92992 85.266 8.58042ZM79.5291 11.0192C80.4149 11.0192 81.0935 11.2865 81.6153 11.8343C82.1437 12.3962 82.4011 13.1275 82.4011 14.0692C82.4011 14.9897 82.1366 15.7275 81.6082 16.3392C81.087 16.9293 80.4078 17.2176 79.5291 17.2176C78.6861 17.2176 78.0219 16.9293 77.5 16.3392C76.9716 15.7281 76.7071 14.9897 76.7071 14.0692C76.7071 13.1275 76.9645 12.3969 77.4929 11.8343C78.0148 11.2858 78.679 11.0192 79.5291 11.0192Z" fill="#008080"/>
<path d="M118.544 13.3237V19.6198C118.544 20.2239 118.301 20.7302 117.823 21.1304C117.365 21.5101 116.78 21.6994 116.101 21.6994C115.416 21.6994 114.829 21.4954 114.373 21.0952C113.894 20.6874 113.658 20.1606 113.658 19.5284V13.8363C113.658 12.7892 113.429 12.0445 112.98 11.6155C112.523 11.1795 111.98 10.9692 111.308 10.9692C110.608 10.9692 110.043 11.1802 109.586 11.6155C109.115 12.0656 108.829 12.5712 108.722 13.1542L108.729 19.3385C108.729 19.9708 108.486 20.5052 108.015 20.9335C107.557 21.3484 106.986 21.5587 106.329 21.5587C105.643 21.5587 105.057 21.3548 104.579 20.9616C104.086 20.5538 103.836 20.02 103.836 19.3878V8.9389C103.836 8.34182 104.079 7.82146 104.543 7.40018C105.008 6.97826 105.608 6.76794 106.329 6.76794C106.915 6.76794 107.415 6.92968 107.83 7.23908C108.073 7.42192 108.266 7.63991 108.415 7.87835C109.33 6.98593 110.602 6.53589 112.209 6.53589C114.066 6.53589 115.603 7.08374 116.774 8.17306C117.945 9.26173 118.544 10.998 118.544 13.3237Z" fill="#008080"/>
<path d="M134.233 7.42791C133.783 6.99193 133.19 6.76755 132.462 6.76755C131.848 6.76755 131.318 6.93632 130.89 7.25979C130.626 7.46371 130.419 7.70983 130.276 7.98344C129.19 7.0207 127.918 6.53613 126.49 6.53613C124.31 6.53613 122.539 7.22463 121.224 8.58116C119.916 9.93065 119.252 11.7788 119.252 14.0693C119.252 16.3598 119.93 18.2226 121.274 19.6066C122.617 20.9983 124.418 21.7009 126.633 21.7009C127.919 21.7009 129.061 21.3493 130.019 20.6608V20.9772C130.019 21.7501 129.769 22.3549 129.255 22.8183C128.74 23.2818 127.926 23.5139 126.818 23.5139C126.311 23.5139 125.79 23.4576 125.261 23.3381C124.747 23.2255 124.239 23.0286 123.775 22.7761C123.411 22.5581 122.975 22.4456 122.504 22.4456C121.897 22.4456 121.367 22.6777 120.918 23.1341C120.474 23.5906 120.246 24.132 120.246 24.7572C120.246 25.727 120.697 26.4577 121.583 26.9288C122.268 27.2875 123.047 27.554 123.898 27.7369C124.748 27.9127 125.634 27.997 126.534 27.997C129.141 27.997 131.206 27.3648 132.678 26.1138C134.157 24.8557 134.907 23.1552 134.907 21.068V9.07979C134.905 8.42581 134.684 7.87093 134.233 7.42791ZM126.961 17.217C126.082 17.217 125.404 16.9287 124.882 16.3387C124.353 15.7275 124.096 14.9892 124.096 14.0686C124.096 13.127 124.346 12.3963 124.874 11.8338C125.396 11.2859 126.075 11.0187 126.961 11.0187C127.811 11.0187 128.482 11.2859 128.997 11.8338C129.525 12.3957 129.783 13.127 129.783 14.0686C129.783 14.9892 129.525 15.7269 128.99 16.3387C128.475 16.9287 127.811 17.217 126.961 17.217Z" fill="#008080"/>
<path d="M150.559 8.88968V15.4671C150.559 16.8166 150.202 17.9756 149.495 18.9243C148.795 19.8519 147.88 20.5615 146.787 21.0185C145.701 21.4686 144.536 21.7 143.322 21.7C142.143 21.7 141 21.4679 139.914 21.0185C138.814 20.5615 137.899 19.8589 137.185 18.9243C136.456 17.9826 136.092 16.816 136.092 15.4671V8.88968C136.092 8.20119 136.328 7.6316 136.792 7.18922C137.256 6.75324 137.842 6.53589 138.535 6.53589C139.228 6.53589 139.814 6.76794 140.278 7.21735C140.743 7.67443 140.978 8.23635 140.978 8.88968V15.2843C140.978 15.8321 141.185 16.2822 141.614 16.6549C142.057 17.0346 142.614 17.2168 143.321 17.2168C144.035 17.2168 144.593 17.034 145.035 16.6549C145.464 16.2822 145.671 15.8328 145.671 15.2843V8.88968C145.671 8.20119 145.907 7.6316 146.371 7.18922C146.835 6.75324 147.421 6.53589 148.114 6.53589C148.807 6.53589 149.4 6.76794 149.857 7.21735C150.323 7.67379 150.559 8.23571 150.559 8.88968Z" fill="#008080"/>
<path d="M157.155 8.98317V19.4819C157.155 20.1141 156.912 20.6486 156.441 21.0698C155.983 21.4918 155.412 21.7021 154.755 21.7021C154.069 21.7021 153.483 21.4981 153.005 21.105C152.512 20.6971 152.262 20.1634 152.262 19.5311V8.94098C152.262 8.3439 152.505 7.82354 152.976 7.39522C153.434 6.98034 154.033 6.77002 154.755 6.77002C155.483 6.77002 156.07 6.98098 156.505 7.40929C156.934 7.83057 157.155 8.36436 157.155 8.98317Z" fill="#008080"/>
<path d="M173.801 13.3239V19.6201C173.801 20.2242 173.558 20.7305 173.08 21.1307C172.623 21.5104 172.044 21.6996 171.358 21.6996C170.672 21.6996 170.086 21.4957 169.629 21.0955C169.157 20.6876 168.915 20.1609 168.915 19.5286V13.8366C168.915 12.7895 168.686 12.0447 168.243 11.6158C167.786 11.1798 167.236 10.9695 166.572 10.9695C165.872 10.9695 165.307 11.1804 164.85 11.6158C164.378 12.0658 164.093 12.5715 163.979 13.1545L163.986 19.3388C163.986 19.971 163.75 20.5054 163.279 20.9338C162.814 21.3486 162.243 21.559 161.586 21.559C160.9 21.559 160.314 21.355 159.842 20.9619C159.35 20.554 159.1 20.0202 159.1 19.388V8.93915C159.1 8.34207 159.336 7.8217 159.807 7.40043C160.264 6.97851 160.864 6.76819 161.586 6.76819C162.171 6.76819 162.679 6.92992 163.086 7.23933C163.329 7.42216 163.529 7.64015 163.678 7.8786C164.586 6.98618 165.858 6.53613 167.472 6.53613C169.322 6.53613 170.859 7.08399 172.03 8.1733C173.208 9.26198 173.801 10.9982 173.801 13.3239Z" fill="#008080"/>
<path d="M44.2594 3.50881C43.6179 4.47155 42.3753 5.12297 41.2763 5.2195C40.0992 5.32242 38.9125 4.54443 38.2151 3.6648C37.7576 3.08754 37.4586 2.32425 37.6633 1.62041C37.8258 1.06105 38.3126 0.605252 38.8884 0.473562C39.4643 0.341873 40.1057 0.538768 40.5028 0.970275C40.6991 1.18315 40.8915 1.47402 41.1833 1.46059C41.455 1.44845 41.6818 1.16653 41.8417 0.978585C42.0581 0.723517 42.2999 0.520868 42.6288 0.420503C43.0103 0.304156 43.4379 0.343791 43.7908 0.526622C44.2984 0.790001 44.6227 1.33466 44.6819 1.89594C44.7436 2.48854 44.574 3.03639 44.2594 3.50881Z" fill="#FF7C80"/>
<path d="M157.822 3.51541C157.18 4.47815 155.938 5.12956 154.839 5.22609C153.662 5.32901 152.475 4.55102 151.778 3.67139C151.32 3.09413 151.021 2.33084 151.226 1.627C151.388 1.06764 151.875 0.611843 152.451 0.480154C153.027 0.348465 153.668 0.545359 154.065 0.976866C154.262 1.18974 154.454 1.48061 154.746 1.46719C155.017 1.45504 155.244 1.17312 155.404 0.985177C155.621 0.730108 155.862 0.52746 156.191 0.427095C156.573 0.310748 157 0.350382 157.353 0.533213C157.861 0.796592 158.185 1.34125 158.244 1.90253C158.307 2.49513 158.137 3.04299 157.822 3.51541Z" fill="#FF7C80"/>
<path d="M100.679 14.864C100.011 14.8755 99.358 15.1938 98.7633 15.5755C97.8216 16.1802 96.9591 16.9889 95.7776 16.9889C94.995 16.9889 94.3568 16.7268 93.82 16.1828C93.82 16.1828 101.394 13.8961 101.4 13.8948C102.147 13.6692 102.725 13.083 102.942 12.3465C103.531 10.3597 101.279 8.33766 99.7122 7.49063C98.5443 6.85903 97.2184 6.54004 95.7769 6.54004C94.3659 6.54004 93.0511 6.85903 91.8656 7.49063C90.6769 8.12543 89.717 9.01273 89.0099 10.1315C88.2963 11.2572 87.9336 12.5805 87.9336 14.0726C87.9336 14.1697 87.9336 14.2675 87.9368 14.3647C87.9778 15.5774 88.2716 16.6929 88.8181 17.6876C88.876 17.795 88.9377 17.9024 89.0027 18.0066C89.7098 19.1554 90.673 20.0695 91.8618 20.7178C93.0472 21.366 94.3659 21.6952 95.7763 21.6952C97.2178 21.6952 98.543 21.366 99.7148 20.7178C101.11 19.9455 103.148 18.2508 102.716 16.457C102.493 15.5224 101.667 14.8473 100.679 14.864ZM93.5061 11.6376C94.0422 11.1204 95.1829 10.7062 95.9784 10.7062C96.6472 10.7062 97.444 10.8334 98.2115 11.3141L92.6287 13.1776C92.6287 12.6476 93.2773 11.8562 93.5061 11.6376Z" fill="#008080"/>
<path d="M68.4156 14.9821C67.7475 14.9936 67.0943 15.312 66.4996 15.6936C65.5579 16.2984 64.6954 17.1071 63.5139 17.1071C62.7314 17.1071 62.0931 16.845 61.5563 16.3009C61.5563 16.3009 69.1305 14.0143 69.1364 14.013C69.8832 13.7873 70.4609 13.2011 70.6787 12.4647C71.2668 10.4778 69.0155 8.45583 67.4485 7.6088C66.2806 6.9772 64.9548 6.6582 63.5132 6.6582C62.1022 6.6582 60.7874 6.9772 59.602 7.6088C58.4133 8.24359 57.4533 9.1309 56.7462 10.2496C56.0326 11.3754 55.6699 12.6987 55.6699 14.1907C55.6699 14.2879 55.6699 14.3857 55.6732 14.4829C55.7141 15.6956 56.0079 16.8111 56.5545 17.8058C56.6123 17.9132 56.6741 18.0206 56.7391 18.1248C57.4462 19.2735 58.4094 20.1877 59.5981 20.8359C60.7835 21.4841 62.1022 21.8134 63.5126 21.8134C64.9541 21.8134 66.2793 21.4841 67.4511 20.8359C68.8465 20.0637 70.884 18.369 70.4525 16.5752C70.2283 15.6399 69.4029 14.9655 68.4156 14.9821ZM61.2424 11.7551C61.7786 11.2379 62.9192 10.8237 63.7147 10.8237C64.3835 10.8237 65.1803 10.9509 65.9479 11.4316L60.365 13.2951C60.365 12.7651 61.013 11.9737 61.2424 11.7551Z" fill="#008080"/>
</svg>
