<svg width="16" height="16" viewBox="0 0 16 16" fill="none" xmlns="http://www.w3.org/2000/svg">
<path d="M14.6665 4.33398H10.6665" stroke="#025050" stroke-width="1.5" stroke-miterlimit="10" stroke-linecap="round" stroke-linejoin="round"/>
<path d="M4.00016 4.33398H1.3335" stroke="#025050" stroke-width="1.5" stroke-miterlimit="10" stroke-linecap="round" stroke-linejoin="round"/>
<path d="M6.66683 6.66667C7.95549 6.66667 9.00016 5.622 9.00016 4.33333C9.00016 3.04467 7.95549 2 6.66683 2C5.37816 2 4.3335 3.04467 4.3335 4.33333C4.3335 5.622 5.37816 6.66667 6.66683 6.66667Z" stroke="#025050" stroke-width="1.5" stroke-miterlimit="10" stroke-linecap="round" stroke-linejoin="round"/>
<path d="M14.6667 11.666H12" stroke="#025050" stroke-width="1.5" stroke-miterlimit="10" stroke-linecap="round" stroke-linejoin="round"/>
<path d="M5.3335 11.666H1.3335" stroke="#025050" stroke-width="1.5" stroke-miterlimit="10" stroke-linecap="round" stroke-linejoin="round"/>
<path d="M9.33333 14.0007C10.622 14.0007 11.6667 12.956 11.6667 11.6673C11.6667 10.3787 10.622 9.33398 9.33333 9.33398C8.04467 9.33398 7 10.3787 7 11.6673C7 12.956 8.04467 14.0007 9.33333 14.0007Z" stroke="#025050" stroke-width="1.5" stroke-miterlimit="10" stroke-linecap="round" stroke-linejoin="round"/>
</svg>
