<svg width="23" height="23" viewBox="0 0 23 23" fill="none" xmlns="http://www.w3.org/2000/svg">
<path fill-rule="evenodd" clip-rule="evenodd" d="M11.5 7.90625C10.5469 7.90625 9.63279 8.28488 8.95884 8.95884C8.28488 9.63279 7.90625 10.5469 7.90625 11.5C7.90625 12.4531 8.28488 13.3672 8.95884 14.0412C9.63279 14.7151 10.5469 15.0938 11.5 15.0938C12.4531 15.0938 13.3672 14.7151 14.0412 14.0412C14.7151 13.3672 15.0938 12.4531 15.0938 11.5C15.0938 10.5469 14.7151 9.63279 14.0412 8.95884C13.3672 8.28488 12.4531 7.90625 11.5 7.90625ZM9.34375 11.5C9.34375 10.9281 9.57093 10.3797 9.9753 9.9753C10.3797 9.57093 10.9281 9.34375 11.5 9.34375C12.0719 9.34375 12.6203 9.57093 13.0247 9.9753C13.4291 10.3797 13.6562 10.9281 13.6562 11.5C13.6562 12.0719 13.4291 12.6203 13.0247 13.0247C12.6203 13.4291 12.0719 13.6562 11.5 13.6562C10.9281 13.6562 10.3797 13.4291 9.9753 13.0247C9.57093 12.6203 9.34375 12.0719 9.34375 11.5Z" fill="#022F2F"/>
<path fill-rule="evenodd" clip-rule="evenodd" d="M11.5 7.90625C10.5469 7.90625 9.63279 8.28488 8.95884 8.95884C8.28488 9.63279 7.90625 10.5469 7.90625 11.5C7.90625 12.4531 8.28488 13.3672 8.95884 14.0412C9.63279 14.7151 10.5469 15.0938 11.5 15.0938C12.4531 15.0938 13.3672 14.7151 14.0412 14.0412C14.7151 13.3672 15.0938 12.4531 15.0938 11.5C15.0938 10.5469 14.7151 9.63279 14.0412 8.95884C13.3672 8.28488 12.4531 7.90625 11.5 7.90625ZM9.34375 11.5C9.34375 10.9281 9.57093 10.3797 9.9753 9.9753C10.3797 9.57093 10.9281 9.34375 11.5 9.34375C12.0719 9.34375 12.6203 9.57093 13.0247 9.9753C13.4291 10.3797 13.6562 10.9281 13.6562 11.5C13.6562 12.0719 13.4291 12.6203 13.0247 13.0247C12.6203 13.4291 12.0719 13.6562 11.5 13.6562C10.9281 13.6562 10.3797 13.4291 9.9753 13.0247C9.57093 12.6203 9.34375 12.0719 9.34375 11.5Z" fill="black" fill-opacity="0.2"/>
<path fill-rule="evenodd" clip-rule="evenodd" d="M11.4765 1.19727C11.0501 1.19727 10.6945 1.19727 10.4032 1.21643C10.1053 1.22843 9.81159 1.28996 9.53397 1.39852C9.21413 1.53085 8.92349 1.7249 8.67865 1.96957C8.43381 2.21425 8.23957 2.50476 8.10702 2.82452C7.96806 3.15993 7.93068 3.51452 7.91535 3.89977C7.91364 4.04062 7.87626 4.17875 7.80672 4.30126C7.73717 4.42376 7.63772 4.52664 7.51764 4.60031C7.39385 4.6677 7.25499 4.70261 7.11405 4.70177C6.9731 4.70093 6.83467 4.66437 6.71168 4.59552C6.37052 4.41535 6.04468 4.27064 5.68435 4.22272C5.34121 4.17759 4.99255 4.20048 4.65826 4.2901C4.32397 4.37971 4.01061 4.53429 3.73606 4.74502C3.50356 4.93139 3.30373 5.15519 3.14477 5.40722C2.98185 5.65064 2.8036 5.95827 2.59085 6.32722L2.56689 6.36939C2.35318 6.73835 2.17589 7.04597 2.04748 7.30856C1.91331 7.58264 1.80789 7.85289 1.76956 8.15189C1.67813 8.84476 1.86566 9.54557 2.29089 10.1002C2.51227 10.3886 2.80073 10.5985 3.12656 10.8036C3.24792 10.8756 3.34903 10.9771 3.42043 11.0988C3.49183 11.2205 3.53119 11.3583 3.53481 11.4993C3.53119 11.6404 3.49183 11.7782 3.42043 11.8999C3.34903 12.0216 3.24792 12.1231 3.12656 12.1951C2.80073 12.4002 2.51323 12.6101 2.29089 12.8985C2.08017 13.1731 1.92559 13.4864 1.83597 13.8207C1.74636 14.155 1.72347 14.5037 1.7686 14.8468C1.80789 15.1458 1.91235 15.4161 2.04652 15.6901C2.17589 15.9527 2.35318 16.2603 2.56689 16.6293L2.59085 16.6715C2.8036 17.0404 2.98185 17.3481 3.14477 17.5915C3.31439 17.8435 3.49648 18.0706 3.73606 18.2527C4.01053 18.4636 4.32387 18.6184 4.65816 18.7081C4.99245 18.7979 5.34115 18.821 5.68435 18.776C6.04468 18.7281 6.37052 18.5843 6.71168 18.4032C6.83455 18.3345 6.97281 18.298 7.11357 18.2972C7.25433 18.2964 7.39301 18.3312 7.51668 18.3984C7.63774 18.4711 7.73806 18.5738 7.80804 18.6964C7.87802 18.8191 7.9153 18.9577 7.91631 19.0989C7.93068 19.4842 7.96806 19.8388 8.10798 20.1742C8.24031 20.494 8.43436 20.7847 8.67903 21.0295C8.92371 21.2743 9.21422 21.4686 9.53397 21.6011C9.81189 21.7161 10.0994 21.7612 10.4032 21.7813C10.6945 21.8014 11.0501 21.8014 11.4765 21.8014H11.5244C11.9509 21.8014 12.3064 21.8014 12.5978 21.7823C12.9025 21.7612 13.1891 21.7161 13.467 21.6002C13.7868 21.4678 14.0775 21.2738 14.3223 21.0291C14.5671 20.7844 14.7614 20.4939 14.8939 20.1742C15.0329 19.8388 15.0703 19.4842 15.0856 19.0989C15.0872 18.9579 15.1244 18.8196 15.194 18.6969C15.2636 18.5742 15.3631 18.4712 15.4833 18.3974C15.6072 18.3302 15.7461 18.2954 15.887 18.2964C16.028 18.2975 16.1664 18.3342 16.2893 18.4032C16.6304 18.5833 16.9563 18.7281 17.3166 18.775C18.0095 18.8664 18.7103 18.6789 19.2649 18.2537C19.5045 18.0697 19.6866 17.8435 19.8562 17.5915C20.0191 17.3481 20.1973 17.0404 20.4101 16.6715L20.4341 16.6293C20.6478 16.2603 20.8251 15.9527 20.9535 15.6901C21.0876 15.4161 21.1931 15.1448 21.2314 14.8468C21.3228 14.1539 21.1353 13.4531 20.7101 12.8985C20.4887 12.6101 20.2002 12.4002 19.8744 12.1951C19.753 12.1231 19.6519 12.0216 19.5805 11.8999C19.5091 11.7782 19.4698 11.6404 19.4661 11.4993C19.4661 11.2329 19.6118 10.9684 19.8744 10.8036C20.2002 10.5985 20.4877 10.3886 20.7101 10.1002C20.9208 9.82563 21.0754 9.51227 21.165 9.17798C21.2546 8.84369 21.2775 8.49503 21.2323 8.15189C21.1872 7.8573 21.0933 7.57228 20.9544 7.30856C20.7908 6.99018 20.6172 6.67697 20.4341 6.36939L20.4101 6.32722C20.2351 6.01488 20.0503 5.70807 19.8562 5.40722C19.6971 5.15553 19.4973 4.93206 19.2649 4.74597C18.9904 4.53508 18.6771 4.38033 18.3428 4.29055C18.0085 4.20077 17.6598 4.17772 17.3166 4.22272C16.9563 4.27064 16.6304 4.41439 16.2893 4.59552C16.1664 4.6642 16.0281 4.70067 15.8874 4.7015C15.7466 4.70234 15.6079 4.66753 15.4843 4.60031C15.3638 4.52688 15.264 4.42409 15.1941 4.30157C15.1242 4.17905 15.0866 4.0408 15.0846 3.89977C15.0703 3.51452 15.0329 3.15993 14.893 2.82452C14.7606 2.50467 14.5666 2.21403 14.3219 1.96919C14.0772 1.72435 13.7867 1.53011 13.467 1.39756C13.1891 1.28256 12.9016 1.23752 12.5978 1.21739C12.3064 1.19727 11.9509 1.19727 11.5244 1.19727H11.4765ZM10.0841 2.72581C10.1579 2.69514 10.27 2.66735 10.5009 2.65106C10.7376 2.63477 11.0443 2.63477 11.5005 2.63477C11.9566 2.63477 12.2633 2.63477 12.5 2.65106C12.731 2.66735 12.8431 2.69514 12.9169 2.72581C13.2111 2.84752 13.444 3.08039 13.5657 3.3746C13.604 3.4666 13.6356 3.61131 13.6481 3.95343C13.6768 4.71243 14.0688 5.44364 14.7646 5.84518C15.4603 6.24672 16.2893 6.22085 16.9611 5.86627C17.2639 5.70622 17.4048 5.66118 17.5044 5.64872C17.8193 5.60712 18.1378 5.69226 18.3899 5.88543C18.4532 5.93431 18.5337 6.01768 18.6631 6.20935C18.7963 6.40677 18.9496 6.67222 19.1777 7.06706C19.4058 7.46189 19.5581 7.72831 19.6626 7.94106C19.7651 8.14902 19.7968 8.26018 19.8063 8.33972C19.848 8.6546 19.7628 8.97311 19.5696 9.22522C19.5083 9.30477 19.3991 9.40443 19.1096 9.58652C18.4656 9.99093 18.0286 10.6963 18.0286 11.4993C18.0286 12.3024 18.4656 13.0078 19.1096 13.4122C19.3991 13.5943 19.5083 13.6939 19.5696 13.7735C19.7632 14.0255 19.8476 14.3437 19.8063 14.659C19.7968 14.7385 19.7642 14.8506 19.6626 15.0576C19.5581 15.2713 19.4058 15.5368 19.1777 15.9316C18.9496 16.3265 18.7953 16.5919 18.6631 16.7893C18.5337 16.981 18.4532 17.0644 18.3899 17.1133C18.1378 17.3064 17.8193 17.3916 17.5044 17.35C17.4048 17.3375 17.2648 17.2925 16.9611 17.1324C16.2902 16.7778 15.4603 16.751 14.7646 17.1526C14.0688 17.5541 13.6768 18.2863 13.6481 19.0453C13.6356 19.3874 13.604 19.5321 13.5657 19.6241C13.5055 19.7696 13.4172 19.9017 13.3059 20.0131C13.1945 20.1244 13.0624 20.2127 12.9169 20.2729C12.8431 20.3036 12.731 20.3313 12.5 20.3476C12.2633 20.3639 11.9566 20.3639 11.5005 20.3639C11.0443 20.3639 10.7376 20.3639 10.5009 20.3476C10.27 20.3313 10.1579 20.3036 10.0841 20.2729C9.93859 20.2127 9.80641 20.1244 9.69508 20.0131C9.58376 19.9017 9.49547 19.7696 9.43527 19.6241C9.39693 19.5321 9.36531 19.3874 9.35285 19.0453C9.3241 18.2863 8.93214 17.5551 8.23639 17.1535C7.54064 16.752 6.71168 16.7778 6.03989 17.1324C5.73706 17.2925 5.59618 17.3375 5.49652 17.35C5.18164 17.3916 4.86313 17.3064 4.61102 17.1133C4.54777 17.0644 4.46727 16.981 4.33789 16.7893C4.15761 16.5088 3.98599 16.2227 3.82327 15.9316C3.59518 15.5368 3.44281 15.2704 3.33835 15.0576C3.23581 14.8497 3.20418 14.7385 3.1946 14.659C3.15299 14.3441 3.23814 14.0256 3.43131 13.7735C3.49264 13.6939 3.60189 13.5943 3.89131 13.4122C4.53531 13.0078 4.97231 12.3024 4.97231 11.4993C4.97231 10.6963 4.53531 9.99093 3.89131 9.58652C3.60189 9.40443 3.49264 9.30477 3.43131 9.22522C3.23814 8.97311 3.15299 8.6546 3.1946 8.33972C3.20418 8.26018 3.23677 8.14806 3.33835 7.94106C3.44281 7.72735 3.59518 7.46189 3.82327 7.06706C4.05135 6.67222 4.20564 6.40677 4.33789 6.20935C4.46727 6.01768 4.54777 5.93431 4.61102 5.88543C4.86313 5.69226 5.18164 5.60712 5.49652 5.64872C5.59618 5.66118 5.7361 5.70622 6.03989 5.86627C6.71073 6.22085 7.54064 6.24768 8.23639 5.84518C8.93214 5.44364 9.3241 4.71243 9.35285 3.95343C9.36531 3.61131 9.39693 3.4666 9.43527 3.3746C9.55698 3.08039 9.78985 2.84752 10.0841 2.72581Z" fill="#022F2F"/>
<path fill-rule="evenodd" clip-rule="evenodd" d="M11.4765 1.19727C11.0501 1.19727 10.6945 1.19727 10.4032 1.21643C10.1053 1.22843 9.81159 1.28996 9.53397 1.39852C9.21413 1.53085 8.92349 1.7249 8.67865 1.96957C8.43381 2.21425 8.23957 2.50476 8.10702 2.82452C7.96806 3.15993 7.93068 3.51452 7.91535 3.89977C7.91364 4.04062 7.87626 4.17875 7.80672 4.30126C7.73717 4.42376 7.63772 4.52664 7.51764 4.60031C7.39385 4.6677 7.25499 4.70261 7.11405 4.70177C6.9731 4.70093 6.83467 4.66437 6.71168 4.59552C6.37052 4.41535 6.04468 4.27064 5.68435 4.22272C5.34121 4.17759 4.99255 4.20048 4.65826 4.2901C4.32397 4.37971 4.01061 4.53429 3.73606 4.74502C3.50356 4.93139 3.30373 5.15519 3.14477 5.40722C2.98185 5.65064 2.8036 5.95827 2.59085 6.32722L2.56689 6.36939C2.35318 6.73835 2.17589 7.04597 2.04748 7.30856C1.91331 7.58264 1.80789 7.85289 1.76956 8.15189C1.67813 8.84476 1.86566 9.54557 2.29089 10.1002C2.51227 10.3886 2.80073 10.5985 3.12656 10.8036C3.24792 10.8756 3.34903 10.9771 3.42043 11.0988C3.49183 11.2205 3.53119 11.3583 3.53481 11.4993C3.53119 11.6404 3.49183 11.7782 3.42043 11.8999C3.34903 12.0216 3.24792 12.1231 3.12656 12.1951C2.80073 12.4002 2.51323 12.6101 2.29089 12.8985C2.08017 13.1731 1.92559 13.4864 1.83597 13.8207C1.74636 14.155 1.72347 14.5037 1.7686 14.8468C1.80789 15.1458 1.91235 15.4161 2.04652 15.6901C2.17589 15.9527 2.35318 16.2603 2.56689 16.6293L2.59085 16.6715C2.8036 17.0404 2.98185 17.3481 3.14477 17.5915C3.31439 17.8435 3.49648 18.0706 3.73606 18.2527C4.01053 18.4636 4.32387 18.6184 4.65816 18.7081C4.99245 18.7979 5.34115 18.821 5.68435 18.776C6.04468 18.7281 6.37052 18.5843 6.71168 18.4032C6.83455 18.3345 6.97281 18.298 7.11357 18.2972C7.25433 18.2964 7.39301 18.3312 7.51668 18.3984C7.63774 18.4711 7.73806 18.5738 7.80804 18.6964C7.87802 18.8191 7.9153 18.9577 7.91631 19.0989C7.93068 19.4842 7.96806 19.8388 8.10798 20.1742C8.24031 20.494 8.43436 20.7847 8.67903 21.0295C8.92371 21.2743 9.21422 21.4686 9.53397 21.6011C9.81189 21.7161 10.0994 21.7612 10.4032 21.7813C10.6945 21.8014 11.0501 21.8014 11.4765 21.8014H11.5244C11.9509 21.8014 12.3064 21.8014 12.5978 21.7823C12.9025 21.7612 13.1891 21.7161 13.467 21.6002C13.7868 21.4678 14.0775 21.2738 14.3223 21.0291C14.5671 20.7844 14.7614 20.4939 14.8939 20.1742C15.0329 19.8388 15.0703 19.4842 15.0856 19.0989C15.0872 18.9579 15.1244 18.8196 15.194 18.6969C15.2636 18.5742 15.3631 18.4712 15.4833 18.3974C15.6072 18.3302 15.7461 18.2954 15.887 18.2964C16.028 18.2975 16.1664 18.3342 16.2893 18.4032C16.6304 18.5833 16.9563 18.7281 17.3166 18.775C18.0095 18.8664 18.7103 18.6789 19.2649 18.2537C19.5045 18.0697 19.6866 17.8435 19.8562 17.5915C20.0191 17.3481 20.1973 17.0404 20.4101 16.6715L20.4341 16.6293C20.6478 16.2603 20.8251 15.9527 20.9535 15.6901C21.0876 15.4161 21.1931 15.1448 21.2314 14.8468C21.3228 14.1539 21.1353 13.4531 20.7101 12.8985C20.4887 12.6101 20.2002 12.4002 19.8744 12.1951C19.753 12.1231 19.6519 12.0216 19.5805 11.8999C19.5091 11.7782 19.4698 11.6404 19.4661 11.4993C19.4661 11.2329 19.6118 10.9684 19.8744 10.8036C20.2002 10.5985 20.4877 10.3886 20.7101 10.1002C20.9208 9.82563 21.0754 9.51227 21.165 9.17798C21.2546 8.84369 21.2775 8.49503 21.2323 8.15189C21.1872 7.8573 21.0933 7.57228 20.9544 7.30856C20.7908 6.99018 20.6172 6.67697 20.4341 6.36939L20.4101 6.32722C20.2351 6.01488 20.0503 5.70807 19.8562 5.40722C19.6971 5.15553 19.4973 4.93206 19.2649 4.74597C18.9904 4.53508 18.6771 4.38033 18.3428 4.29055C18.0085 4.20077 17.6598 4.17772 17.3166 4.22272C16.9563 4.27064 16.6304 4.41439 16.2893 4.59552C16.1664 4.6642 16.0281 4.70067 15.8874 4.7015C15.7466 4.70234 15.6079 4.66753 15.4843 4.60031C15.3638 4.52688 15.264 4.42409 15.1941 4.30157C15.1242 4.17905 15.0866 4.0408 15.0846 3.89977C15.0703 3.51452 15.0329 3.15993 14.893 2.82452C14.7606 2.50467 14.5666 2.21403 14.3219 1.96919C14.0772 1.72435 13.7867 1.53011 13.467 1.39756C13.1891 1.28256 12.9016 1.23752 12.5978 1.21739C12.3064 1.19727 11.9509 1.19727 11.5244 1.19727H11.4765ZM10.0841 2.72581C10.1579 2.69514 10.27 2.66735 10.5009 2.65106C10.7376 2.63477 11.0443 2.63477 11.5005 2.63477C11.9566 2.63477 12.2633 2.63477 12.5 2.65106C12.731 2.66735 12.8431 2.69514 12.9169 2.72581C13.2111 2.84752 13.444 3.08039 13.5657 3.3746C13.604 3.4666 13.6356 3.61131 13.6481 3.95343C13.6768 4.71243 14.0688 5.44364 14.7646 5.84518C15.4603 6.24672 16.2893 6.22085 16.9611 5.86627C17.2639 5.70622 17.4048 5.66118 17.5044 5.64872C17.8193 5.60712 18.1378 5.69226 18.3899 5.88543C18.4532 5.93431 18.5337 6.01768 18.6631 6.20935C18.7963 6.40677 18.9496 6.67222 19.1777 7.06706C19.4058 7.46189 19.5581 7.72831 19.6626 7.94106C19.7651 8.14902 19.7968 8.26018 19.8063 8.33972C19.848 8.6546 19.7628 8.97311 19.5696 9.22522C19.5083 9.30477 19.3991 9.40443 19.1096 9.58652C18.4656 9.99093 18.0286 10.6963 18.0286 11.4993C18.0286 12.3024 18.4656 13.0078 19.1096 13.4122C19.3991 13.5943 19.5083 13.6939 19.5696 13.7735C19.7632 14.0255 19.8476 14.3437 19.8063 14.659C19.7968 14.7385 19.7642 14.8506 19.6626 15.0576C19.5581 15.2713 19.4058 15.5368 19.1777 15.9316C18.9496 16.3265 18.7953 16.5919 18.6631 16.7893C18.5337 16.981 18.4532 17.0644 18.3899 17.1133C18.1378 17.3064 17.8193 17.3916 17.5044 17.35C17.4048 17.3375 17.2648 17.2925 16.9611 17.1324C16.2902 16.7778 15.4603 16.751 14.7646 17.1526C14.0688 17.5541 13.6768 18.2863 13.6481 19.0453C13.6356 19.3874 13.604 19.5321 13.5657 19.6241C13.5055 19.7696 13.4172 19.9017 13.3059 20.0131C13.1945 20.1244 13.0624 20.2127 12.9169 20.2729C12.8431 20.3036 12.731 20.3313 12.5 20.3476C12.2633 20.3639 11.9566 20.3639 11.5005 20.3639C11.0443 20.3639 10.7376 20.3639 10.5009 20.3476C10.27 20.3313 10.1579 20.3036 10.0841 20.2729C9.93859 20.2127 9.80641 20.1244 9.69508 20.0131C9.58376 19.9017 9.49547 19.7696 9.43527 19.6241C9.39693 19.5321 9.36531 19.3874 9.35285 19.0453C9.3241 18.2863 8.93214 17.5551 8.23639 17.1535C7.54064 16.752 6.71168 16.7778 6.03989 17.1324C5.73706 17.2925 5.59618 17.3375 5.49652 17.35C5.18164 17.3916 4.86313 17.3064 4.61102 17.1133C4.54777 17.0644 4.46727 16.981 4.33789 16.7893C4.15761 16.5088 3.98599 16.2227 3.82327 15.9316C3.59518 15.5368 3.44281 15.2704 3.33835 15.0576C3.23581 14.8497 3.20418 14.7385 3.1946 14.659C3.15299 14.3441 3.23814 14.0256 3.43131 13.7735C3.49264 13.6939 3.60189 13.5943 3.89131 13.4122C4.53531 13.0078 4.97231 12.3024 4.97231 11.4993C4.97231 10.6963 4.53531 9.99093 3.89131 9.58652C3.60189 9.40443 3.49264 9.30477 3.43131 9.22522C3.23814 8.97311 3.15299 8.6546 3.1946 8.33972C3.20418 8.26018 3.23677 8.14806 3.33835 7.94106C3.44281 7.72735 3.59518 7.46189 3.82327 7.06706C4.05135 6.67222 4.20564 6.40677 4.33789 6.20935C4.46727 6.01768 4.54777 5.93431 4.61102 5.88543C4.86313 5.69226 5.18164 5.60712 5.49652 5.64872C5.59618 5.66118 5.7361 5.70622 6.03989 5.86627C6.71073 6.22085 7.54064 6.24768 8.23639 5.84518C8.93214 5.44364 9.3241 4.71243 9.35285 3.95343C9.36531 3.61131 9.39693 3.4666 9.43527 3.3746C9.55698 3.08039 9.78985 2.84752 10.0841 2.72581Z" fill="black" fill-opacity="0.2"/>
</svg>
