<svg width="24" height="24" viewBox="0 0 24 24" fill="none" xmlns="http://www.w3.org/2000/svg">
<path d="M7.19961 4.80156C6.56309 4.80156 5.95264 5.05442 5.50255 5.50451C5.05247 5.95459 4.79961 6.56504 4.79961 7.20156V16.8016C4.79961 17.4381 5.05247 18.0485 5.50255 18.4986C5.95264 18.9487 6.56309 19.2016 7.19961 19.2016H16.7996C17.4361 19.2016 18.0466 18.9487 18.4967 18.4986C18.9468 18.0485 19.1996 17.4381 19.1996 16.8016V13.8016C19.1996 13.6424 19.2628 13.4898 19.3753 13.3773C19.4879 13.2648 19.6405 13.2016 19.7996 13.2016C19.9587 13.2016 20.1114 13.2648 20.2239 13.3773C20.3364 13.4898 20.3996 13.6424 20.3996 13.8016V16.8016C20.3996 17.7563 20.0203 18.672 19.3452 19.3471C18.6701 20.0223 17.7544 20.4016 16.7996 20.4016H7.19961C6.24483 20.4016 5.32916 20.0223 4.65403 19.3471C3.97889 18.672 3.59961 17.7563 3.59961 16.8016V7.20156C3.59961 6.24678 3.97889 5.33111 4.65403 4.65598C5.32916 3.98085 6.24483 3.60156 7.19961 3.60156H10.1996C10.3587 3.60156 10.5114 3.66478 10.6239 3.7773C10.7364 3.88982 10.7996 4.04243 10.7996 4.20156C10.7996 4.36069 10.7364 4.5133 10.6239 4.62583C10.5114 4.73835 10.3587 4.80156 10.1996 4.80156H7.19961ZM13.1996 4.20156C13.1996 4.04243 13.2628 3.88982 13.3753 3.7773C13.4879 3.66478 13.6405 3.60156 13.7996 3.60156H19.7996C19.9587 3.60156 20.1114 3.66478 20.2239 3.7773C20.3364 3.88982 20.3996 4.04243 20.3996 4.20156V10.2016C20.3996 10.3607 20.3364 10.5133 20.2239 10.6258C20.1114 10.7383 19.9587 10.8016 19.7996 10.8016C19.6405 10.8016 19.4879 10.7383 19.3753 10.6258C19.2628 10.5133 19.1996 10.3607 19.1996 10.2016V5.64996L14.2244 10.6264C14.1117 10.739 13.9589 10.8023 13.7996 10.8023C13.6403 10.8023 13.4875 10.739 13.3748 10.6264C13.2621 10.5137 13.1989 10.3609 13.1989 10.2016C13.1989 10.0422 13.2621 9.88943 13.3748 9.77676L18.3512 4.80156H13.7996C13.6405 4.80156 13.4879 4.73835 13.3753 4.62583C13.2628 4.5133 13.1996 4.36069 13.1996 4.20156Z" fill="#001F1F" fill-opacity="0.7"/>
</svg>
