<svg width="24" height="24" viewBox="0 0 24 24" fill="none" xmlns="http://www.w3.org/2000/svg">
<g clip-path="url(#clip0_3793_38400)">
<path d="M9.75 10.5C9.94891 10.5 10.1397 10.579 10.2803 10.7197C10.421 10.8603 10.5 11.0511 10.5 11.25V17.25C10.5 17.4489 10.421 17.6397 10.2803 17.7803C10.1397 17.921 9.94891 18 9.75 18C9.55109 18 9.36032 17.921 9.21967 17.7803C9.07902 17.6397 9 17.4489 9 17.25V11.25C9 11.0511 9.07902 10.8603 9.21967 10.7197C9.36032 10.579 9.55109 10.5 9.75 10.5ZM15 11.25C15 11.0511 14.921 10.8603 14.7803 10.7197C14.6397 10.579 14.4489 10.5 14.25 10.5C14.0511 10.5 13.8603 10.579 13.7197 10.7197C13.579 10.8603 13.5 11.0511 13.5 11.25V17.25C13.5 17.4489 13.579 17.6397 13.7197 17.7803C13.8603 17.921 14.0511 18 14.25 18C14.4489 18 14.6397 17.921 14.7803 17.7803C14.921 17.6397 15 17.4489 15 17.25V11.25Z" fill="#022F2F"/>
<path d="M9.75 10.5C9.94891 10.5 10.1397 10.579 10.2803 10.7197C10.421 10.8603 10.5 11.0511 10.5 11.25V17.25C10.5 17.4489 10.421 17.6397 10.2803 17.7803C10.1397 17.921 9.94891 18 9.75 18C9.55109 18 9.36032 17.921 9.21967 17.7803C9.07902 17.6397 9 17.4489 9 17.25V11.25C9 11.0511 9.07902 10.8603 9.21967 10.7197C9.36032 10.579 9.55109 10.5 9.75 10.5ZM15 11.25C15 11.0511 14.921 10.8603 14.7803 10.7197C14.6397 10.579 14.4489 10.5 14.25 10.5C14.0511 10.5 13.8603 10.579 13.7197 10.7197C13.579 10.8603 13.5 11.0511 13.5 11.25V17.25C13.5 17.4489 13.579 17.6397 13.7197 17.7803C13.8603 17.921 14.0511 18 14.25 18C14.4489 18 14.6397 17.921 14.7803 17.7803C14.921 17.6397 15 17.4489 15 17.25V11.25Z" fill="black" fill-opacity="0.2"/>
<path fill-rule="evenodd" clip-rule="evenodd" d="M12.1797 0H11.8182C11.2152 0 10.7157 0 10.3032 0.033C9.88169 0.0675 9.49469 0.141 9.13019 0.327C8.56573 0.614616 8.1068 1.07354 7.81919 1.638C7.63319 2.0025 7.55969 2.3895 7.52519 2.811C7.49219 3.2175 7.49219 3.7155 7.49219 4.326V4.5075H2.24219C2.04328 4.5075 1.85251 4.58652 1.71186 4.72717C1.57121 4.86782 1.49219 5.05859 1.49219 5.2575C1.49219 5.45641 1.57121 5.64718 1.71186 5.78783C1.85251 5.92848 2.04328 6.0075 2.24219 6.0075H3.05219L3.94769 16.7475C4.04219 17.8845 4.11719 18.7875 4.23569 19.5075C4.35569 20.2455 4.52969 20.8575 4.85069 21.4125C5.38169 22.3185 6.17069 23.0475 7.11569 23.4975C7.69469 23.7735 8.32019 23.895 9.06569 23.9535C9.79619 24.0105 10.7007 24.0105 11.8407 24.0105H12.1557C13.2957 24.0105 14.1957 24.0105 14.9307 23.9535C15.6762 23.895 16.3002 23.7735 16.8807 23.4975C17.8271 23.0445 18.616 22.3182 19.1457 21.4125C19.4697 20.8605 19.6407 20.247 19.7607 19.5075C19.8807 18.7875 19.9542 17.8875 20.0502 16.7475L20.9457 6.0075H21.7557C21.9546 6.0075 22.1454 5.92848 22.286 5.78783C22.4267 5.64718 22.5057 5.45641 22.5057 5.2575C22.5057 5.05859 22.4267 4.86782 22.286 4.72717C22.1454 4.58652 21.9546 4.5075 21.7557 4.5075H16.5057V4.3275C16.5057 3.723 16.5057 3.2235 16.4727 2.8125C16.4382 2.3895 16.3647 2.0025 16.1787 1.638C15.8911 1.07354 15.4321 0.614616 14.8677 0.327C14.5032 0.141 14.1147 0.0675 13.6947 0.033C13.2882 0 12.7902 0 12.1797 0ZM4.55969 6L5.44169 16.59C5.53919 17.766 5.60969 18.6 5.71769 19.26C5.82269 19.908 5.95619 20.3175 6.14819 20.646C6.52731 21.2928 7.09159 21.8111 7.76819 22.134C8.11169 22.299 8.53169 22.3965 9.18569 22.449C9.84869 22.5015 10.6857 22.5015 11.8707 22.5015H12.1212C13.3017 22.5015 14.1462 22.5015 14.8062 22.449C15.4602 22.398 15.8802 22.299 16.2237 22.134C16.9003 21.8111 17.4646 21.2928 17.8437 20.646C18.0357 20.3175 18.1692 19.9065 18.2757 19.26C18.3822 18.603 18.4527 17.7645 18.5517 16.59L19.4337 6H4.56869H4.55969ZM8.99969 4.5H14.9997V4.35C14.9997 3.708 14.9997 3.2715 14.9712 2.934C14.9442 2.6055 14.8962 2.4375 14.8362 2.319C14.6924 2.03677 14.4629 1.80731 14.1807 1.6635C14.0637 1.6035 13.8957 1.5555 13.5657 1.5285C13.0942 1.50186 12.6219 1.49235 12.1497 1.5H11.8497C11.2077 1.5 10.7712 1.5 10.4337 1.5285C10.1052 1.5555 9.93719 1.6035 9.81869 1.6635C9.53646 1.80731 9.307 2.03677 9.16319 2.319C9.10319 2.436 9.05519 2.604 9.02819 2.934C8.99969 3.2715 8.99969 3.708 8.99969 4.35V4.5Z" fill="#022F2F"/>
<path fill-rule="evenodd" clip-rule="evenodd" d="M12.1797 0H11.8182C11.2152 0 10.7157 0 10.3032 0.033C9.88169 0.0675 9.49469 0.141 9.13019 0.327C8.56573 0.614616 8.1068 1.07354 7.81919 1.638C7.63319 2.0025 7.55969 2.3895 7.52519 2.811C7.49219 3.2175 7.49219 3.7155 7.49219 4.326V4.5075H2.24219C2.04328 4.5075 1.85251 4.58652 1.71186 4.72717C1.57121 4.86782 1.49219 5.05859 1.49219 5.2575C1.49219 5.45641 1.57121 5.64718 1.71186 5.78783C1.85251 5.92848 2.04328 6.0075 2.24219 6.0075H3.05219L3.94769 16.7475C4.04219 17.8845 4.11719 18.7875 4.23569 19.5075C4.35569 20.2455 4.52969 20.8575 4.85069 21.4125C5.38169 22.3185 6.17069 23.0475 7.11569 23.4975C7.69469 23.7735 8.32019 23.895 9.06569 23.9535C9.79619 24.0105 10.7007 24.0105 11.8407 24.0105H12.1557C13.2957 24.0105 14.1957 24.0105 14.9307 23.9535C15.6762 23.895 16.3002 23.7735 16.8807 23.4975C17.8271 23.0445 18.616 22.3182 19.1457 21.4125C19.4697 20.8605 19.6407 20.247 19.7607 19.5075C19.8807 18.7875 19.9542 17.8875 20.0502 16.7475L20.9457 6.0075H21.7557C21.9546 6.0075 22.1454 5.92848 22.286 5.78783C22.4267 5.64718 22.5057 5.45641 22.5057 5.2575C22.5057 5.05859 22.4267 4.86782 22.286 4.72717C22.1454 4.58652 21.9546 4.5075 21.7557 4.5075H16.5057V4.3275C16.5057 3.723 16.5057 3.2235 16.4727 2.8125C16.4382 2.3895 16.3647 2.0025 16.1787 1.638C15.8911 1.07354 15.4321 0.614616 14.8677 0.327C14.5032 0.141 14.1147 0.0675 13.6947 0.033C13.2882 0 12.7902 0 12.1797 0ZM4.55969 6L5.44169 16.59C5.53919 17.766 5.60969 18.6 5.71769 19.26C5.82269 19.908 5.95619 20.3175 6.14819 20.646C6.52731 21.2928 7.09159 21.8111 7.76819 22.134C8.11169 22.299 8.53169 22.3965 9.18569 22.449C9.84869 22.5015 10.6857 22.5015 11.8707 22.5015H12.1212C13.3017 22.5015 14.1462 22.5015 14.8062 22.449C15.4602 22.398 15.8802 22.299 16.2237 22.134C16.9003 21.8111 17.4646 21.2928 17.8437 20.646C18.0357 20.3175 18.1692 19.9065 18.2757 19.26C18.3822 18.603 18.4527 17.7645 18.5517 16.59L19.4337 6H4.56869H4.55969ZM8.99969 4.5H14.9997V4.35C14.9997 3.708 14.9997 3.2715 14.9712 2.934C14.9442 2.6055 14.8962 2.4375 14.8362 2.319C14.6924 2.03677 14.4629 1.80731 14.1807 1.6635C14.0637 1.6035 13.8957 1.5555 13.5657 1.5285C13.0942 1.50186 12.6219 1.49235 12.1497 1.5H11.8497C11.2077 1.5 10.7712 1.5 10.4337 1.5285C10.1052 1.5555 9.93719 1.6035 9.81869 1.6635C9.53646 1.80731 9.307 2.03677 9.16319 2.319C9.10319 2.436 9.05519 2.604 9.02819 2.934C8.99969 3.2715 8.99969 3.708 8.99969 4.35V4.5Z" fill="black" fill-opacity="0.2"/>
</g>
<defs>
<clipPath id="clip0_3793_38400">
<rect width="24" height="24" fill="white"/>
</clipPath>
</defs>
</svg>
