<svg width="24" height="24" viewBox="0 0 24 24" fill="none" xmlns="http://www.w3.org/2000/svg">
<path d="M21 7.84757C21.4281 7.6002 21.7885 7.25085 22.049 6.8306C22.3095 6.41034 22.4621 5.93221 22.4932 5.43874C22.5243 4.94527 22.4329 4.45176 22.2273 4.00212C22.0216 3.55248 21.708 3.16064 21.3143 2.86147C20.9206 2.56229 20.4591 2.36506 19.9708 2.28732C19.4825 2.20957 18.9826 2.25372 18.5155 2.41585C18.0484 2.57797 17.6286 2.85303 17.2934 3.21657C16.9583 3.5801 16.7182 4.02084 16.5945 4.49957C16.4675 4.99151 16.4675 5.50764 16.5945 5.99957C16.7101 6.44746 16.9277 6.86256 17.2303 7.21242C17.5329 7.56228 17.9123 7.83742 18.3389 8.01635C18.7654 8.19528 19.2276 8.27315 19.6892 8.24387C20.1508 8.21459 20.5995 8.07896 21 7.84757ZM6 4.49957H15.0615C14.9776 4.99605 14.9776 5.50309 15.0615 5.99957H6C5.60217 5.99957 5.22064 6.15761 4.93934 6.43891C4.65804 6.72022 4.5 7.10175 4.5 7.49957V8.60957L12 12.6476L17.916 9.46307C18.9084 9.83604 20.0006 9.84666 21 9.49307V16.4996C21 17.2952 20.6839 18.0583 20.1213 18.6209C19.5587 19.1835 18.7956 19.4996 18 19.4996H6C5.20435 19.4996 4.44129 19.1835 3.87868 18.6209C3.31607 18.0583 3 17.2952 3 16.4996V7.49957C3 6.70392 3.31607 5.94086 3.87868 5.37825C4.44129 4.81564 5.20435 4.49957 6 4.49957ZM4.5 10.3136V16.4996C4.5 16.8974 4.65804 17.2789 4.93934 17.5602C5.22064 17.8415 5.60217 17.9996 6 17.9996H18C18.3978 17.9996 18.7794 17.8415 19.0607 17.5602C19.342 17.2789 19.5 16.8974 19.5 16.4996V10.3136L12.3555 14.1596C12.2462 14.2184 12.1241 14.2492 12 14.2492C11.8759 14.2492 11.7538 14.2184 11.6445 14.1596L4.5 10.3136Z" fill="#02273A"/>
</svg>
