<svg width="19" height="19" viewBox="0 0 19 19" fill="none" xmlns="http://www.w3.org/2000/svg">
<path d="M3.0625 12.2547V13.0174C3.0625 13.6267 3.30454 14.211 3.73536 14.6418C4.16619 15.0726 4.75052 15.3147 5.3598 15.3147H13.0175C13.6267 15.3147 14.2111 15.0726 14.6419 14.6418C15.0727 14.211 15.3148 13.6267 15.3148 13.0174V12.2516M9.18863 11.8687V3.44531M9.18863 3.44531L11.8688 6.12549M9.18863 3.44531L6.50845 6.12549" stroke="currentColor" stroke-width="1.14865" stroke-linecap="round" stroke-linejoin="round"/>
<path d="M3.0625 12.2547V13.0174C3.0625 13.6267 3.30454 14.211 3.73536 14.6418C4.16619 15.0726 4.75052 15.3147 5.3598 15.3147H13.0175C13.6267 15.3147 14.2111 15.0726 14.6419 14.6418C15.0727 14.211 15.3148 13.6267 15.3148 13.0174V12.2516M9.18863 11.8687V3.44531M9.18863 3.44531L11.8688 6.12549M9.18863 3.44531L6.50845 6.12549" stroke="currentColor" stroke-opacity="0.2" stroke-width="1.14865" stroke-linecap="round" stroke-linejoin="round"/>
</svg>
