<svg width="20" height="20" viewBox="0 0 20 20" fill="none" xmlns="http://www.w3.org/2000/svg">
<path fill-rule="evenodd" clip-rule="evenodd" d="M9.99972 1.0415C8.94991 1.0415 7.94309 1.45854 7.20076 2.20087C6.45843 2.9432 6.04139 3.95002 6.04139 4.99984C6.04139 6.04965 6.45843 7.05647 7.20076 7.7988C7.94309 8.54113 8.94991 8.95817 9.99972 8.95817C11.0495 8.95817 12.0564 8.54113 12.7987 7.7988C13.541 7.05647 13.9581 6.04965 13.9581 4.99984C13.9581 3.95002 13.541 2.9432 12.7987 2.20087C12.0564 1.45854 11.0495 1.0415 9.99972 1.0415ZM7.29139 4.99984C7.29139 4.28154 7.57673 3.59267 8.08464 3.08476C8.59255 2.57685 9.28143 2.2915 9.99972 2.2915C10.718 2.2915 11.4069 2.57685 11.9148 3.08476C12.4227 3.59267 12.7081 4.28154 12.7081 4.99984C12.7081 5.71813 12.4227 6.40701 11.9148 6.91492C11.4069 7.42283 10.718 7.70817 9.99972 7.70817C9.28143 7.70817 8.59255 7.42283 8.08464 6.91492C7.57673 6.40701 7.29139 5.71813 7.29139 4.99984ZM9.99972 10.2082C8.07222 10.2082 6.29555 10.6465 4.97972 11.3865C3.68305 12.1165 2.70805 13.2215 2.70805 14.5832V14.6682C2.70722 15.6365 2.70639 16.8515 3.77222 17.7198C4.29639 18.1465 5.03055 18.4507 6.02222 18.6507C7.01555 18.8523 8.31139 18.9582 9.99972 18.9582C11.6881 18.9582 12.9831 18.8523 13.9781 18.6507C14.9697 18.4507 15.7031 18.1465 16.2281 17.7198C17.2939 16.8515 17.2922 15.6365 17.2914 14.6682V14.5832C17.2914 13.2215 16.3164 12.1165 15.0206 11.3865C13.7039 10.6465 11.9281 10.2082 9.99972 10.2082ZM3.95805 14.5832C3.95805 13.874 4.47639 13.104 5.59222 12.4765C6.68889 11.8598 8.24555 11.4582 10.0006 11.4582C11.7539 11.4582 13.3106 11.8598 14.4072 12.4765C15.5239 13.104 16.0414 13.874 16.0414 14.5832C16.0414 15.6732 16.0081 16.2865 15.4381 16.7498C15.1297 17.0015 14.6131 17.2473 13.7297 17.4257C12.8489 17.604 11.6447 17.7082 9.99972 17.7082C8.35472 17.7082 7.14972 17.604 6.26972 17.4257C5.38639 17.2473 4.86972 17.0015 4.56139 16.7507C3.99139 16.2865 3.95805 15.6732 3.95805 14.5832Z" fill="#022F2F"/>
<path fill-rule="evenodd" clip-rule="evenodd" d="M9.99972 1.0415C8.94991 1.0415 7.94309 1.45854 7.20076 2.20087C6.45843 2.9432 6.04139 3.95002 6.04139 4.99984C6.04139 6.04965 6.45843 7.05647 7.20076 7.7988C7.94309 8.54113 8.94991 8.95817 9.99972 8.95817C11.0495 8.95817 12.0564 8.54113 12.7987 7.7988C13.541 7.05647 13.9581 6.04965 13.9581 4.99984C13.9581 3.95002 13.541 2.9432 12.7987 2.20087C12.0564 1.45854 11.0495 1.0415 9.99972 1.0415ZM7.29139 4.99984C7.29139 4.28154 7.57673 3.59267 8.08464 3.08476C8.59255 2.57685 9.28143 2.2915 9.99972 2.2915C10.718 2.2915 11.4069 2.57685 11.9148 3.08476C12.4227 3.59267 12.7081 4.28154 12.7081 4.99984C12.7081 5.71813 12.4227 6.40701 11.9148 6.91492C11.4069 7.42283 10.718 7.70817 9.99972 7.70817C9.28143 7.70817 8.59255 7.42283 8.08464 6.91492C7.57673 6.40701 7.29139 5.71813 7.29139 4.99984ZM9.99972 10.2082C8.07222 10.2082 6.29555 10.6465 4.97972 11.3865C3.68305 12.1165 2.70805 13.2215 2.70805 14.5832V14.6682C2.70722 15.6365 2.70639 16.8515 3.77222 17.7198C4.29639 18.1465 5.03055 18.4507 6.02222 18.6507C7.01555 18.8523 8.31139 18.9582 9.99972 18.9582C11.6881 18.9582 12.9831 18.8523 13.9781 18.6507C14.9697 18.4507 15.7031 18.1465 16.2281 17.7198C17.2939 16.8515 17.2922 15.6365 17.2914 14.6682V14.5832C17.2914 13.2215 16.3164 12.1165 15.0206 11.3865C13.7039 10.6465 11.9281 10.2082 9.99972 10.2082ZM3.95805 14.5832C3.95805 13.874 4.47639 13.104 5.59222 12.4765C6.68889 11.8598 8.24555 11.4582 10.0006 11.4582C11.7539 11.4582 13.3106 11.8598 14.4072 12.4765C15.5239 13.104 16.0414 13.874 16.0414 14.5832C16.0414 15.6732 16.0081 16.2865 15.4381 16.7498C15.1297 17.0015 14.6131 17.2473 13.7297 17.4257C12.8489 17.604 11.6447 17.7082 9.99972 17.7082C8.35472 17.7082 7.14972 17.604 6.26972 17.4257C5.38639 17.2473 4.86972 17.0015 4.56139 16.7507C3.99139 16.2865 3.95805 15.6732 3.95805 14.5832Z" fill="black" fill-opacity="0.2"/>
</svg>
