<svg width="24" height="24" viewBox="0 0 24 24" fill="none" xmlns="http://www.w3.org/2000/svg">
<g clip-path="url(#clip0_13866_31059)">
<path d="M11.36 0C15.1808 0 18.278 3.0792 18.278 6.8784C18.2789 7.87397 18.0624 8.85774 17.6437 9.76101C17.2251 10.6643 16.6143 11.4652 15.854 12.108C16.178 12.268 16.4732 12.4292 16.7396 12.5916C17.3124 12.9396 17.9084 13.3712 18.5276 13.8864C18.6111 13.9557 18.6801 14.0409 18.7305 14.137C18.7809 14.2331 18.8118 14.3382 18.8214 14.4463C18.831 14.5544 18.8191 14.6633 18.7864 14.7668C18.7537 14.8703 18.7008 14.9663 18.6308 15.0492C18.489 15.2175 18.2863 15.3228 18.0671 15.3422C17.8478 15.3615 17.6298 15.2933 17.4608 15.1524C16.9613 14.7296 16.431 14.3445 15.8744 14.0004C15.3332 13.6794 14.7698 13.3975 14.1884 13.1568C13.298 13.5526 12.3344 13.757 11.36 13.7568C10.2858 13.757 9.22611 13.5085 8.26397 13.0308L8.21356 13.0548C5.87357 13.962 4.16597 15.3036 3.06316 17.0844C1.95676 18.8712 1.50436 20.868 1.70716 23.1012C1.72579 23.3198 1.65689 23.5369 1.51559 23.7047C1.37429 23.8726 1.17215 23.9775 0.953565 23.9964C0.735118 24.0164 0.517653 23.9489 0.348912 23.8088C0.180172 23.6686 0.0739494 23.4672 0.0535649 23.2488C-0.180435 20.6664 0.352365 18.3132 1.64956 16.2192C2.78956 14.376 4.46596 12.9432 6.65837 11.9208C5.95982 11.2797 5.40217 10.5005 5.02083 9.63241C4.63948 8.76436 4.44277 7.82652 4.44317 6.8784C4.44317 3.0792 7.53917 0 11.36 0ZM20.2412 15.2316C20.6972 15.2316 21.0668 15.6036 21.0668 16.0608V18.1632H23.1692C23.278 18.1629 23.3858 18.184 23.4865 18.2254C23.5871 18.2668 23.6787 18.3277 23.7558 18.4044C23.8329 18.4812 23.8941 18.5725 23.936 18.673C23.9778 18.7734 23.9994 18.8812 23.9996 18.99C23.9986 19.2094 23.9106 19.4194 23.7549 19.574C23.5992 19.7286 23.3886 19.815 23.1692 19.8144H21.0668V21.918C21.0671 22.1374 20.9803 22.3479 20.8255 22.5034C20.6707 22.6589 20.4606 22.7466 20.2412 22.7472C20.0218 22.7466 19.8116 22.6589 19.6568 22.5034C19.502 22.3479 19.4152 22.1374 19.4156 21.918V19.8144H17.3132C17.0938 19.815 16.8831 19.7286 16.7274 19.574C16.5717 19.4194 16.4837 19.2094 16.4828 18.99C16.4828 18.534 16.8548 18.1644 17.3132 18.1644L19.4156 18.1632V16.0608C19.4152 15.8414 19.502 15.6309 19.6568 15.4754C19.8116 15.3199 20.0218 15.2322 20.2412 15.2316ZM11.3612 1.6512C8.45717 1.6512 6.10277 3.9912 6.10277 6.8784C6.10277 9.7656 8.45717 12.1068 11.36 12.1068C14.2628 12.1068 16.6172 9.7668 16.6172 6.8784C16.6172 3.99 14.264 1.6512 11.3612 1.6512Z" fill="#022F2F"/>
<path d="M11.36 0C15.1808 0 18.278 3.0792 18.278 6.8784C18.2789 7.87397 18.0624 8.85774 17.6437 9.76101C17.2251 10.6643 16.6143 11.4652 15.854 12.108C16.178 12.268 16.4732 12.4292 16.7396 12.5916C17.3124 12.9396 17.9084 13.3712 18.5276 13.8864C18.6111 13.9557 18.6801 14.0409 18.7305 14.137C18.7809 14.2331 18.8118 14.3382 18.8214 14.4463C18.831 14.5544 18.8191 14.6633 18.7864 14.7668C18.7537 14.8703 18.7008 14.9663 18.6308 15.0492C18.489 15.2175 18.2863 15.3228 18.0671 15.3422C17.8478 15.3615 17.6298 15.2933 17.4608 15.1524C16.9613 14.7296 16.431 14.3445 15.8744 14.0004C15.3332 13.6794 14.7698 13.3975 14.1884 13.1568C13.298 13.5526 12.3344 13.757 11.36 13.7568C10.2858 13.757 9.22611 13.5085 8.26397 13.0308L8.21356 13.0548C5.87357 13.962 4.16597 15.3036 3.06316 17.0844C1.95676 18.8712 1.50436 20.868 1.70716 23.1012C1.72579 23.3198 1.65689 23.5369 1.51559 23.7047C1.37429 23.8726 1.17215 23.9775 0.953565 23.9964C0.735118 24.0164 0.517653 23.9489 0.348912 23.8088C0.180172 23.6686 0.0739494 23.4672 0.0535649 23.2488C-0.180435 20.6664 0.352365 18.3132 1.64956 16.2192C2.78956 14.376 4.46596 12.9432 6.65837 11.9208C5.95982 11.2797 5.40217 10.5005 5.02083 9.63241C4.63948 8.76436 4.44277 7.82652 4.44317 6.8784C4.44317 3.0792 7.53917 0 11.36 0ZM20.2412 15.2316C20.6972 15.2316 21.0668 15.6036 21.0668 16.0608V18.1632H23.1692C23.278 18.1629 23.3858 18.184 23.4865 18.2254C23.5871 18.2668 23.6787 18.3277 23.7558 18.4044C23.8329 18.4812 23.8941 18.5725 23.936 18.673C23.9778 18.7734 23.9994 18.8812 23.9996 18.99C23.9986 19.2094 23.9106 19.4194 23.7549 19.574C23.5992 19.7286 23.3886 19.815 23.1692 19.8144H21.0668V21.918C21.0671 22.1374 20.9803 22.3479 20.8255 22.5034C20.6707 22.6589 20.4606 22.7466 20.2412 22.7472C20.0218 22.7466 19.8116 22.6589 19.6568 22.5034C19.502 22.3479 19.4152 22.1374 19.4156 21.918V19.8144H17.3132C17.0938 19.815 16.8831 19.7286 16.7274 19.574C16.5717 19.4194 16.4837 19.2094 16.4828 18.99C16.4828 18.534 16.8548 18.1644 17.3132 18.1644L19.4156 18.1632V16.0608C19.4152 15.8414 19.502 15.6309 19.6568 15.4754C19.8116 15.3199 20.0218 15.2322 20.2412 15.2316ZM11.3612 1.6512C8.45717 1.6512 6.10277 3.9912 6.10277 6.8784C6.10277 9.7656 8.45717 12.1068 11.36 12.1068C14.2628 12.1068 16.6172 9.7668 16.6172 6.8784C16.6172 3.99 14.264 1.6512 11.3612 1.6512Z" fill="black" fill-opacity="0.2"/>
</g>
<defs>
<clipPath id="clip0_13866_31059">
<rect width="24" height="24" fill="white"/>
</clipPath>
</defs>
</svg>
