<svg width="36" height="37" viewBox="0 0 36 37" fill="none" xmlns="http://www.w3.org/2000/svg">
<rect y="0.5" width="36" height="36" rx="18" fill="#DF3C23"/>
<path fill-rule="evenodd" clip-rule="evenodd" d="M11.4811 22.1332L16.2145 13.3034C16.9674 11.8989 19.0326 11.8989 19.7855 13.3034L24.5189 22.1332C25.2184 23.4382 24.2457 25 22.7334 25H13.2666C11.7543 25 10.7816 23.4382 11.4811 22.1332ZM18 14.5C18.4142 14.5 18.75 14.8358 18.75 15.25V20.5C18.75 20.9142 18.4142 21.25 18 21.25C17.5858 21.25 17.25 20.9142 17.25 20.5V15.25C17.25 14.8358 17.5858 14.5 18 14.5ZM17.0625 22.5625C17.0625 23.0803 17.4822 23.5 18 23.5C18.5178 23.5 18.9375 23.0803 18.9375 22.5625C18.9375 22.0447 18.5178 21.625 18 21.625C17.4822 21.625 17.0625 22.0447 17.0625 22.5625Z" fill="#FEF4F2"/>
</svg>
