<svg width="24" height="24" viewBox="0 0 24 24" fill="none" xmlns="http://www.w3.org/2000/svg">
<path fill-rule="evenodd" clip-rule="evenodd" d="M16.8761 2.59818L16.8511 2.64418L16.7751 2.78218L17.6411 3.30418L17.7191 3.16218L17.7431 3.12018L17.7021 3.09518L16.9211 2.62518L16.8761 2.59818ZM17.2031 4.79218L15.7311 3.90518L13.0661 5.21518C12.0182 5.71167 11.2069 6.59917 10.8061 7.68718L10.8651 7.65718C11.4552 7.3616 12.1178 7.24152 12.7741 7.31118C13.4305 7.38084 14.0531 7.63731 14.5681 8.05018C15.0851 8.46418 15.7781 8.58718 16.4071 8.37818L17.4621 8.02618L17.4521 7.89318L17.2031 4.79218ZM18.9601 8.79018C19.0052 8.65345 19.0101 8.5066 18.9741 8.36718C18.9741 8.23585 18.9701 8.10451 18.9621 7.97318L18.9471 7.78018L18.6851 4.51318L19.0401 3.87118C19.1001 3.76804 19.1555 3.66227 19.2061 3.55418C19.2591 3.43818 19.3171 3.28018 19.3261 3.08718C19.3379 2.82956 19.2698 2.57457 19.1311 2.35718C19.0411 2.22253 18.9268 2.10586 18.7941 2.01318C18.696 1.94468 18.5949 1.88062 18.4911 1.82118L18.4751 1.81118L17.6761 1.32918C17.5685 1.26236 17.4584 1.19964 17.3461 1.14118C17.1938 1.06312 17.0276 1.01588 16.8571 1.00218C16.5872 0.986227 16.3195 1.05815 16.0941 1.20718C15.9533 1.30407 15.833 1.42776 15.7401 1.57118C15.6751 1.66918 15.6091 1.78918 15.5481 1.89918L15.2251 2.48218L12.3981 3.87218L12.2301 3.95518C10.6051 4.79018 9.45905 6.36018 9.11505 8.18818C9.10505 8.23818 9.09605 8.29118 9.08105 8.37818L9.08005 8.38518L9.05005 8.55918C8.78119 10.0553 8.04822 11.4289 6.95505 12.4852L6.15105 13.2762C5.64705 13.7722 5.24105 14.1712 4.93705 14.5162C4.62705 14.8662 4.37705 15.2092 4.22705 15.6032C4.0295 16.1238 3.95937 16.684 4.02252 17.2372C4.08567 17.7905 4.28026 18.3205 4.59005 18.7832C4.82605 19.1332 5.14805 19.4092 5.52905 19.6772C5.90205 19.9402 6.38805 20.2322 6.98905 20.5952L7.70205 21.0252C8.30305 21.3862 8.78905 21.6792 9.19405 21.8852C9.60605 22.0952 10.0001 22.2512 10.4191 22.2902C10.9688 22.3401 11.5222 22.2483 12.0264 22.0235C12.5306 21.7987 12.9687 21.4485 13.2991 21.0062C13.5531 20.6722 13.7121 20.2752 13.8471 19.8232C13.9801 19.3782 14.1081 18.8122 14.2671 18.1082L14.5221 16.9862L14.5611 16.8162C14.9075 15.3395 15.7113 14.01 16.8581 13.0172L16.8641 13.0122L17.0051 12.8872C18.1599 11.824 18.8595 10.3566 18.9601 8.79018ZM17.2951 9.66318L16.8821 9.80118C16.335 9.98385 15.7509 10.0265 15.1832 9.92516C14.6154 9.82383 14.0821 9.5818 13.6321 9.22118C13.3408 8.98744 12.9885 8.84227 12.6171 8.80291C12.2457 8.76356 11.8708 8.83168 11.5371 8.99918L10.3511 9.59218C9.95653 11.0379 9.19528 12.3572 8.14105 13.4222L8.01105 13.5522L7.22205 14.3262C6.69405 14.8462 6.32505 15.2092 6.06105 15.5082C5.79805 15.8062 5.68405 15.9902 5.62805 16.1382C5.40005 16.7382 5.47805 17.4182 5.83305 17.9452C5.92005 18.0732 6.07005 18.2252 6.39205 18.4502C6.71605 18.6792 7.15605 18.9442 7.78705 19.3242L8.45205 19.7242C9.08305 20.1052 9.52305 20.3692 9.87405 20.5482C10.2241 20.7262 10.4201 20.7842 10.5591 20.7972C11.1451 20.8522 11.7271 20.5972 12.1031 20.1012C12.1971 19.9782 12.2931 19.7822 12.4101 19.3932C12.5261 19.0032 12.6441 18.4872 12.8101 17.7502L13.0601 16.6502L13.1021 16.4682C13.5056 14.7527 14.4207 13.2002 15.7261 12.0162L15.8631 11.8952L15.8671 11.8912L15.9951 11.7782C16.6165 11.2077 17.0666 10.4753 17.2951 9.66318Z" fill="#008080"/>
</svg>
