<svg width="194" height="48" viewBox="0 0 194 48" fill="none" xmlns="http://www.w3.org/2000/svg">
<path d="M31.8441 18.8889C31.8441 19.0015 31.8369 19.114 31.8154 19.2265C31.794 19.332 31.7725 19.4515 31.7367 19.5851L28.8829 29.3947C28.6753 30.1465 28.2823 30.7301 27.7241 31.1233C27.1736 31.503 26.5581 31.6993 25.8788 31.6993C25.2711 31.6993 24.6913 31.5094 24.1552 31.1444C23.6262 30.7787 23.2111 30.2098 22.9319 29.465L21.0294 23.9488C20.9793 23.7659 20.9363 23.6956 20.9149 23.6745C20.9149 23.6956 20.8648 23.7519 20.8147 23.9277L18.905 29.458C18.6616 30.2027 18.2615 30.7794 17.7032 31.1514C16.573 31.8962 15.1357 31.868 14.0627 31.1233C13.5051 30.7295 13.1258 30.1395 12.9469 29.3736L10.1074 19.5915C10.0644 19.4509 10.0429 19.3313 10.0215 19.2258C10.0072 19.121 10 19.0015 10 18.8889C10 18.2356 10.2433 17.6731 10.7222 17.2166C11.2011 16.7595 11.7952 16.5352 12.4888 16.5352C13.7049 16.5352 14.4772 17.1111 14.742 18.2075L16.2151 25.0732C16.2652 25.2701 16.3297 25.3194 16.3297 25.3194C16.3368 25.3053 16.3941 25.1858 16.4227 25.0873L18.4684 19.1491C18.6831 18.545 19.0403 18.0879 19.5199 17.7996C20.4497 17.2377 21.5154 17.2307 22.481 17.7926C22.9885 18.095 23.3249 18.5584 23.4752 19.1843L25.4637 25.0803C25.4994 25.1928 25.5281 25.2561 25.5495 25.2842C25.5567 25.249 25.5925 25.1787 25.6354 25.0521L27.1014 18.2145C27.359 17.1111 28.1385 16.5352 29.3475 16.5352C30.0411 16.5352 30.6351 16.7602 31.114 17.2166C31.6007 17.6731 31.8441 18.235 31.8441 18.8889Z" fill="#008080"/>
<path d="M47.0403 23.3237V29.6198C47.0403 30.2239 46.7969 30.7302 46.3252 31.1304C45.8606 31.5101 45.2809 31.6994 44.5944 31.6994C43.908 31.6994 43.3282 31.4954 42.8637 31.0953C42.3913 30.6874 42.1486 30.1606 42.1486 29.5284V23.8363C42.1486 22.7892 41.9195 22.0445 41.4764 21.6155C41.0184 21.1795 40.4679 20.9692 39.8029 20.9692C39.1022 20.9692 38.5511 21.1872 38.108 21.6296C37.6642 22.086 37.3643 22.5923 37.214 23.1332V29.4785C37.214 30.1108 36.9778 30.6452 36.506 31.0665C36.0408 31.4884 35.476 31.6987 34.8182 31.6987C34.1318 31.6987 33.5377 31.4948 33.066 31.1016C32.5728 30.6938 32.3223 30.16 32.3223 29.5278V12.1716C32.3223 11.5745 32.5585 11.0542 33.0302 10.6329C33.4935 10.218 34.094 10 34.8169 10C35.5105 10 36.0831 10.218 36.5334 10.6393C36.9843 11.0612 37.2127 11.595 37.2127 12.2202V17.6239C37.549 17.3708 37.942 17.1528 38.3858 16.9776C39.1152 16.6823 39.9162 16.5353 40.7464 16.5353C42.6132 16.5353 44.137 17.0831 45.2952 18.1724C46.454 19.2617 47.0403 20.998 47.0403 23.3237Z" fill="#008080"/>
<path d="M53.6378 18.9878V29.4795C53.6378 30.1117 53.4016 30.6461 52.9299 31.0674C52.4646 31.4893 51.8999 31.6996 51.242 31.6996C50.5556 31.6996 49.9687 31.4957 49.4898 31.1026C48.9966 30.6947 48.7461 30.1609 48.7461 29.5287V18.9385C48.7461 18.3415 48.9823 17.8211 49.454 17.3998C49.9192 16.9779 50.5198 16.7676 51.242 16.7676C51.9643 16.7676 52.5583 16.9856 52.9871 17.4068C53.4237 17.8352 53.6378 18.3619 53.6378 18.9878Z" fill="#008080"/>
<path d="M66.0294 29.1065C66.0294 29.584 65.8863 30.027 65.6071 30.4278C65.328 30.8357 64.8921 31.1304 64.3052 31.3132C63.8757 31.4398 63.4612 31.5383 63.0676 31.6015C62.6668 31.6648 62.2666 31.7 61.873 31.7C60.4285 31.7 59.2124 31.2781 58.2611 30.4419C57.3027 29.5987 56.8167 28.3055 56.8167 26.5909V21.5522C56.8167 21.4819 56.8024 21.4538 56.7952 21.4467C56.7952 21.4467 56.7666 21.4327 56.695 21.4327H55.9871C55.3006 21.4327 54.7781 21.2217 54.4281 20.7934C54.0917 20.3856 53.9199 19.8729 53.9199 19.2617C53.9199 18.6295 54.0845 18.0951 54.4209 17.6738C54.7788 17.2237 55.3006 16.9993 55.9871 16.9993H56.695C56.7666 16.9993 56.7952 16.9853 56.8024 16.9853C56.8024 16.9853 56.8167 16.9572 56.8167 16.8868V13.4354C56.8167 12.8102 57.0385 12.2688 57.4888 11.8334C57.9326 11.3904 58.5188 11.166 59.2124 11.166C59.8989 11.166 60.4858 11.377 60.9503 11.7983C61.4227 12.2272 61.6589 12.7751 61.6589 13.4354V16.8856C61.6589 16.9559 61.6732 16.984 61.6732 16.991C61.6804 16.991 61.709 16.9981 61.7806 16.9981H63.5328C64.1692 16.9981 64.7131 17.2231 65.1491 17.6655C65.5713 18.1085 65.7926 18.6423 65.7926 19.2604C65.7926 19.8927 65.5707 20.413 65.1348 20.8203C64.7053 21.2281 64.1477 21.4314 63.4899 21.4314H61.7806C61.7019 21.4314 61.6732 21.4455 61.6732 21.4525C61.6732 21.4525 61.6589 21.4806 61.6589 21.5509V25.9357C61.6589 26.5468 61.7949 26.7789 61.8736 26.8633C62.0096 27.0109 62.1742 27.0742 62.3961 27.0742C62.4391 27.0742 62.6037 27.0672 63.0826 26.9688C63.6187 26.8562 63.7833 26.8422 63.8692 26.8422C64.4769 26.8422 64.9923 27.0672 65.4139 27.5166C65.8219 27.9539 66.0294 28.4953 66.0294 29.1065Z" fill="#008080"/>
<path d="M95.3633 18.5802C94.047 17.2236 92.2733 16.5352 90.0987 16.5352C88.7395 16.5352 87.5169 16.9775 86.4583 17.8495C86.308 17.6034 86.1004 17.3924 85.8434 17.2102C85.4283 16.9149 84.9494 16.7672 84.3983 16.7672C83.6761 16.7672 83.0748 16.9782 82.6103 17.3994C82.1385 17.8214 81.9023 18.3411 81.9023 18.9382V35.8245C81.9023 36.4637 82.1528 36.9911 82.646 37.3984C83.1256 37.7992 83.7118 37.9954 84.3983 37.9954C85.0561 37.9954 85.6287 37.7845 86.0861 37.3702C86.5578 36.9413 86.794 36.4075 86.794 35.7823V30.8068C87.6952 31.3969 88.7538 31.6993 89.9556 31.6993C92.2017 31.6993 94.0112 30.9967 95.3411 29.605C96.6646 28.2204 97.3367 26.3582 97.3367 24.0677C97.3367 21.7772 96.6724 19.9297 95.3633 18.5802ZM89.6199 21.019C90.5067 21.019 91.186 21.2862 91.7085 21.8341C92.2375 22.396 92.4951 23.1273 92.4951 24.0689C92.4951 24.9895 92.2303 25.7272 91.7013 26.339C91.1795 26.929 90.4996 27.2173 89.6199 27.2173C88.7759 27.2173 88.111 26.929 87.5885 26.339C87.0595 25.7278 86.7947 24.9895 86.7947 24.0689C86.7947 23.1273 87.0523 22.3966 87.5813 21.8341C88.1038 21.2856 88.7688 21.019 89.6199 21.019Z" fill="#008080"/>
<path d="M128.678 23.3229V29.6191C128.678 30.2232 128.435 30.7295 127.956 31.1297C127.498 31.5094 126.912 31.6986 126.232 31.6986C125.546 31.6986 124.959 31.4947 124.502 31.0945C124.023 30.6867 123.787 30.1599 123.787 29.5277V23.8356C123.787 22.7885 123.558 22.0437 123.107 21.6148C122.65 21.1788 122.106 20.9685 121.434 20.9685C120.733 20.9685 120.168 21.1794 119.71 21.6148C119.238 22.0648 118.952 22.5705 118.845 23.1535L118.852 29.3378C118.852 29.97 118.609 30.5045 118.137 30.9328C117.679 31.3477 117.107 31.558 116.449 31.558C115.763 31.558 115.176 31.3541 114.697 30.9609C114.204 30.5531 113.953 30.0193 113.953 29.387V18.9382C113.953 18.3411 114.196 17.8207 114.661 17.3994C115.126 16.9775 115.727 16.7672 116.449 16.7672C117.035 16.7672 117.536 16.9289 117.951 17.2384C118.195 17.4212 118.388 17.6392 118.538 17.8776C119.453 16.9852 120.727 16.5352 122.336 16.5352C124.195 16.5352 125.733 17.083 126.906 18.1723C128.078 19.261 128.678 20.9973 128.678 23.3229Z" fill="#008080"/>
<path d="M144.379 17.4289C143.928 16.9929 143.335 16.7685 142.606 16.7685C141.991 16.7685 141.461 16.9373 141.032 17.2608C140.767 17.4647 140.561 17.7108 140.417 17.9844C139.33 17.0217 138.057 16.5371 136.627 16.5371C134.445 16.5371 132.671 17.2256 131.355 18.5821C130.046 19.9316 129.381 21.7798 129.381 24.0703C129.381 26.3608 130.06 28.2236 131.405 29.6076C132.75 30.9993 134.552 31.7019 136.77 31.7019C138.057 31.7019 139.201 31.3503 140.16 30.6618V30.9782C140.16 31.7511 139.91 32.3558 139.395 32.8193C138.88 33.2828 138.065 33.5148 136.956 33.5148C136.448 33.5148 135.926 33.4586 135.397 33.339C134.882 33.2265 134.374 33.0296 133.909 32.7771C133.544 32.5591 133.109 32.4466 132.636 32.4466C132.028 32.4466 131.499 32.6787 131.049 33.1351C130.605 33.5915 130.376 34.133 130.376 34.7582C130.376 35.728 130.827 36.4587 131.714 36.9298C132.401 37.2884 133.18 37.555 134.032 37.7378C134.883 37.9136 135.77 37.998 136.671 37.998C139.281 37.998 141.349 37.3658 142.822 36.1147C144.303 34.8567 145.054 33.1562 145.054 31.069V19.0808C145.052 18.4268 144.83 17.8719 144.379 17.4289ZM137.098 27.218C136.219 27.218 135.539 26.9297 135.017 26.3397C134.488 25.7285 134.23 24.9902 134.23 24.0696C134.23 23.128 134.481 22.3973 135.01 21.8347C135.532 21.2869 136.212 21.0197 137.098 21.0197C137.949 21.0197 138.622 21.2869 139.137 21.8347C139.666 22.3967 139.924 23.128 139.924 24.0696C139.924 24.9902 139.666 25.7279 139.13 26.3397C138.614 26.9297 137.949 27.218 137.098 27.218Z" fill="#008080"/>
<path d="M160.728 18.8889V25.4664C160.728 26.8159 160.37 27.9749 159.662 28.9236C158.961 29.8511 158.046 30.5607 156.951 31.0178C155.864 31.4679 154.698 31.6993 153.483 31.6993C152.302 31.6993 151.158 31.4672 150.071 31.0178C148.969 30.5607 148.054 29.8582 147.339 28.9236C146.609 27.9819 146.244 26.8152 146.244 25.4664V18.8889C146.244 18.2005 146.48 17.6309 146.945 17.1885C147.41 16.7525 147.996 16.5352 148.69 16.5352C149.384 16.5352 149.97 16.7672 150.435 17.2166C150.9 17.6737 151.136 18.2356 151.136 18.8889V25.2836C151.136 25.8314 151.343 26.2815 151.772 26.6542C152.216 27.0339 152.774 27.2161 153.481 27.2161C154.197 27.2161 154.755 27.0332 155.198 26.6542C155.627 26.2815 155.834 25.8321 155.834 25.2836V18.8889C155.834 18.2005 156.07 17.6309 156.535 17.1885C157 16.7525 157.587 16.5352 158.28 16.5352C158.974 16.5352 159.568 16.7672 160.025 17.2166C160.492 17.6731 160.728 18.235 160.728 18.8889Z" fill="#008080"/>
<path d="M167.332 18.9827V29.4814C167.332 30.1136 167.089 30.6481 166.617 31.0693C166.159 31.4913 165.587 31.7016 164.93 31.7016C164.243 31.7016 163.656 31.4977 163.177 31.1045C162.684 30.6967 162.434 30.1629 162.434 29.5306V18.9405C162.434 18.3434 162.677 17.823 163.149 17.3947C163.607 16.9799 164.207 16.7695 164.93 16.7695C165.659 16.7695 166.246 16.9805 166.682 17.4088C167.111 17.8301 167.332 18.3639 167.332 18.9827Z" fill="#008080"/>
<path d="M183.999 23.3249V29.621C183.999 30.2251 183.756 30.7314 183.277 31.1316C182.82 31.5114 182.24 31.7006 181.553 31.7006C180.867 31.7006 180.28 31.4967 179.823 31.0965C179.35 30.6886 179.108 30.1619 179.108 29.5296V23.8376C179.108 22.7904 178.879 22.0457 178.435 21.6167C177.977 21.1808 177.427 20.9704 176.762 20.9704C176.061 20.9704 175.496 21.1814 175.038 21.6167C174.566 22.0668 174.28 22.5725 174.166 23.1555L174.173 29.3398C174.173 29.972 173.937 30.5064 173.465 30.9347C173 31.3496 172.428 31.5599 171.77 31.5599C171.084 31.5599 170.497 31.356 170.025 30.9629C169.532 30.555 169.281 30.0212 169.281 29.389V18.9401C169.281 18.343 169.517 17.8227 169.989 17.4014C170.447 16.9795 171.048 16.7692 171.77 16.7692C172.356 16.7692 172.864 16.9309 173.272 17.2403C173.515 17.4231 173.716 17.6411 173.865 17.8796C174.773 16.9872 176.047 16.5371 177.663 16.5371C179.516 16.5371 181.054 17.085 182.226 18.1743C183.405 19.263 183.999 20.9992 183.999 23.3249Z" fill="#008080"/>
<path d="M54.3099 13.5095C53.6677 14.4723 52.4237 15.1237 51.3234 15.2202C50.145 15.3232 48.9569 14.5452 48.2588 13.6655C47.8007 13.0883 47.5014 12.325 47.7064 11.6211C47.869 11.0618 48.3564 10.606 48.9329 10.4743C49.5093 10.3426 50.1516 10.5395 50.5491 10.971C50.7456 11.1839 50.9382 11.4748 51.2303 11.4613C51.5023 11.4492 51.7294 11.1673 51.8895 10.9793C52.1061 10.7242 52.3482 10.5216 52.6774 10.4212C53.0594 10.3049 53.4875 10.3445 53.8408 10.5274C54.349 10.7907 54.6737 11.3354 54.7329 11.8967C54.7947 12.4893 54.6249 13.0371 54.3099 13.5095Z" fill="#FF7C80"/>
<path d="M168.001 13.5154C167.359 14.4781 166.115 15.1296 165.015 15.2261C163.836 15.329 162.648 14.551 161.95 13.6714C161.492 13.0941 161.193 12.3308 161.398 11.627C161.56 11.0676 162.048 10.6118 162.624 10.4802C163.201 10.3485 163.843 10.5454 164.241 10.9769C164.437 11.1897 164.63 11.4806 164.922 11.4672C165.194 11.455 165.421 11.1731 165.581 10.9852C165.798 10.7301 166.04 10.5275 166.369 10.4271C166.751 10.3107 167.179 10.3504 167.532 10.5332C168.04 10.7966 168.365 11.3412 168.424 11.9025C168.487 12.4951 168.317 13.043 168.001 13.5154Z" fill="#FF7C80"/>
<path d="M110.789 24.8649C110.121 24.8764 109.467 25.1948 108.871 25.5764C107.928 26.1812 107.065 26.9899 105.882 26.9899C105.099 26.9899 104.46 26.7278 103.922 26.1838C103.922 26.1838 111.505 23.8971 111.511 23.8958C112.259 23.6701 112.837 23.0839 113.055 22.3475C113.644 20.3607 111.39 18.3386 109.821 17.4916C108.652 16.86 107.325 16.541 105.882 16.541C104.469 16.541 103.153 16.86 101.966 17.4916C100.776 18.1264 99.8147 19.0137 99.1068 20.1324C98.3924 21.2582 98.0293 22.5815 98.0293 24.0735C98.0293 24.1707 98.0293 24.2685 98.0326 24.3657C98.0735 25.5784 98.3676 26.6939 98.9148 27.6886C98.9728 27.796 99.0346 27.9034 99.0996 28.0076C99.8076 29.1564 100.772 30.0705 101.962 30.7187C103.149 31.367 104.469 31.6962 105.881 31.6962C107.324 31.6962 108.651 31.367 109.824 30.7187C111.221 29.9465 113.261 28.2518 112.829 26.458C112.605 25.5234 111.778 24.8483 110.789 24.8649ZM103.608 21.6385C104.145 21.1214 105.287 20.7071 106.083 20.7071C106.753 20.7071 107.55 20.8343 108.319 21.3151L102.73 23.1786C102.73 22.6486 103.379 21.8572 103.608 21.6385Z" fill="#008080"/>
<path d="M78.4945 24.9821C77.8257 24.9936 77.1717 25.312 76.5764 25.6936C75.6336 26.2984 74.7701 27.1071 73.5872 27.1071C72.8038 27.1071 72.1649 26.845 71.6274 26.3009C71.6274 26.3009 79.2103 24.0143 79.2161 24.013C79.9637 23.7873 80.5422 23.2011 80.7601 22.4647C81.349 20.4778 79.0951 18.4558 77.5263 17.6088C76.3571 16.9772 75.0297 16.6582 73.5866 16.6582C72.174 16.6582 70.8577 16.9772 69.6709 17.6088C68.4808 18.2436 67.5198 19.1309 66.8119 20.2496C66.0974 21.3754 65.7344 22.6987 65.7344 24.1907C65.7344 24.2879 65.7344 24.3857 65.7376 24.4829C65.7786 25.6956 66.0727 26.8111 66.6199 27.8058C66.6778 27.9132 66.7397 28.0206 66.8047 28.1248C67.5126 29.2735 68.4769 30.1877 69.667 30.8359C70.8538 31.4841 72.174 31.8134 73.5859 31.8134C75.0291 31.8134 76.3558 31.4841 77.5289 30.8359C78.9259 30.0637 80.9658 28.369 80.5337 26.5752C80.3092 25.6399 79.4829 24.9655 78.4945 24.9821ZM71.3132 21.7551C71.85 21.2379 72.9919 20.8237 73.7883 20.8237C74.4578 20.8237 75.2555 20.9509 76.024 21.4316L70.4348 23.2951C70.4348 22.7651 71.0835 21.9737 71.3132 21.7551Z" fill="#008080"/>
</svg>
