<svg width="23" height="23" viewBox="0 0 23 23" fill="none" xmlns="http://www.w3.org/2000/svg">
<path d="M2.2998 4.0248C2.2998 3.56731 2.48155 3.12855 2.80505 2.80505C3.12855 2.48155 3.56731 2.2998 4.0248 2.2998H5.1748C5.6323 2.2998 6.07106 2.48155 6.39456 2.80505C6.71806 3.12855 6.8998 3.56731 6.8998 4.0248V5.1748C6.8998 5.6323 6.71806 6.07106 6.39456 6.39456C6.07106 6.71806 5.6323 6.8998 5.1748 6.8998H4.0248C3.56731 6.8998 3.12855 6.71806 2.80505 6.39456C2.48155 6.07106 2.2998 5.6323 2.2998 5.1748V4.0248ZM4.0248 3.4498C3.87231 3.4498 3.72605 3.51038 3.61822 3.61822C3.51038 3.72605 3.4498 3.87231 3.4498 4.0248V5.1748C3.4498 5.3273 3.51038 5.47356 3.61822 5.58139C3.72605 5.68922 3.87231 5.7498 4.0248 5.7498H5.1748C5.3273 5.7498 5.47356 5.68922 5.58139 5.58139C5.68922 5.47356 5.7498 5.3273 5.7498 5.1748V4.0248C5.7498 3.87231 5.68922 3.72605 5.58139 3.61822C5.47356 3.51038 5.3273 3.4498 5.1748 3.4498H4.0248ZM2.2998 10.9248C2.2998 10.4673 2.48155 10.0285 2.80505 9.70505C3.12855 9.38155 3.56731 9.1998 4.0248 9.1998H5.1748C5.6323 9.1998 6.07106 9.38155 6.39456 9.70505C6.71806 10.0285 6.8998 10.4673 6.8998 10.9248V12.0748C6.8998 12.5323 6.71806 12.9711 6.39456 13.2946C6.07106 13.6181 5.6323 13.7998 5.1748 13.7998H4.0248C3.56731 13.7998 3.12855 13.6181 2.80505 13.2946C2.48155 12.9711 2.2998 12.5323 2.2998 12.0748V10.9248ZM4.0248 10.3498C3.87231 10.3498 3.72605 10.4104 3.61822 10.5182C3.51038 10.6261 3.4498 10.7723 3.4498 10.9248V12.0748C3.4498 12.2273 3.51038 12.3736 3.61822 12.4814C3.72605 12.5892 3.87231 12.6498 4.0248 12.6498H5.1748C5.3273 12.6498 5.47356 12.5892 5.58139 12.4814C5.68922 12.3736 5.7498 12.2273 5.7498 12.0748V10.9248C5.7498 10.7723 5.68922 10.6261 5.58139 10.5182C5.47356 10.4104 5.3273 10.3498 5.1748 10.3498H4.0248ZM2.2998 17.8248C2.2998 17.3673 2.48155 16.9285 2.80505 16.605C3.12855 16.2815 3.56731 16.0998 4.0248 16.0998H5.1748C5.6323 16.0998 6.07106 16.2815 6.39456 16.605C6.71806 16.9285 6.8998 17.3673 6.8998 17.8248V18.9748C6.8998 19.4323 6.71806 19.8711 6.39456 20.1946C6.07106 20.5181 5.6323 20.6998 5.1748 20.6998H4.0248C3.56731 20.6998 3.12855 20.5181 2.80505 20.1946C2.48155 19.8711 2.2998 19.4323 2.2998 18.9748V17.8248ZM4.0248 17.2498C3.87231 17.2498 3.72605 17.3104 3.61822 17.4182C3.51038 17.5261 3.4498 17.6723 3.4498 17.8248V18.9748C3.4498 19.1273 3.51038 19.2736 3.61822 19.3814C3.72605 19.4892 3.87231 19.5498 4.0248 19.5498H5.1748C5.3273 19.5498 5.47356 19.4892 5.58139 19.3814C5.68922 19.2736 5.7498 19.1273 5.7498 18.9748V17.8248C5.7498 17.6723 5.68922 17.5261 5.58139 17.4182C5.47356 17.3104 5.3273 17.2498 5.1748 17.2498H4.0248ZM9.1998 5.1748C9.1998 5.02231 9.26038 4.87605 9.36822 4.76822C9.47605 4.66038 9.6223 4.5998 9.7748 4.5998H20.1248C20.2773 4.5998 20.4236 4.66038 20.5314 4.76822C20.6392 4.87605 20.6998 5.02231 20.6998 5.1748C20.6998 5.3273 20.6392 5.47356 20.5314 5.58139C20.4236 5.68922 20.2773 5.7498 20.1248 5.7498H9.7748C9.6223 5.7498 9.47605 5.68922 9.36822 5.58139C9.26038 5.47356 9.1998 5.3273 9.1998 5.1748ZM9.1998 12.0748C9.1998 11.9223 9.26038 11.7761 9.36822 11.6682C9.47605 11.5604 9.6223 11.4998 9.7748 11.4998H20.1248C20.2773 11.4998 20.4236 11.5604 20.5314 11.6682C20.6392 11.7761 20.6998 11.9223 20.6998 12.0748C20.6998 12.2273 20.6392 12.3736 20.5314 12.4814C20.4236 12.5892 20.2773 12.6498 20.1248 12.6498H9.7748C9.6223 12.6498 9.47605 12.5892 9.36822 12.4814C9.26038 12.3736 9.1998 12.2273 9.1998 12.0748ZM9.1998 18.9748C9.1998 18.8223 9.26038 18.6761 9.36822 18.5682C9.47605 18.4604 9.6223 18.3998 9.7748 18.3998H20.1248C20.2773 18.3998 20.4236 18.4604 20.5314 18.5682C20.6392 18.6761 20.6998 18.8223 20.6998 18.9748C20.6998 19.1273 20.6392 19.2736 20.5314 19.3814C20.4236 19.4892 20.2773 19.5498 20.1248 19.5498H9.7748C9.6223 19.5498 9.47605 19.4892 9.36822 19.3814C9.26038 19.2736 9.1998 19.1273 9.1998 18.9748Z" fill="#022F2F"/>
<path d="M2.2998 4.0248C2.2998 3.56731 2.48155 3.12855 2.80505 2.80505C3.12855 2.48155 3.56731 2.2998 4.0248 2.2998H5.1748C5.6323 2.2998 6.07106 2.48155 6.39456 2.80505C6.71806 3.12855 6.8998 3.56731 6.8998 4.0248V5.1748C6.8998 5.6323 6.71806 6.07106 6.39456 6.39456C6.07106 6.71806 5.6323 6.8998 5.1748 6.8998H4.0248C3.56731 6.8998 3.12855 6.71806 2.80505 6.39456C2.48155 6.07106 2.2998 5.6323 2.2998 5.1748V4.0248ZM4.0248 3.4498C3.87231 3.4498 3.72605 3.51038 3.61822 3.61822C3.51038 3.72605 3.4498 3.87231 3.4498 4.0248V5.1748C3.4498 5.3273 3.51038 5.47356 3.61822 5.58139C3.72605 5.68922 3.87231 5.7498 4.0248 5.7498H5.1748C5.3273 5.7498 5.47356 5.68922 5.58139 5.58139C5.68922 5.47356 5.7498 5.3273 5.7498 5.1748V4.0248C5.7498 3.87231 5.68922 3.72605 5.58139 3.61822C5.47356 3.51038 5.3273 3.4498 5.1748 3.4498H4.0248ZM2.2998 10.9248C2.2998 10.4673 2.48155 10.0285 2.80505 9.70505C3.12855 9.38155 3.56731 9.1998 4.0248 9.1998H5.1748C5.6323 9.1998 6.07106 9.38155 6.39456 9.70505C6.71806 10.0285 6.8998 10.4673 6.8998 10.9248V12.0748C6.8998 12.5323 6.71806 12.9711 6.39456 13.2946C6.07106 13.6181 5.6323 13.7998 5.1748 13.7998H4.0248C3.56731 13.7998 3.12855 13.6181 2.80505 13.2946C2.48155 12.9711 2.2998 12.5323 2.2998 12.0748V10.9248ZM4.0248 10.3498C3.87231 10.3498 3.72605 10.4104 3.61822 10.5182C3.51038 10.6261 3.4498 10.7723 3.4498 10.9248V12.0748C3.4498 12.2273 3.51038 12.3736 3.61822 12.4814C3.72605 12.5892 3.87231 12.6498 4.0248 12.6498H5.1748C5.3273 12.6498 5.47356 12.5892 5.58139 12.4814C5.68922 12.3736 5.7498 12.2273 5.7498 12.0748V10.9248C5.7498 10.7723 5.68922 10.6261 5.58139 10.5182C5.47356 10.4104 5.3273 10.3498 5.1748 10.3498H4.0248ZM2.2998 17.8248C2.2998 17.3673 2.48155 16.9285 2.80505 16.605C3.12855 16.2815 3.56731 16.0998 4.0248 16.0998H5.1748C5.6323 16.0998 6.07106 16.2815 6.39456 16.605C6.71806 16.9285 6.8998 17.3673 6.8998 17.8248V18.9748C6.8998 19.4323 6.71806 19.8711 6.39456 20.1946C6.07106 20.5181 5.6323 20.6998 5.1748 20.6998H4.0248C3.56731 20.6998 3.12855 20.5181 2.80505 20.1946C2.48155 19.8711 2.2998 19.4323 2.2998 18.9748V17.8248ZM4.0248 17.2498C3.87231 17.2498 3.72605 17.3104 3.61822 17.4182C3.51038 17.5261 3.4498 17.6723 3.4498 17.8248V18.9748C3.4498 19.1273 3.51038 19.2736 3.61822 19.3814C3.72605 19.4892 3.87231 19.5498 4.0248 19.5498H5.1748C5.3273 19.5498 5.47356 19.4892 5.58139 19.3814C5.68922 19.2736 5.7498 19.1273 5.7498 18.9748V17.8248C5.7498 17.6723 5.68922 17.5261 5.58139 17.4182C5.47356 17.3104 5.3273 17.2498 5.1748 17.2498H4.0248ZM9.1998 5.1748C9.1998 5.02231 9.26038 4.87605 9.36822 4.76822C9.47605 4.66038 9.6223 4.5998 9.7748 4.5998H20.1248C20.2773 4.5998 20.4236 4.66038 20.5314 4.76822C20.6392 4.87605 20.6998 5.02231 20.6998 5.1748C20.6998 5.3273 20.6392 5.47356 20.5314 5.58139C20.4236 5.68922 20.2773 5.7498 20.1248 5.7498H9.7748C9.6223 5.7498 9.47605 5.68922 9.36822 5.58139C9.26038 5.47356 9.1998 5.3273 9.1998 5.1748ZM9.1998 12.0748C9.1998 11.9223 9.26038 11.7761 9.36822 11.6682C9.47605 11.5604 9.6223 11.4998 9.7748 11.4998H20.1248C20.2773 11.4998 20.4236 11.5604 20.5314 11.6682C20.6392 11.7761 20.6998 11.9223 20.6998 12.0748C20.6998 12.2273 20.6392 12.3736 20.5314 12.4814C20.4236 12.5892 20.2773 12.6498 20.1248 12.6498H9.7748C9.6223 12.6498 9.47605 12.5892 9.36822 12.4814C9.26038 12.3736 9.1998 12.2273 9.1998 12.0748ZM9.1998 18.9748C9.1998 18.8223 9.26038 18.6761 9.36822 18.5682C9.47605 18.4604 9.6223 18.3998 9.7748 18.3998H20.1248C20.2773 18.3998 20.4236 18.4604 20.5314 18.5682C20.6392 18.6761 20.6998 18.8223 20.6998 18.9748C20.6998 19.1273 20.6392 19.2736 20.5314 19.3814C20.4236 19.4892 20.2773 19.5498 20.1248 19.5498H9.7748C9.6223 19.5498 9.47605 19.4892 9.36822 19.3814C9.26038 19.2736 9.1998 19.1273 9.1998 18.9748Z" fill="black" fill-opacity="0.2"/>
</svg>
