<svg width="20" height="20" viewBox="0 0 20 20" fill="none" xmlns="http://www.w3.org/2000/svg">
<path d="M13.3335 3.33398H15.0002C15.4422 3.33398 15.8661 3.50958 16.1787 3.82214C16.4912 4.1347 16.6668 4.55862 16.6668 5.00065V16.6673C16.6668 17.1093 16.4912 17.5333 16.1787 17.8458C15.8661 18.1584 15.4422 18.334 15.0002 18.334H5.00016C4.55814 18.334 4.13421 18.1584 3.82165 17.8458C3.50909 17.5333 3.3335 17.1093 3.3335 16.6673V5.00065C3.3335 4.55862 3.50909 4.1347 3.82165 3.82214C4.13421 3.50958 4.55814 3.33398 5.00016 3.33398H6.66683" stroke="#008080" stroke-width="2" stroke-linecap="round" stroke-linejoin="round"/>
<path d="M12.4998 1.66602H7.49984C7.0396 1.66602 6.6665 2.03911 6.6665 2.49935V4.16602C6.6665 4.62625 7.0396 4.99935 7.49984 4.99935H12.4998C12.9601 4.99935 13.3332 4.62625 13.3332 4.16602V2.49935C13.3332 2.03911 12.9601 1.66602 12.4998 1.66602Z" stroke="#008080" stroke-width="2" stroke-linecap="round" stroke-linejoin="round"/>
</svg>
