<svg width="20" height="21" viewBox="0 0 20 21" fill="none" xmlns="http://www.w3.org/2000/svg">
<path d="M11.6668 2.16602H5.00016C4.55814 2.16602 4.13421 2.34161 3.82165 2.65417C3.50909 2.96673 3.3335 3.39065 3.3335 3.83268V17.166C3.3335 17.608 3.50909 18.032 3.82165 18.3445C4.13421 18.6571 4.55814 18.8327 5.00016 18.8327H15.0002C15.4422 18.8327 15.8661 18.6571 16.1787 18.3445C16.4912 18.032 16.6668 17.608 16.6668 17.166V7.16602L11.6668 2.16602Z" stroke="#638888" stroke-width="2" stroke-linecap="round" stroke-linejoin="round"/>
<path d="M11.6665 2.16602V7.16602H16.6665" stroke="#638888" stroke-width="2" stroke-linecap="round" stroke-linejoin="round"/>
<path d="M13.3332 11.334H6.6665" stroke="#638888" stroke-width="2" stroke-linecap="round" stroke-linejoin="round"/>
<path d="M13.3332 14.666H6.6665" stroke="#638888" stroke-width="2" stroke-linecap="round" stroke-linejoin="round"/>
<path d="M8.33317 8H7.49984H6.6665" stroke="#638888" stroke-width="2" stroke-linecap="round" stroke-linejoin="round"/>
</svg>
