<svg width="20" height="21" viewBox="0 0 20 21" fill="none" xmlns="http://www.w3.org/2000/svg">
<path d="M7.63332 9.55833C7.54999 9.55 7.44999 9.55 7.35832 9.55833C5.37499 9.49167 3.79999 7.86667 3.79999 5.86667C3.79999 3.825 5.44999 2.16667 7.49999 2.16667C9.54165 2.16667 11.2 3.825 11.2 5.86667C11.1917 7.86667 9.61665 9.49167 7.63332 9.55833Z" stroke="#638888" stroke-width="1.5" stroke-linecap="round" stroke-linejoin="round"/>
<path d="M13.675 3.83333C15.2916 3.83333 16.5917 5.14167 16.5917 6.75C16.5917 8.325 15.3417 9.60833 13.7833 9.66667C13.7167 9.65833 13.6417 9.65833 13.5667 9.66667" stroke="#638888" stroke-width="1.5" stroke-linecap="round" stroke-linejoin="round"/>
<path d="M3.46666 12.6333C1.45 13.9833 1.45 16.1833 3.46666 17.525C5.75833 19.0583 9.51666 19.0583 11.8083 17.525C13.825 16.175 13.825 13.975 11.8083 12.6333C9.525 11.1083 5.76666 11.1083 3.46666 12.6333Z" stroke="#638888" stroke-width="1.5" stroke-linecap="round" stroke-linejoin="round"/>
<path d="M15.2833 17.1667C15.8833 17.0417 16.45 16.8 16.9167 16.4417C18.2167 15.4667 18.2167 13.8583 16.9167 12.8833C16.4583 12.5333 15.9 12.3 15.3083 12.1667" stroke="#638888" stroke-width="1.5" stroke-linecap="round" stroke-linejoin="round"/>
</svg>
