<svg width="17" height="23" viewBox="0 0 23 23" fill="none" xmlns="http://www.w3.org/2000/svg">
<path d="M9.58333 9.58341C11.7004 9.58341 13.4167 7.86717 13.4167 5.75008C13.4167 3.63299 11.7004 1.91675 9.58333 1.91675C7.46624 1.91675 5.75 3.63299 5.75 5.75008C5.75 7.86717 7.46624 9.58341 9.58333 9.58341Z" stroke="#022F2F" stroke-width="1.4375"/>
<path d="M9.58333 9.58341C11.7004 9.58341 13.4167 7.86717 13.4167 5.75008C13.4167 3.63299 11.7004 1.91675 9.58333 1.91675C7.46624 1.91675 5.75 3.63299 5.75 5.75008C5.75 7.86717 7.46624 9.58341 9.58333 9.58341Z" stroke="black" stroke-opacity="0.2" stroke-width="1.4375"/>
<path d="M20.1243 9.58341H18.2077M18.2077 9.58341H16.291M18.2077 9.58341V7.66675M18.2077 9.58341V11.5001M17.2474 17.2501C17.2487 17.0929 17.2493 16.9332 17.2493 16.7709C17.2493 14.3895 13.8166 12.4584 9.58268 12.4584C5.34877 12.4584 1.91602 14.3895 1.91602 16.7709C1.91602 19.1524 1.91602 21.0834 9.58268 21.0834C11.7207 21.0834 13.2627 20.933 14.3743 20.6646" stroke="#022F2F" stroke-width="1.4375" stroke-linecap="round"/>
<path d="M20.1243 9.58341H18.2077M18.2077 9.58341H16.291M18.2077 9.58341V7.66675M18.2077 9.58341V11.5001M17.2474 17.2501C17.2487 17.0929 17.2493 16.9332 17.2493 16.7709C17.2493 14.3895 13.8166 12.4584 9.58268 12.4584C5.34877 12.4584 1.91602 14.3895 1.91602 16.7709C1.91602 19.1524 1.91602 21.0834 9.58268 21.0834C11.7207 21.0834 13.2627 20.933 14.3743 20.6646" stroke="black" stroke-opacity="0.2" stroke-width="1.4375" stroke-linecap="round"/>
</svg>
