<svg width="20" height="20" viewBox="0 0 20 20" fill="none" xmlns="http://www.w3.org/2000/svg">
<path d="M5.03125 15.5729V13.6562M9.82292 15.5729V12.6979M14.6146 15.5729V10.7812M0.71875 9.82292C0.71875 5.5315 0.71875 3.38483 2.05179 2.05179C3.38483 0.71875 5.53054 0.71875 9.82292 0.71875C14.1143 0.71875 16.261 0.71875 17.594 2.05179C18.9271 3.38483 18.9271 5.53054 18.9271 9.82292C18.9271 14.1143 18.9271 16.261 17.594 17.594C16.261 18.9271 14.1153 18.9271 9.82292 18.9271C5.5315 18.9271 3.38483 18.9271 2.05179 17.594C0.71875 16.261 0.71875 14.1153 0.71875 9.82292Z" stroke="#022F2F" stroke-width="1.4375" stroke-linecap="round" stroke-linejoin="round"/>
<path d="M5.03125 15.5729V13.6562M9.82292 15.5729V12.6979M14.6146 15.5729V10.7812M0.71875 9.82292C0.71875 5.5315 0.71875 3.38483 2.05179 2.05179C3.38483 0.71875 5.53054 0.71875 9.82292 0.71875C14.1143 0.71875 16.261 0.71875 17.594 2.05179C18.9271 3.38483 18.9271 5.53054 18.9271 9.82292C18.9271 14.1143 18.9271 16.261 17.594 17.594C16.261 18.9271 14.1153 18.9271 9.82292 18.9271C5.5315 18.9271 3.38483 18.9271 2.05179 17.594C0.71875 16.261 0.71875 14.1153 0.71875 9.82292Z" stroke="black" stroke-opacity="0.2" stroke-width="1.4375" stroke-linecap="round" stroke-linejoin="round"/>
<path d="M4.06445 9.32846C6.12966 9.39746 10.813 9.086 13.4772 4.85783M11.7311 4.34704L13.529 4.05762C13.7475 4.02983 14.0695 4.20329 14.149 4.40933L14.6234 5.97908" stroke="#022F2F" stroke-width="1.4375" stroke-linecap="round" stroke-linejoin="round"/>
<path d="M4.06445 9.32846C6.12966 9.39746 10.813 9.086 13.4772 4.85783M11.7311 4.34704L13.529 4.05762C13.7475 4.02983 14.0695 4.20329 14.149 4.40933L14.6234 5.97908" stroke="black" stroke-opacity="0.2" stroke-width="1.4375" stroke-linecap="round" stroke-linejoin="round"/>
</svg>
