<svg width="16" height="16" viewBox="0 0 16 16" fill="none" xmlns="http://www.w3.org/2000/svg">
<path d="M8.13342 7.86681L7.1934 8.80681C6.6734 9.32681 6.6734 10.1735 7.1934 10.6935C7.7134 11.2135 8.56007 11.2135 9.08007 10.6935L10.5601 9.21349C11.6001 8.17349 11.6001 6.48682 10.5601 5.44016C9.5201 4.40016 7.83341 4.40016 6.78674 5.44016L5.17342 7.05348C4.28008 7.94681 4.28008 9.39348 5.17342 10.2868" stroke="#001F1F" stroke-opacity="0.7" stroke-width="1.5" stroke-linecap="round" stroke-linejoin="round"/>
<path d="M7.99992 14.6673C11.6818 14.6673 14.6666 11.6825 14.6666 8.00065C14.6666 4.31875 11.6818 1.33398 7.99992 1.33398C4.31802 1.33398 1.33325 4.31875 1.33325 8.00065C1.33325 11.6825 4.31802 14.6673 7.99992 14.6673Z" stroke="#001F1F" stroke-opacity="0.7" stroke-width="1.5" stroke-linecap="round" stroke-linejoin="round"/>
</svg>
