<svg width="20" height="20" viewBox="0 0 20 20" fill="none" xmlns="http://www.w3.org/2000/svg">
<path fill-rule="evenodd" clip-rule="evenodd" d="M10.0001 1.04102C8.2872 1.04102 6.64449 1.72145 5.43332 2.93262C4.22215 4.14379 3.54172 5.78649 3.54172 7.49935V8.08602C3.54167 8.66676 3.36973 9.2345 3.04755 9.71768L2.09172 11.1535C0.980053 12.8202 1.82839 15.0852 3.76089 15.6118C4.39033 15.7835 5.02478 15.9288 5.66422 16.0477L5.66589 16.0518C6.30589 17.7618 8.01839 18.9577 10.0001 18.9577C11.9817 18.9577 13.6942 17.7618 14.3351 16.0518L14.3367 16.0477C14.9768 15.9281 15.6117 15.7827 16.2401 15.6118C18.1726 15.0852 19.0209 12.8202 17.9092 11.1535L16.9526 9.71768C16.6304 9.2345 16.4584 8.66676 16.4584 8.08602V7.49935C16.4584 5.78649 15.778 4.14379 14.5668 2.93262C13.3556 1.72145 11.7129 1.04102 10.0001 1.04102ZM12.8134 16.2802C10.9442 16.5032 9.05509 16.5032 7.18589 16.2802C7.77839 17.131 8.80922 17.7077 10.0001 17.7077C11.1909 17.7077 12.2209 17.131 12.8134 16.2802ZM4.79172 7.49935C4.79172 6.11801 5.34045 4.79325 6.31721 3.8165C7.29396 2.83975 8.61872 2.29102 10.0001 2.29102C11.3814 2.29102 12.7062 2.83975 13.6829 3.8165C14.6597 4.79325 15.2084 6.11801 15.2084 7.49935V8.08602C15.2084 8.91352 15.4534 9.72268 15.9126 10.411L16.8692 11.8468C17.0175 12.0689 17.1108 12.3229 17.1415 12.5881C17.1722 12.8533 17.1393 13.122 17.0457 13.372C16.9521 13.622 16.8004 13.8461 16.6031 14.0259C16.4057 14.2057 16.1685 14.336 15.9109 14.406C12.0407 15.4615 7.95855 15.4615 4.08839 14.406C3.83092 14.3359 3.59379 14.2057 3.39657 14.0259C3.19935 13.8462 3.04769 13.6221 2.95408 13.3723C2.86048 13.1224 2.82762 12.8538 2.85822 12.5887C2.88881 12.3237 2.98199 12.0697 3.13005 11.8477L4.08839 10.411C4.54717 9.72242 4.79189 8.91345 4.79172 8.08602V7.49935Z" fill="#008080"/>
</svg>
