<svg width="20" height="20" viewBox="0 0 20 20" fill="none" xmlns="http://www.w3.org/2000/svg">
<path fill-rule="evenodd" clip-rule="evenodd" d="M6.66602 0.833984C7.12625 0.833984 7.49935 1.20708 7.49935 1.66732V2.50065H12.4993V1.66732C12.4993 1.20708 12.8724 0.833984 13.3327 0.833984C13.7929 0.833984 14.166 1.20708 14.166 1.66732V2.50065H14.9993C16.8403 2.50065 18.3327 3.99304 18.3327 5.83398V15.0007C18.3327 16.8416 16.8403 18.334 14.9993 18.334H4.99935C3.1584 18.334 1.66602 16.8416 1.66602 15.0007V5.83398C1.66602 3.99304 3.1584 2.50065 4.99935 2.50065H5.83268V1.66732C5.83268 1.20708 6.20578 0.833984 6.66602 0.833984ZM12.4993 4.16732C12.4993 4.62755 12.8724 5.00065 13.3327 5.00065C13.7929 5.00065 14.166 4.62755 14.166 4.16732H14.9993C15.9198 4.16732 16.666 4.91351 16.666 5.83398V6.25065H3.33268V5.83398C3.33268 4.91351 4.07887 4.16732 4.99935 4.16732H5.83268C5.83268 4.62755 6.20578 5.00065 6.66602 5.00065C7.12625 5.00065 7.49935 4.62755 7.49935 4.16732H12.4993ZM16.666 7.91732H3.33268V15.0007C3.33268 15.9211 4.07887 16.6673 4.99935 16.6673H14.9993C15.9198 16.6673 16.666 15.9211 16.666 15.0007V7.91732Z" fill="#001F1F" fill-opacity="0.7"/>
</svg>
