<svg width="23" height="23" viewBox="0 0 23 23" fill="none" xmlns="http://www.w3.org/2000/svg">
<path d="M16.1923 13.3347C16.445 13.3347 16.6872 13.2343 16.8659 13.0557C17.0445 12.8771 17.1448 12.6348 17.1448 12.3822C17.1448 12.1296 17.0445 11.8873 16.8659 11.7087C16.6872 11.53 16.445 11.4297 16.1923 11.4297C15.9397 11.4297 15.6975 11.53 15.5188 11.7087C15.3402 11.8873 15.2398 12.1296 15.2398 12.3822C15.2398 12.6348 15.3402 12.8771 15.5188 13.0557C15.6975 13.2343 15.9397 13.3347 16.1923 13.3347ZM16.1923 17.1447C16.445 17.1447 16.6872 17.0443 16.8659 16.8657C17.0445 16.6871 17.1448 16.4448 17.1448 16.1922C17.1448 15.9396 17.0445 15.6973 16.8659 15.5187C16.6872 15.34 16.445 15.2397 16.1923 15.2397C15.9397 15.2397 15.6975 15.34 15.5188 15.5187C15.3402 15.6973 15.2398 15.9396 15.2398 16.1922C15.2398 16.4448 15.3402 16.6871 15.5188 16.8657C15.6975 17.0443 15.9397 17.1447 16.1923 17.1447ZM12.3823 12.3822C12.3823 12.6348 12.282 12.8771 12.1034 13.0557C11.9247 13.2343 11.6825 13.3347 11.4298 13.3347C11.1772 13.3347 10.935 13.2343 10.7563 13.0557C10.5777 12.8771 10.4773 12.6348 10.4773 12.3822C10.4773 12.1296 10.5777 11.8873 10.7563 11.7087C10.935 11.53 11.1772 11.4297 11.4298 11.4297C11.6825 11.4297 11.9247 11.53 12.1034 11.7087C12.282 11.8873 12.3823 12.1296 12.3823 12.3822ZM12.3823 16.1922C12.3823 16.4448 12.282 16.6871 12.1034 16.8657C11.9247 17.0443 11.6825 17.1447 11.4298 17.1447C11.1772 17.1447 10.935 17.0443 10.7563 16.8657C10.5777 16.6871 10.4773 16.4448 10.4773 16.1922C10.4773 15.9396 10.5777 15.6973 10.7563 15.5187C10.935 15.34 11.1772 15.2397 11.4298 15.2397C11.6825 15.2397 11.9247 15.34 12.1034 15.5187C12.282 15.6973 12.3823 15.9396 12.3823 16.1922ZM6.66734 13.3347C6.91996 13.3347 7.16223 13.2343 7.34086 13.0557C7.51949 12.8771 7.61984 12.6348 7.61984 12.3822C7.61984 12.1296 7.51949 11.8873 7.34086 11.7087C7.16223 11.53 6.91996 11.4297 6.66734 11.4297C6.41473 11.4297 6.17245 11.53 5.99382 11.7087C5.8152 11.8873 5.71484 12.1296 5.71484 12.3822C5.71484 12.6348 5.8152 12.8771 5.99382 13.0557C6.17245 13.2343 6.41473 13.3347 6.66734 13.3347ZM6.66734 17.1447C6.91996 17.1447 7.16223 17.0443 7.34086 16.8657C7.51949 16.6871 7.61984 16.4448 7.61984 16.1922C7.61984 15.9396 7.51949 15.6973 7.34086 15.5187C7.16223 15.34 6.91996 15.2397 6.66734 15.2397C6.41473 15.2397 6.17245 15.34 5.99382 15.5187C5.8152 15.6973 5.71484 15.9396 5.71484 16.1922C5.71484 16.4448 5.8152 16.6871 5.99382 16.8657C6.17245 17.0443 6.41473 17.1447 6.66734 17.1447Z" fill="#008080"/>
<path fill-rule="evenodd" clip-rule="evenodd" d="M6.66733 1.66602C6.85679 1.66602 7.0385 1.74128 7.17247 1.87525C7.30644 2.00922 7.3817 2.19093 7.3817 2.38039V3.10715C8.01226 3.09477 8.70663 3.09477 9.47054 3.09477H13.3882C14.153 3.09477 14.8474 3.09477 15.478 3.10715V2.38039C15.478 2.19093 15.5532 2.00922 15.6872 1.87525C15.8212 1.74128 16.0029 1.66602 16.1923 1.66602C16.3818 1.66602 16.5635 1.74128 16.6975 1.87525C16.8314 2.00922 16.9067 2.19093 16.9067 2.38039V3.16811C17.1544 3.18716 17.389 3.21129 17.6106 3.2405C18.7269 3.39099 19.6309 3.70722 20.3443 4.41969C21.0567 5.13312 21.373 6.03704 21.5235 7.15337C21.6692 8.23922 21.6692 9.62511 21.6692 11.3758V13.3875C21.6692 15.1382 21.6692 16.525 21.5235 17.6099C21.373 18.7262 21.0567 19.6302 20.3443 20.3436C19.6309 21.0561 18.7269 21.3723 17.6106 21.5228C16.5248 21.6685 15.1389 21.6685 13.3882 21.6685H9.47244C7.72175 21.6685 6.33491 21.6685 5.25001 21.5228C4.13368 21.3723 3.22976 21.0561 2.51633 20.3436C1.80386 19.6302 1.48763 18.7262 1.33714 17.6099C1.19141 16.5241 1.19141 15.1382 1.19141 13.3875V11.3758C1.19141 9.62511 1.19141 8.23827 1.33714 7.15337C1.48763 6.03704 1.80386 5.13312 2.51633 4.41969C3.22976 3.70722 4.13368 3.39099 5.25001 3.2405C5.47226 3.21129 5.70689 3.18716 5.95391 3.16811V2.38039C5.95391 2.19109 6.02904 2.00953 6.16281 1.87559C6.29657 1.74164 6.47803 1.66627 6.66733 1.66602ZM5.4386 4.65687C4.48134 4.78545 3.92889 5.02739 3.52598 5.4303C3.12308 5.8332 2.88114 6.38565 2.75255 7.34292C2.73096 7.50484 2.71255 7.67597 2.69731 7.85631H20.1623C20.1471 7.67597 20.1287 7.50452 20.1071 7.34196C19.9785 6.3847 19.7366 5.83225 19.3337 5.42934C18.9308 5.02644 18.3783 4.7845 17.4201 4.65591C16.4419 4.52447 15.1512 4.52256 13.3348 4.52256H9.52483C7.70841 4.52256 6.41873 4.52542 5.4386 4.65687ZM2.6192 11.4291C2.6192 10.6157 2.6192 9.908 2.63159 9.28602H20.2281C20.2405 9.908 20.2405 10.6157 20.2405 11.4291V13.3341C20.2405 15.1506 20.2386 16.4412 20.1071 17.4204C19.9785 18.3776 19.7366 18.9301 19.3337 19.333C18.9308 19.7359 18.3783 19.9778 17.4201 20.1064C16.4419 20.2379 15.1512 20.2398 13.3348 20.2398H9.52483C7.70841 20.2398 6.41873 20.2379 5.4386 20.1064C4.48134 19.9778 3.92889 19.7359 3.52598 19.333C3.12308 18.9301 2.88114 18.3776 2.75255 17.4194C2.62111 16.4412 2.6192 15.1506 2.6192 13.3341V11.4291Z" fill="#008080"/>
</svg>
