<svg width="82" height="82" viewBox="0 0 82 82" fill="none" xmlns="http://www.w3.org/2000/svg">
<rect x="10" y="10" width="62" height="62" rx="31" fill="#008080" fill-opacity="0.2"/>
<rect x="5" y="5" width="72" height="72" rx="36" stroke="#008080" stroke-opacity="0.1" stroke-width="10"/>
<path d="M52.1877 52.1877L29.811 29.811M40.9993 56.8327C45.1986 56.8327 49.2259 55.1645 52.1952 52.1952C55.1645 49.2259 56.8327 45.1986 56.8327 40.9993C56.8327 36.8001 55.1645 32.7728 52.1952 29.8035C49.2259 26.8342 45.1986 25.166 40.9993 25.166C36.8001 25.166 32.7728 26.8342 29.8035 29.8035C26.8342 32.7728 25.166 36.8001 25.166 40.9993C25.166 45.1986 26.8342 49.2259 29.8035 52.1952C32.7728 55.1645 36.8001 56.8327 40.9993 56.8327Z" stroke="#008080" stroke-width="2.5" stroke-linecap="round" stroke-linejoin="round"/>
</svg>
