<svg width="17" height="23" viewBox="0 0 23 23" fill="none" xmlns="http://www.w3.org/2000/svg">
<g clip-path="url(#clip0_3340_40492)">
<path fill-rule="evenodd" clip-rule="evenodd" d="M11.4993 1.19824C10.2921 1.19824 9.13422 1.67784 8.28054 2.53152C7.42686 3.3852 6.94727 4.54304 6.94727 5.75033C6.94727 6.95761 7.42686 8.11545 8.28054 8.96913C9.13422 9.82282 10.2921 10.3024 11.4993 10.3024C12.7066 10.3024 13.8645 9.82282 14.7182 8.96913C15.5718 8.11545 16.0514 6.95761 16.0514 5.75033C16.0514 4.54304 15.5718 3.3852 14.7182 2.53152C13.8645 1.67784 12.7066 1.19824 11.4993 1.19824ZM8.38477 5.75033C8.38477 4.92429 8.71291 4.13208 9.29701 3.54798C9.8811 2.96388 10.6733 2.63574 11.4993 2.63574C12.3254 2.63574 13.1176 2.96388 13.7017 3.54798C14.2858 4.13208 14.6139 4.92429 14.6139 5.75033C14.6139 6.57636 14.2858 7.36857 13.7017 7.95267C13.1176 8.53677 12.3254 8.86491 11.4993 8.86491C10.6733 8.86491 9.8811 8.53677 9.29701 7.95267C8.71291 7.36857 8.38477 6.57636 8.38477 5.75033Z" fill="#022F2F"/>
<path fill-rule="evenodd" clip-rule="evenodd" d="M11.4993 1.19824C10.2921 1.19824 9.13422 1.67784 8.28054 2.53152C7.42686 3.3852 6.94727 4.54304 6.94727 5.75033C6.94727 6.95761 7.42686 8.11545 8.28054 8.96913C9.13422 9.82282 10.2921 10.3024 11.4993 10.3024C12.7066 10.3024 13.8645 9.82282 14.7182 8.96913C15.5718 8.11545 16.0514 6.95761 16.0514 5.75033C16.0514 4.54304 15.5718 3.3852 14.7182 2.53152C13.8645 1.67784 12.7066 1.19824 11.4993 1.19824ZM8.38477 5.75033C8.38477 4.92429 8.71291 4.13208 9.29701 3.54798C9.8811 2.96388 10.6733 2.63574 11.4993 2.63574C12.3254 2.63574 13.1176 2.96388 13.7017 3.54798C14.2858 4.13208 14.6139 4.92429 14.6139 5.75033C14.6139 6.57636 14.2858 7.36857 13.7017 7.95267C13.1176 8.53677 12.3254 8.86491 11.4993 8.86491C10.6733 8.86491 9.8811 8.53677 9.29701 7.95267C8.71291 7.36857 8.38477 6.57636 8.38477 5.75033Z" fill="black" fill-opacity="0.2"/>
<path d="M17.25 3.1145C17.0594 3.1145 16.8766 3.19023 16.7418 3.32502C16.607 3.45981 16.5312 3.64263 16.5312 3.83325C16.5312 4.02388 16.607 4.20669 16.7418 4.34149C16.8766 4.47628 17.0594 4.552 17.25 4.552C18.5696 4.552 19.4062 5.42025 19.4062 6.22909C19.4062 7.03792 18.5696 7.90617 17.25 7.90617C17.0594 7.90617 16.8766 7.98189 16.7418 8.11669C16.607 8.25148 16.5312 8.43429 16.5312 8.62492C16.5312 8.81554 16.607 8.99836 16.7418 9.13315C16.8766 9.26794 17.0594 9.34367 17.25 9.34367C19.1063 9.34367 20.8438 8.06621 20.8438 6.22909C20.8438 4.39196 19.1063 3.1145 17.25 3.1145ZM6.46875 3.83325C6.46875 3.64263 6.39302 3.45981 6.25823 3.32502C6.12344 3.19023 5.94062 3.1145 5.75 3.1145C3.89371 3.1145 2.15625 4.39196 2.15625 6.22909C2.15625 8.06621 3.89371 9.34367 5.75 9.34367C5.94062 9.34367 6.12344 9.26794 6.25823 9.13315C6.39302 8.99836 6.46875 8.81554 6.46875 8.62492C6.46875 8.43429 6.39302 8.25148 6.25823 8.11669C6.12344 7.98189 5.94062 7.90617 5.75 7.90617C4.43133 7.90617 3.59375 7.03792 3.59375 6.22909C3.59375 5.42025 4.43133 4.552 5.75 4.552C5.94062 4.552 6.12344 4.47628 6.25823 4.34149C6.39302 4.20669 6.46875 4.02388 6.46875 3.83325Z" fill="#022F2F"/>
<path d="M17.25 3.1145C17.0594 3.1145 16.8766 3.19023 16.7418 3.32502C16.607 3.45981 16.5312 3.64263 16.5312 3.83325C16.5312 4.02388 16.607 4.20669 16.7418 4.34149C16.8766 4.47628 17.0594 4.552 17.25 4.552C18.5696 4.552 19.4062 5.42025 19.4062 6.22909C19.4062 7.03792 18.5696 7.90617 17.25 7.90617C17.0594 7.90617 16.8766 7.98189 16.7418 8.11669C16.607 8.25148 16.5312 8.43429 16.5312 8.62492C16.5312 8.81554 16.607 8.99836 16.7418 9.13315C16.8766 9.26794 17.0594 9.34367 17.25 9.34367C19.1063 9.34367 20.8438 8.06621 20.8438 6.22909C20.8438 4.39196 19.1063 3.1145 17.25 3.1145ZM6.46875 3.83325C6.46875 3.64263 6.39302 3.45981 6.25823 3.32502C6.12344 3.19023 5.94062 3.1145 5.75 3.1145C3.89371 3.1145 2.15625 4.39196 2.15625 6.22909C2.15625 8.06621 3.89371 9.34367 5.75 9.34367C5.94062 9.34367 6.12344 9.26794 6.25823 9.13315C6.39302 8.99836 6.46875 8.81554 6.46875 8.62492C6.46875 8.43429 6.39302 8.25148 6.25823 8.11669C6.12344 7.98189 5.94062 7.90617 5.75 7.90617C4.43133 7.90617 3.59375 7.03792 3.59375 6.22909C3.59375 5.42025 4.43133 4.552 5.75 4.552C5.94062 4.552 6.12344 4.47628 6.25823 4.34149C6.39302 4.20669 6.46875 4.02388 6.46875 3.83325Z" fill="black" fill-opacity="0.2"/>
<path fill-rule="evenodd" clip-rule="evenodd" d="M11.5 11.7395C9.79033 11.7395 8.20908 12.1995 7.03513 12.9825C5.86596 13.7625 5.03125 14.9183 5.03125 16.2916C5.03125 17.6649 5.86596 18.8216 7.03513 19.6007C8.20908 20.3827 9.79033 20.8437 11.5 20.8437C13.2097 20.8437 14.7909 20.3837 15.9649 19.6007C17.134 18.8206 17.9688 17.6649 17.9688 16.2916C17.9688 14.9183 17.1331 13.7616 15.9649 12.9825C14.7909 12.2005 13.2097 11.7395 11.5 11.7395ZM6.46875 16.2916C6.46875 15.5479 6.92108 14.787 7.83246 14.1794C8.74 13.5747 10.0347 13.177 11.5 13.177C12.9662 13.177 14.26 13.5747 15.1675 14.1794C16.0789 14.787 16.5312 15.5479 16.5312 16.2916C16.5312 17.0353 16.0789 17.7962 15.1675 18.4038C14.26 19.0085 12.9653 19.4062 11.5 19.4062C10.0338 19.4062 8.74 19.0085 7.83246 18.4038C6.92108 17.7962 6.46875 17.0353 6.46875 16.2916Z" fill="#022F2F"/>
<path fill-rule="evenodd" clip-rule="evenodd" d="M11.5 11.7395C9.79033 11.7395 8.20908 12.1995 7.03513 12.9825C5.86596 13.7625 5.03125 14.9183 5.03125 16.2916C5.03125 17.6649 5.86596 18.8216 7.03513 19.6007C8.20908 20.3827 9.79033 20.8437 11.5 20.8437C13.2097 20.8437 14.7909 20.3837 15.9649 19.6007C17.134 18.8206 17.9688 17.6649 17.9688 16.2916C17.9688 14.9183 17.1331 13.7616 15.9649 12.9825C14.7909 12.2005 13.2097 11.7395 11.5 11.7395ZM6.46875 16.2916C6.46875 15.5479 6.92108 14.787 7.83246 14.1794C8.74 13.5747 10.0347 13.177 11.5 13.177C12.9662 13.177 14.26 13.5747 15.1675 14.1794C16.0789 14.787 16.5312 15.5479 16.5312 16.2916C16.5312 17.0353 16.0789 17.7962 15.1675 18.4038C14.26 19.0085 12.9653 19.4062 11.5 19.4062C10.0338 19.4062 8.74 19.0085 7.83246 18.4038C6.92108 17.7962 6.46875 17.0353 6.46875 16.2916Z" fill="black" fill-opacity="0.2"/>
<path d="M18.4649 13.2632C18.485 13.1708 18.5231 13.0833 18.577 13.0057C18.631 12.9281 18.6997 12.8619 18.7793 12.8109C18.8589 12.7599 18.9478 12.7251 19.0408 12.7085C19.1339 12.6918 19.2293 12.6937 19.3216 12.7141C20.2426 12.9163 21.0734 13.2814 21.6906 13.7864C22.3068 14.2905 22.7611 14.9843 22.7611 15.8123C22.7611 16.6413 22.3068 17.3342 21.6906 17.8383C21.0734 18.3433 20.2435 18.7084 19.3216 18.9106C19.2294 18.9309 19.134 18.9328 19.041 18.9162C18.9481 18.8996 18.8593 18.8649 18.7797 18.814C18.7001 18.7631 18.6314 18.697 18.5774 18.6195C18.5234 18.5421 18.4851 18.4547 18.4649 18.3625C18.4446 18.2702 18.4427 18.1749 18.4593 18.0819C18.4759 17.9889 18.5106 17.9001 18.5615 17.8206C18.6124 17.741 18.6785 17.6723 18.756 17.6182C18.8334 17.5642 18.9208 17.526 19.013 17.5057C19.773 17.3399 20.3796 17.0534 20.7802 16.7256C21.1808 16.3979 21.3236 16.0768 21.3236 15.8123C21.3236 15.5478 21.1808 15.2278 20.7802 14.8991C20.3796 14.5703 19.773 14.2857 19.013 14.119C18.9207 14.0988 18.8334 14.0606 18.7559 14.0066C18.6784 13.9526 18.6123 13.8838 18.5613 13.8042C18.5104 13.7247 18.4757 13.6358 18.4592 13.5428C18.4426 13.4498 18.4445 13.3545 18.4649 13.2622M3.68065 12.7141C3.86695 12.6734 4.06178 12.7084 4.22227 12.8114C4.38277 12.9144 4.49578 13.0769 4.53644 13.2632C4.57711 13.4495 4.5421 13.6443 4.43912 13.8048C4.33614 13.9653 4.17362 14.0783 3.98732 14.119C3.22832 14.2848 2.62169 14.5713 2.22111 14.8991C1.82053 15.2268 1.67773 15.5478 1.67773 15.8123C1.67773 16.0768 1.82053 16.3969 2.22111 16.7256C2.62169 17.0543 3.22832 17.339 3.98828 17.5057C4.17458 17.5466 4.337 17.6599 4.4398 17.8206C4.5426 17.9812 4.57736 18.1762 4.53644 18.3625C4.49552 18.5488 4.38227 18.7112 4.2216 18.814C4.06092 18.9168 3.866 18.9516 3.67969 18.9106C2.75778 18.7084 1.92786 18.3433 1.31069 17.8383C0.694484 17.3342 0.240234 16.6403 0.240234 15.8123C0.240234 14.9834 0.694484 14.2905 1.31069 13.7864C1.92786 13.2814 2.75873 12.9163 3.68065 12.7141Z" fill="#022F2F"/>
<path d="M18.4649 13.2632C18.485 13.1708 18.5231 13.0833 18.577 13.0057C18.631 12.9281 18.6997 12.8619 18.7793 12.8109C18.8589 12.7599 18.9478 12.7251 19.0408 12.7085C19.1339 12.6918 19.2293 12.6937 19.3216 12.7141C20.2426 12.9163 21.0734 13.2814 21.6906 13.7864C22.3068 14.2905 22.7611 14.9843 22.7611 15.8123C22.7611 16.6413 22.3068 17.3342 21.6906 17.8383C21.0734 18.3433 20.2435 18.7084 19.3216 18.9106C19.2294 18.9309 19.134 18.9328 19.041 18.9162C18.9481 18.8996 18.8593 18.8649 18.7797 18.814C18.7001 18.7631 18.6314 18.697 18.5774 18.6195C18.5234 18.5421 18.4851 18.4547 18.4649 18.3625C18.4446 18.2702 18.4427 18.1749 18.4593 18.0819C18.4759 17.9889 18.5106 17.9001 18.5615 17.8206C18.6124 17.741 18.6785 17.6723 18.756 17.6182C18.8334 17.5642 18.9208 17.526 19.013 17.5057C19.773 17.3399 20.3796 17.0534 20.7802 16.7256C21.1808 16.3979 21.3236 16.0768 21.3236 15.8123C21.3236 15.5478 21.1808 15.2278 20.7802 14.8991C20.3796 14.5703 19.773 14.2857 19.013 14.119C18.9207 14.0988 18.8334 14.0606 18.7559 14.0066C18.6784 13.9526 18.6123 13.8838 18.5613 13.8042C18.5104 13.7247 18.4757 13.6358 18.4592 13.5428C18.4426 13.4498 18.4445 13.3545 18.4649 13.2622M3.68065 12.7141C3.86695 12.6734 4.06178 12.7084 4.22227 12.8114C4.38277 12.9144 4.49578 13.0769 4.53644 13.2632C4.57711 13.4495 4.5421 13.6443 4.43912 13.8048C4.33614 13.9653 4.17362 14.0783 3.98732 14.119C3.22832 14.2848 2.62169 14.5713 2.22111 14.8991C1.82053 15.2268 1.67773 15.5478 1.67773 15.8123C1.67773 16.0768 1.82053 16.3969 2.22111 16.7256C2.62169 17.0543 3.22832 17.339 3.98828 17.5057C4.17458 17.5466 4.337 17.6599 4.4398 17.8206C4.5426 17.9812 4.57736 18.1762 4.53644 18.3625C4.49552 18.5488 4.38227 18.7112 4.2216 18.814C4.06092 18.9168 3.866 18.9516 3.67969 18.9106C2.75778 18.7084 1.92786 18.3433 1.31069 17.8383C0.694484 17.3342 0.240234 16.6403 0.240234 15.8123C0.240234 14.9834 0.694484 14.2905 1.31069 13.7864C1.92786 13.2814 2.75873 12.9163 3.68065 12.7141Z" fill="black" fill-opacity="0.2"/>
</g>
<defs>
<clipPath id="clip0_3340_40492">
<rect width="23" height="23" fill="white"/>
</clipPath>
</defs>
</svg>
