<svg width="30" height="30" viewBox="0 0 30 30" fill="none" xmlns="http://www.w3.org/2000/svg">
<path d="M12.8037 5.17619C13.5386 3.10948 16.4614 3.10948 17.1963 5.17619C17.6592 6.47769 19.1459 7.0935 20.3934 6.50047C22.3745 5.55877 24.4412 7.62549 23.4995 9.60656C22.9065 10.8541 23.5223 12.3408 24.8238 12.8037C26.8905 13.5386 26.8905 16.4614 24.8238 17.1963C23.5223 17.6592 22.9065 19.1459 23.4995 20.3934C24.4412 22.3745 22.3745 24.4412 20.3934 23.4995C19.1459 22.9065 17.6592 23.5223 17.1963 24.8238C16.4614 26.8905 13.5386 26.8905 12.8037 24.8238C12.3408 23.5223 10.8541 22.9065 9.60656 23.4995C7.62549 24.4412 5.55877 22.3745 6.50047 20.3934C7.0935 19.1459 6.47769 17.6592 5.17619 17.1963C3.10948 16.4614 3.10948 13.5386 5.17619 12.8037C6.47769 12.3408 7.0935 10.8541 6.50047 9.60656C5.55877 7.62549 7.62549 5.55877 9.60656 6.50047C10.8541 7.0935 12.3408 6.47769 12.8037 5.17619Z" fill="#008080"/>
<path d="M12.4794 17.7216V16.5107L15.5156 11.7273H16.5597V13.4034H15.9418L14.0277 16.4325V16.4893H18.3423V17.7216H12.4794ZM15.9702 19V17.3523L15.9986 16.8161V11.7273H17.4403V19H15.9702Z" fill="white"/>
</svg>
