<svg width="44" height="44" viewBox="0 0 44 44" fill="none" xmlns="http://www.w3.org/2000/svg">
<path d="M19.2502 18.333L11.9168 25.6663M11.9168 18.333L19.2502 25.6663M8.07602 33.9163H26.9538C27.9101 33.9162 28.8285 33.5426 29.5132 32.875L39.3215 23.3123C39.4967 23.1415 39.6359 22.9374 39.731 22.712C39.826 22.4865 39.875 22.2443 39.875 21.9997C39.875 21.755 39.826 21.5128 39.731 21.2874C39.6359 21.0619 39.4967 20.8578 39.3215 20.687L29.5132 11.1243C28.8285 10.4568 27.9101 10.0831 26.9538 10.083H8.07602C6.33435 10.083 4.00051 11.0748 4.00051 13.0622V30.9372C4.00051 32.9245 6.33435 33.9163 8.07602 33.9163Z" stroke="#022F2F" stroke-width="2.75" stroke-linecap="round" stroke-linejoin="round"/>
<path d="M19.2502 18.333L11.9168 25.6663M11.9168 18.333L19.2502 25.6663M8.07602 33.9163H26.9538C27.9101 33.9162 28.8285 33.5426 29.5132 32.875L39.3215 23.3123C39.4967 23.1415 39.6359 22.9374 39.731 22.712C39.826 22.4865 39.875 22.2443 39.875 21.9997C39.875 21.755 39.826 21.5128 39.731 21.2874C39.6359 21.0619 39.4967 20.8578 39.3215 20.687L29.5132 11.1243C28.8285 10.4568 27.9101 10.0831 26.9538 10.083H8.07602C6.33435 10.083 4.00051 11.0748 4.00051 13.0622V30.9372C4.00051 32.9245 6.33435 33.9163 8.07602 33.9163Z" stroke="black" stroke-opacity="0.2" stroke-width="2.75" stroke-linecap="round" stroke-linejoin="round"/>
</svg>
