<svg width="24" height="24" viewBox="0 0 24 24" fill="none" xmlns="http://www.w3.org/2000/svg">
<path fill-rule="evenodd" clip-rule="evenodd" d="M12 1.25C11.8011 1.25 11.6103 1.32902 11.4697 1.46967C11.329 1.61032 11.25 1.80109 11.25 2V12.973L9.57 11.012C9.50591 10.9371 9.42771 10.8756 9.33986 10.831C9.25201 10.7864 9.15623 10.7595 9.05798 10.7519C8.95974 10.7443 8.86096 10.7561 8.76728 10.7866C8.6736 10.8172 8.58685 10.8659 8.512 10.93C8.43715 10.9941 8.37565 11.0723 8.33102 11.1601C8.28639 11.248 8.25949 11.3438 8.25188 11.442C8.24427 11.5403 8.25608 11.639 8.28664 11.7327C8.3172 11.8264 8.36592 11.9131 8.43 11.988L11.43 15.488C11.5004 15.5703 11.5878 15.6364 11.6862 15.6818C11.7846 15.7271 11.8917 15.7506 12 15.7506C12.1083 15.7506 12.2154 15.7271 12.3138 15.6818C12.4122 15.6364 12.4996 15.5703 12.57 15.488L15.57 11.988C15.6341 11.9131 15.6828 11.8264 15.7134 11.7327C15.7439 11.639 15.7557 11.5403 15.7481 11.442C15.7405 11.3438 15.7136 11.248 15.669 11.1601C15.6244 11.0723 15.5629 10.9941 15.488 10.93C15.4131 10.8659 15.3264 10.8172 15.2327 10.7866C15.139 10.7561 15.0403 10.7443 14.942 10.7519C14.8438 10.7595 14.748 10.7864 14.6601 10.831C14.5723 10.8756 14.4941 10.9371 14.43 11.012L12.75 12.972V2C12.75 1.80109 12.671 1.61032 12.5303 1.46967C12.3897 1.32902 12.1989 1.25 12 1.25ZM17.004 8.252C16.8051 8.25094 16.6139 8.32894 16.4725 8.46884C16.3311 8.60874 16.2511 8.79909 16.25 8.998C16.2489 9.19691 16.3269 9.3881 16.4668 9.5295C16.6067 9.6709 16.7971 9.75094 16.996 9.752C18.089 9.758 18.864 9.786 19.453 9.894C20.019 9.999 20.348 10.166 20.591 10.409C20.868 10.686 21.048 11.075 21.147 11.809C21.248 12.564 21.25 13.565 21.25 15V16C21.25 17.436 21.248 18.437 21.147 19.192C21.048 19.926 20.867 20.314 20.591 20.592C20.314 20.868 19.926 21.048 19.191 21.147C18.437 21.249 17.435 21.25 16 21.25H8C6.565 21.25 5.564 21.249 4.808 21.147C4.074 21.048 3.686 20.868 3.409 20.591C3.132 20.314 2.952 19.926 2.853 19.192C2.752 18.437 2.75 17.436 2.75 16V15C2.75 13.565 2.752 12.564 2.853 11.808C2.952 11.075 3.133 10.686 3.409 10.409C3.653 10.166 3.981 9.999 4.547 9.894C5.136 9.786 5.911 9.758 7.004 9.752C7.10249 9.75147 7.19991 9.73155 7.29071 9.69338C7.3815 9.6552 7.46389 9.59952 7.53316 9.5295C7.60243 9.45949 7.65724 9.37651 7.69444 9.28532C7.73165 9.19412 7.75053 9.09649 7.75 8.998C7.74947 8.89951 7.72956 8.80209 7.69138 8.71129C7.6532 8.6205 7.59752 8.53811 7.5275 8.46884C7.45749 8.39957 7.37451 8.34477 7.28332 8.30756C7.19212 8.27035 7.09449 8.25147 6.996 8.252C5.914 8.258 5.013 8.284 4.276 8.419C3.518 8.559 2.873 8.824 2.348 9.349C1.746 9.95 1.488 10.709 1.366 11.609C1.25 12.475 1.25 13.578 1.25 14.945V16.055C1.25 17.423 1.25 18.525 1.366 19.392C1.488 20.292 1.746 21.05 2.348 21.652C2.95 22.254 3.708 22.512 4.608 22.634C5.475 22.75 6.578 22.75 7.945 22.75H16.055C17.422 22.75 18.525 22.75 19.392 22.634C20.292 22.513 21.05 22.254 21.652 21.652C22.254 21.05 22.512 20.292 22.633 19.392C22.75 18.525 22.75 17.422 22.75 16.055V14.945C22.75 13.578 22.75 12.475 22.633 11.608C22.513 10.708 22.253 9.95 21.652 9.348C21.127 8.824 20.482 8.558 19.724 8.419C18.987 8.284 18.086 8.258 17.004 8.252Z" fill="black"/>
</svg>
