<svg width="20" height="20" viewBox="0 0 20 20" fill="none" xmlns="http://www.w3.org/2000/svg">
<path d="M17.089 12.4422V16.8822C17.0888 17.5104 16.8391 18.1128 16.3949 18.557C15.9507 19.0013 15.3483 19.2509 14.72 19.2512H3.11904C2.8068 19.2511 2.49765 19.1892 2.20938 19.0693C1.9211 18.9493 1.65937 18.7735 1.43923 18.5521C1.21909 18.3307 1.04488 18.0679 0.926608 17.7789C0.808334 17.4899 0.748329 17.1804 0.750042 16.8682V5.2802C0.748184 4.96845 0.808217 4.65943 0.926663 4.37104C1.04511 4.08266 1.21961 3.82066 1.44006 3.60021C1.6605 3.37977 1.92251 3.20526 2.21089 3.08682C2.49927 2.96837 2.80829 2.90834 3.12004 2.9102H7.55904" stroke="#022F2F" stroke-width="1.5" stroke-linecap="round" stroke-linejoin="round"/>
<path d="M17.089 12.4422V16.8822C17.0888 17.5104 16.8391 18.1128 16.3949 18.557C15.9507 19.0013 15.3483 19.2509 14.72 19.2512H3.11904C2.8068 19.2511 2.49765 19.1892 2.20938 19.0693C1.9211 18.9493 1.65937 18.7735 1.43923 18.5521C1.21909 18.3307 1.04488 18.0679 0.926608 17.7789C0.808334 17.4899 0.748329 17.1804 0.750042 16.8682V5.2802C0.748184 4.96845 0.808217 4.65943 0.926663 4.37104C1.04511 4.08266 1.21961 3.82066 1.44006 3.60021C1.6605 3.37977 1.92251 3.20526 2.21089 3.08682C2.49927 2.96837 2.80829 2.90834 3.12004 2.9102H7.55904" stroke="black" stroke-opacity="0.2" stroke-width="1.5" stroke-linecap="round" stroke-linejoin="round"/>
<path d="M17.089 6.9957L13.004 2.9097M4.83399 13.8037V11.6387C4.83599 11.2817 4.97799 10.9387 5.22899 10.6857L14.761 1.1537C14.8875 1.02581 15.0381 0.924272 15.204 0.854976C15.37 0.785681 15.5481 0.75 15.728 0.75C15.9079 0.75 16.0859 0.785681 16.2519 0.854976C16.4179 0.924272 16.5685 1.02581 16.695 1.1537L18.846 3.3047C18.9739 3.43118 19.0754 3.58177 19.1447 3.74776C19.214 3.91374 19.2497 4.09183 19.2497 4.2717C19.2497 4.45157 19.214 4.62965 19.1447 4.79564C19.0754 4.96163 18.9739 5.11222 18.846 5.2387L9.31399 14.7707C9.06052 15.0224 8.7182 15.1643 8.36099 15.1657H6.19599C6.01705 15.166 5.83982 15.1309 5.67446 15.0626C5.5091 14.9942 5.35884 14.8939 5.23232 14.7674C5.10579 14.6408 5.00548 14.4906 4.93713 14.3252C4.86877 14.1599 4.83372 13.9826 4.83399 13.8037Z" stroke="#022F2F" stroke-width="1.5" stroke-linecap="round" stroke-linejoin="round"/>
<path d="M17.089 6.9957L13.004 2.9097M4.83399 13.8037V11.6387C4.83599 11.2817 4.97799 10.9387 5.22899 10.6857L14.761 1.1537C14.8875 1.02581 15.0381 0.924272 15.204 0.854976C15.37 0.785681 15.5481 0.75 15.728 0.75C15.9079 0.75 16.0859 0.785681 16.2519 0.854976C16.4179 0.924272 16.5685 1.02581 16.695 1.1537L18.846 3.3047C18.9739 3.43118 19.0754 3.58177 19.1447 3.74776C19.214 3.91374 19.2497 4.09183 19.2497 4.2717C19.2497 4.45157 19.214 4.62965 19.1447 4.79564C19.0754 4.96163 18.9739 5.11222 18.846 5.2387L9.31399 14.7707C9.06052 15.0224 8.7182 15.1643 8.36099 15.1657H6.19599C6.01705 15.166 5.83982 15.1309 5.67446 15.0626C5.5091 14.9942 5.35884 14.8939 5.23232 14.7674C5.10579 14.6408 5.00548 14.4906 4.93713 14.3252C4.86877 14.1599 4.83372 13.9826 4.83399 13.8037Z" stroke="black" stroke-opacity="0.2" stroke-width="1.5" stroke-linecap="round" stroke-linejoin="round"/>
</svg>
