<svg width="20" height="20" viewBox="0 0 20 20" fill="none" xmlns="http://www.w3.org/2000/svg">
<g clip-path="url(#clip0_4513_36496)">
<path d="M15.9088 12.0371V15.7371C15.9086 16.2606 15.7006 16.7626 15.3304 17.1328C14.9602 17.503 14.4582 17.7111 13.9347 17.7113H4.26717C4.00697 17.7112 3.74935 17.6597 3.50912 17.5597C3.26889 17.4597 3.05078 17.3132 2.86733 17.1287C2.68388 16.9442 2.5387 16.7252 2.44014 16.4844C2.34158 16.2436 2.29158 15.9857 2.293 15.7255V6.06878C2.29146 5.80899 2.34148 5.55147 2.44019 5.31116C2.53889 5.07084 2.68431 4.8525 2.86802 4.6688C3.05172 4.48509 3.27006 4.33967 3.51038 4.24097C3.75069 4.14226 4.00821 4.09224 4.268 4.09378H7.96717" stroke="#022F2F" stroke-width="1.25" stroke-linecap="round" stroke-linejoin="round"/>
<path d="M15.9088 12.0371V15.7371C15.9086 16.2606 15.7006 16.7626 15.3304 17.1328C14.9602 17.503 14.4582 17.7111 13.9347 17.7113H4.26717C4.00697 17.7112 3.74935 17.6597 3.50912 17.5597C3.26889 17.4597 3.05078 17.3132 2.86733 17.1287C2.68388 16.9442 2.5387 16.7252 2.44014 16.4844C2.34158 16.2436 2.29158 15.9857 2.293 15.7255V6.06878C2.29146 5.80899 2.34148 5.55147 2.44019 5.31116C2.53889 5.07084 2.68431 4.8525 2.86802 4.6688C3.05172 4.48509 3.27006 4.33967 3.51038 4.24097C3.75069 4.14226 4.00821 4.09224 4.268 4.09378H7.96717" stroke="black" stroke-opacity="0.2" stroke-width="1.25" stroke-linecap="round" stroke-linejoin="round"/>
<path d="M15.9098 7.49772L12.5056 4.09272M5.69727 13.1711V11.3669C5.69893 11.0694 5.81727 10.7836 6.02643 10.5727L13.9698 2.62938C14.0752 2.52281 14.2007 2.4382 14.339 2.38045C14.4773 2.3227 14.6257 2.29297 14.7756 2.29297C14.9255 2.29297 15.0739 2.3227 15.2122 2.38045C15.3505 2.4382 15.476 2.52281 15.5814 2.62938L17.3739 4.42188C17.4805 4.52728 17.5651 4.65278 17.6229 4.7911C17.6806 4.92942 17.7104 5.07783 17.7104 5.22772C17.7104 5.37761 17.6806 5.52601 17.6229 5.66434C17.5651 5.80266 17.4805 5.92815 17.3739 6.03355L9.4306 13.9769C9.21938 14.1866 8.93411 14.3049 8.63643 14.3061H6.83227C6.68315 14.3063 6.53547 14.2771 6.39766 14.2201C6.25986 14.1631 6.13465 14.0795 6.02921 13.9741C5.92377 13.8687 5.84018 13.7435 5.78322 13.6057C5.72626 13.4679 5.69705 13.3202 5.69727 13.1711Z" stroke="#022F2F" stroke-width="1.25" stroke-linecap="round" stroke-linejoin="round"/>
<path d="M15.9098 7.49772L12.5056 4.09272M5.69727 13.1711V11.3669C5.69893 11.0694 5.81727 10.7836 6.02643 10.5727L13.9698 2.62938C14.0752 2.52281 14.2007 2.4382 14.339 2.38045C14.4773 2.3227 14.6257 2.29297 14.7756 2.29297C14.9255 2.29297 15.0739 2.3227 15.2122 2.38045C15.3505 2.4382 15.476 2.52281 15.5814 2.62938L17.3739 4.42188C17.4805 4.52728 17.5651 4.65278 17.6229 4.7911C17.6806 4.92942 17.7104 5.07783 17.7104 5.22772C17.7104 5.37761 17.6806 5.52601 17.6229 5.66434C17.5651 5.80266 17.4805 5.92815 17.3739 6.03355L9.4306 13.9769C9.21938 14.1866 8.93411 14.3049 8.63643 14.3061H6.83227C6.68315 14.3063 6.53547 14.2771 6.39766 14.2201C6.25986 14.1631 6.13465 14.0795 6.02921 13.9741C5.92377 13.8687 5.84018 13.7435 5.78322 13.6057C5.72626 13.4679 5.69705 13.3202 5.69727 13.1711Z" stroke="black" stroke-opacity="0.2" stroke-width="1.25" stroke-linecap="round" stroke-linejoin="round"/>
</g>
<defs>
<clipPath id="clip0_4513_36496">
<rect width="20" height="20" fill="white"/>
</clipPath>
</defs>
</svg>
