<svg width="17" height="17" viewBox="0 0 17 17" fill="none" xmlns="http://www.w3.org/2000/svg">
<path d="M14.2409 10.3691V14.0691C14.2406 14.5927 14.0326 15.0947 13.6624 15.4649C13.2922 15.835 12.7902 16.0431 12.2667 16.0433H2.5992C2.339 16.0432 2.08138 15.9917 1.84115 15.8917C1.60092 15.7917 1.38281 15.6453 1.19936 15.4607C1.01591 15.2762 0.870735 15.0572 0.772173 14.8164C0.673611 14.5756 0.623608 14.3177 0.625035 14.0575V4.40082C0.623486 4.14102 0.673514 3.88351 0.772219 3.64319C0.870924 3.40287 1.01634 3.18453 1.20005 3.00083C1.38375 2.81712 1.60209 2.6717 1.84241 2.573C2.08272 2.4743 2.34024 2.42427 2.60003 2.42582H6.2992" stroke="#022F2F" stroke-width="1.25" stroke-linecap="round" stroke-linejoin="round"/>
<path d="M14.2409 10.3691V14.0691C14.2406 14.5927 14.0326 15.0947 13.6624 15.4649C13.2922 15.835 12.7902 16.0431 12.2667 16.0433H2.5992C2.339 16.0432 2.08138 15.9917 1.84115 15.8917C1.60092 15.7917 1.38281 15.6453 1.19936 15.4607C1.01591 15.2762 0.870735 15.0572 0.772173 14.8164C0.673611 14.5756 0.623608 14.3177 0.625035 14.0575V4.40082C0.623486 4.14102 0.673514 3.88351 0.772219 3.64319C0.870924 3.40287 1.01634 3.18453 1.20005 3.00083C1.38375 2.81712 1.60209 2.6717 1.84241 2.573C2.08272 2.4743 2.34024 2.42427 2.60003 2.42582H6.2992" stroke="black" stroke-opacity="0.2" stroke-width="1.25" stroke-linecap="round" stroke-linejoin="round"/>
<path d="M14.2418 5.82975L10.8376 2.42475M4.0293 11.5031V9.69892C4.03096 9.40142 4.1493 9.11558 4.35846 8.90475L12.3018 0.961416C12.4072 0.854838 12.5327 0.770226 12.671 0.71248C12.8093 0.654734 12.9577 0.625 13.1076 0.625C13.2575 0.625 13.4059 0.654734 13.5443 0.71248C13.6826 0.770226 13.8081 0.854838 13.9135 0.961416L15.706 2.75392C15.8125 2.85931 15.8972 2.98481 15.9549 3.12313C16.0126 3.26145 16.0424 3.40986 16.0424 3.55975C16.0424 3.70964 16.0126 3.85805 15.9549 3.99637C15.8972 4.13469 15.8125 4.26018 15.706 4.36558L7.76263 12.3089C7.55141 12.5187 7.26614 12.6369 6.96847 12.6381H5.1643C5.01519 12.6383 4.8675 12.6091 4.72969 12.5521C4.59189 12.4952 4.46668 12.4116 4.36124 12.3061C4.2558 12.2007 4.17221 12.0755 4.11525 11.9377C4.05829 11.7999 4.02908 11.6522 4.0293 11.5031Z" stroke="#022F2F" stroke-width="1.25" stroke-linecap="round" stroke-linejoin="round"/>
<path d="M14.2418 5.82975L10.8376 2.42475M4.0293 11.5031V9.69892C4.03096 9.40142 4.1493 9.11558 4.35846 8.90475L12.3018 0.961416C12.4072 0.854838 12.5327 0.770226 12.671 0.71248C12.8093 0.654734 12.9577 0.625 13.1076 0.625C13.2575 0.625 13.4059 0.654734 13.5443 0.71248C13.6826 0.770226 13.8081 0.854838 13.9135 0.961416L15.706 2.75392C15.8125 2.85931 15.8972 2.98481 15.9549 3.12313C16.0126 3.26145 16.0424 3.40986 16.0424 3.55975C16.0424 3.70964 16.0126 3.85805 15.9549 3.99637C15.8972 4.13469 15.8125 4.26018 15.706 4.36558L7.76263 12.3089C7.55141 12.5187 7.26614 12.6369 6.96847 12.6381H5.1643C5.01519 12.6383 4.8675 12.6091 4.72969 12.5521C4.59189 12.4952 4.46668 12.4116 4.36124 12.3061C4.2558 12.2007 4.17221 12.0755 4.11525 11.9377C4.05829 11.7999 4.02908 11.6522 4.0293 11.5031Z" stroke="black" stroke-opacity="0.2" stroke-width="1.25" stroke-linecap="round" stroke-linejoin="round"/>
</svg>
