<svg width="34" height="34" viewBox="0 0 34 34" fill="none" xmlns="http://www.w3.org/2000/svg">
<path d="M7.66058 23.783C6.11275 22.3158 4.89144 20.5389 4.07624 18.5681C3.93703 18.244 3.86523 17.8948 3.86523 17.542C3.86523 17.1892 3.93703 16.8401 4.07624 16.5159C5.15885 13.8823 6.97344 11.6141 9.30516 9.97978C11.5183 8.4332 14.1682 7.63526 16.8674 7.70268C18.8094 7.65391 20.7356 8.06322 22.4899 8.89746M26.0883 11.3151C27.6278 12.781 28.8439 14.5525 29.6586 16.5159C29.7978 16.8401 29.8696 17.1892 29.8696 17.542C29.8696 17.8948 29.7978 18.244 29.6586 18.5681C28.576 21.2017 26.7614 23.47 24.4297 25.1043C22.2165 26.6509 19.5666 27.4488 16.8674 27.3814C14.9254 27.4302 12.9993 27.0208 11.2449 26.1866" stroke="#008080" stroke-width="2.10843" stroke-linecap="round" stroke-linejoin="round"/>
<path d="M12.2429 19.1868C12.0458 18.661 11.9458 18.1038 11.9477 17.5422C11.9477 16.2375 12.466 14.9861 13.3887 14.0635C14.3113 13.1409 15.5626 12.6226 16.8674 12.6226C17.4296 12.6197 17.9863 12.721 18.512 12.9177M21.4919 15.8977C21.6887 16.4234 21.7899 16.98 21.7871 17.5422C21.7871 18.847 21.2688 20.0984 20.3461 21.021C19.4235 21.9436 18.1722 22.4619 16.8674 22.4619C16.3059 22.4639 15.7486 22.3639 15.2228 22.1667M4.2168 28.1125L26.7068 5.62256" stroke="#008080" stroke-width="2.10843" stroke-linecap="round" stroke-linejoin="round"/>
</svg>
