<svg width="23" height="23" viewBox="0 0 23 23" fill="none" xmlns="http://www.w3.org/2000/svg">
<path d="M18.7285 1.91699H6.22899C5.9035 1.91704 5.58143 1.98341 5.28244 2.11205C4.98345 2.24069 4.7138 2.42891 4.48996 2.66521C4.26612 2.90152 4.09278 3.18096 3.98052 3.48648C3.86825 3.79199 3.81942 4.11718 3.83699 4.4422M3.83699 4.4422C3.87009 5.05427 4.13653 5.63036 4.58147 6.05196C5.02642 6.47355 5.61603 6.70857 6.22899 6.70866H15.3332C17.1406 6.70866 18.0433 6.70866 18.6049 7.27024C19.1665 7.83183 19.1665 8.73458 19.1665 10.542V17.2503C19.1665 19.0577 19.1665 19.9605 18.6049 20.5221C18.0433 21.0837 17.1406 21.0837 15.3332 21.0837H9.58699C6.87587 21.0837 5.52078 21.0837 4.67841 20.2413C3.83699 19.3999 3.83699 18.0438 3.83699 15.3337V4.4422ZM3.83699 4.4422V4.31378M6.22899 4.31283H15.3332C16.2369 4.31283 16.6882 4.31283 16.969 4.59362C17.2498 4.87441 17.2498 5.32578 17.2498 6.22949M14.854 11.9795H8.14566M11.979 15.8128H8.14566" stroke="#022F2F" stroke-width="1.4375" stroke-linecap="round" stroke-linejoin="round"/>
<path d="M18.7285 1.91699H6.22899C5.9035 1.91704 5.58143 1.98341 5.28244 2.11205C4.98345 2.24069 4.7138 2.42891 4.48996 2.66521C4.26612 2.90152 4.09278 3.18096 3.98052 3.48648C3.86825 3.79199 3.81942 4.11718 3.83699 4.4422M3.83699 4.4422C3.87009 5.05427 4.13653 5.63036 4.58147 6.05196C5.02642 6.47355 5.61603 6.70857 6.22899 6.70866H15.3332C17.1406 6.70866 18.0433 6.70866 18.6049 7.27024C19.1665 7.83183 19.1665 8.73458 19.1665 10.542V17.2503C19.1665 19.0577 19.1665 19.9605 18.6049 20.5221C18.0433 21.0837 17.1406 21.0837 15.3332 21.0837H9.58699C6.87587 21.0837 5.52078 21.0837 4.67841 20.2413C3.83699 19.3999 3.83699 18.0438 3.83699 15.3337V4.4422ZM3.83699 4.4422V4.31378M6.22899 4.31283H15.3332C16.2369 4.31283 16.6882 4.31283 16.969 4.59362C17.2498 4.87441 17.2498 5.32578 17.2498 6.22949M14.854 11.9795H8.14566M11.979 15.8128H8.14566" stroke="black" stroke-opacity="0.2" stroke-width="1.4375" stroke-linecap="round" stroke-linejoin="round"/>
</svg>
