<svg width="100" height="100" viewBox="0 0 100 100" fill="none" xmlns="http://www.w3.org/2000/svg">
<g clip-path="url(#clip0_10138_40552)">
<path d="M89.9739 18.3107H11.9669C10.9145 18.3113 9.90538 18.7297 9.16122 19.4738C8.41705 20.218 7.9987 21.2271 7.99805 22.2795V93.8516C7.9987 94.9041 8.41705 95.9132 9.16122 96.6573C9.90538 97.4015 10.9145 97.8198 11.9669 97.8205H89.9739C91.0263 97.82 92.0356 97.4016 92.7798 96.6575C93.5241 95.9133 93.9425 94.9041 93.9431 93.8516V22.2795C93.9425 21.227 93.5241 20.2179 92.7798 19.4737C92.0356 18.7295 91.0263 18.3112 89.9739 18.3107Z" fill="#C6C6C6"/>
<path d="M84.8393 72.9497H17.1036C14.9118 72.9497 13.1348 71.1727 13.1348 68.9809V5.74314C13.1348 3.55134 14.9118 1.77429 17.1036 1.77429H84.8393C87.0311 1.77429 88.8081 3.55134 88.8081 5.74314V68.9809C88.8081 71.1727 87.0311 72.9497 84.8393 72.9497Z" fill="#F9F9F9"/>
<path d="M14.3913 70.237V6.9997C14.3913 4.8079 16.1684 3.03085 18.3602 3.03085H86.0958C86.87 3.03085 87.5897 3.25585 88.1999 3.63905C87.4983 2.52019 86.2573 1.77429 84.8393 1.77429H17.1036C14.9118 1.77429 13.1348 3.55134 13.1348 5.74314V68.9808C13.1348 70.3993 13.8807 71.6399 14.9995 72.3419C14.6163 71.7312 14.3913 71.0116 14.3913 70.2374V70.237Z" fill="url(#paint0_linear_10138_40552)"/>
<path d="M76.5063 15.1355H25.4395V18.0457H76.5063V15.1355ZM76.5063 26.2478H25.4395V29.158H76.5063V26.2478ZM76.5063 37.3625H25.4395V40.2728H76.5063V37.3625ZM76.5063 48.4748H25.4395V51.3855H76.5063V48.4748Z" fill="white"/>
<path d="M31.5234 39.0814L44.3558 51.9142H31.5234V39.0814Z" fill="url(#paint1_linear_10138_40552)"/>
<path d="M93.9443 52.9726V23.4467L88.8086 18.3107V52.9721H93.9443V52.9726Z" fill="#C6C6C6"/>
<path d="M99.9602 55.6434L94.427 94.8123C94.1504 96.7705 92.4745 98.2258 90.4971 98.2258H11.4471C9.46963 98.2258 7.79381 96.7705 7.51717 94.8123L0.0397149 41.8856C-0.29758 39.4963 1.55652 37.3615 3.96963 37.3615H28.3819C30.3594 37.3615 32.0352 38.8168 32.3118 40.7746L33.2918 47.7057C33.5684 49.6639 35.2442 51.1192 37.2217 51.1192H96.0311C98.4434 51.1192 100.298 53.2541 99.9606 55.6434H99.9602Z" fill="url(#paint2_linear_10138_40552)"/>
<path d="M80.3555 80.755H21.5895C21.2674 80.7549 20.9564 80.6373 20.7147 80.4243C20.4731 80.2114 20.3174 79.9176 20.2768 79.598L19.5415 73.7767C19.5182 73.5905 19.5347 73.4014 19.59 73.2221C19.6452 73.0427 19.738 72.8772 19.8622 72.7364C19.9863 72.5956 20.139 72.4829 20.31 72.4056C20.481 72.3283 20.6666 72.2883 20.8542 72.2882H81.0907C81.2784 72.2883 81.4639 72.3283 81.635 72.4056C81.806 72.4829 81.9587 72.5956 82.0828 72.7364C82.2069 72.8772 82.2997 73.0427 82.355 73.2221C82.4103 73.4014 82.4268 73.5905 82.4034 73.7767L81.6682 79.598C81.6276 79.9176 81.4719 80.2114 81.2303 80.4243C80.9886 80.6373 80.6776 80.7549 80.3555 80.755Z" fill="#D5D5D5"/>
</g>
<defs>
<linearGradient id="paint0_linear_10138_40552" x1="53.2987" y1="39.6849" x2="3.10608" y2="-10.5081" gradientUnits="userSpaceOnUse">
<stop stop-color="white"/>
</linearGradient>
<linearGradient id="paint1_linear_10138_40552" x1="40.0017" y1="53.9732" x2="24.4907" y2="38.4626" gradientUnits="userSpaceOnUse">
<stop stop-color="#C2CECE" stop-opacity="0"/>
<stop offset="0.179" stop-color="#AFBCBC" stop-opacity="0.179"/>
<stop offset="1" stop-color="#5B6A6A"/>
</linearGradient>
<linearGradient id="paint2_linear_10138_40552" x1="50" y1="37.3615" x2="50" y2="98.2258" gradientUnits="userSpaceOnUse">
<stop stop-color="#EEF0F4"/>
<stop offset="0.927" stop-color="#E4E4E4"/>
</linearGradient>
<clipPath id="clip0_10138_40552">
<rect width="100" height="100" fill="white"/>
</clipPath>
</defs>
</svg>
