<svg width="24" height="24" viewBox="0 0 24 24" fill="none" xmlns="http://www.w3.org/2000/svg">
<path d="M14.25 1.5C14.0511 1.5 13.8603 1.57902 13.7197 1.71967C13.579 1.86032 13.5 2.05109 13.5 2.25C13.5 2.44891 13.579 2.63968 13.7197 2.78033C13.8603 2.92098 14.0511 3 14.25 3H18C18.3978 3 18.7794 3.15804 19.0607 3.43934C19.342 3.72064 19.5 4.10218 19.5 4.5V18C19.5 18.3978 19.342 18.7794 19.0607 19.0607C18.7794 19.342 18.3978 19.5 18 19.5H14.25C14.0511 19.5 13.8603 19.579 13.7197 19.7197C13.579 19.8603 13.5 20.0511 13.5 20.25C13.5 20.4489 13.579 20.6397 13.7197 20.7803C13.8603 20.921 14.0511 21 14.25 21H18C19.65 21 21 19.6575 21 18V4.5C21 2.85 19.6575 1.5 18 1.5H14.25Z" fill="white"/>
<path d="M10.275 6.22518C10.1336 6.08856 9.94411 6.01297 9.74747 6.01468C9.55082 6.01639 9.36271 6.09526 9.22365 6.23432C9.0846 6.37337 9.00572 6.56148 9.00401 6.75813C9.0023 6.95478 9.0779 7.14423 9.21452 7.28568L12.4395 10.5107H2.25452C2.0556 10.5107 1.86484 10.5897 1.72419 10.7304C1.58353 10.871 1.50452 11.0618 1.50452 11.2607C1.50452 11.4596 1.58353 11.6504 1.72419 11.791C1.86484 11.9317 2.0556 12.0107 2.25452 12.0107H12.4395L9.21452 15.2357C9.0779 15.3771 9.0023 15.5666 9.00401 15.7632C9.00572 15.9599 9.0846 16.148 9.22365 16.287C9.36271 16.4261 9.55082 16.505 9.74747 16.5067C9.94411 16.5084 10.1336 16.4328 10.275 16.2962L14.775 11.7962C14.9156 11.6555 14.9946 11.4648 14.9946 11.2659C14.9946 11.0671 14.9156 10.8763 14.775 10.7357L10.275 6.23568V6.22518Z" fill="white"/>
</svg>
