<svg width="25" height="24" viewBox="0 0 25 24" fill="none" xmlns="http://www.w3.org/2000/svg">
<path d="M18.5 15.0005V19.0005C18.5 20.6505 17.15 22.0005 15.5 22.0005H9.5C7.85 22.0005 6.5 20.6505 6.5 19.0005V13.9805L10.39 14.0005C11.12 14.0005 11.84 14.1705 12.5 14.5005C13.16 14.8305 13.88 15.0005 14.62 15.0005H18.5Z" stroke="#025050" stroke-width="1.5" stroke-linecap="round" stroke-linejoin="round"/>
<path d="M18.5 10.83V15H14.62C13.88 15 13.16 14.83 12.5 14.5C11.84 14.17 11.12 14 10.39 14L6.5 13.98V10.83C6.5 10.37 6.76003 9.74 7.09003 9.41L9.21002 7.28999C9.39002 7.10999 9.5 6.85 9.5 6.59V5H15.5V6.59C15.5 6.85 15.61 7.10999 15.79 7.28999L17.91 9.41C18.24 9.74 18.5 10.37 18.5 10.83Z" stroke="#025050" stroke-width="1.5" stroke-linecap="round" stroke-linejoin="round"/>
<path d="M18.5 16V15" stroke="#025050" stroke-width="1.5" stroke-linecap="round" stroke-linejoin="round"/>
<path d="M6.5 14.9805V13.9805" stroke="#025050" stroke-width="1.5" stroke-linecap="round" stroke-linejoin="round"/>
<path d="M15 5H10C9.17 5 8.5 4.32 8.5 3.5C8.5 2.68 9.17 2 10 2H15C15.83 2 16.5 2.68 16.5 3.5C16.5 4.32 15.83 5 15 5Z" stroke="#025050" stroke-width="1.5" stroke-linecap="round" stroke-linejoin="round"/>
</svg>
