<svg width="36" height="36" viewBox="0 0 36 36" fill="none" xmlns="http://www.w3.org/2000/svg">
<rect width="36" height="36" rx="18" fill="#057646"/>
<path fill-rule="evenodd" clip-rule="evenodd" d="M18 25.25C21.7279 25.25 24.75 22.2279 24.75 18.5C24.75 14.7721 21.7279 11.75 18 11.75C14.2721 11.75 11.25 14.7721 11.25 18.5C11.25 22.2279 14.2721 25.25 18 25.25ZM20.7566 17.5531C21.062 17.2733 21.0828 16.7989 20.8031 16.4934C20.5233 16.188 20.0489 16.1672 19.7434 16.4469L16.9744 18.983L16.2566 18.3255C15.9511 18.0458 15.4767 18.0666 15.1969 18.3721C14.9172 18.6775 14.938 19.152 15.2434 19.4317L16.4678 20.5531C16.7545 20.8156 17.1943 20.8156 17.4809 20.5531L20.7566 17.5531Z" fill="#EDFFF7"/>
</svg>
