<svg width="20" height="20" viewBox="0 0 20 20" fill="none" xmlns="http://www.w3.org/2000/svg">
<path d="M11.6657 8.33189L9.16574 10.8319M16.9057 2.52439C16.9848 2.4971 17.07 2.49261 17.1515 2.51143C17.233 2.53025 17.3076 2.57162 17.3667 2.63081C17.4258 2.69001 17.467 2.76464 17.4857 2.84617C17.5044 2.9277 17.4998 3.01285 17.4724 3.09189L12.5357 17.2002C12.5062 17.2846 12.452 17.3581 12.3802 17.4112C12.3083 17.4644 12.2222 17.4947 12.1329 17.4983C12.0436 17.5019 11.9553 17.4786 11.8794 17.4314C11.8036 17.3842 11.7436 17.3152 11.7074 17.2336L9.02491 11.1986C8.97977 11.0982 8.89943 11.0179 8.79907 10.9727L2.76407 8.28939C2.68265 8.25304 2.614 8.1931 2.56699 8.11733C2.51998 8.04156 2.49677 7.95344 2.50036 7.86434C2.50395 7.77525 2.53417 7.68928 2.58712 7.61753C2.64008 7.54579 2.71332 7.49157 2.79741 7.46189L16.9057 2.52439Z" stroke="white" stroke-width="1.25" stroke-linecap="round" stroke-linejoin="round"/>
</svg>
