<svg width="20" height="20" viewBox="0 0 20 20" fill="none" xmlns="http://www.w3.org/2000/svg">
<path d="M2.12596 11.173C1.8993 10.8621 1.78596 10.7063 1.70763 10.4063C1.65475 10.1392 1.65475 9.86427 1.70763 9.59714C1.78596 9.2963 1.8993 9.14047 2.12596 8.83047C3.3668 7.1263 6.0868 4.16797 10.001 4.16797C13.9151 4.16797 16.6351 7.1263 17.876 8.82964C18.1026 9.14047 18.216 9.2963 18.2943 9.5963C18.3472 9.86343 18.3472 10.1383 18.2943 10.4055C18.216 10.7063 18.1026 10.8621 17.876 11.1721C16.6351 12.8763 13.9151 15.8346 10.001 15.8346C6.0868 15.8346 3.3668 12.8763 2.12596 11.173Z" stroke="white" stroke-width="1.25" stroke-linecap="round" stroke-linejoin="round"/>
<path d="M10.0007 11.6693C10.4427 11.6693 10.8666 11.4937 11.1792 11.1811C11.4917 10.8686 11.6673 10.4446 11.6673 10.0026C11.6673 9.56058 11.4917 9.13665 11.1792 8.82409C10.8666 8.51153 10.4427 8.33594 10.0007 8.33594C9.55862 8.33594 9.1347 8.51153 8.82214 8.82409C8.50958 9.13665 8.33398 9.56058 8.33398 10.0026C8.33398 10.4446 8.50958 10.8686 8.82214 11.1811C9.1347 11.4937 9.55862 11.6693 10.0007 11.6693Z" stroke="white" stroke-width="1.25" stroke-linecap="round" stroke-linejoin="round"/>
</svg>
