<svg width="20" height="20" viewBox="0 0 20 20" fill="none" xmlns="http://www.w3.org/2000/svg">
<path d="M5.83366 15V5.87667C5.8336 5.68277 5.89795 5.49435 6.01659 5.34099C6.13524 5.18763 6.30146 5.07802 6.48916 5.02938C6.67685 4.98074 6.87539 4.99582 7.05358 5.07226C7.23178 5.14869 7.37954 5.28215 7.47366 5.45167L12.527 14.5483C12.6211 14.7179 12.7689 14.8513 12.9471 14.9277C13.1253 15.0042 13.3238 15.0193 13.5115 14.9706C13.6992 14.922 13.8654 14.8124 13.9841 14.659C14.1027 14.5057 14.1671 14.3172 14.167 14.1233V5M4.16699 8.33333H15.8337M4.16699 11.6667H15.8337" stroke="#008080" stroke-width="1.66667" stroke-linecap="round" stroke-linejoin="round"/>
</svg>
