<svg width="24" height="24" viewBox="0 0 24 24" fill="none" xmlns="http://www.w3.org/2000/svg">
<path fill-rule="evenodd" clip-rule="evenodd" d="M11.017 2.802C9.28125 2.98759 7.63344 3.66056 6.26402 4.74312C4.89459 5.82569 3.85945 7.27366 3.27822 8.9197C2.69699 10.5657 2.5934 12.3427 2.97943 14.0451C3.36545 15.7475 4.22533 17.306 5.45969 18.5403C6.69405 19.7747 8.25249 20.6345 9.95492 21.0206C11.6573 21.4066 13.4343 21.303 15.0803 20.7218C16.7263 20.1406 18.1743 19.1054 19.2569 17.736C20.3394 16.3666 21.0124 14.7188 21.198 12.983C20.5644 13.7881 19.7673 14.4497 18.8594 14.9243C17.9515 15.3989 16.9533 15.6757 15.9306 15.7364C14.9079 15.7972 13.8839 15.6404 12.9262 15.2766C11.9685 14.9128 11.0987 14.3501 10.3743 13.6257C9.64987 12.9013 9.0872 12.0315 8.72338 11.0738C8.35955 10.1161 8.20284 9.09213 8.26357 8.06944C8.3243 7.04674 8.60108 6.04852 9.07569 5.14059C9.55029 4.23265 10.2119 3.43561 11.017 2.802ZM1.25 12C1.25 6.063 6.063 1.25 12 1.25C12.717 1.25 13.075 1.821 13.137 2.276C13.196 2.714 13.034 3.271 12.531 3.575C11.7839 4.02586 11.1493 4.64082 10.6751 5.37331C10.201 6.10579 9.89974 6.93658 9.79425 7.80274C9.68875 8.6689 9.78177 9.54771 10.0662 10.3726C10.3507 11.1975 10.8192 11.9468 11.4362 12.5638C12.0532 13.1808 12.8025 13.6493 13.6274 13.9338C14.4523 14.2182 15.3311 14.3112 16.1973 14.2058C17.0634 14.1003 17.8942 13.799 18.6267 13.3249C19.3592 12.8507 19.9741 12.2161 20.425 11.469C20.729 10.966 21.286 10.804 21.724 10.863C22.179 10.925 22.75 11.283 22.75 12C22.75 17.937 17.937 22.75 12 22.75C6.063 22.75 1.25 17.937 1.25 12ZM18 2.75C17.8011 2.75 17.6103 2.67098 17.4697 2.53033C17.329 2.38968 17.25 2.19891 17.25 2C17.25 1.80109 17.329 1.61032 17.4697 1.46967C17.6103 1.32902 17.8011 1.25 18 1.25H22C22.1482 1.25013 22.2931 1.29419 22.4163 1.37661C22.5395 1.45903 22.6356 1.57611 22.6923 1.71308C22.749 1.85004 22.7638 2.00074 22.735 2.14614C22.7061 2.29154 22.6348 2.42511 22.53 2.53L19.81 5.25H22C22.1989 5.25 22.3897 5.32902 22.5303 5.46967C22.671 5.61032 22.75 5.80109 22.75 6C22.75 6.19891 22.671 6.38968 22.5303 6.53033C22.3897 6.67098 22.1989 6.75 22 6.75H18C17.8518 6.74987 17.7069 6.70581 17.5837 6.62339C17.4605 6.54097 17.3644 6.42389 17.3077 6.28692C17.251 6.14996 17.2362 5.99926 17.265 5.85386C17.2939 5.70847 17.3652 5.57489 17.47 5.47L20.19 2.75H18ZM13.5 8.75C13.3011 8.75 13.1103 8.67098 12.9697 8.53033C12.829 8.38968 12.75 8.19891 12.75 8C12.75 7.80109 12.829 7.61032 12.9697 7.46967C13.1103 7.32902 13.3011 7.25 13.5 7.25H16.5C16.6482 7.25013 16.7931 7.29419 16.9163 7.37661C17.0395 7.45903 17.1356 7.57611 17.1923 7.71308C17.249 7.85004 17.2638 8.00074 17.235 8.14614C17.2061 8.29153 17.1348 8.42511 17.03 8.53L15.31 10.25H16.5C16.6989 10.25 16.8897 10.329 17.0303 10.4697C17.171 10.6103 17.25 10.8011 17.25 11C17.25 11.1989 17.171 11.3897 17.0303 11.5303C16.8897 11.671 16.6989 11.75 16.5 11.75H13.5C13.3518 11.7499 13.2069 11.7058 13.0837 11.6234C12.9605 11.541 12.8644 11.4239 12.8077 11.2869C12.751 11.15 12.7362 10.9993 12.765 10.8539C12.7939 10.7085 12.8652 10.5749 12.97 10.47L14.69 8.75H13.5Z" fill="currentColor"/>
</svg>
