<svg width="24" height="24" viewBox="0 0 24 24" fill="none" xmlns="http://www.w3.org/2000/svg">
<rect width="24" height="24" fill="white"/>
<path d="M20.312 12.6475L20.829 10.7155C21.433 8.46046 21.736 7.33346 21.509 6.35746C21.3291 5.58695 20.9247 4.88711 20.347 4.34646C19.616 3.66146 18.488 3.35946 16.233 2.75546C13.978 2.15046 12.85 1.84846 11.875 2.07546C11.1045 2.25537 10.4046 2.65975 9.86397 3.23746C9.27697 3.86346 8.97097 4.78046 8.51597 6.44646L8.27197 7.35146L7.75497 9.28346C7.14997 11.5385 6.84797 12.6655 7.07497 13.6415C7.25488 14.412 7.65927 15.1118 8.23697 15.6525C8.96797 16.3375 10.096 16.6395 12.351 17.2445C14.383 17.7885 15.5 18.0875 16.415 17.9745C16.515 17.9618 16.613 17.9445 16.709 17.9225C17.4792 17.7431 18.1791 17.3394 18.72 16.7625C19.405 16.0305 19.707 14.9025 20.312 12.6475Z" stroke="#008080" stroke-width="1.5"/>
<path d="M16.415 17.9743C16.2059 18.6146 15.8386 19.1918 15.347 19.6523C14.616 20.3373 13.488 20.6393 11.233 21.2433C8.97797 21.8473 7.84997 22.1503 6.87497 21.9223C6.10458 21.7427 5.40475 21.3386 4.86397 20.7613C4.17897 20.0303 3.87597 18.9023 3.27197 16.6473L2.75497 14.7153C2.14997 12.4603 1.84797 11.3323 2.07497 10.3573C2.25488 9.58681 2.65927 8.88697 3.23697 8.34631C3.96797 7.66131 5.09597 7.35931 7.35097 6.75431C7.7763 6.63965 8.16464 6.53665 8.51597 6.44531" stroke="#008080" stroke-width="1.5"/>
<path d="M11.777 10L16.607 11.294M11 12.898L13.898 13.674" stroke="#008080" stroke-width="1.5" stroke-linecap="round"/>
</svg>
