<svg width="23" height="23" viewBox="0 0 23 23" fill="none" xmlns="http://www.w3.org/2000/svg">
<path fill-rule="evenodd" clip-rule="evenodd" d="M5.46079 1.94507C6.61998 0.792543 8.52879 0.997331 9.49939 2.29464L10.7014 3.89865C11.492 4.95402 11.4215 6.42849 10.4833 7.36098L10.2566 7.58768C10.2309 7.68284 10.2283 7.78277 10.249 7.87914C10.309 8.26776 10.6338 9.09072 11.994 10.4433C13.3542 11.7958 14.1828 12.1197 14.5772 12.1806C14.6765 12.2006 14.7791 12.1977 14.8772 12.1721L15.2658 11.7853C16.1002 10.9567 17.3804 10.8014 18.4129 11.3624L20.2322 12.353C21.7914 13.1989 22.1848 15.3172 20.9084 16.5869L19.5549 17.9318C19.1282 18.3557 18.5548 18.7091 17.8557 18.7748C16.1316 18.9358 12.115 18.73 7.89252 14.5324C3.95203 10.6138 3.19574 7.1962 3.09954 5.51218C3.05191 4.66065 3.45387 3.94056 3.96631 3.43192L5.46079 1.94507ZM8.35639 3.15093C7.87347 2.50609 6.97431 2.45466 6.46758 2.95853L4.97215 4.44443C4.65783 4.75685 4.50733 5.10165 4.52638 5.43122C4.60258 6.76948 5.21218 9.85272 8.90026 13.5198C12.7693 17.366 16.3421 17.4813 17.7233 17.3518C18.0052 17.326 18.2852 17.1794 18.5472 16.9193L19.8997 15.5734C20.4503 15.0267 20.3293 14.0304 19.5502 13.6075L17.7309 12.6178C17.228 12.3454 16.6393 12.435 16.2736 12.7988L15.8402 13.2303L15.3354 12.7236C15.8402 13.2303 15.8392 13.2312 15.8383 13.2312L15.8373 13.2331L15.8345 13.236L15.8278 13.2417L15.8135 13.2551C15.7733 13.2924 15.73 13.3262 15.684 13.356C15.6078 13.4065 15.5068 13.4627 15.3801 13.5094C15.1229 13.6056 14.782 13.657 14.3609 13.5922C13.5351 13.4656 12.4407 12.9026 10.9862 11.4567C9.53272 10.0108 8.96503 8.92308 8.8374 8.09822C8.77168 7.67721 8.82406 7.33622 8.92122 7.07904C8.97469 6.93433 9.05125 6.79923 9.14791 6.67899L9.17839 6.64566L9.19173 6.63137L9.19744 6.62565L9.2003 6.6228L9.20221 6.62089L9.47653 6.34848C9.8842 5.94176 9.94135 5.26834 9.55749 4.75494L8.35639 3.15093Z" fill="#008080"/>
</svg>
