<svg width="20" height="20" viewBox="0 0 20 20" fill="none" xmlns="http://www.w3.org/2000/svg">
<g clip-path="url(#clip0_4489_27946)">
<g clip-path="url(#clip1_4489_27946)">
<path d="M1.6618 3.05299C1.28388 2.12133 2.13888 1.23299 3.08888 1.56216C6.30971 2.67841 12.4318 5.07133 17.8068 8.72216C18.0168 8.86233 18.189 9.05216 18.3081 9.27483C18.4272 9.49749 18.4896 9.7461 18.4896 9.99862C18.4896 10.2511 18.4272 10.4997 18.3081 10.7224C18.189 10.9451 18.0168 11.1349 17.8068 11.2751C12.4318 14.9255 6.30971 17.3188 3.08888 18.4351C2.13888 18.7642 1.28388 17.8755 1.6618 16.9438C2.4743 14.9426 3.40263 13.0222 3.86471 12.0926C4.05213 11.7175 4.37729 11.4293 4.77221 11.2884L8.33346 9.99841L4.77221 8.70883C4.37729 8.5679 4.05213 8.27976 3.86471 7.90466C3.40263 6.97508 2.4743 5.05466 1.6618 3.05299Z" stroke="white" stroke-width="1.25" stroke-linejoin="round"/>
</g>
</g>
<defs>
<clipPath id="clip0_4489_27946">
<rect width="20" height="20" fill="white"/>
</clipPath>
<clipPath id="clip1_4489_27946">
<rect width="20" height="20" fill="white"/>
</clipPath>
</defs>
</svg>
