<svg width="20" height="20" viewBox="0 0 20 20" fill="none" xmlns="http://www.w3.org/2000/svg">
<path d="M13.6079 2.94141C15.2184 2.40458 16.2824 2.63364 16.8267 3.17871C17.3715 3.72435 17.5997 4.79068 17.0669 6.40137L14.5591 13.917V13.918C14.149 15.1502 13.6849 16.0354 13.2163 16.6025C12.7464 17.1713 12.3175 17.3691 11.9663 17.3691C11.6152 17.369 11.187 17.171 10.7173 16.6025C10.2487 16.0354 9.78462 15.1502 9.37451 13.918L8.6333 11.6846L8.5542 11.4463L8.31592 11.3672L6.08252 10.626C4.8502 10.2158 3.96507 9.75215 3.39795 9.28418C2.82927 8.8149 2.6314 8.38752 2.63135 8.03711C2.63135 7.68659 2.82921 7.25845 3.39795 6.78809C3.96527 6.31902 4.85099 5.85361 6.0835 5.44141L6.08252 5.44043L13.6079 2.94141ZM14.0708 5.71387C13.6339 5.27694 12.9169 5.27694 12.48 5.71387L12.479 5.71484L9.31299 8.89648C8.87611 9.33336 8.87622 10.0504 9.31299 10.4873C9.5367 10.711 9.8251 10.8174 10.1089 10.8174C10.3925 10.8173 10.6802 10.7109 10.9038 10.4873L10.9048 10.4863L14.0698 7.30273L14.0708 7.30371C14.5072 6.86686 14.5072 6.15069 14.0708 5.71387Z" fill="#008080" stroke="#008080"/>
</svg>
