<svg width="17" height="23" viewBox="0 0 23 23" fill="none" xmlns="http://www.w3.org/2000/svg">
<path fill-rule="evenodd" clip-rule="evenodd" d="M11.5 7.90625C10.5469 7.90625 9.63279 8.28488 8.95884 8.95884C8.28488 9.63279 7.90625 10.5469 7.90625 11.5C7.90625 12.4531 8.28488 13.3672 8.95884 14.0412C9.63279 14.7151 10.5469 15.0938 11.5 15.0938C12.4531 15.0938 13.3672 14.7151 14.0412 14.0412C14.7151 13.3672 15.0938 12.4531 15.0938 11.5C15.0938 10.5469 14.7151 9.63279 14.0412 8.95884C13.3672 8.28488 12.4531 7.90625 11.5 7.90625ZM9.34375 11.5C9.34375 10.9281 9.57093 10.3797 9.9753 9.9753C10.3797 9.57093 10.9281 9.34375 11.5 9.34375C12.0719 9.34375 12.6203 9.57093 13.0247 9.9753C13.4291 10.3797 13.6562 10.9281 13.6562 11.5C13.6562 12.0719 13.4291 12.6203 13.0247 13.0247C12.6203 13.4291 12.0719 13.6562 11.5 13.6562C10.9281 13.6562 10.3797 13.4291 9.9753 13.0247C9.57093 12.6203 9.34375 12.0719 9.34375 11.5Z" fill="#022F2F"/>
<path fill-rule="evenodd" clip-rule="evenodd" d="M11.5 7.90625C10.5469 7.90625 9.63279 8.28488 8.95884 8.95884C8.28488 9.63279 7.90625 10.5469 7.90625 11.5C7.90625 12.4531 8.28488 13.3672 8.95884 14.0412C9.63279 14.7151 10.5469 15.0938 11.5 15.0938C12.4531 15.0938 13.3672 14.7151 14.0412 14.0412C14.7151 13.3672 15.0938 12.4531 15.0938 11.5C15.0938 10.5469 14.7151 9.63279 14.0412 8.95884C13.3672 8.28488 12.4531 7.90625 11.5 7.90625ZM9.34375 11.5C9.34375 10.9281 9.57093 10.3797 9.9753 9.9753C10.3797 9.57093 10.9281 9.34375 11.5 9.34375C12.0719 9.34375 12.6203 9.57093 13.0247 9.9753C13.4291 10.3797 13.6562 10.9281 13.6562 11.5C13.6562 12.0719 13.4291 12.6203 13.0247 13.0247C12.6203 13.4291 12.0719 13.6562 11.5 13.6562C10.9281 13.6562 10.3797 13.4291 9.9753 13.0247C9.57093 12.6203 9.34375 12.0719 9.34375 11.5Z" fill="black" fill-opacity="0.2"/>
<path fill-rule="evenodd" clip-rule="evenodd" d="M11.4765 1.19788C11.0501 1.19788 10.6945 1.19788 10.4032 1.21704C10.1053 1.22904 9.81159 1.29057 9.53397 1.39913C9.21413 1.53146 8.92349 1.72551 8.67865 1.97018C8.43381 2.21486 8.23957 2.50537 8.10702 2.82513C7.96806 3.16054 7.93068 3.51513 7.91535 3.90038C7.91364 4.04123 7.87626 4.17936 7.80672 4.30187C7.73717 4.42437 7.63772 4.52726 7.51764 4.60092C7.39385 4.66831 7.25499 4.70322 7.11405 4.70238C6.9731 4.70154 6.83467 4.66498 6.71168 4.59613C6.37052 4.41596 6.04468 4.27125 5.68435 4.22333C5.34121 4.1782 4.99255 4.20109 4.65826 4.29071C4.32397 4.38032 4.01061 4.5349 3.73606 4.74563C3.50356 4.932 3.30373 5.1558 3.14477 5.40783C2.98185 5.65125 2.8036 5.95888 2.59085 6.32783L2.56689 6.37C2.35318 6.73896 2.17589 7.04658 2.04748 7.30917C1.91331 7.58325 1.80789 7.8535 1.76956 8.1525C1.67813 8.84537 1.86566 9.54618 2.29089 10.1008C2.51227 10.3893 2.80073 10.5991 3.12656 10.8042C3.24792 10.8762 3.34903 10.9777 3.42043 11.0994C3.49183 11.2211 3.53119 11.3589 3.53481 11.5C3.53119 11.641 3.49183 11.7788 3.42043 11.9005C3.34903 12.0222 3.24792 12.1238 3.12656 12.1957C2.80073 12.4008 2.51323 12.6107 2.29089 12.8991C2.08017 13.1737 1.92559 13.487 1.83597 13.8213C1.74636 14.1556 1.72347 14.5043 1.7686 14.8474C1.80789 15.1464 1.91235 15.4167 2.04652 15.6908C2.17589 15.9533 2.35318 16.261 2.56689 16.6299L2.59085 16.6721C2.8036 17.041 2.98185 17.3487 3.14477 17.5921C3.31439 17.8441 3.49648 18.0713 3.73606 18.2533C4.01053 18.4642 4.32387 18.619 4.65816 18.7088C4.99245 18.7985 5.34115 18.8216 5.68435 18.7766C6.04468 18.7287 6.37052 18.5849 6.71168 18.4038C6.83455 18.3351 6.97281 18.2986 7.11357 18.2978C7.25433 18.297 7.39301 18.3318 7.51668 18.399C7.63774 18.4717 7.73806 18.5744 7.80804 18.6971C7.87802 18.8197 7.9153 18.9583 7.91631 19.0995C7.93068 19.4848 7.96806 19.8394 8.10798 20.1748C8.24031 20.4946 8.43436 20.7853 8.67903 21.0301C8.92371 21.275 9.21422 21.4692 9.53397 21.6018C9.81189 21.7168 10.0994 21.7618 10.4032 21.7819C10.6945 21.802 11.0501 21.802 11.4765 21.802H11.5244C11.9509 21.802 12.3064 21.802 12.5978 21.7829C12.9025 21.7618 13.1891 21.7168 13.467 21.6008C13.7868 21.4685 14.0775 21.2744 14.3223 21.0297C14.5671 20.7851 14.7614 20.4945 14.8939 20.1748C15.0329 19.8394 15.0703 19.4848 15.0856 19.0995C15.0872 18.9585 15.1244 18.8202 15.194 18.6975C15.2636 18.5748 15.3631 18.4718 15.4833 18.398C15.6072 18.3308 15.7461 18.2961 15.887 18.2971C16.028 18.2981 16.1664 18.3348 16.2893 18.4038C16.6304 18.584 16.9563 18.7287 17.3166 18.7756C18.0095 18.8671 18.7103 18.6795 19.2649 18.2543C19.5045 18.0703 19.6866 17.8441 19.8562 17.5921C20.0191 17.3487 20.1973 17.041 20.4101 16.6721L20.4341 16.6299C20.6478 16.261 20.8251 15.9533 20.9535 15.6908C21.0876 15.4167 21.1931 15.1455 21.2314 14.8474C21.3228 14.1546 21.1353 13.4537 20.7101 12.8991C20.4887 12.6107 20.2002 12.4008 19.8744 12.1957C19.753 12.1238 19.6519 12.0222 19.5805 11.9005C19.5091 11.7788 19.4698 11.641 19.4661 11.5C19.4661 11.2335 19.6118 10.969 19.8744 10.8042C20.2002 10.5991 20.4877 10.3893 20.7101 10.1008C20.9208 9.82625 21.0754 9.51288 21.165 9.17859C21.2546 8.8443 21.2775 8.49564 21.2323 8.1525C21.1872 7.85791 21.0933 7.57289 20.9544 7.30917C20.7908 6.99079 20.6172 6.67758 20.4341 6.37L20.4101 6.32783C20.2351 6.01549 20.0503 5.70868 19.8562 5.40783C19.6971 5.15614 19.4973 4.93267 19.2649 4.74658C18.9904 4.5357 18.6771 4.38094 18.3428 4.29116C18.0085 4.20138 17.6598 4.17833 17.3166 4.22333C16.9563 4.27125 16.6304 4.415 16.2893 4.59613C16.1664 4.66481 16.0281 4.70128 15.8874 4.70211C15.7466 4.70295 15.6079 4.66814 15.4843 4.60092C15.3638 4.52749 15.264 4.4247 15.1941 4.30218C15.1242 4.17966 15.0866 4.04142 15.0846 3.90038C15.0703 3.51513 15.0329 3.16054 14.893 2.82513C14.7606 2.50528 14.5666 2.21464 14.3219 1.9698C14.0772 1.72496 13.7867 1.53072 13.467 1.39817C13.1891 1.28317 12.9016 1.23813 12.5978 1.218C12.3064 1.19788 11.9509 1.19788 11.5244 1.19788H11.4765ZM10.0841 2.72642C10.1579 2.69575 10.27 2.66796 10.5009 2.65167C10.7376 2.63538 11.0443 2.63538 11.5005 2.63538C11.9566 2.63538 12.2633 2.63538 12.5 2.65167C12.731 2.66796 12.8431 2.69575 12.9169 2.72642C13.2111 2.84813 13.444 3.081 13.5657 3.37521C13.604 3.46721 13.6356 3.61192 13.6481 3.95404C13.6768 4.71304 14.0688 5.44425 14.7646 5.84579C15.4603 6.24733 16.2893 6.22146 16.9611 5.86688C17.2639 5.70683 17.4048 5.66179 17.5044 5.64933C17.8193 5.60773 18.1378 5.69287 18.3899 5.88604C18.4532 5.93492 18.5337 6.01829 18.6631 6.20996C18.7963 6.40738 18.9496 6.67283 19.1777 7.06767C19.4058 7.4625 19.5581 7.72892 19.6626 7.94167C19.7651 8.14963 19.7968 8.26079 19.8063 8.34033C19.848 8.65521 19.7628 8.97372 19.5696 9.22583C19.5083 9.30538 19.3991 9.40504 19.1096 9.58713C18.4656 9.99154 18.0286 10.6969 18.0286 11.5C18.0286 12.303 18.4656 13.0084 19.1096 13.4128C19.3991 13.5949 19.5083 13.6945 19.5696 13.7741C19.7632 14.0261 19.8476 14.3443 19.8063 14.6596C19.7968 14.7391 19.7642 14.8513 19.6626 15.0583C19.5581 15.272 19.4058 15.5374 19.1777 15.9323C18.9496 16.3271 18.7953 16.5925 18.6631 16.79C18.5337 16.9816 18.4532 17.065 18.3899 17.1139C18.1378 17.307 17.8193 17.3922 17.5044 17.3506C17.4048 17.3381 17.2648 17.2931 16.9611 17.133C16.2902 16.7785 15.4603 16.7516 14.7646 17.1532C14.0688 17.5547 13.6768 18.2869 13.6481 19.0459C13.6356 19.388 13.604 19.5327 13.5657 19.6247C13.5055 19.7702 13.4172 19.9024 13.3059 20.0137C13.1945 20.125 13.0624 20.2133 12.9169 20.2735C12.8431 20.3042 12.731 20.332 12.5 20.3483C12.2633 20.3645 11.9566 20.3645 11.5005 20.3645C11.0443 20.3645 10.7376 20.3645 10.5009 20.3483C10.27 20.332 10.1579 20.3042 10.0841 20.2735C9.93859 20.2133 9.80641 20.125 9.69508 20.0137C9.58376 19.9024 9.49547 19.7702 9.43527 19.6247C9.39693 19.5327 9.36531 19.388 9.35285 19.0459C9.3241 18.2869 8.93214 17.5557 8.23639 17.1541C7.54064 16.7526 6.71168 16.7785 6.03989 17.133C5.73706 17.2931 5.59618 17.3381 5.49652 17.3506C5.18164 17.3922 4.86313 17.307 4.61102 17.1139C4.54777 17.065 4.46727 16.9816 4.33789 16.79C4.15761 16.5094 3.98599 16.2234 3.82327 15.9323C3.59518 15.5374 3.44281 15.271 3.33835 15.0583C3.23581 14.8503 3.20418 14.7391 3.1946 14.6596C3.15299 14.3447 3.23814 14.0262 3.43131 13.7741C3.49264 13.6945 3.60189 13.5949 3.89131 13.4128C4.53531 13.0084 4.97231 12.303 4.97231 11.5C4.97231 10.6969 4.53531 9.99154 3.89131 9.58713C3.60189 9.40504 3.49264 9.30538 3.43131 9.22583C3.23814 8.97372 3.15299 8.65521 3.1946 8.34033C3.20418 8.26079 3.23677 8.14867 3.33835 7.94167C3.44281 7.72796 3.59518 7.4625 3.82327 7.06767C4.05135 6.67283 4.20564 6.40738 4.33789 6.20996C4.46727 6.01829 4.54777 5.93492 4.61102 5.88604C4.86313 5.69287 5.18164 5.60773 5.49652 5.64933C5.59618 5.66179 5.7361 5.70683 6.03989 5.86688C6.71073 6.22146 7.54064 6.24829 8.23639 5.84579C8.93214 5.44425 9.3241 4.71304 9.35285 3.95404C9.36531 3.61192 9.39693 3.46721 9.43527 3.37521C9.55698 3.081 9.78985 2.84813 10.0841 2.72642Z" fill="#022F2F"/>
<path fill-rule="evenodd" clip-rule="evenodd" d="M11.4765 1.19788C11.0501 1.19788 10.6945 1.19788 10.4032 1.21704C10.1053 1.22904 9.81159 1.29057 9.53397 1.39913C9.21413 1.53146 8.92349 1.72551 8.67865 1.97018C8.43381 2.21486 8.23957 2.50537 8.10702 2.82513C7.96806 3.16054 7.93068 3.51513 7.91535 3.90038C7.91364 4.04123 7.87626 4.17936 7.80672 4.30187C7.73717 4.42437 7.63772 4.52726 7.51764 4.60092C7.39385 4.66831 7.25499 4.70322 7.11405 4.70238C6.9731 4.70154 6.83467 4.66498 6.71168 4.59613C6.37052 4.41596 6.04468 4.27125 5.68435 4.22333C5.34121 4.1782 4.99255 4.20109 4.65826 4.29071C4.32397 4.38032 4.01061 4.5349 3.73606 4.74563C3.50356 4.932 3.30373 5.1558 3.14477 5.40783C2.98185 5.65125 2.8036 5.95888 2.59085 6.32783L2.56689 6.37C2.35318 6.73896 2.17589 7.04658 2.04748 7.30917C1.91331 7.58325 1.80789 7.8535 1.76956 8.1525C1.67813 8.84537 1.86566 9.54618 2.29089 10.1008C2.51227 10.3893 2.80073 10.5991 3.12656 10.8042C3.24792 10.8762 3.34903 10.9777 3.42043 11.0994C3.49183 11.2211 3.53119 11.3589 3.53481 11.5C3.53119 11.641 3.49183 11.7788 3.42043 11.9005C3.34903 12.0222 3.24792 12.1238 3.12656 12.1957C2.80073 12.4008 2.51323 12.6107 2.29089 12.8991C2.08017 13.1737 1.92559 13.487 1.83597 13.8213C1.74636 14.1556 1.72347 14.5043 1.7686 14.8474C1.80789 15.1464 1.91235 15.4167 2.04652 15.6908C2.17589 15.9533 2.35318 16.261 2.56689 16.6299L2.59085 16.6721C2.8036 17.041 2.98185 17.3487 3.14477 17.5921C3.31439 17.8441 3.49648 18.0713 3.73606 18.2533C4.01053 18.4642 4.32387 18.619 4.65816 18.7088C4.99245 18.7985 5.34115 18.8216 5.68435 18.7766C6.04468 18.7287 6.37052 18.5849 6.71168 18.4038C6.83455 18.3351 6.97281 18.2986 7.11357 18.2978C7.25433 18.297 7.39301 18.3318 7.51668 18.399C7.63774 18.4717 7.73806 18.5744 7.80804 18.6971C7.87802 18.8197 7.9153 18.9583 7.91631 19.0995C7.93068 19.4848 7.96806 19.8394 8.10798 20.1748C8.24031 20.4946 8.43436 20.7853 8.67903 21.0301C8.92371 21.275 9.21422 21.4692 9.53397 21.6018C9.81189 21.7168 10.0994 21.7618 10.4032 21.7819C10.6945 21.802 11.0501 21.802 11.4765 21.802H11.5244C11.9509 21.802 12.3064 21.802 12.5978 21.7829C12.9025 21.7618 13.1891 21.7168 13.467 21.6008C13.7868 21.4685 14.0775 21.2744 14.3223 21.0297C14.5671 20.7851 14.7614 20.4945 14.8939 20.1748C15.0329 19.8394 15.0703 19.4848 15.0856 19.0995C15.0872 18.9585 15.1244 18.8202 15.194 18.6975C15.2636 18.5748 15.3631 18.4718 15.4833 18.398C15.6072 18.3308 15.7461 18.2961 15.887 18.2971C16.028 18.2981 16.1664 18.3348 16.2893 18.4038C16.6304 18.584 16.9563 18.7287 17.3166 18.7756C18.0095 18.8671 18.7103 18.6795 19.2649 18.2543C19.5045 18.0703 19.6866 17.8441 19.8562 17.5921C20.0191 17.3487 20.1973 17.041 20.4101 16.6721L20.4341 16.6299C20.6478 16.261 20.8251 15.9533 20.9535 15.6908C21.0876 15.4167 21.1931 15.1455 21.2314 14.8474C21.3228 14.1546 21.1353 13.4537 20.7101 12.8991C20.4887 12.6107 20.2002 12.4008 19.8744 12.1957C19.753 12.1238 19.6519 12.0222 19.5805 11.9005C19.5091 11.7788 19.4698 11.641 19.4661 11.5C19.4661 11.2335 19.6118 10.969 19.8744 10.8042C20.2002 10.5991 20.4877 10.3893 20.7101 10.1008C20.9208 9.82625 21.0754 9.51288 21.165 9.17859C21.2546 8.8443 21.2775 8.49564 21.2323 8.1525C21.1872 7.85791 21.0933 7.57289 20.9544 7.30917C20.7908 6.99079 20.6172 6.67758 20.4341 6.37L20.4101 6.32783C20.2351 6.01549 20.0503 5.70868 19.8562 5.40783C19.6971 5.15614 19.4973 4.93267 19.2649 4.74658C18.9904 4.5357 18.6771 4.38094 18.3428 4.29116C18.0085 4.20138 17.6598 4.17833 17.3166 4.22333C16.9563 4.27125 16.6304 4.415 16.2893 4.59613C16.1664 4.66481 16.0281 4.70128 15.8874 4.70211C15.7466 4.70295 15.6079 4.66814 15.4843 4.60092C15.3638 4.52749 15.264 4.4247 15.1941 4.30218C15.1242 4.17966 15.0866 4.04142 15.0846 3.90038C15.0703 3.51513 15.0329 3.16054 14.893 2.82513C14.7606 2.50528 14.5666 2.21464 14.3219 1.9698C14.0772 1.72496 13.7867 1.53072 13.467 1.39817C13.1891 1.28317 12.9016 1.23813 12.5978 1.218C12.3064 1.19788 11.9509 1.19788 11.5244 1.19788H11.4765ZM10.0841 2.72642C10.1579 2.69575 10.27 2.66796 10.5009 2.65167C10.7376 2.63538 11.0443 2.63538 11.5005 2.63538C11.9566 2.63538 12.2633 2.63538 12.5 2.65167C12.731 2.66796 12.8431 2.69575 12.9169 2.72642C13.2111 2.84813 13.444 3.081 13.5657 3.37521C13.604 3.46721 13.6356 3.61192 13.6481 3.95404C13.6768 4.71304 14.0688 5.44425 14.7646 5.84579C15.4603 6.24733 16.2893 6.22146 16.9611 5.86688C17.2639 5.70683 17.4048 5.66179 17.5044 5.64933C17.8193 5.60773 18.1378 5.69287 18.3899 5.88604C18.4532 5.93492 18.5337 6.01829 18.6631 6.20996C18.7963 6.40738 18.9496 6.67283 19.1777 7.06767C19.4058 7.4625 19.5581 7.72892 19.6626 7.94167C19.7651 8.14963 19.7968 8.26079 19.8063 8.34033C19.848 8.65521 19.7628 8.97372 19.5696 9.22583C19.5083 9.30538 19.3991 9.40504 19.1096 9.58713C18.4656 9.99154 18.0286 10.6969 18.0286 11.5C18.0286 12.303 18.4656 13.0084 19.1096 13.4128C19.3991 13.5949 19.5083 13.6945 19.5696 13.7741C19.7632 14.0261 19.8476 14.3443 19.8063 14.6596C19.7968 14.7391 19.7642 14.8513 19.6626 15.0583C19.5581 15.272 19.4058 15.5374 19.1777 15.9323C18.9496 16.3271 18.7953 16.5925 18.6631 16.79C18.5337 16.9816 18.4532 17.065 18.3899 17.1139C18.1378 17.307 17.8193 17.3922 17.5044 17.3506C17.4048 17.3381 17.2648 17.2931 16.9611 17.133C16.2902 16.7785 15.4603 16.7516 14.7646 17.1532C14.0688 17.5547 13.6768 18.2869 13.6481 19.0459C13.6356 19.388 13.604 19.5327 13.5657 19.6247C13.5055 19.7702 13.4172 19.9024 13.3059 20.0137C13.1945 20.125 13.0624 20.2133 12.9169 20.2735C12.8431 20.3042 12.731 20.332 12.5 20.3483C12.2633 20.3645 11.9566 20.3645 11.5005 20.3645C11.0443 20.3645 10.7376 20.3645 10.5009 20.3483C10.27 20.332 10.1579 20.3042 10.0841 20.2735C9.93859 20.2133 9.80641 20.125 9.69508 20.0137C9.58376 19.9024 9.49547 19.7702 9.43527 19.6247C9.39693 19.5327 9.36531 19.388 9.35285 19.0459C9.3241 18.2869 8.93214 17.5557 8.23639 17.1541C7.54064 16.7526 6.71168 16.7785 6.03989 17.133C5.73706 17.2931 5.59618 17.3381 5.49652 17.3506C5.18164 17.3922 4.86313 17.307 4.61102 17.1139C4.54777 17.065 4.46727 16.9816 4.33789 16.79C4.15761 16.5094 3.98599 16.2234 3.82327 15.9323C3.59518 15.5374 3.44281 15.271 3.33835 15.0583C3.23581 14.8503 3.20418 14.7391 3.1946 14.6596C3.15299 14.3447 3.23814 14.0262 3.43131 13.7741C3.49264 13.6945 3.60189 13.5949 3.89131 13.4128C4.53531 13.0084 4.97231 12.303 4.97231 11.5C4.97231 10.6969 4.53531 9.99154 3.89131 9.58713C3.60189 9.40504 3.49264 9.30538 3.43131 9.22583C3.23814 8.97372 3.15299 8.65521 3.1946 8.34033C3.20418 8.26079 3.23677 8.14867 3.33835 7.94167C3.44281 7.72796 3.59518 7.4625 3.82327 7.06767C4.05135 6.67283 4.20564 6.40738 4.33789 6.20996C4.46727 6.01829 4.54777 5.93492 4.61102 5.88604C4.86313 5.69287 5.18164 5.60773 5.49652 5.64933C5.59618 5.66179 5.7361 5.70683 6.03989 5.86688C6.71073 6.22146 7.54064 6.24829 8.23639 5.84579C8.93214 5.44425 9.3241 4.71304 9.35285 3.95404C9.36531 3.61192 9.39693 3.46721 9.43527 3.37521C9.55698 3.081 9.78985 2.84813 10.0841 2.72642Z" fill="black" fill-opacity="0.2"/>
</svg>
