<svg width="72" height="32" viewBox="0 0 72 38" fill="none" xmlns="http://www.w3.org/2000/svg">
<path d="M4.32 20.24C3.584 20.24 2.896 20.12 2.256 19.88C1.616 19.624 1.112 19.288 0.744 18.872C0.568 18.68 0.48 18.456 0.48 18.2C0.48 17.928 0.584 17.688 0.792 17.48C1 17.272 1.248 17.168 1.536 17.168C1.808 17.168 2.04 17.264 2.232 17.456C2.504 17.712 2.848 17.912 3.264 18.056C3.68 18.2 4.088 18.272 4.488 18.272C4.904 18.272 5.264 18.184 5.568 18.008C5.872 17.816 6.024 17.52 6.024 17.12C6.024 16.784 5.88 16.528 5.592 16.352C5.32 16.16 4.856 16.008 4.2 15.896C3.032 15.704 2.152 15.384 1.56 14.936C0.968 14.472 0.672 13.824 0.672 12.992C0.672 12.096 1.016 11.384 1.704 10.856C2.392 10.312 3.296 10.04 4.416 10.04C5.568 10.04 6.488 10.336 7.176 10.928C7.448 11.152 7.584 11.416 7.584 11.72C7.584 11.976 7.48 12.2 7.272 12.392C7.08 12.568 6.848 12.656 6.576 12.656C6.368 12.656 6.176 12.6 6 12.488C5.392 12.104 4.752 11.912 4.08 11.912C3.68 11.912 3.344 11.992 3.072 12.152C2.8 12.312 2.664 12.552 2.664 12.872C2.664 13.208 2.872 13.472 3.288 13.664C3.72 13.856 4.344 14.032 5.16 14.192C5.608 14.272 6.048 14.416 6.48 14.624C6.928 14.816 7.296 15.112 7.584 15.512C7.888 15.912 8.04 16.456 8.04 17.144C8.04 18.056 7.688 18.8 6.984 19.376C6.296 19.952 5.408 20.24 4.32 20.24ZM12.3684 20.24C12.0644 20.24 11.8084 20.152 11.6004 19.976C11.3924 19.784 11.2884 19.536 11.2884 19.232V12.968C11.2884 12.488 11.0484 12.248 10.5684 12.248H9.39244C9.10444 12.248 8.86444 12.16 8.67244 11.984C8.49644 11.792 8.40844 11.552 8.40844 11.264C8.40844 10.976 8.49644 10.744 8.67244 10.568C8.86444 10.376 9.10444 10.28 9.39244 10.28H15.3204C15.6244 10.28 15.8644 10.376 16.0404 10.568C16.2324 10.744 16.3284 10.976 16.3284 11.264C16.3284 11.552 16.2324 11.792 16.0404 11.984C15.8644 12.16 15.6244 12.248 15.3204 12.248H14.1684C13.6884 12.248 13.4484 12.488 13.4484 12.968V19.232C13.4484 19.536 13.3444 19.784 13.1364 19.976C12.9444 20.152 12.6884 20.24 12.3684 20.24ZM16.9097 20.24C16.6537 20.24 16.4057 20.144 16.1657 19.952C15.9417 19.76 15.8297 19.512 15.8297 19.208C15.8297 19.08 15.8537 18.944 15.9017 18.8L18.9257 10.904C19.0377 10.616 19.2217 10.4 19.4777 10.256C19.7337 10.112 19.9977 10.04 20.2697 10.04C20.5577 10.04 20.8297 10.112 21.0857 10.256C21.3577 10.4 21.5497 10.616 21.6617 10.904L24.9017 18.752C24.9337 18.816 24.9497 18.88 24.9497 18.944C24.9497 19.008 24.9497 19.072 24.9497 19.136C24.9497 19.472 24.8377 19.736 24.6137 19.928C24.3897 20.12 24.1417 20.216 23.8697 20.216C23.6777 20.216 23.4857 20.16 23.2937 20.048C23.1177 19.952 22.9897 19.792 22.9097 19.568L22.2137 17.696C22.1977 17.6 22.1337 17.552 22.0217 17.552H18.7817C18.6697 17.552 18.5977 17.6 18.5657 17.696L17.8937 19.592C17.7817 19.8 17.6377 19.96 17.4617 20.072C17.2857 20.184 17.1017 20.24 16.9097 20.24ZM19.6457 15.68H21.0617C21.1577 15.68 21.2297 15.648 21.2777 15.584C21.3417 15.504 21.3577 15.408 21.3257 15.296L20.7017 13.592C20.6057 13.336 20.4857 13.208 20.3417 13.208C20.1977 13.208 20.0777 13.344 19.9817 13.616L19.3817 15.32C19.3497 15.416 19.3577 15.504 19.4057 15.584C19.4537 15.648 19.5337 15.68 19.6457 15.68ZM26.9934 20.24C26.7054 20.24 26.4494 20.144 26.2254 19.952C26.0174 19.744 25.9134 19.504 25.9134 19.232V11.768C25.9134 11.304 26.0494 10.944 26.3214 10.688C26.5934 10.416 26.9534 10.28 27.4014 10.28H31.1454C31.4654 10.28 31.7134 10.368 31.8894 10.544C32.0654 10.72 32.1534 10.96 32.1534 11.264C32.1534 11.536 32.0574 11.768 31.8654 11.96C31.6734 12.152 31.4334 12.248 31.1454 12.248H28.5534C28.2334 12.248 28.0734 12.408 28.0734 12.728V13.808C28.0734 14.128 28.2334 14.288 28.5534 14.288H30.8094C31.1134 14.288 31.3534 14.376 31.5294 14.552C31.7214 14.728 31.8174 14.96 31.8174 15.248C31.8174 15.52 31.7134 15.752 31.5054 15.944C31.3134 16.12 31.0814 16.208 30.8094 16.208H28.5534C28.2334 16.208 28.0734 16.368 28.0734 16.688V19.232C28.0734 19.504 27.9614 19.744 27.7374 19.952C27.5294 20.144 27.2814 20.24 26.9934 20.24ZM34.3181 20.24C34.0301 20.24 33.7741 20.144 33.5501 19.952C33.3421 19.744 33.2381 19.504 33.2381 19.232V11.768C33.2381 11.304 33.3741 10.944 33.6461 10.688C33.9181 10.416 34.2781 10.28 34.7261 10.28H38.4701C38.7901 10.28 39.0381 10.368 39.2141 10.544C39.3901 10.72 39.4781 10.96 39.4781 11.264C39.4781 11.536 39.3821 11.768 39.1901 11.96C38.9981 12.152 38.7581 12.248 38.4701 12.248H35.8781C35.5581 12.248 35.3981 12.408 35.3981 12.728V13.808C35.3981 14.128 35.5581 14.288 35.8781 14.288H38.1341C38.4381 14.288 38.6781 14.376 38.8541 14.552C39.0461 14.728 39.1421 14.96 39.1421 15.248C39.1421 15.52 39.0381 15.752 38.8301 15.944C38.6381 16.12 38.4061 16.208 38.1341 16.208H35.8781C35.5581 16.208 35.3981 16.368 35.3981 16.688V19.232C35.3981 19.504 35.2861 19.744 35.0621 19.952C34.8541 20.144 34.6061 20.24 34.3181 20.24Z" fill="#008080"/>
<path d="M60.1666 20.3133L59.0666 20.5733C58.82 20.6333 58.6266 20.82 58.5733 21.0667L58.34 22.0467C58.2133 22.58 57.5333 22.7467 57.18 22.3267L55.1866 20.0333C55.0266 19.8467 55.1133 19.5533 55.3533 19.4933C56.5333 19.2067 57.5933 18.5467 58.3733 17.6067C58.5 17.4533 58.7266 17.4333 58.8666 17.5733L60.3466 19.0533C60.8533 19.56 60.6733 20.1933 60.1666 20.3133Z" fill="#FEB92B"/>
<path d="M47.8 20.3133L48.9 20.5733C49.1467 20.6333 49.34 20.82 49.3933 21.0667L49.6267 22.0467C49.7533 22.58 50.4333 22.7467 50.7867 22.3267L52.78 20.0333C52.94 19.8467 52.8533 19.5533 52.6133 19.4933C51.4333 19.2067 50.3733 18.5467 49.5933 17.6067C49.4667 17.4533 49.24 17.4333 49.1 17.5733L47.62 19.0533C47.1133 19.56 47.2933 20.1933 47.8 20.3133Z" fill="#FEB92B"/>
<path d="M54 9.33334C51.42 9.33334 49.3333 11.42 49.3333 14C49.3333 14.9667 49.62 15.8533 50.1133 16.5933C50.8333 17.66 51.9733 18.4133 53.3 18.6067C53.5266 18.6467 53.76 18.6667 54 18.6667C54.24 18.6667 54.4733 18.6467 54.7 18.6067C56.0266 18.4133 57.1666 17.66 57.8866 16.5933C58.38 15.8533 58.6666 14.9667 58.6666 14C58.6666 11.42 56.58 9.33334 54 9.33334ZM56.04 13.8533L55.4866 14.4067C55.3933 14.5 55.34 14.68 55.3733 14.8133L55.5333 15.5C55.66 16.04 55.3733 16.2533 54.8933 15.9667L54.2266 15.5733C54.1066 15.5 53.9066 15.5 53.7866 15.5733L53.12 15.9667C52.64 16.2467 52.3533 16.04 52.48 15.5L52.64 14.8133C52.6666 14.6867 52.62 14.5 52.5266 14.4067L51.96 13.8533C51.6333 13.5267 51.74 13.2 52.1933 13.1267L52.9066 13.0067C53.0266 12.9867 53.1666 12.88 53.22 12.7733L53.6133 11.9867C53.8266 11.56 54.1733 11.56 54.3866 11.9867L54.78 12.7733C54.8333 12.88 54.9733 12.9867 55.1 13.0067L55.8133 13.1267C56.26 13.2 56.3666 13.5267 56.04 13.8533Z" fill="#FEB92B"/>
</svg>
