<svg width="24" height="24" viewBox="0 0 24 24" fill="none" xmlns="http://www.w3.org/2000/svg">
<rect width="24" height="24" fill="white"/>
<path d="M18.01 7.49L19.5 6M18.01 7.49C16.4159 5.89594 14.2543 5 12 5C9.74566 5 7.58365 5.89553 5.98959 7.48959C4.39553 9.08365 3.5 11.2457 3.5 13.5C3.5 15.7543 4.39553 17.9163 5.98959 19.5104C7.58365 21.1045 9.74566 22 12 22C14.2543 22 16.4163 21.1045 18.0104 19.5104C19.6045 17.9163 20.5 15.7543 20.5 13.5C20.5 11.2457 19.6041 9.08406 18.01 7.49ZM14.5 2H9.5M12 13.5L15.5 10" stroke="#008080" stroke-width="1.5" stroke-linecap="round" stroke-linejoin="round"/>
</svg>
