<svg width="20" height="20" viewBox="0 0 20 20" fill="none" xmlns="http://www.w3.org/2000/svg">
<path d="M10.834 14.168H4.16732C3.70898 14.168 3.33398 14.543 3.33398 15.0013C3.33398 15.4596 3.70898 15.8346 4.16732 15.8346H10.834C11.2923 15.8346 11.6673 15.4596 11.6673 15.0013C11.6673 14.543 11.2923 14.168 10.834 14.168ZM15.834 7.5013H4.16732C3.70898 7.5013 3.33398 7.8763 3.33398 8.33464C3.33398 8.79297 3.70898 9.16797 4.16732 9.16797H15.834C16.2923 9.16797 16.6673 8.79297 16.6673 8.33464C16.6673 7.8763 16.2923 7.5013 15.834 7.5013ZM4.16732 12.5013H15.834C16.2923 12.5013 16.6673 12.1263 16.6673 11.668C16.6673 11.2096 16.2923 10.8346 15.834 10.8346H4.16732C3.70898 10.8346 3.33398 11.2096 3.33398 11.668C3.33398 12.1263 3.70898 12.5013 4.16732 12.5013ZM3.33398 5.0013C3.33398 5.45964 3.70898 5.83464 4.16732 5.83464H15.834C16.2923 5.83464 16.6673 5.45964 16.6673 5.0013C16.6673 4.54297 16.2923 4.16797 15.834 4.16797H4.16732C3.70898 4.16797 3.33398 4.54297 3.33398 5.0013Z" fill="#001F1F" fill-opacity="0.7"/>
</svg>
