<svg width="17" height="23" viewBox="0 0 23 23" fill="none" xmlns="http://www.w3.org/2000/svg">
<path d="M18.2077 4.79175L11.4994 1.91675L4.79107 4.79175L8.14524 6.22925V8.14591M18.2077 4.79175L14.8536 6.22925V8.14591M18.2077 4.79175V8.62508M8.14524 8.14591C8.14524 8.14591 9.26362 7.66675 11.4994 7.66675C13.7352 7.66675 14.8536 8.14591 14.8536 8.14591M8.14524 8.14591V9.10425C8.14524 9.54472 8.232 9.98089 8.40056 10.3878C8.56912 10.7948 8.81619 11.1645 9.12765 11.476C9.43912 11.7875 9.80888 12.0345 10.2158 12.2031C10.6228 12.3717 11.0589 12.4584 11.4994 12.4584C11.9399 12.4584 12.376 12.3717 12.783 12.2031C13.1899 12.0345 13.5597 11.7875 13.8712 11.476C14.1826 11.1645 14.4297 10.7948 14.5983 10.3878C14.7668 9.98089 14.8536 9.54472 14.8536 9.10425V8.14591M7.45812 16.0071C6.40395 16.6636 3.6382 18.0024 5.32199 19.6785C6.1452 20.4988 7.06232 21.0834 8.21328 21.0834H14.7855C15.9374 21.0834 16.8536 20.4979 17.6768 19.6785C19.3606 18.0024 16.5958 16.6636 15.5407 16.0081C14.3275 15.2542 12.9277 14.8548 11.4994 14.8548C10.0711 14.8548 8.67128 15.2542 7.45812 16.0081" stroke="#022F2F" stroke-width="1.4375" stroke-linecap="round" stroke-linejoin="round"/>
<path d="M18.2077 4.79175L11.4994 1.91675L4.79107 4.79175L8.14524 6.22925V8.14591M18.2077 4.79175L14.8536 6.22925V8.14591M18.2077 4.79175V8.62508M8.14524 8.14591C8.14524 8.14591 9.26362 7.66675 11.4994 7.66675C13.7352 7.66675 14.8536 8.14591 14.8536 8.14591M8.14524 8.14591V9.10425C8.14524 9.54472 8.232 9.98089 8.40056 10.3878C8.56912 10.7948 8.81619 11.1645 9.12765 11.476C9.43912 11.7875 9.80888 12.0345 10.2158 12.2031C10.6228 12.3717 11.0589 12.4584 11.4994 12.4584C11.9399 12.4584 12.376 12.3717 12.783 12.2031C13.1899 12.0345 13.5597 11.7875 13.8712 11.476C14.1826 11.1645 14.4297 10.7948 14.5983 10.3878C14.7668 9.98089 14.8536 9.54472 14.8536 9.10425V8.14591M7.45812 16.0071C6.40395 16.6636 3.6382 18.0024 5.32199 19.6785C6.1452 20.4988 7.06232 21.0834 8.21328 21.0834H14.7855C15.9374 21.0834 16.8536 20.4979 17.6768 19.6785C19.3606 18.0024 16.5958 16.6636 15.5407 16.0081C14.3275 15.2542 12.9277 14.8548 11.4994 14.8548C10.0711 14.8548 8.67128 15.2542 7.45812 16.0081" stroke="black" stroke-opacity="0.2" stroke-width="1.4375" stroke-linecap="round" stroke-linejoin="round"/>
</svg>
