<svg width="20" height="20" viewBox="0 0 20 20" fill="none" xmlns="http://www.w3.org/2000/svg">
<path d="M10.001 18.75C5.17598 18.75 1.25098 14.825 1.25098 10C1.25098 5.175 5.17598 1.25 10.001 1.25C14.826 1.25 18.751 5.175 18.751 10C18.751 14.825 14.826 18.75 10.001 18.75ZM10.001 2.5C5.86348 2.5 2.50098 5.8625 2.50098 10C2.50098 14.1375 5.86348 17.5 10.001 17.5C14.1385 17.5 17.501 14.1375 17.501 10C17.501 5.8625 14.1385 2.5 10.001 2.5Z" fill="#008080"/>
<path d="M12.501 13.123C12.3885 13.123 12.276 13.098 12.176 13.0355L9.05099 11.1605C8.95885 11.1045 8.8828 11.0255 8.83023 10.9313C8.77766 10.8371 8.75036 10.7309 8.75099 10.623V5.62305C8.75099 5.27305 9.02599 4.99805 9.37599 4.99805C9.72599 4.99805 10.001 5.27305 10.001 5.62305V10.273L12.826 11.9605C12.9423 12.0319 13.0323 12.1392 13.0822 12.2662C13.132 12.3932 13.1392 12.5331 13.1024 12.6645C13.0657 12.7959 12.9871 12.9118 12.8785 12.9946C12.77 13.0773 12.6375 13.1224 12.501 13.123Z" fill="#008080"/>
</svg>
