<svg width="82" height="82" viewBox="0 0 82 82" fill="none" xmlns="http://www.w3.org/2000/svg">
<rect x="10" y="10" width="62" height="62" rx="31" fill="#008080" fill-opacity="0.2"/>
<rect x="5" y="5" width="72" height="72" rx="36" stroke="#008080" stroke-opacity="0.1" stroke-width="10"/>
<g clip-path="url(#clip0_3074_40267)">
<path d="M38.1875 39.125C38.4361 39.125 38.6746 39.2238 38.8504 39.3996C39.0262 39.5754 39.125 39.8139 39.125 40.0625V47.5625C39.125 47.8111 39.0262 48.0496 38.8504 48.2254C38.6746 48.4012 38.4361 48.5 38.1875 48.5C37.9389 48.5 37.7004 48.4012 37.5246 48.2254C37.3488 48.0496 37.25 47.8111 37.25 47.5625V40.0625C37.25 39.8139 37.3488 39.5754 37.5246 39.3996C37.7004 39.2238 37.9389 39.125 38.1875 39.125ZM44.75 40.0625C44.75 39.8139 44.6512 39.5754 44.4754 39.3996C44.2996 39.2238 44.0611 39.125 43.8125 39.125C43.5639 39.125 43.3254 39.2238 43.1496 39.3996C42.9738 39.5754 42.875 39.8139 42.875 40.0625V47.5625C42.875 47.8111 42.9738 48.0496 43.1496 48.2254C43.3254 48.4012 43.5639 48.5 43.8125 48.5C44.0611 48.5 44.2996 48.4012 44.4754 48.2254C44.6512 48.0496 44.75 47.8111 44.75 47.5625V40.0625Z" fill="#008080"/>
<path fill-rule="evenodd" clip-rule="evenodd" d="M41.2246 26H40.7727C40.019 26 39.3946 26 38.879 26.0412C38.3521 26.0844 37.8684 26.1762 37.4127 26.4087C36.7072 26.7683 36.1335 27.3419 35.774 28.0475C35.5415 28.5031 35.4496 28.9869 35.4065 29.5137C35.3652 30.0219 35.3652 30.6444 35.3652 31.4075V31.6344H28.8027C28.5541 31.6344 28.3156 31.7331 28.1398 31.909C27.964 32.0848 27.8652 32.3232 27.8652 32.5719C27.8652 32.8205 27.964 33.059 28.1398 33.2348C28.3156 33.4106 28.5541 33.5094 28.8027 33.5094H29.8152L30.9346 46.9344C31.0527 48.3556 31.1465 49.4844 31.2946 50.3844C31.4446 51.3069 31.6621 52.0719 32.0634 52.7656C32.7271 53.8981 33.7134 54.8094 34.8946 55.3719C35.6184 55.7169 36.4002 55.8687 37.3321 55.9419C38.2452 56.0131 39.3759 56.0131 40.8009 56.0131H41.1946C42.6196 56.0131 43.7446 56.0131 44.6634 55.9419C45.5952 55.8687 46.3752 55.7169 47.1009 55.3719C48.2838 54.8056 49.27 53.8978 49.9321 52.7656C50.3371 52.0756 50.5509 51.3088 50.7009 50.3844C50.8509 49.4844 50.9427 48.3594 51.0627 46.9344L52.1821 33.5094H53.1946C53.4433 33.5094 53.6817 33.4106 53.8575 33.2348C54.0333 33.059 54.1321 32.8205 54.1321 32.5719C54.1321 32.3232 54.0333 32.0848 53.8575 31.909C53.6817 31.7331 53.4433 31.6344 53.1946 31.6344H46.6321V31.4094C46.6321 30.6537 46.6321 30.0294 46.5909 29.5156C46.5477 28.9869 46.4559 28.5031 46.2234 28.0475C45.8638 27.3419 45.2902 26.7683 44.5846 26.4087C44.129 26.1762 43.6434 26.0844 43.1184 26.0412C42.6102 26 41.9877 26 41.2246 26ZM31.6996 33.5L32.8021 46.7375C32.924 48.2075 33.0121 49.25 33.1471 50.075C33.2784 50.885 33.4452 51.3969 33.6852 51.8075C34.1591 52.616 34.8645 53.2639 35.7102 53.6675C36.1396 53.8737 36.6646 53.9956 37.4821 54.0612C38.3109 54.1269 39.3571 54.1269 40.8384 54.1269H41.1515C42.6271 54.1269 43.6827 54.1269 44.5077 54.0612C45.3252 53.9975 45.8502 53.8737 46.2796 53.6675C47.1254 53.2639 47.8307 52.616 48.3046 51.8075C48.5446 51.3969 48.7115 50.8831 48.8446 50.075C48.9777 49.2537 49.0659 48.2056 49.1896 46.7375L50.2921 33.5H31.7109H31.6996ZM37.2496 31.625H44.7496V31.4375C44.7496 30.635 44.7496 30.0894 44.714 29.6675C44.6802 29.2569 44.6202 29.0469 44.5452 28.8988C44.3655 28.546 44.0786 28.2591 43.7259 28.0794C43.5796 28.0044 43.3696 27.9444 42.9571 27.9106C42.3677 27.8773 41.7773 27.8654 41.1871 27.875H40.8121C40.0096 27.875 39.464 27.875 39.0421 27.9106C38.6315 27.9444 38.4215 28.0044 38.2734 28.0794C37.9206 28.2591 37.6337 28.546 37.454 28.8988C37.379 29.045 37.319 29.255 37.2852 29.6675C37.2496 30.0894 37.2496 30.635 37.2496 31.4375V31.625Z" fill="#008080"/>
</g>
<defs>
<clipPath id="clip0_3074_40267">
<rect width="30" height="30" fill="white" transform="translate(26 26)"/>
</clipPath>
</defs>
</svg>
