<svg width="24" height="25" viewBox="0 0 24 25" fill="none" xmlns="http://www.w3.org/2000/svg">
<path d="M9.75 10.5C9.94891 10.5 10.1397 10.579 10.2803 10.7197C10.421 10.8603 10.5 11.0511 10.5 11.25V17.25C10.5 17.4489 10.421 17.6397 10.2803 17.7803C10.1397 17.921 9.94891 18 9.75 18C9.55109 18 9.36032 17.921 9.21967 17.7803C9.07902 17.6397 9 17.4489 9 17.25V11.25C9 11.0511 9.07902 10.8603 9.21967 10.7197C9.36032 10.579 9.55109 10.5 9.75 10.5ZM15 11.25C15 11.0511 14.921 10.8603 14.7803 10.7197C14.6397 10.579 14.4489 10.5 14.25 10.5C14.0511 10.5 13.8603 10.579 13.7197 10.7197C13.579 10.8603 13.5 11.0511 13.5 11.25V17.25C13.5 17.4489 13.579 17.6397 13.7197 17.7803C13.8603 17.921 14.0511 18 14.25 18C14.4489 18 14.6397 17.921 14.7803 17.7803C14.921 17.6397 15 17.4489 15 17.25V11.25Z" fill="#FF414B"/>
<path fill-rule="evenodd" clip-rule="evenodd" d="M12.1816 0H11.8201C11.2171 0 10.7176 0 10.3051 0.033C9.88364 0.0675 9.49664 0.141 9.13214 0.327C8.56768 0.614616 8.10876 1.07354 7.82114 1.638C7.63514 2.0025 7.56164 2.3895 7.52714 2.811C7.49414 3.2175 7.49414 3.7155 7.49414 4.326V4.5075H2.24414C2.04523 4.5075 1.85446 4.58652 1.71381 4.72717C1.57316 4.86782 1.49414 5.05859 1.49414 5.2575C1.49414 5.45641 1.57316 5.64718 1.71381 5.78783C1.85446 5.92848 2.04523 6.0075 2.24414 6.0075H3.05414L3.94964 16.7475C4.04414 17.8845 4.11914 18.7875 4.23764 19.5075C4.35764 20.2455 4.53164 20.8575 4.85264 21.4125C5.38364 22.3185 6.17264 23.0475 7.11764 23.4975C7.69664 23.7735 8.32214 23.895 9.06764 23.9535C9.79814 24.0105 10.7026 24.0105 11.8426 24.0105H12.1576C13.2976 24.0105 14.1976 24.0105 14.9326 23.9535C15.6781 23.895 16.3021 23.7735 16.8826 23.4975C17.829 23.0445 18.618 22.3182 19.1476 21.4125C19.4716 20.8605 19.6426 20.247 19.7626 19.5075C19.8826 18.7875 19.9561 17.8875 20.0521 16.7475L20.9476 6.0075H21.7576C21.9566 6.0075 22.1473 5.92848 22.288 5.78783C22.4286 5.64718 22.5076 5.45641 22.5076 5.2575C22.5076 5.05859 22.4286 4.86782 22.288 4.72717C22.1473 4.58652 21.9566 4.5075 21.7576 4.5075H16.5076V4.3275C16.5076 3.723 16.5076 3.2235 16.4746 2.8125C16.4401 2.3895 16.3666 2.0025 16.1806 1.638C15.893 1.07354 15.4341 0.614616 14.8696 0.327C14.5051 0.141 14.1166 0.0675 13.6966 0.033C13.2901 0 12.7921 0 12.1816 0ZM4.56164 6L5.44364 16.59C5.54114 17.766 5.61164 18.6 5.71964 19.26C5.82464 19.908 5.95814 20.3175 6.15014 20.646C6.52926 21.2928 7.09354 21.8111 7.77014 22.134C8.11364 22.299 8.53364 22.3965 9.18764 22.449C9.85064 22.5015 10.6876 22.5015 11.8726 22.5015H12.1231C13.3036 22.5015 14.1481 22.5015 14.8081 22.449C15.4621 22.398 15.8821 22.299 16.2256 22.134C16.9022 21.8111 17.4665 21.2928 17.8456 20.646C18.0376 20.3175 18.1711 19.9065 18.2776 19.26C18.3841 18.603 18.4546 17.7645 18.5536 16.59L19.4356 6H4.57064H4.56164ZM9.00164 4.5H15.0016V4.35C15.0016 3.708 15.0016 3.2715 14.9731 2.934C14.9461 2.6055 14.8981 2.4375 14.8381 2.319C14.6943 2.03677 14.4649 1.80731 14.1826 1.6635C14.0656 1.6035 13.8976 1.5555 13.5676 1.5285C13.0961 1.50186 12.6238 1.49235 12.1516 1.5H11.8516C11.2096 1.5 10.7731 1.5 10.4356 1.5285C10.1071 1.5555 9.93914 1.6035 9.82064 1.6635C9.53841 1.80731 9.30895 2.03677 9.16514 2.319C9.10514 2.436 9.05714 2.604 9.03014 2.934C9.00164 3.2715 9.00164 3.708 9.00164 4.35V4.5Z" fill="#FF414B"/>
</svg>
