<svg width="52" height="26" viewBox="0 0 52 26" fill="none" xmlns="http://www.w3.org/2000/svg">
<path d="M51 1.16707L46.7542 16.7775C46.2212 18.7373 43.4446 18.7469 42.8981 16.7908L42.0591 13.788C41.6663 12.3819 39.6932 12.3266 39.2221 13.7085V13.7085C38.727 15.1611 36.6226 15.0006 36.3534 13.4897L34.7367 4.41442C34.3373 2.17266 31.1007 2.23418 30.7868 4.48949L28.2839 22.4723C27.9662 24.7549 24.6763 24.7783 24.3262 22.5004L22.6123 11.3493C22.2946 9.28274 19.3473 9.20012 18.9144 11.2456V11.2456L17.5775 17.273L16.2487 22.7888C15.7798 24.7353 13.0587 24.8615 12.4117 22.9667L9.06268 13.1596C8.51772 11.5637 6.36372 11.3172 5.47228 12.7487L5.07102 13.393C4.14913 14.8734 1.90638 14.547 1.44467 12.8653L1 11.2456" stroke="#FEB92B" stroke-width="2"/>
</svg>
