<svg width="40" height="40" viewBox="0 0 40 40" fill="none" xmlns="http://www.w3.org/2000/svg">
<path fill-rule="evenodd" clip-rule="evenodd" d="M19.9994 2.08301C17.8998 2.08301 15.8862 2.91708 14.4015 4.40175C12.9169 5.88641 12.0828 7.90004 12.0828 9.99967C12.0828 12.0993 12.9169 14.1129 14.4015 15.5976C15.8862 17.0823 17.8998 17.9163 19.9994 17.9163C22.0991 17.9163 24.1127 17.0823 25.5974 15.5976C27.082 14.1129 27.9161 12.0993 27.9161 9.99967C27.9161 7.90004 27.082 5.88641 25.5974 4.40175C24.1127 2.91708 22.0991 2.08301 19.9994 2.08301ZM14.5828 9.99967C14.5828 8.56309 15.1535 7.18534 16.1693 6.16951C17.1851 5.15369 18.5629 4.58301 19.9994 4.58301C21.436 4.58301 22.8138 5.15369 23.8296 6.16951C24.8454 7.18534 25.4161 8.56309 25.4161 9.99967C25.4161 11.4363 24.8454 12.814 23.8296 13.8298C22.8138 14.8457 21.436 15.4163 19.9994 15.4163C18.5629 15.4163 17.1851 14.8457 16.1693 13.8298C15.1535 12.814 14.5828 11.4363 14.5828 9.99967ZM19.9994 20.4163C16.1444 20.4163 12.5911 21.293 9.95944 22.773C7.36611 24.233 5.41611 26.443 5.41611 29.1663V29.3363C5.41444 31.273 5.41278 33.703 7.54444 35.4397C8.59278 36.293 10.0611 36.9013 12.0444 37.3013C14.0311 37.7047 16.6228 37.9163 19.9994 37.9163C23.3761 37.9163 25.9661 37.7047 27.9561 37.3013C29.9394 36.9013 31.4061 36.293 32.4561 35.4397C34.5878 33.703 34.5844 31.273 34.5828 29.3363V29.1663C34.5828 26.443 32.6328 24.233 30.0411 22.773C27.4078 21.293 23.8561 20.4163 19.9994 20.4163ZM7.91611 29.1663C7.91611 27.748 8.95278 26.208 11.1844 24.953C13.3778 23.7197 16.4911 22.9163 20.0011 22.9163C23.5078 22.9163 26.6211 23.7197 28.8144 24.953C31.0478 26.208 32.0828 27.748 32.0828 29.1663C32.0828 31.3463 32.0161 32.573 30.8761 33.4997C30.2594 34.003 29.2261 34.4947 27.4594 34.8513C25.6978 35.208 23.2894 35.4163 19.9994 35.4163C16.7094 35.4163 14.2994 35.208 12.5394 34.8513C10.7728 34.4947 9.73944 34.003 9.12278 33.5013C7.98278 32.573 7.91611 31.3463 7.91611 29.1663Z" fill="#7D7D7D"/>
</svg>
